<svg width="671" height="500" viewBox="0 0 671 500" fill="none" xmlns="http://www.w3.org/2000/svg">
<g clip-path="url(#clip0_80_1181)">
<path d="M670.976 439.4H0.0332031V439.736H670.976V439.4Z" fill="#EBEBEB"/>
<path d="M603.744 460.991H574.652V461.327H603.744V460.991Z" fill="#EBEBEB"/>
<path d="M462.539 454.027H416.768V454.363H462.539V454.027Z" fill="#EBEBEB"/>
<path d="M591.965 448.539H532.211V448.874H591.965V448.539Z" fill="#EBEBEB"/>
<path d="M232.204 455.302H217.256V455.637H232.204V455.302Z" fill="#EBEBEB"/>
<path d="M205.298 455.302H153.783V455.637H205.298V455.302Z" fill="#EBEBEB"/>
<path d="M126.182 449.639H89.0117V449.974H126.182V449.639Z" fill="#EBEBEB"/>
<path d="M289.975 195.821L290.579 178.189L279.75 174.646C279.307 168.621 278.301 162.677 276.865 156.933L286.043 150.17L279.817 133.612L268.465 134.524C265.754 129.17 262.574 124.071 259.018 119.294L264.895 109.484L252.805 96.5889L242.66 101.782C238.084 97.9039 233.267 94.3748 228.114 91.275L229.751 80.0166L213.648 72.7033L206.268 81.3451C200.646 79.5201 194.822 78.1514 188.797 77.2523L186.059 66.2086L168.373 65.6047L164.884 76.4338C158.806 76.9303 152.915 77.883 147.171 79.3188L140.355 70.194L123.796 76.3801L124.708 87.7324C119.354 90.4833 114.255 93.6636 109.478 97.2196L99.709 91.3421L86.7598 103.379L91.9529 113.577C88.0748 118.099 84.5457 122.97 81.4862 128.123L70.2278 126.432L62.8742 142.535L71.5696 149.915C69.7447 155.538 68.3357 161.402 67.4769 167.387L56.3929 170.178L55.7891 187.81L66.6583 191.353C67.1012 197.418 68.1076 203.322 69.5434 209.052L60.3649 215.815L66.5912 232.374L77.9436 231.462C80.6542 236.816 83.8345 241.915 87.3905 246.692L81.513 256.501L93.6034 269.397L103.748 264.204C108.27 268.082 113.141 271.611 118.294 274.724L116.603 285.983L132.706 293.296L140.127 284.654C145.749 286.479 151.573 287.848 157.598 288.747L160.335 299.791L178.021 300.394L181.51 289.565C187.576 289.069 193.48 288.116 199.21 286.68L205.973 295.805L222.532 289.619L221.66 278.267C227.014 275.516 232.059 272.336 236.89 268.766L246.659 274.644L259.608 262.607L254.415 252.409C258.293 247.886 261.822 243.015 264.882 237.863L276.14 239.553L283.494 223.451L274.798 216.07C276.623 210.448 278.032 204.624 278.891 198.599L289.935 195.808L289.975 195.821ZM170.829 252.945C132.209 251.617 101.977 219.237 103.292 180.618C104.62 141.958 137 111.712 175.619 113.04C214.239 114.369 244.472 146.749 243.157 185.408C241.828 224.028 209.448 254.26 170.829 252.945Z" fill="#E9E9E9"/>
<path d="M591.755 137.503L596.197 133.357L594.426 129.854C595.781 128.271 596.989 126.58 598.035 124.836L601.927 125.426L604.45 119.871L601.457 117.321C602.101 115.362 602.571 113.336 602.866 111.309L606.69 110.357L606.892 104.264L603.148 103.057C602.987 100.99 602.665 98.964 602.168 96.9512L605.322 94.6029L603.175 88.8998L599.27 89.2085C598.344 87.3969 597.257 85.6391 596.009 83.9483L598.035 80.5936L593.875 76.1385L590.387 77.9232C588.79 76.5679 587.112 75.3602 585.368 74.3135L585.931 70.4221L580.389 67.8859L577.84 70.8783C575.867 70.2476 573.841 69.778 571.815 69.4827L570.862 65.6718L564.77 65.4571L563.549 69.2144C561.496 69.3754 559.456 69.6975 557.443 70.2074L555.108 67.0539L549.392 69.1875L549.714 73.1058C547.902 74.0317 546.118 75.1187 544.454 76.3666L541.072 74.3404L536.631 78.4868L538.415 82.0025C537.047 83.586 535.852 85.2767 534.806 87.0212L530.914 86.4308L528.391 91.9862L531.384 94.5358C530.74 96.4949 530.27 98.5212 529.975 100.547L526.15 101.5L525.949 107.592L529.693 108.8C529.854 110.853 530.176 112.893 530.673 114.906L527.519 117.24L529.666 122.943L533.585 122.648C534.51 124.46 535.597 126.218 536.845 127.908L534.819 131.263L538.979 135.718L542.468 133.934C544.065 135.289 545.742 136.497 547.486 137.543L546.909 141.421L552.451 143.957L555.001 140.978C556.974 141.609 558.986 142.065 561.026 142.374L561.979 146.185L568.071 146.4L569.292 142.642C571.345 142.481 573.385 142.159 575.398 141.649L577.733 144.803L583.449 142.669L583.127 138.751C584.938 137.825 586.71 136.751 588.387 135.49L591.755 137.503ZM560.06 111.833C556.786 108.33 556.974 102.829 560.476 99.5678C563.978 96.2936 569.48 96.4815 572.754 99.9838C576.028 103.486 575.841 108.988 572.325 112.262C568.822 115.536 563.321 115.348 560.06 111.846V111.833Z" fill="#E9E9E9"/>
<path d="M429.426 318.537L415.551 308.956V308.929C414.182 303.883 412.29 299.039 409.968 294.477L413.524 280.521L393.396 258.97L379.226 261.56C374.838 258.944 370.128 256.716 365.203 255.012C365.203 255.012 365.176 255.012 365.163 255.012L356.548 240.506L327.08 239.5L317.499 253.375C317.499 253.375 317.459 253.375 317.445 253.375C312.413 254.744 307.556 256.636 303.007 258.944L289.064 255.388L267.514 275.516L270.104 289.659C267.433 294.101 265.259 298.811 263.555 303.736L249.049 312.351L248.043 341.832L261.931 351.426C263.3 356.499 265.139 361.343 267.5 365.946L263.958 379.861L284.086 401.412L298.162 398.835C302.604 401.465 307.327 403.679 312.319 405.397L320.921 419.876L350.389 420.882L359.97 407.021C365.069 405.652 369.926 403.76 374.529 401.438L388.418 404.981L409.968 384.853L407.378 370.709C410.049 366.268 412.223 361.558 413.927 356.619L428.433 348.005L429.439 318.523L429.426 318.537ZM337.574 363.342C319.257 362.712 304.939 347.334 305.57 329.057C306.2 310.74 321.525 296.422 339.855 297.053C358.172 297.684 372.489 313.008 371.859 331.338C371.228 349.601 355.904 363.973 337.574 363.342Z" fill="#E9E9E9"/>
<path d="M461.039 234.83C461.039 234.83 460.972 234.83 460.945 234.83L437.704 234.038C436.737 234.011 435.852 233.488 435.369 232.656L429.115 222.122C425.788 220.915 422.513 219.398 419.347 217.587L409.269 219.425C408.316 219.6 407.35 219.277 406.693 218.566L390.818 201.578C390.161 200.867 389.906 199.874 390.147 198.948L392.683 189.005C391.14 185.851 389.852 182.496 388.845 178.981L378.741 172.003C377.949 171.453 377.48 170.54 377.52 169.574L378.312 146.333C378.339 145.366 378.862 144.481 379.694 143.998L390.254 137.731C391.502 134.309 393.019 131.035 394.777 128.002L392.925 117.898C392.75 116.945 393.072 115.979 393.784 115.322L410.785 99.4471C411.497 98.7896 412.49 98.5346 413.415 98.7761L423.386 101.326C426.62 99.7557 429.961 98.4675 433.383 97.4745L440.361 87.3701C440.911 86.5784 441.81 86.0819 442.789 86.149L466.031 86.9407C466.997 86.9675 467.883 87.4909 468.366 88.3229L474.632 98.8835C477.96 100.105 481.221 101.621 484.334 103.406L494.465 101.554C495.418 101.379 496.384 101.701 497.042 102.413L512.916 119.414C513.574 120.126 513.829 121.119 513.587 122.044L511.038 132.028C512.608 135.262 513.896 138.603 514.889 142.025L524.98 149.003C525.772 149.553 526.228 150.466 526.201 151.432L525.409 174.673C525.382 175.639 524.859 176.525 524.027 177.008L513.466 183.275C512.218 186.696 510.702 189.957 508.944 192.99L510.796 203.108C510.971 204.06 510.648 205.027 509.937 205.684L492.949 221.545C492.238 222.203 491.258 222.458 490.319 222.216L480.389 219.68C477.115 221.263 473.747 222.552 470.338 223.531L463.374 233.622C462.837 234.387 461.978 234.843 461.039 234.843V234.83ZM439.448 228.429L459.59 229.114L466.259 219.452C466.635 218.902 467.212 218.499 467.856 218.325C471.559 217.332 475.25 215.923 478.792 214.125C478.792 214.125 478.792 214.125 478.806 214.125C479.396 213.829 480.094 213.749 480.765 213.923L490.212 216.325L504.945 202.571L503.188 192.95C503.067 192.265 503.188 191.568 503.55 190.977C505.496 187.757 507.146 184.214 508.448 180.47C508.662 179.799 509.119 179.249 509.709 178.9L519.8 172.902L520.484 152.76L510.823 146.091C510.313 145.742 509.937 145.232 509.749 144.655C509.723 144.588 509.709 144.508 509.682 144.427C508.676 140.723 507.267 137.087 505.509 133.625C505.2 133.008 505.12 132.31 505.294 131.639L507.71 122.138L493.955 107.404L484.307 109.176C483.636 109.297 482.939 109.176 482.348 108.827C478.993 106.827 475.451 105.177 471.814 103.902C471.613 103.835 471.398 103.741 471.224 103.62C470.835 103.379 470.513 103.043 470.271 102.654L464.273 92.5498L444.131 91.8654L437.462 101.527C437.059 102.104 436.469 102.507 435.798 102.668C432.068 103.687 428.445 105.083 424.996 106.841C424.379 107.15 423.681 107.23 423.01 107.056L413.509 104.64L398.775 118.395L400.533 128.016C400.641 128.62 400.56 129.25 400.278 129.787C400.238 129.868 400.198 129.935 400.144 130.015C398.198 133.249 396.548 136.805 395.246 140.562C395.032 141.193 394.589 141.73 394.012 142.065L383.907 148.064L383.223 168.205L392.898 174.888C393.448 175.264 393.851 175.827 394.025 176.485C395.072 180.349 396.467 184.013 398.198 187.381C398.292 187.569 398.373 187.783 398.427 187.985C398.534 188.441 398.534 188.911 398.427 189.367L396.011 198.827L409.765 213.561L419.347 211.803C420.018 211.682 420.715 211.803 421.292 212.152C424.714 214.165 428.27 215.829 431.88 217.077C432.537 217.278 433.101 217.721 433.45 218.325L439.435 228.416L439.448 228.429ZM451.887 202.974C451.391 202.974 450.894 202.974 450.398 202.947C426.982 202.142 408.598 182.443 409.39 159.04C410.195 135.624 429.921 117.24 453.296 118.032C476.712 118.837 495.096 138.536 494.304 161.939C493.915 173.264 489.138 183.771 480.845 191.514C472.915 198.934 462.676 202.96 451.874 202.96L451.887 202.974ZM451.834 123.682C432.108 123.682 415.737 139.382 415.053 159.242C414.355 179.531 430.296 196.6 450.586 197.297C460.422 197.633 469.788 194.117 476.981 187.394C484.16 180.685 488.306 171.573 488.642 161.764C489.339 141.475 473.398 124.406 453.108 123.708C452.679 123.695 452.25 123.682 451.834 123.682Z" fill="#E9E9E9"/>
<path d="M514.567 67.5908L504.945 65.001L502.355 55.3796L506.126 51.6089L510.098 59.8481L518.337 63.8201L514.567 67.5908Z" fill="#E0E0E0"/>
<path d="M515.156 61.1498C516.914 59.3919 516.914 56.5337 515.156 54.7893C513.398 53.0314 510.553 53.0448 508.809 54.7893L513.599 47.6102L520.027 50.8575L521.436 57.6072L515.169 61.1498H515.156Z" fill="#E0E0E0"/>
<path d="M505.359 52.3738L512.418 45.3155L522.039 47.9053L524.629 57.5266L517.571 64.585L507.949 61.9951L505.359 52.3738ZM518.174 58.1439C519.932 56.386 519.932 53.5278 518.174 51.7834C516.417 50.0255 513.572 50.0389 511.827 51.7834C510.069 53.5412 510.069 56.3726 511.827 58.1171C513.585 59.875 516.43 59.8884 518.174 58.1171V58.1439Z" fill="#F0F0F0"/>
<path d="M121.097 324.414L126.263 323.019L127.645 317.852L125.632 315.84L123.499 320.254L119.07 322.388L121.097 324.414Z" fill="#E0E0E0"/>
<path d="M120.775 320.952C119.835 320.013 119.835 318.483 120.775 317.53C121.714 316.578 123.244 316.591 124.183 317.53L121.62 313.679L118.171 315.424L117.42 319.047L120.775 320.952Z" fill="#E0E0E0"/>
<path d="M126.034 316.242L122.25 312.458L117.083 313.84L115.701 319.006L119.485 322.791L124.652 321.408L126.034 316.242ZM119.163 319.342C118.224 318.403 118.224 316.873 119.163 315.92C120.103 314.967 121.632 314.981 122.572 315.92C123.511 316.859 123.511 318.376 122.572 319.328C121.632 320.281 120.103 320.281 119.163 319.328V319.342Z" fill="#F0F0F0"/>
<path d="M102.501 41.2092L106.782 45.4898C107.896 46.6036 109.721 46.6036 110.834 45.4898C111.948 44.3761 111.948 42.5511 110.834 41.4373L106.554 37.1567C105.44 36.043 103.615 36.043 102.501 37.1567C101.388 38.2705 101.388 40.0955 102.501 41.2092Z" fill="#F0F0F0"/>
<path d="M99.479 30.5278C102.78 29.347 106.363 30.8901 107.477 33.9899C108.59 37.0897 106.819 40.5651 103.518 41.7594C100.217 42.9403 96.6342 41.3971 95.5205 38.2973C94.4067 35.1976 96.178 31.7221 99.479 30.5278Z" fill="#E0E0E0"/>
<path d="M94.8082 37.5756L95.4297 39.3058L108.185 34.7238L107.563 32.9936L94.8082 37.5756Z" fill="#F0F0F0"/>
<path d="M335.5 500C479.193 500 595.679 493.199 595.679 484.81C595.679 476.421 479.193 469.62 335.5 469.62C191.808 469.62 75.3223 476.421 75.3223 484.81C75.3223 493.199 191.808 500 335.5 500Z" fill="#F5F5F5"/>
<path d="M116.402 88.1485C115.06 82.2442 115.664 77.2658 118.2 73.2267C120.749 69.1876 124.949 66.5038 130.827 65.1619C136.852 63.7932 141.857 64.3568 145.856 66.8527C149.855 69.3486 152.512 73.5085 153.84 79.3323C154.806 83.5592 154.874 87.1957 154.068 90.2284C153.263 93.261 151.68 95.8375 149.332 97.9576C146.983 100.078 143.803 101.594 139.777 102.507C135.698 103.433 132.169 103.553 129.203 102.856C126.238 102.158 123.594 100.601 121.3 98.1589C118.992 95.7167 117.368 92.3888 116.402 88.1619V88.1485ZM127.593 85.666C128.425 89.3159 129.7 91.7984 131.417 93.0732C133.135 94.3614 135.161 94.7371 137.51 94.2004C139.911 93.6502 141.589 92.4559 142.555 90.5907C143.521 88.7255 143.535 85.7733 142.622 81.7208C141.844 78.3124 140.596 75.9775 138.865 74.7162C137.134 73.4548 135.094 73.0925 132.732 73.6292C130.478 74.1392 128.841 75.3469 127.848 77.2523C126.842 79.1578 126.761 81.9624 127.606 85.6391L127.593 85.666Z" fill="#FF8E77"/>
<path d="M159.17 83.7203C158.258 79.7214 158.861 76.1118 160.968 72.9047C163.075 69.6975 166.43 67.5774 171.019 66.5307C176.266 65.3364 180.587 65.9537 183.955 68.3959C186.665 70.3551 188.437 73.1328 189.255 76.729C190.168 80.7681 189.591 84.3778 187.497 87.558C185.404 90.7383 181.995 92.8719 177.272 93.9454C173.059 94.8982 169.409 94.6164 166.322 93.0598C162.525 91.1409 160.136 88.0277 159.157 83.7337L159.17 83.7203ZM169.248 81.4122C169.784 83.7471 170.643 85.3708 171.851 86.2698C173.045 87.1689 174.374 87.4641 175.796 87.1421C177.245 86.8066 178.305 85.988 178.99 84.673C179.674 83.3579 179.728 81.4793 179.178 79.0505C178.654 76.7827 177.809 75.1859 176.615 74.3002C175.42 73.4011 174.132 73.1059 172.75 73.428C171.287 73.7635 170.2 74.5954 169.503 75.9507C168.805 77.2926 168.711 79.1176 169.248 81.4256V81.4122Z" fill="#FF8E77"/>
<path d="M199.407 98.7762L191.182 62.5721L200.588 60.4385L201.474 64.3165C202.4 62.3977 203.353 61.0155 204.305 60.197C205.593 59.0966 207.123 58.3317 208.908 57.9292C212.41 57.1375 215.43 57.8621 217.952 60.103C220.475 62.344 222.193 65.4437 223.092 69.4023C224.085 73.7634 223.789 77.3328 222.233 80.0971C220.663 82.8748 218.288 84.6193 215.094 85.3439C213.551 85.6928 212.075 85.7465 210.679 85.5183C209.284 85.2768 207.969 84.7535 206.721 83.9483L209.565 96.4681L199.421 98.7762H199.407ZM204.252 73.4816C204.721 75.5615 205.513 76.9974 206.613 77.8025C207.714 78.6076 208.935 78.8626 210.263 78.554C211.431 78.2856 212.303 77.5878 212.88 76.4472C213.457 75.3066 213.47 73.5756 212.947 71.2809C212.464 69.1608 211.699 67.6981 210.652 66.8795C209.606 66.0744 208.492 65.806 207.298 66.0744C206.009 66.3696 205.057 67.1077 204.426 68.3154C203.795 69.5096 203.742 71.2407 204.252 73.495V73.4816Z" fill="#FF8E77"/>
<path d="M227.385 74.2733L237.141 71.0662C237.825 72.1531 238.59 72.8777 239.449 73.2132C240.307 73.5487 241.354 73.5889 242.589 73.3071C243.944 72.9985 244.923 72.4752 245.527 71.7371C246.01 71.1735 246.171 70.5831 246.024 69.939C245.863 69.2144 245.353 68.7447 244.508 68.5166C243.904 68.3556 242.387 68.3422 239.945 68.4629C236.322 68.6508 233.759 68.6374 232.283 68.4227C230.807 68.208 229.465 67.5907 228.257 66.5709C227.05 65.551 226.258 64.2494 225.909 62.666C225.52 60.935 225.681 59.3381 226.405 57.862C227.13 56.386 228.298 55.138 229.921 54.1182C231.545 53.0983 233.84 52.253 236.792 51.582C239.918 50.8708 242.28 50.589 243.877 50.7232C245.474 50.8574 246.883 51.3271 248.104 52.0919C249.325 52.8702 250.465 54.0377 251.512 55.6077L242.199 58.7074C241.757 57.9291 241.206 57.4058 240.549 57.1374C239.636 56.7885 238.63 56.7483 237.503 57.0032C236.362 57.2582 235.584 57.6473 235.155 58.1707C234.725 58.694 234.578 59.2442 234.712 59.8212C234.859 60.4653 235.302 60.8679 236.027 61.0557C236.765 61.2302 238.254 61.2033 240.522 60.9618C243.944 60.5861 246.561 60.5458 248.332 60.841C250.117 61.1497 251.579 61.8206 252.733 62.8807C253.887 63.9408 254.625 65.2156 254.961 66.7051C255.31 68.2214 255.176 69.7914 254.598 71.4285C254.008 73.0656 252.827 74.5283 251.056 75.8299C249.285 77.1181 246.695 78.1513 243.313 78.9296C238.523 80.0166 234.953 80.1105 232.618 79.2114C230.27 78.3124 228.526 76.6619 227.385 74.2733Z" fill="#FF8E77"/>
<path d="M260.16 41.0751L271.177 41.008L271.231 49.4619L269.204 66.4636L262.388 66.5038L260.214 49.529L260.16 41.0751ZM260.697 69.1071L270.976 69.0534L271.029 78.138L260.751 78.1916L260.697 69.1071Z" fill="#FF8E77"/>
<path d="M172.708 156.504C172.628 156.504 172.547 156.491 172.467 156.464C166.428 154.129 162.818 151.834 160.94 149.097C159.571 149.365 158.055 149.191 156.605 148.507C155.197 147.836 153.841 146.668 152.875 144.991C151.963 145.689 150.849 145.876 149.614 145.501C148.246 145.071 146.837 143.931 145.656 142.267C144.904 142.804 144.139 142.884 143.576 142.844C139.59 142.522 134.183 134.578 133.793 126.11C133.78 125.735 134.062 125.426 134.438 125.413C134.8 125.386 135.122 125.681 135.135 126.057C135.498 134.095 140.65 141.26 143.683 141.502C144.18 141.556 144.582 141.395 144.931 141.126C143.106 137.932 142.167 133.37 143.562 128.499C144.716 124.473 145.736 122.89 146.957 123.185C149.265 123.762 148.97 132.538 147.736 138.335C147.454 139.65 147.051 140.589 146.595 141.26C147.655 142.83 148.903 143.877 150.003 144.226C150.983 144.535 151.708 144.28 152.244 143.756C151.184 141.153 150.97 137.624 152.405 133.102C154.284 127.157 155.049 126.996 155.505 126.902C155.827 126.835 156.149 126.942 156.364 127.197C157.598 128.593 156.122 137.825 154.566 142.388C154.365 142.978 154.11 143.501 153.814 143.944C154.646 145.581 155.881 146.695 157.156 147.299C158.189 147.795 159.249 147.97 160.202 147.876C160.081 147.621 159.974 147.366 159.88 147.098C158.82 144.213 159.33 140.885 161.463 136.926C162.886 134.296 164.04 133.075 165.1 133.075C165.422 133.075 165.999 133.196 166.428 133.96C167.596 136.121 166.75 143.246 164.442 146.776C163.892 147.607 163.14 148.238 162.268 148.654C164.066 151.016 167.475 153.096 172.936 155.216C173.285 155.35 173.46 155.739 173.325 156.088C173.218 156.357 172.963 156.518 172.695 156.518L172.708 156.504ZM165.126 134.403C165.126 134.403 164.362 134.403 162.671 137.557C160.725 141.153 160.242 144.119 161.154 146.628C161.262 146.937 161.396 147.232 161.557 147.527C162.268 147.218 162.886 146.722 163.328 146.051C165.207 143.179 166.106 137.275 165.408 134.967C165.261 134.497 165.113 134.417 165.113 134.417L165.126 134.403ZM155.492 128.754C155.143 129.412 154.566 130.74 153.694 133.491C152.54 137.127 152.54 140.039 153.184 142.28C153.224 142.173 153.264 142.052 153.304 141.945C154.888 137.329 155.653 130.982 155.492 128.754ZM146.662 124.527C146.434 124.742 145.79 125.587 144.851 128.848C143.616 133.155 144.381 137.087 145.83 139.918C146.112 139.341 146.3 138.671 146.434 138.04C147.83 131.451 147.427 125.493 146.662 124.54V124.527Z" fill="#FF8E77"/>
<path d="M223.726 226.832C221.687 226.832 219.526 226.363 217.607 225.236C217.285 225.048 217.178 224.632 217.366 224.323C217.554 224.001 217.97 223.894 218.278 224.082C223.069 226.886 229.255 224.927 230.53 222.887C230.677 222.646 230.812 222.337 230.731 221.988C228.839 222.189 226.504 221.693 223.847 220.016C220.439 217.882 220.17 217.251 220.184 216.741C220.184 216.446 220.372 216.178 220.64 216.044C221.982 215.373 228.034 218.15 230.557 219.814C230.892 220.029 231.16 220.271 231.389 220.512C232.502 220.244 233.375 219.667 233.938 218.969C234.327 218.499 234.596 217.976 234.73 217.466C234.636 217.466 234.555 217.493 234.461 217.493C232.314 217.708 230.167 216.782 227.873 214.675C226.303 213.212 225.686 212.219 225.887 211.414C225.954 211.159 226.169 210.703 226.853 210.542C228.705 210.086 233.294 212.031 235.159 214.084C235.575 214.541 235.87 215.091 236.018 215.668C237.763 214.849 239.628 212.998 241.815 209.938C242.03 209.643 242.446 209.562 242.754 209.777C243.05 209.992 243.13 210.408 242.915 210.716C240.379 214.259 238.272 216.272 236.139 217.09C236.058 218.03 235.669 218.996 234.971 219.828C234.287 220.646 233.294 221.344 232.046 221.72C232.18 222.324 232.046 222.968 231.67 223.585C230.543 225.41 227.296 226.832 223.726 226.832ZM222.532 217.533C222.988 217.869 223.632 218.311 224.558 218.888C226.383 220.029 228.007 220.552 229.389 220.66C227.162 219.278 224.263 218.056 222.532 217.533ZM227.215 211.83C227.296 212.045 227.591 212.595 228.785 213.695C230.785 215.534 232.596 216.366 234.327 216.164C234.475 216.151 234.609 216.124 234.757 216.097C234.663 215.695 234.462 215.319 234.18 214.984C232.288 212.917 228.141 211.602 227.229 211.817L227.215 211.83Z" fill="#FF8E77"/>
<path d="M241.492 224.994L220.585 228.792L201.598 125.185L161.26 132.511L95.5215 249.255L102.58 287.781L186.904 272.47L192.674 303.977L233.011 296.651L227.241 265.143L248.148 261.346L241.492 225.007V224.994ZM135.684 244.223L170.519 183.074L180.235 236.132L135.684 244.223Z" fill="#FA350C"/>
<path d="M409.886 118.14C409.107 110.987 407.672 104.627 405.592 99.0581C403.512 93.5026 400.385 88.0412 396.212 82.7005C392.039 77.3598 386.349 72.7168 379.17 68.7851C371.978 64.8534 362.49 62.1159 350.695 60.5862C326.152 57.3925 307.017 61.7402 293.289 73.6562C279.562 85.5721 270.531 108.384 266.183 142.106C264.412 155.82 263.983 168.501 264.868 180.135C265.754 191.782 267.901 201.135 271.282 208.22C275.912 218.177 282.46 226.121 290.941 232.066C299.408 238.01 311.016 241.942 325.763 243.861C352.064 247.283 371.548 242.237 384.229 228.711C396.91 215.185 405.323 192.333 409.47 160.141C411.322 145.783 411.456 131.773 409.899 118.113L409.886 118.14Z" fill="#FA350C"/>
<path d="M337.881 230.107C334.66 229.999 331.225 229.704 327.669 229.248C315.391 227.651 305.877 224.538 299.423 220.002C293.049 215.534 288.218 209.643 284.675 202.007L284.608 201.873C282.032 196.479 280.341 188.79 279.603 179.021C278.784 168.433 279.2 156.652 280.837 143.998C285.628 106.801 295.518 91.2751 302.979 84.8072C311.674 77.2658 323.402 73.8574 338.847 74.3807C342.014 74.4881 345.369 74.7699 348.804 75.2261C358.72 76.5143 366.557 78.715 372.112 81.7477C377.493 84.6864 381.694 88.068 384.605 91.7984C387.826 95.9314 390.241 100.105 391.785 104.238C393.422 108.626 394.589 113.846 395.233 119.75C396.669 132.243 396.521 145.179 394.844 158.289C391.127 187.193 383.934 207.496 373.481 218.647C365.725 226.926 354.091 230.67 337.908 230.12L337.881 230.107Z" fill="#FF8E77"/>
<path d="M364.137 118.529L364.312 113.443L361.185 112.423C361.051 110.692 360.769 108.975 360.353 107.324L362.997 105.378L361.199 100.601L357.925 100.87C357.146 99.3264 356.234 97.8637 355.201 96.4816L356.891 93.6502L353.402 89.9332L350.477 91.4361C349.162 90.3223 347.766 89.3025 346.29 88.4034L346.76 85.1561L342.117 83.0493L339.997 85.5452C338.373 85.0219 336.696 84.6327 334.965 84.3644L334.173 81.1841L329.074 81.0096L328.068 84.1362C326.323 84.2838 324.619 84.5522 322.968 84.9682L321.009 82.3381L316.232 84.1228L316.501 87.397C314.957 88.1887 313.495 89.1012 312.113 90.1345L309.295 88.4437L305.564 91.9192L307.067 94.8579C305.953 96.1595 304.933 97.5685 304.048 99.0446L300.8 98.5615L298.68 103.204L301.19 105.325C300.666 106.948 300.25 108.639 300.009 110.357L296.815 111.162L296.641 116.248L299.781 117.267C299.915 119.012 300.197 120.716 300.613 122.367L297.969 124.312L299.767 129.089L303.041 128.821C303.82 130.364 304.732 131.827 305.765 133.209L304.075 136.04L307.564 139.757L310.489 138.254C311.791 139.368 313.199 140.388 314.676 141.287L314.192 144.535L318.835 146.641L320.969 144.145C322.593 144.669 324.27 145.058 326.001 145.326L326.793 148.506L331.892 148.681L332.898 145.554C334.643 145.407 336.347 145.138 337.998 144.722L339.943 147.352L344.72 145.568L344.465 142.294C346.009 141.502 347.471 140.589 348.853 139.556L351.671 141.247L355.402 137.771L353.899 134.833C355.013 133.531 356.032 132.122 356.918 130.646L360.166 131.129L362.286 126.486L359.776 124.366C360.3 122.742 360.702 121.065 360.957 119.334L364.137 118.529ZM329.785 135.007C318.648 134.631 309.939 125.292 310.314 114.154C310.69 103.003 320.03 94.2943 331.167 94.67C342.305 95.0458 351.014 104.385 350.638 115.536C350.262 126.674 340.923 135.383 329.785 135.007Z" fill="#FA350C"/>
<path opacity="0.3" d="M385.317 211.897L385.68 208.475L383.627 207.63C383.627 206.449 383.519 205.282 383.318 204.155L385.197 202.96L384.244 199.646H382.016C381.56 198.586 381.037 197.539 380.406 196.56L381.681 194.735L379.52 192.051L377.467 192.91C376.649 192.091 375.763 191.34 374.797 190.669L375.293 188.481L372.274 186.817L370.691 188.414C369.604 187.958 368.49 187.623 367.363 187.354L366.987 185.153L363.565 184.764L362.72 186.817C361.539 186.817 360.385 186.938 359.245 187.139L358.05 185.247L354.736 186.214V188.441C353.689 188.897 352.642 189.421 351.649 190.051L349.824 188.763L347.141 190.924L348 192.977C347.208 193.795 346.43 194.681 345.759 195.647L343.598 195.164L341.934 198.183L343.518 199.74C343.075 200.84 342.726 201.94 342.458 203.081L340.257 203.443L339.895 206.865L341.948 207.724C341.948 208.891 342.055 210.045 342.256 211.186L340.364 212.38L341.33 215.695H343.558C344.014 216.755 344.537 217.802 345.168 218.781L343.88 220.606L346.027 223.303L348.093 222.431C348.912 223.25 349.798 224.001 350.764 224.672L350.267 226.859L353.287 228.523L354.87 226.94C355.957 227.383 357.071 227.718 358.198 227.986L358.574 230.187L361.995 230.576L362.841 228.51C364.008 228.51 365.176 228.389 366.316 228.188L367.511 230.08L370.812 229.114V226.886C371.872 226.43 372.918 225.907 373.911 225.276L375.723 226.564L378.42 224.417L377.548 222.364C378.366 221.545 379.118 220.66 379.802 219.694L381.963 220.177L383.627 217.157L382.043 215.601C382.486 214.501 382.821 213.4 383.09 212.273L385.304 211.897H385.317ZM368.047 210.569C366.45 213.467 362.814 214.541 359.915 212.944C357.017 211.347 355.97 207.711 357.554 204.812C359.151 201.914 362.774 200.867 365.672 202.45C368.571 204.047 369.644 207.67 368.047 210.569Z" fill="#FA350C"/>
<path d="M404.329 153.914L400.33 151.15C399.941 149.701 399.391 148.292 398.72 146.99L399.739 142.965L393.943 136.752L389.863 137.503C388.602 136.752 387.247 136.108 385.824 135.611L383.342 131.424L374.847 131.129L372.083 135.128C372.083 135.128 372.083 135.128 372.07 135.128C370.621 135.517 369.225 136.067 367.91 136.738L363.884 135.718L357.671 141.515L358.423 145.595C357.658 146.869 357.027 148.238 356.531 149.647L352.344 152.13L352.049 160.624L356.048 163.388C356.437 164.851 356.974 166.246 357.658 167.575L356.638 171.587L362.435 177.8L366.488 177.062C367.762 177.813 369.131 178.457 370.567 178.954L373.049 183.127L381.543 183.422L384.308 179.424C385.77 179.034 387.179 178.484 388.508 177.813L392.507 178.833L398.72 173.036L397.968 168.957C398.733 167.682 399.364 166.313 399.86 164.891L404.047 162.409L404.342 153.914H404.329ZM377.853 166.823C372.566 166.649 368.447 162.207 368.621 156.947C368.796 151.66 373.224 147.54 378.497 147.715C383.784 147.889 387.904 152.318 387.73 157.591C387.555 162.851 383.127 166.998 377.853 166.823Z" fill="white"/>
<path d="M433.515 86.1089L434.213 84.4181C434.709 84.1631 435.193 83.8411 435.622 83.5056L437.179 83.5593L439.004 80.9426L438.413 79.5068C438.588 78.9835 438.722 78.4333 438.789 77.8697L440.131 76.6352L439.567 73.4951L437.876 72.7974C437.621 72.3009 437.313 71.8312 436.964 71.4018L437.018 69.8452L434.401 68.0203L432.965 68.6107C432.428 68.4228 431.892 68.302 431.328 68.235L430.093 66.8931L426.953 67.4567L426.256 69.1474C425.746 69.4024 425.276 69.711 424.847 70.0599L423.29 70.0062L421.465 72.6229L422.056 74.0587C421.881 74.5821 421.747 75.1322 421.68 75.7093L420.338 76.9438L420.902 80.0838L422.592 80.7816C422.847 81.2915 423.169 81.7612 423.518 82.1906L423.464 83.7337L426.081 85.5587L427.517 84.9683C428.054 85.1561 428.59 85.2769 429.154 85.344L430.402 86.6859L433.542 86.1223L433.515 86.1089ZM426.685 77.4C426.336 75.4409 427.638 73.5891 429.583 73.2402C431.543 72.8913 433.394 74.1929 433.743 76.1387C434.092 78.0844 432.791 79.9496 430.845 80.2985C428.899 80.6474 427.034 79.3458 426.685 77.4Z" fill="#FA350C"/>
<path d="M396.711 77.2121L395.691 76.3533C397.476 74.2466 399.999 71.5762 403.756 69.6036L404.373 70.7979C400.375 72.8913 397.812 75.9239 396.711 77.2255V77.2121Z" fill="#FA350C"/>
<path d="M407.416 69.5768L406.893 68.3423C411.965 66.1684 417.265 65.323 422.646 65.8195L422.526 67.1614C417.373 66.6649 412.3 67.4969 407.429 69.5768H407.416Z" fill="#FA350C"/>
<path d="M404.881 78.8626L403.768 78.1111C406.518 74.0587 411.966 70.5429 417.012 69.5365L417.267 70.8515C412.544 71.7909 407.444 75.0785 404.868 78.8626H404.881Z" fill="#FA350C"/>
<path d="M315.834 207.992C315.66 207.992 315.485 207.925 315.351 207.791L312.533 204.893C311.097 204.758 309.688 204.49 308.306 204.101L303.918 206.033C303.703 206.127 303.462 206.1 303.274 205.979L295.921 201.108C295.733 200.988 295.612 200.773 295.625 200.545L295.692 195.768C294.793 194.654 294.002 193.446 293.317 192.171L289.547 190.709C289.332 190.628 289.171 190.44 289.131 190.212L287.373 181.571C287.332 181.342 287.4 181.114 287.561 180.953L290.459 178.135C290.593 176.713 290.862 175.291 291.237 173.908L289.305 169.534C289.211 169.319 289.238 169.078 289.359 168.89L294.23 161.536C294.351 161.348 294.538 161.228 294.793 161.241L299.57 161.308C300.698 160.409 301.905 159.617 303.167 158.946L304.629 155.176C304.71 154.961 304.898 154.8 305.126 154.76L313.768 153.002C313.996 152.962 314.224 153.029 314.385 153.19L317.189 156.088C318.612 156.222 320.034 156.491 321.416 156.866L325.791 154.934C326.006 154.84 326.247 154.867 326.435 154.988L333.789 159.859C333.976 159.98 334.097 160.194 334.084 160.422L334.017 165.213C334.916 166.327 335.707 167.534 336.378 168.796L340.149 170.258C340.364 170.339 340.525 170.527 340.565 170.755L342.323 179.397C342.363 179.625 342.296 179.853 342.135 180.014L339.237 182.832C339.102 184.241 338.834 185.663 338.445 187.045L340.377 191.433C340.471 191.648 340.444 191.89 340.324 192.078L335.453 199.418C335.332 199.606 335.13 199.699 334.889 199.713L330.112 199.646C328.998 200.531 327.79 201.323 326.516 202.007L325.053 205.778C324.972 205.993 324.784 206.154 324.556 206.194L315.915 207.952C315.915 207.952 315.821 207.952 315.78 207.952L315.834 207.992ZM308.279 202.719C308.279 202.719 308.4 202.719 308.467 202.746C309.903 203.162 311.392 203.443 312.909 203.578C313.07 203.578 313.217 203.658 313.338 203.779L316.076 206.597L323.993 204.986L325.415 201.323C325.469 201.176 325.59 201.041 325.737 200.974C327.079 200.276 328.354 199.444 329.521 198.492C329.642 198.398 329.776 198.331 329.951 198.344L334.607 198.411L339.076 191.675L337.197 187.408C337.13 187.26 337.13 187.099 337.17 186.952C337.6 185.489 337.868 183.986 338.002 182.51C338.002 182.349 338.083 182.201 338.203 182.081L341.021 179.343L339.411 171.426L335.748 170.004C335.587 169.95 335.466 169.829 335.385 169.681C334.688 168.34 333.856 167.078 332.903 165.911C332.796 165.79 332.742 165.629 332.755 165.468L332.822 160.812L326.086 156.343L321.819 158.222C321.671 158.289 321.51 158.289 321.363 158.249C319.913 157.819 318.411 157.551 316.908 157.417C316.747 157.417 316.599 157.336 316.478 157.215L313.754 154.397L305.837 156.008L304.415 159.671C304.361 159.819 304.24 159.953 304.093 160.02C302.751 160.718 301.489 161.55 300.309 162.502C300.188 162.596 300.027 162.677 299.866 162.65L295.209 162.583L290.741 169.319L292.619 173.586C292.7 173.774 292.7 173.975 292.606 174.163C292.23 175.505 291.949 176.995 291.828 178.498C291.828 178.659 291.747 178.806 291.627 178.927L288.809 181.665L290.419 189.582L294.082 191.004C294.243 191.071 294.377 191.192 294.444 191.353C295.142 192.681 295.974 193.943 296.914 195.097C297.021 195.218 297.075 195.379 297.075 195.54L297.007 200.196L303.744 204.664L308.011 202.786C308.091 202.746 308.185 202.732 308.279 202.732V202.719ZM314.868 198.384C311.473 198.384 308.051 197.418 305.019 195.419C301.033 192.775 298.323 188.75 297.37 184.066C296.417 179.383 297.343 174.62 299.986 170.634C305.448 162.422 316.559 160.154 324.771 165.602C332.983 171.05 335.238 182.174 329.79 190.387C326.355 195.566 320.665 198.384 314.868 198.384ZM301.114 171.372C298.671 175.049 297.813 179.464 298.698 183.798C299.584 188.132 302.093 191.849 305.77 194.292C313.378 199.324 323.657 197.244 328.689 189.649C333.721 182.054 331.642 171.761 324.046 166.716C316.451 161.684 306.159 163.764 301.114 171.372Z" fill="white"/>
<path d="M571.448 237.111L550.394 234.266L564.323 129.854L523.69 124.366L425.129 215.118L419.949 253.939L504.877 265.398L500.637 297.147L541.269 302.636L545.509 270.887L566.564 273.731L571.448 237.111ZM464.876 222.726L516.887 175.317L509.748 228.778L464.876 222.726Z" fill="#FA350C"/>
<path d="M528.911 301.643C528.911 301.643 528.83 301.643 528.79 301.643C528.428 301.576 528.186 301.227 528.253 300.864L559.56 129.197C559.627 128.835 559.976 128.606 560.338 128.66C560.7 128.727 560.942 129.076 560.875 129.438L529.568 301.106C529.515 301.428 529.233 301.656 528.911 301.656V301.643Z" fill="#FF8E77"/>
<path d="M556.682 132.068C556.655 132.672 556.159 133.155 555.542 133.129C554.924 133.102 554.455 132.605 554.482 131.988C554.508 131.371 555.005 130.901 555.622 130.928C556.226 130.955 556.709 131.451 556.682 132.068Z" fill="#FF8E77"/>
<path d="M552.221 155.283C552.195 155.887 551.698 156.37 551.081 156.343C550.463 156.316 549.994 155.82 550.021 155.203C550.047 154.585 550.544 154.116 551.161 154.143C551.765 154.169 552.248 154.666 552.221 155.283Z" fill="#FF8E77"/>
<path d="M547.755 178.498C547.728 179.102 547.231 179.585 546.614 179.558C545.997 179.531 545.527 179.034 545.554 178.417C545.581 177.8 546.077 177.33 546.694 177.357C547.298 177.384 547.781 177.88 547.755 178.498Z" fill="#FF8E77"/>
<path d="M538.946 202.665C538.919 203.269 538.423 203.752 537.805 203.725C537.188 203.698 536.718 203.202 536.745 202.585C536.772 201.967 537.269 201.498 537.886 201.524C538.503 201.551 538.973 202.048 538.946 202.665Z" fill="#FF8E77"/>
<path d="M538.799 224.927C538.773 225.531 538.276 226.014 537.659 225.987C537.042 225.96 536.572 225.464 536.599 224.847C536.626 224.229 537.122 223.76 537.739 223.786C538.357 223.813 538.826 224.31 538.799 224.927Z" fill="#FF8E77"/>
<path d="M534.333 248.142C534.306 248.745 533.809 249.228 533.192 249.202C532.575 249.175 532.105 248.678 532.132 248.061C532.159 247.457 532.655 246.974 533.273 247.001C533.89 247.028 534.36 247.524 534.333 248.142Z" fill="#FF8E77"/>
<path d="M529.864 271.356C529.837 271.96 529.341 272.443 528.723 272.416C528.106 272.39 527.636 271.893 527.663 271.276C527.69 270.658 528.187 270.189 528.804 270.216C529.421 270.243 529.891 270.739 529.864 271.356Z" fill="#FF8E77"/>
<path d="M525.381 294.571C525.355 295.175 524.858 295.658 524.241 295.631C523.624 295.604 523.154 295.108 523.181 294.49C523.208 293.873 523.704 293.403 524.321 293.43C524.939 293.457 525.408 293.954 525.381 294.571Z" fill="#FF8E77"/>
<path d="M537.849 203.296C537.541 203.296 537.259 203.081 537.192 202.759C537.111 202.397 537.34 202.034 537.702 201.967L541.03 201.256C541.392 201.189 541.754 201.404 541.821 201.766C541.902 202.128 541.674 202.491 541.312 202.558L537.984 203.269C537.984 203.269 537.89 203.282 537.836 203.282L537.849 203.296Z" fill="#FF8E77"/>
<path d="M548.972 190.937C548.972 190.937 545.967 198.76 544.96 203.497C543.954 208.234 543.887 218.821 543.887 218.821" fill="#FF8E77"/>
<path d="M543.886 219.492C543.51 219.492 543.215 219.184 543.215 218.821C543.215 218.392 543.282 208.113 544.302 203.349C545.308 198.613 548.22 191.004 548.341 190.682C548.475 190.333 548.864 190.172 549.213 190.293C549.562 190.427 549.736 190.816 549.602 191.165C549.575 191.246 546.61 198.988 545.617 203.631C544.637 208.247 544.557 218.728 544.557 218.821C544.557 219.197 544.248 219.492 543.886 219.492Z" fill="#FF8E77"/>
<path d="M298.537 335.324C300.402 305.266 296.967 250.611 353.474 257.843C414.046 265.599 396.709 336.424 396.709 336.424L298.523 335.324H298.537Z" fill="#FF8E77"/>
<path d="M337.523 317.262C351.145 317.262 362.187 306.22 362.187 292.598C362.187 278.977 351.145 267.934 337.523 267.934C323.902 267.934 312.859 278.977 312.859 292.598C312.859 306.22 323.902 317.262 337.523 317.262Z" fill="white"/>
<path d="M340.777 267.975C329.102 265.975 316.61 274.59 315.375 283.312L361.683 287.566C360.046 277.623 350.049 269.558 340.777 267.975Z" fill="#FF8E77"/>
<path d="M356.401 291.981C356.066 298.422 352.563 303.481 348.551 303.28C344.539 303.078 341.573 297.684 341.909 291.23C342.244 284.789 345.746 279.73 349.759 279.931C353.771 280.132 356.737 285.527 356.401 291.981Z" fill="#FF8E77"/>
<path d="M337.525 318.591C323.194 318.591 311.52 306.93 311.52 292.585C311.52 278.24 323.181 266.579 337.525 266.579C351.87 266.579 363.531 278.24 363.531 292.585C363.531 306.93 351.87 318.591 337.525 318.591ZM337.525 269.276C324.67 269.276 314.203 279.73 314.203 292.598C314.203 305.467 324.657 315.92 337.525 315.92C350.394 315.92 360.847 305.467 360.847 292.598C360.847 279.73 350.394 269.276 337.525 269.276Z" fill="#FA350C"/>
<path opacity="0.3" d="M389.834 334.559C389.834 334.559 389.727 334.559 389.673 334.545C389.311 334.465 389.096 334.103 389.177 333.74C389.217 333.566 393.498 315.37 389.056 296.973C388.975 296.61 389.19 296.248 389.552 296.168C389.901 296.087 390.277 296.302 390.358 296.664C394.88 315.383 390.519 333.875 390.478 334.062C390.398 334.371 390.129 334.572 389.821 334.572L389.834 334.559Z" fill="white"/>
<path opacity="0.3" d="M386.09 286.909C385.836 286.909 385.594 286.761 385.487 286.52C383.756 282.749 381.622 279.3 379.126 276.241C378.898 275.959 378.938 275.529 379.22 275.301C379.502 275.06 379.931 275.113 380.159 275.395C382.722 278.535 384.936 282.091 386.708 285.956C386.869 286.291 386.708 286.694 386.372 286.842C386.278 286.882 386.184 286.909 386.09 286.909Z" fill="white"/>
<path d="M172.771 476.329C172.61 476.329 172.435 476.329 172.274 476.329C168.571 476.222 165.646 473.135 165.753 469.432C165.86 465.728 168.906 462.87 172.65 462.91C172.69 462.91 172.731 462.91 172.784 462.91C176.662 462.91 185.988 458.2 205.5 427.444C206.546 425.794 208.264 424.68 210.196 424.398C212.128 424.116 214.101 424.693 215.564 425.982C239.637 446.969 265.146 460.039 265.401 460.173C268.702 461.85 270.017 465.889 268.34 469.19C266.663 472.491 262.624 473.82 259.323 472.142C258.303 471.633 236.014 460.227 212.625 441.078C196.267 465.661 184.137 476.329 172.771 476.329Z" fill="#FF8E77"/>
<path d="M214.29 424.774C214.102 424.774 213.914 424.774 213.713 424.734C211.513 424.425 209.983 422.385 210.291 420.185C211.244 413.502 210.063 388.476 201.609 369.019C200.845 367.247 201.435 365.181 203.032 364.081C221.416 351.561 260.572 350.058 262.222 350.004C264.436 349.95 266.302 351.668 266.382 353.882C266.463 356.11 264.718 357.962 262.504 358.042C262.142 358.042 227.91 359.37 210.318 369.045C217.806 388.422 219.51 412.576 218.262 421.312C217.98 423.325 216.249 424.774 214.277 424.774H214.29Z" fill="#FF8E77"/>
<path d="M221.051 419.554C218.367 413.234 206.304 413.958 199.219 419.366C195.435 422.265 190.309 430.96 189.772 434.114C189.235 437.267 191.422 440.125 195.166 439.803C199.796 439.401 206.143 432.678 206.143 432.678C201.916 436.824 207.364 439.749 215.509 433.751C220.018 430.423 224.044 426.626 221.051 419.554Z" fill="#FA350C"/>
<path d="M451.855 337.095C451.855 337.095 451.734 337.095 451.667 337.068C451.304 336.961 451.103 336.599 451.21 336.236C452.995 330.01 454.954 326.212 457.517 324.092C457.128 322.75 457.168 321.221 457.719 319.718C458.255 318.255 459.302 316.806 460.885 315.692C460.107 314.847 459.825 313.746 460.094 312.498C460.402 311.103 461.409 309.586 462.965 308.258C462.362 307.56 462.214 306.795 462.201 306.232C462.16 302.233 469.594 296.127 477.981 294.987C478.343 294.92 478.692 295.188 478.733 295.564C478.786 295.926 478.531 296.275 478.156 296.315C470.185 297.402 463.502 303.172 463.529 306.218C463.529 306.715 463.717 307.104 464.012 307.426C467.031 305.319 471.486 303.964 476.465 304.93C480.584 305.722 482.262 306.594 482.06 307.842C481.698 310.19 472.922 310.687 467.045 309.976C465.716 309.815 464.737 309.506 464.025 309.103C462.563 310.298 461.623 311.639 461.382 312.767C461.167 313.773 461.489 314.471 462.053 314.967C464.549 313.679 468.051 313.142 472.681 314.176C478.773 315.518 479.001 316.256 479.135 316.698C479.229 317.02 479.149 317.342 478.92 317.584C477.632 318.939 468.306 318.295 463.623 317.155C463.019 317.007 462.469 316.806 462.013 316.551C460.456 317.53 459.463 318.845 458.967 320.187C458.577 321.261 458.483 322.321 458.658 323.274C458.899 323.126 459.141 322.992 459.396 322.884C462.174 321.569 465.528 321.784 469.661 323.555C472.399 324.736 473.727 325.77 473.821 326.83C473.848 327.138 473.794 327.742 473.056 328.225C471.017 329.581 463.838 329.379 460.107 327.393C459.221 326.924 458.537 326.226 458.041 325.394C455.853 327.393 454.082 330.989 452.458 336.612C452.378 336.907 452.11 337.095 451.814 337.095H451.855ZM459.128 324.575C459.503 325.26 460.053 325.823 460.765 326.212C463.797 327.823 469.755 328.198 471.983 327.286C472.439 327.098 472.506 326.95 472.506 326.95C472.506 326.95 472.439 326.199 469.151 324.79C465.394 323.18 462.388 322.952 459.986 324.092C459.691 324.226 459.409 324.387 459.128 324.575ZM463.609 315.759C463.73 315.799 463.838 315.826 463.958 315.853C468.695 317.007 475.096 317.208 477.283 316.846C476.599 316.564 475.217 316.095 472.399 315.477C468.682 314.659 465.77 314.914 463.596 315.746L463.609 315.759ZM465.3 308.218C465.904 308.446 466.588 308.58 467.233 308.647C473.915 309.439 479.819 308.499 480.705 307.668C480.477 307.466 479.578 306.889 476.237 306.245C471.835 305.413 467.984 306.513 465.3 308.204V308.218Z" fill="#FF8E77"/>
<path d="M277.168 474.088C278.054 473.806 277.758 472.948 276.765 472.948H258.596C224.003 469.284 199.835 474.196 215.066 475.35C230.296 476.504 213.992 476.262 202.868 480.476C191.744 484.689 285.595 485.749 294.143 480.476C302.02 475.618 264.917 478.02 277.168 474.088Z" fill="#FF8E77"/>
<path d="M407.253 479.442L249.179 474.196L242.617 320.925L429.287 325.099L407.253 479.442Z" fill="#FA350C"/>
<path d="M298.532 476.504C298.183 476.504 297.887 476.235 297.861 475.886L285.193 321.945C285.166 321.57 285.435 321.248 285.811 321.221C286.186 321.194 286.508 321.462 286.535 321.838L299.203 475.779C299.229 476.155 298.961 476.477 298.585 476.504C298.572 476.504 298.545 476.504 298.532 476.504Z" fill="#FF8E77"/>
<path d="M407.254 479.442L449.738 472.975L463.117 330.453L429.288 325.099L407.254 479.442Z" fill="#FA350C"/>
<path opacity="0.2" d="M407.254 479.442L449.738 472.975L463.117 330.453L429.288 325.099L407.254 479.442Z" fill="#252830"/>
<path d="M262.68 444.647L258.789 353.587C258.386 344.086 266.088 336.209 275.602 336.424L393.769 339.068C403.632 339.282 411.093 348.085 409.697 357.854L396.6 449.626C395.419 457.945 388.16 464.037 379.76 463.756L278.595 460.401C269.993 460.119 263.056 453.249 262.693 444.647H262.68Z" fill="#FF8E77"/>
<path d="M275.452 364.376L293.728 364.953L293.581 369.663L282.134 369.3L282.027 372.803L292.641 373.138L292.494 377.647L281.879 377.312L281.745 381.659L293.527 382.035L293.366 387.04L274.754 386.45L275.452 364.376Z" fill="white"/>
<path d="M297.123 387.161L297.821 365.087L309.186 365.449C311.293 365.516 312.903 365.745 314.004 366.147C315.104 366.55 315.99 367.247 316.634 368.24C317.291 369.247 317.587 370.441 317.546 371.85C317.506 373.071 317.211 374.118 316.661 374.99C316.11 375.862 315.372 376.56 314.433 377.083C313.843 377.419 313.038 377.687 312.004 377.875C312.809 378.17 313.386 378.466 313.749 378.747C313.99 378.935 314.339 379.338 314.809 379.942C315.279 380.546 315.574 381.015 315.721 381.337L318.821 387.845L311.119 387.604L307.683 380.747C307.254 379.861 306.851 379.284 306.503 379.002C306.019 378.64 305.469 378.452 304.852 378.439H304.248L303.966 387.376L297.109 387.161H297.123ZM304.396 374.252L307.267 374.346C307.576 374.346 308.18 374.279 309.079 374.105C309.535 374.024 309.911 373.809 310.206 373.447C310.501 373.085 310.662 372.669 310.676 372.186C310.703 371.474 310.488 370.924 310.045 370.522C309.602 370.119 308.757 369.904 307.522 369.864L304.53 369.77L304.382 374.252H304.396Z" fill="white"/>
<path d="M321.115 387.926L321.813 365.852L333.179 366.214C335.285 366.281 336.896 366.509 337.996 366.912C339.096 367.314 339.982 368.012 340.626 369.005C341.284 370.012 341.579 371.206 341.538 372.615C341.498 373.836 341.203 374.883 340.653 375.755C340.103 376.627 339.365 377.325 338.425 377.848C337.835 378.184 337.03 378.452 335.996 378.64C336.802 378.935 337.379 379.23 337.741 379.512C337.982 379.7 338.331 380.103 338.801 380.706C339.257 381.31 339.566 381.78 339.714 382.102L342.813 388.61L335.111 388.369L331.676 381.512C331.246 380.626 330.844 380.049 330.495 379.767C330.012 379.405 329.461 379.217 328.844 379.204H328.24L327.959 388.141L321.102 387.926H321.115ZM328.375 375.003L331.246 375.097C331.555 375.097 332.159 375.03 333.058 374.856C333.514 374.775 333.89 374.561 334.185 374.198C334.48 373.836 334.641 373.42 334.655 372.937C334.681 372.226 334.467 371.676 334.024 371.273C333.581 370.87 332.736 370.656 331.501 370.615L328.509 370.522L328.361 375.003H328.375Z" fill="white"/>
<path d="M343.984 377.62C344.105 374.01 345.192 371.246 347.258 369.3C349.325 367.355 352.156 366.442 355.739 366.55C359.416 366.67 362.207 367.744 364.139 369.784C366.058 371.823 366.97 374.614 366.863 378.17C366.783 380.747 366.273 382.853 365.36 384.477C364.434 386.101 363.146 387.349 361.469 388.208C359.791 389.08 357.738 389.469 355.283 389.388C352.787 389.308 350.747 388.852 349.137 388.006C347.526 387.161 346.252 385.859 345.286 384.115C344.319 382.37 343.89 380.197 343.97 377.62H343.984ZM350.801 377.862C350.734 380.089 351.096 381.699 351.888 382.706C352.679 383.712 353.793 384.222 355.215 384.276C356.678 384.316 357.832 383.887 358.664 382.947C359.496 382.022 359.952 380.317 360.033 377.848C360.1 375.768 359.724 374.239 358.919 373.259C358.114 372.279 356.987 371.756 355.551 371.716C354.169 371.676 353.055 372.118 352.196 373.071C351.337 374.024 350.868 375.621 350.787 377.862H350.801Z" fill="white"/>
<path d="M370.273 389.483L370.971 367.408L382.337 367.771C384.443 367.838 386.054 368.066 387.154 368.469C388.254 368.871 389.14 369.569 389.784 370.562C390.442 371.568 390.737 372.763 390.697 374.172C390.656 375.393 390.361 376.439 389.811 377.312C389.261 378.184 388.523 378.882 387.584 379.405C386.993 379.74 386.188 380.009 385.155 380.197C385.96 380.492 386.537 380.787 386.899 381.069C387.141 381.257 387.49 381.659 387.959 382.263C388.415 382.867 388.724 383.337 388.872 383.659L391.971 390.167L384.269 389.925L380.834 383.068C380.404 382.183 380.002 381.606 379.653 381.324C379.17 380.962 378.62 380.774 378.002 380.76H377.399L377.117 389.697L370.26 389.483H370.273ZM377.533 376.574L380.404 376.668C380.713 376.668 381.317 376.6 382.216 376.426C382.672 376.345 383.048 376.131 383.343 375.768C383.638 375.406 383.799 374.99 383.813 374.507C383.84 373.796 383.625 373.246 383.182 372.843C382.739 372.441 381.894 372.226 380.659 372.186L377.667 372.092L377.519 376.574H377.533Z" fill="white"/>
<path d="M381.126 427.001C380.643 427.001 380.173 426.814 379.824 426.424L368.338 413.851L355.939 425.177C355.214 425.834 354.1 425.78 353.456 425.069L341.97 412.496L329.571 423.821C328.846 424.479 327.732 424.425 327.088 423.714L315.602 411.14L303.203 422.466C302.854 422.788 302.397 422.949 301.941 422.922C301.472 422.895 301.029 422.694 300.72 422.345L289.234 409.772L276.834 421.097C276.123 421.755 274.996 421.701 274.352 420.99C273.694 420.265 273.748 419.151 274.459 418.507L288.16 405.988C288.871 405.33 289.998 405.384 290.643 406.095L302.129 418.668L314.528 407.343C314.877 407.021 315.333 406.86 315.789 406.887C316.259 406.913 316.702 407.115 317.011 407.464L328.497 420.037L340.896 408.712C341.607 408.054 342.734 408.108 343.379 408.819L354.865 421.392L367.264 410.067C367.975 409.409 369.089 409.463 369.747 410.174L382.427 424.049C383.085 424.774 383.031 425.888 382.32 426.532C381.985 426.84 381.555 426.988 381.139 426.988L381.126 427.001Z" fill="white"/>
<path d="M168.773 482.69L160.372 478.691L152.885 442.232L156.951 437.763L168.773 482.69Z" fill="#FA350C"/>
<path d="M168.771 482.69L179.909 476.182L170.368 446.15L156.949 437.763L168.771 482.69Z" fill="#FA350C"/>
<path opacity="0.2" d="M168.771 482.69L179.909 476.182L170.368 446.15L156.949 437.763L168.771 482.69Z" fill="#252830"/>
<path d="M351.54 489.319C351.218 489.319 350.91 489.319 350.614 489.319C346.911 489.211 343.985 486.125 344.093 482.421C344.2 478.718 347.26 475.806 350.99 475.9C361.323 476.235 383.209 469.888 395.702 457.757C396.48 457.006 397.419 456.456 398.453 456.147C419.641 449.787 427.518 462.628 427.853 463.179L416.3 470.009C416.3 470.009 416.34 470.103 416.461 470.25C416.326 470.076 413.334 466.171 403.78 468.586C388.093 482.904 364.02 489.319 351.567 489.319H351.54Z" fill="#FF8E77"/>
<path d="M350.784 498.242L326.349 496.699L324.43 451.652L357.266 452.873L350.784 498.242Z" fill="#FA350C"/>
<path d="M350.785 498.242L356.502 492.553L360.044 464.467L357.266 452.873L350.785 498.242Z" fill="#FA350C"/>
<path opacity="0.2" d="M350.785 498.242L356.502 492.553L360.044 464.467L357.266 452.873L350.785 498.242Z" fill="#252830"/>
<path d="M492.383 481.173C491.538 481.173 490.679 480.905 489.954 480.355C476.012 469.754 457.145 450.927 449.913 432.772C449.805 432.503 449.725 432.235 449.684 431.953C446.155 410.979 442.787 366.818 442.64 364.953C442.465 362.739 444.129 360.806 446.343 360.632C448.557 360.471 450.49 362.121 450.664 364.335C450.704 364.792 454.099 409.383 457.548 430.182C464.767 447.841 484.332 465.97 494.825 473.941C496.597 475.283 496.946 477.805 495.59 479.577C494.799 480.623 493.591 481.16 492.383 481.16V481.173Z" fill="#FF8E77"/>
<path d="M510.995 483.213C507.881 483.213 504.352 481.804 500.514 479.026C498.716 477.725 498.314 475.202 499.615 473.404C500.917 471.606 503.44 471.203 505.238 472.505C508.566 474.907 510.377 475.175 511.008 475.175C513.235 475.175 515.034 476.973 515.034 479.201C515.034 481.428 513.235 483.226 511.008 483.226L510.995 483.213Z" fill="#FF8E77"/>
<path d="M501.624 478.906C505.931 466.104 523.59 468.64 529.669 470.532C535.748 472.438 541.223 474.826 544.524 476.973C547.811 479.12 547.865 482.73 543.477 484.783C538.056 487.319 524.476 485.065 524.476 485.065C531.508 488.138 524.463 493.076 512.117 488.232C508.105 486.648 500.094 483.589 501.61 478.892L501.624 478.906Z" fill="#FA350C"/>
<path d="M458.768 370.468C457.171 381.337 448.167 389.362 440.84 388.275C433.513 387.201 433.218 377.486 434.815 366.617C436.412 355.747 439.31 347.83 446.637 348.904C453.964 349.977 460.378 359.585 458.768 370.454V370.468Z" fill="#FF8E77"/>
<path d="M281.663 327.071C282.271 327.071 282.763 326.579 282.763 325.971C282.763 325.363 282.271 324.871 281.663 324.871C281.055 324.871 280.562 325.363 280.562 325.971C280.562 326.579 281.055 327.071 281.663 327.071Z" fill="#FF8E77"/>
<path d="M292.841 333.901C292.841 334.505 292.345 335.002 291.741 335.002C291.137 335.002 290.641 334.505 290.641 333.901C290.641 333.298 291.137 332.801 291.741 332.801C292.345 332.801 292.841 333.298 292.841 333.901Z" fill="#FF8E77"/>
<path d="M294.066 463.93C294.066 464.534 293.569 465.031 292.966 465.031C292.362 465.031 291.865 464.534 291.865 463.93C291.865 463.326 292.362 462.83 292.966 462.83C293.569 462.83 294.066 463.326 294.066 463.93Z" fill="#FF8E77"/>
<path d="M304.154 471.847C304.154 472.451 303.657 472.948 303.053 472.948C302.45 472.948 301.953 472.451 301.953 471.847C301.953 471.243 302.45 470.747 303.053 470.747C303.657 470.747 304.154 471.243 304.154 471.847Z" fill="#FF8E77"/>
<path d="M110.752 485.051C107.558 485.051 103.237 483.119 100.915 479.751C100.701 479.442 100.781 479.026 101.09 478.811C101.399 478.597 101.815 478.677 102.029 478.986C104.539 482.596 110.054 484.528 112.509 483.387C112.764 483.267 112.979 483.119 113.14 482.931C110.953 481.925 108.953 479.939 108.403 476.919C108.095 475.215 107.853 472.921 109.262 472.599C111.181 472.169 113.704 476.825 114.67 480.355C114.844 481.012 114.911 481.616 114.844 482.153C115.69 482.381 116.522 482.448 117.246 482.341C117.823 482.26 118.655 482.019 119.085 481.334C117.461 480.234 116.361 478.288 115.998 475.712C115.475 472.048 115.864 471.404 116.28 471.096C116.548 470.894 116.884 470.854 117.206 470.988C118.642 471.606 120.386 476.799 120.708 479.751C120.749 480.073 120.749 480.381 120.708 480.677C121.258 480.891 121.862 481.012 122.52 481.026C123.687 481.093 124.828 480.717 125.754 480.18C125.566 480.059 125.378 479.925 125.217 479.778C123.821 478.583 123.258 476.691 123.499 473.967C123.687 471.86 124.157 470.72 125.002 470.358C125.298 470.223 125.901 470.103 126.626 470.68C128.075 471.834 129.431 475.51 128.947 478.141C128.84 478.691 128.612 479.201 128.277 479.684C130.732 480.113 134.208 479.415 137.187 478.677C137.549 478.583 137.911 478.811 138.005 479.174C138.099 479.536 137.871 479.898 137.509 479.992C133.872 480.891 129.954 481.616 127.19 480.824C125.955 481.804 124.224 482.394 122.493 482.381C121.701 482.367 120.963 482.22 120.292 481.965C119.769 482.864 118.776 483.468 117.448 483.669C116.562 483.803 115.502 483.723 114.442 483.414C114.133 483.924 113.69 484.327 113.086 484.608C112.442 484.904 111.651 485.051 110.778 485.051H110.752ZM109.597 473.94C109.517 474.142 109.383 474.826 109.705 476.678C110.148 479.147 111.744 480.784 113.516 481.656C113.516 481.374 113.449 481.052 113.355 480.704C112.295 476.866 110.295 474.222 109.584 473.94H109.597ZM117.072 472.773C117.072 473.283 117.112 474.128 117.313 475.537C117.582 477.456 118.293 478.919 119.353 479.858C119.044 477.161 117.85 474.048 117.072 472.773ZM125.512 471.606C125.512 471.606 125.002 471.861 124.814 474.101C124.613 476.356 125.029 477.886 126.062 478.771C126.304 478.973 126.572 479.147 126.868 479.281C127.243 478.865 127.512 478.396 127.592 477.899C127.954 475.953 127.029 473.108 125.982 471.954C125.714 471.659 125.539 471.592 125.499 471.592L125.512 471.606Z" fill="#FF8E77"/>
<path d="M307.149 495.196L310.786 488.889L307.149 482.582H303.258L305.459 488.889L303.258 495.196H307.149Z" fill="#FF8E77"/>
<path d="M303.511 492.177C301.699 492.177 300.223 490.7 300.223 488.889C300.223 487.077 301.699 485.615 303.511 485.615L297.325 484.38L295.688 489.372L298.452 493.586L303.511 492.177Z" fill="#FF8E77"/>
<path d="M304.048 482.582H296.762L293.125 488.889L296.762 495.196H304.048L307.684 488.889L304.048 482.582ZM300.411 492.177C298.6 492.177 297.124 490.701 297.124 488.889C297.124 487.077 298.6 485.615 300.411 485.615C302.223 485.615 303.686 487.077 303.686 488.889C303.686 490.701 302.223 492.177 300.411 492.177Z" fill="#FA350C"/>
<path d="M560.791 482.153L558.094 477.47L560.791 472.786H563.676L562.052 477.47L563.676 482.153H560.791Z" fill="#FA350C"/>
<path d="M563.488 479.912C564.83 479.912 565.931 478.812 565.931 477.47C565.931 476.128 564.83 475.041 563.488 475.041L568.078 474.128L569.299 477.832L567.246 480.959L563.488 479.912Z" fill="#FA350C"/>
<path d="M563.1 472.786H568.507L571.205 477.47L568.507 482.153H563.1L560.402 477.47L563.1 472.786ZM565.797 479.912C567.139 479.912 568.239 478.812 568.239 477.47C568.239 476.128 567.139 475.041 565.797 475.041C564.455 475.041 563.368 476.128 563.368 477.47C563.368 478.812 564.455 479.912 565.797 479.912Z" fill="#FF8E77"/>
<path d="M460.229 488.379H466.294C467.878 488.379 469.166 487.091 469.166 485.507C469.166 483.924 467.878 482.636 466.294 482.636H460.229C458.646 482.636 457.357 483.924 457.357 485.507C457.357 487.091 458.646 488.379 460.229 488.379Z" fill="#FF8E77"/>
<path d="M450.539 482.958C452.042 479.778 455.665 478.342 458.644 479.751C461.623 481.16 462.831 484.863 461.328 488.044C459.825 491.224 456.202 492.66 453.223 491.251C450.244 489.842 449.036 486.138 450.539 482.958Z" fill="#FA350C"/>
<path d="M452.189 491.241L453.852 492.025L459.631 479.766L457.968 478.982L452.189 491.241Z" fill="#FF8E77"/>
</g>
<defs>
<clipPath id="clip0_80_1181">
<rect width="670.943" height="500" fill="white" transform="translate(0.0292969)"/>
</clipPath>
</defs>
</svg>
