<svg width="402" height="46" viewBox="0 0 402 46" fill="none" xmlns="http://www.w3.org/2000/svg">
<g clip-path="url(#clip0_210_1287)">
<path d="M400.811 0.999878H0.810547V44.7206H400.811V0.999878Z" fill="white"/>
<path d="M333.67 14.8647H332.732C328.316 14.8647 324.736 18.4445 324.736 22.8602C324.736 27.276 328.316 30.8557 332.732 30.8557H333.67C338.085 30.8557 341.665 27.276 341.665 22.8602C341.665 18.4445 338.085 14.8647 333.67 14.8647Z" fill="black" stroke="black" stroke-width="0.6"/>
<path d="M311.617 14.8647H310.679C306.263 14.8647 302.684 18.4445 302.684 22.8602C302.684 27.276 306.263 30.8557 310.679 30.8557H311.617C316.033 30.8557 319.612 27.276 319.612 22.8602C319.612 18.4445 316.033 14.8647 311.617 14.8647Z" fill="black" stroke="black" stroke-width="0.6"/>
<path d="M311.149 22.6795C311.611 22.6795 312.063 22.5424 312.448 22.2855C312.832 22.0285 313.132 21.6634 313.309 21.2361C313.486 20.8089 313.532 20.3387 313.442 19.8852C313.352 19.4316 313.129 19.015 312.802 18.688C312.475 18.361 312.058 18.1383 311.605 18.048C311.151 17.9578 310.681 18.0041 310.254 18.1811C309.827 18.3581 309.462 18.6578 309.205 19.0423C308.948 19.4268 308.811 19.8789 308.811 20.3413C308.811 20.9613 309.058 21.5556 309.496 21.994C309.934 22.4323 310.529 22.6789 311.149 22.6795ZM311.149 18.7825C311.457 18.7825 311.758 18.8739 312.015 19.0452C312.271 19.2165 312.471 19.46 312.589 19.7448C312.707 20.0296 312.738 20.343 312.678 20.6454C312.617 20.9478 312.469 21.2255 312.251 21.4435C312.033 21.6616 311.755 21.81 311.453 21.8702C311.15 21.9303 310.837 21.8994 310.552 21.7815C310.267 21.6635 310.024 21.4637 309.853 21.2073C309.681 20.951 309.59 20.6496 309.59 20.3413C309.59 19.9279 309.754 19.5314 310.047 19.2391C310.339 18.9467 310.735 18.7825 311.149 18.7825Z" fill="white"/>
<path d="M311.148 23.4589C310.218 23.46 309.327 23.8298 308.669 24.4873C308.012 25.1448 307.642 26.0363 307.641 26.9662C307.641 27.0696 307.682 27.1687 307.755 27.2418C307.828 27.3149 307.927 27.3559 308.03 27.3559C308.134 27.3559 308.233 27.3149 308.306 27.2418C308.379 27.1687 308.42 27.0696 308.42 26.9662C308.42 26.2427 308.707 25.5489 309.219 25.0373C309.731 24.5257 310.424 24.2383 311.148 24.2383C311.871 24.2383 312.565 24.5257 313.077 25.0373C313.588 25.5489 313.876 26.2427 313.876 26.9662C313.876 27.0696 313.917 27.1687 313.99 27.2418C314.063 27.3149 314.162 27.3559 314.266 27.3559C314.369 27.3559 314.468 27.3149 314.541 27.2418C314.614 27.1687 314.655 27.0696 314.655 26.9662C314.654 26.0363 314.284 25.1448 313.627 24.4873C312.969 23.8298 312.078 23.46 311.148 23.4589Z" fill="white"/>
<path d="M333.291 26.2832C335.25 26.2832 336.839 24.6944 336.839 22.7347C336.839 20.7749 335.25 19.1862 333.291 19.1862C331.331 19.1862 329.742 20.7749 329.742 22.7347C329.742 24.6944 331.331 26.2832 333.291 26.2832Z" stroke="white" stroke-width="1.01386" stroke-linecap="round" stroke-linejoin="round"/>
<path d="M337.728 27.1703L335.799 25.2408" stroke="white" stroke-width="1.01386" stroke-linecap="round" stroke-linejoin="round"/>
<path d="M283.605 22.6794H295.432" stroke="black" stroke-width="1.57692" stroke-linecap="round" stroke-linejoin="round"/>
<path d="M283.605 18.9343H295.432" stroke="black" stroke-width="1.57692" stroke-linecap="round" stroke-linejoin="round"/>
<path d="M283.605 26.4247H295.432" stroke="black" stroke-width="1.57692" stroke-linecap="round" stroke-linejoin="round"/>
<path d="M383.067 15.4891H352.953C348.882 15.4891 345.582 18.7893 345.582 22.8602V22.8602C345.582 26.9312 348.882 30.2313 352.953 30.2313H383.067C387.138 30.2313 390.438 26.9312 390.438 22.8602C390.438 18.7893 387.138 15.4891 383.067 15.4891Z" fill="black"/>
<path d="M352.953 15.4891H383.067C387.138 15.4891 390.438 18.7893 390.438 22.8602V22.8602C390.438 26.9312 387.138 30.2313 383.067 30.2313H352.953C348.882 30.2313 345.582 26.9312 345.582 22.8602V22.8602C345.582 18.7893 348.882 15.4891 352.953 15.4891Z" stroke="black" stroke-width="0.6"/>
<path d="M354.364 22.3901C354.328 22.2751 354.279 22.1721 354.217 22.0812C354.156 21.9888 354.082 21.91 353.995 21.8447C353.91 21.7793 353.812 21.7303 353.701 21.6976C353.59 21.6636 353.47 21.6465 353.339 21.6465C353.105 21.6465 352.896 21.7055 352.713 21.8234C352.529 21.9413 352.385 22.1146 352.28 22.3432C352.176 22.5705 352.125 22.8475 352.125 23.1742C352.125 23.5038 352.176 23.7829 352.28 24.0116C352.384 24.2403 352.528 24.4143 352.713 24.5336C352.897 24.6515 353.112 24.7104 353.356 24.7104C353.578 24.7104 353.769 24.6678 353.931 24.5826C354.095 24.4974 354.22 24.3766 354.309 24.2204C354.397 24.0627 354.441 23.878 354.441 23.6664L354.62 23.6941H353.435V23.0762H355.206V23.6003C355.206 23.9739 355.126 24.2971 354.967 24.5698C354.808 24.8425 354.589 25.0528 354.311 25.2005C354.032 25.3468 353.713 25.4199 353.352 25.4199C352.95 25.4199 352.597 25.3298 352.293 25.1494C351.99 24.9675 351.754 24.7097 351.583 24.3759C351.414 24.0407 351.33 23.643 351.33 23.1827C351.33 22.8305 351.38 22.5158 351.479 22.2388C351.58 21.9619 351.72 21.7268 351.901 21.5336C352.081 21.339 352.293 21.1913 352.536 21.0904C352.779 20.9881 353.043 20.937 353.328 20.937C353.57 20.937 353.795 20.9725 354.004 21.0435C354.213 21.1131 354.398 21.2126 354.56 21.3418C354.723 21.4711 354.858 21.6245 354.963 21.8021C355.068 21.9796 355.137 22.1756 355.169 22.3901H354.364ZM357.385 25.4242C357.057 25.4242 356.773 25.356 356.535 25.2197C356.297 25.0819 356.115 24.8873 355.987 24.6359C355.859 24.383 355.795 24.0854 355.795 23.7431C355.795 23.4065 355.859 23.111 355.987 22.8567C356.116 22.6011 356.297 22.4022 356.528 22.2601C356.76 22.1167 357.032 22.0449 357.344 22.0449C357.546 22.0449 357.736 22.0776 357.915 22.143C358.096 22.2069 358.255 22.3063 358.393 22.4413C358.532 22.5762 358.641 22.7481 358.721 22.9569C358.8 23.1643 358.84 23.4114 358.84 23.6984V23.9349H356.157V23.415H358.101C358.099 23.2673 358.067 23.1359 358.005 23.0208C357.942 22.9043 357.855 22.8127 357.743 22.7459C357.632 22.6792 357.503 22.6458 357.355 22.6458C357.197 22.6458 357.059 22.6842 356.939 22.7609C356.82 22.8361 356.727 22.9356 356.66 23.0592C356.595 23.1813 356.562 23.3155 356.56 23.4619V23.9157C356.56 24.106 356.595 24.2694 356.665 24.4057C356.734 24.5407 356.831 24.6444 356.956 24.7168C357.081 24.7878 357.228 24.8234 357.395 24.8234C357.508 24.8234 357.609 24.8077 357.7 24.7765C357.791 24.7438 357.87 24.6962 357.937 24.6337C358.003 24.5712 358.054 24.4938 358.088 24.4015L358.808 24.4824C358.763 24.6728 358.676 24.839 358.548 24.981C358.422 25.1217 358.26 25.231 358.062 25.3092C357.865 25.3859 357.639 25.4242 357.385 25.4242ZM361.127 22.0876V22.6842H359.245V22.0876H361.127ZM359.71 21.3035H360.481V24.3759C360.481 24.4796 360.497 24.5592 360.528 24.6146C360.561 24.6685 360.603 24.7055 360.656 24.7253C360.708 24.7452 360.767 24.7552 360.831 24.7552C360.879 24.7552 360.923 24.7516 360.963 24.7445C361.004 24.7374 361.035 24.731 361.056 24.7253L361.186 25.3283C361.145 25.3425 361.086 25.3582 361.01 25.3752C360.934 25.3923 360.842 25.4022 360.733 25.405C360.539 25.4107 360.365 25.3816 360.211 25.3177C360.056 25.2523 359.933 25.1515 359.842 25.0151C359.752 24.8788 359.708 24.7083 359.71 24.5038V21.3035ZM365.666 22.1962C365.646 22.0101 365.562 21.8653 365.414 21.7616C365.268 21.6579 365.078 21.606 364.843 21.606C364.678 21.606 364.537 21.6309 364.419 21.6806C364.301 21.7303 364.211 21.7978 364.149 21.883C364.086 21.9682 364.054 22.0655 364.053 22.1749C364.053 22.2658 364.073 22.3447 364.114 22.4114C364.157 22.4782 364.215 22.535 364.287 22.5819C364.359 22.6273 364.44 22.6657 364.528 22.6969C364.616 22.7282 364.705 22.7545 364.794 22.7758L365.203 22.878C365.368 22.9164 365.526 22.9682 365.678 23.0336C365.832 23.0989 365.969 23.1813 366.09 23.2807C366.212 23.3802 366.308 23.5002 366.379 23.6408C366.45 23.7815 366.486 23.9462 366.486 24.1351C366.486 24.3908 366.421 24.616 366.29 24.8106C366.159 25.0038 365.97 25.155 365.723 25.2644C365.477 25.3724 365.18 25.4263 364.83 25.4263C364.491 25.4263 364.196 25.3738 363.946 25.2687C363.698 25.1636 363.503 25.0101 363.362 24.8084C363.223 24.6067 363.148 24.361 363.136 24.0712H363.914C363.926 24.2232 363.972 24.3496 364.055 24.4505C364.137 24.5513 364.244 24.6266 364.377 24.6763C364.51 24.7261 364.659 24.7509 364.824 24.7509C364.996 24.7509 365.146 24.7253 365.276 24.6742C365.406 24.6217 365.509 24.5492 365.582 24.4569C365.656 24.3631 365.694 24.2538 365.695 24.1288C365.694 24.0151 365.661 23.9214 365.595 23.8475C365.53 23.7722 365.438 23.7097 365.32 23.66C365.204 23.6089 365.068 23.5634 364.911 23.5236L364.415 23.3958C364.056 23.3035 363.771 23.1636 363.563 22.9761C363.355 22.7871 363.252 22.5364 363.252 22.2239C363.252 21.9668 363.321 21.7417 363.46 21.5485C363.601 21.3553 363.792 21.2055 364.033 21.0989C364.275 20.991 364.548 20.937 364.854 20.937C365.163 20.937 365.435 20.991 365.668 21.0989C365.902 21.2055 366.086 21.3539 366.22 21.5442C366.353 21.7332 366.422 21.9505 366.426 22.1962H365.666ZM368.791 22.0876V22.6842H366.909V22.0876H368.791ZM367.374 21.3035H368.145V24.3759C368.145 24.4796 368.161 24.5592 368.192 24.6146C368.225 24.6685 368.267 24.7055 368.32 24.7253C368.372 24.7452 368.431 24.7552 368.495 24.7552C368.543 24.7552 368.587 24.7516 368.627 24.7445C368.668 24.7374 368.699 24.731 368.72 24.7253L368.85 25.3283C368.809 25.3425 368.75 25.3582 368.674 25.3752C368.598 25.3923 368.506 25.4022 368.397 25.405C368.203 25.4107 368.029 25.3816 367.875 25.3177C367.72 25.2523 367.597 25.1515 367.506 25.0151C367.416 24.8788 367.372 24.7083 367.374 24.5038V21.3035ZM370.378 25.4263C370.17 25.4263 369.983 25.3894 369.817 25.3155C369.652 25.2403 369.522 25.1295 369.425 24.9832C369.33 24.8369 369.282 24.6565 369.282 24.442C369.282 24.2573 369.317 24.1046 369.385 23.9839C369.453 23.8631 369.546 23.7665 369.664 23.6941C369.782 23.6217 369.915 23.567 370.062 23.53C370.211 23.4917 370.366 23.464 370.525 23.4469C370.716 23.4271 370.872 23.4093 370.991 23.3937C371.111 23.3766 371.197 23.3511 371.251 23.317C371.307 23.2815 371.334 23.2268 371.334 23.1529V23.1401C371.334 22.9796 371.287 22.8553 371.192 22.7673C371.096 22.6792 370.959 22.6351 370.78 22.6351C370.591 22.6351 370.442 22.6763 370.331 22.7587C370.221 22.8411 370.147 22.9384 370.109 23.0506L369.389 22.9484C369.446 22.7495 369.54 22.5833 369.67 22.4498C369.801 22.3148 369.961 22.214 370.15 22.1472C370.339 22.079 370.547 22.0449 370.776 22.0449C370.934 22.0449 371.091 22.0634 371.247 22.1003C371.403 22.1373 371.546 22.1984 371.675 22.2836C371.804 22.3674 371.908 22.4817 371.986 22.6266C372.066 22.7715 372.106 22.9526 372.106 23.1699V25.3603H371.364V24.9107H371.339C371.292 25.0016 371.226 25.0869 371.14 25.1664C371.057 25.2445 370.951 25.3077 370.823 25.356C370.696 25.4029 370.548 25.4263 370.378 25.4263ZM370.578 24.8596C370.733 24.8596 370.867 24.829 370.981 24.768C371.094 24.7055 371.182 24.6231 371.243 24.5208C371.305 24.4185 371.336 24.307 371.336 24.1863V23.8006C371.312 23.8205 371.271 23.839 371.213 23.856C371.156 23.8731 371.092 23.888 371.021 23.9008C370.95 23.9136 370.88 23.9249 370.81 23.9349C370.741 23.9448 370.68 23.9533 370.629 23.9604C370.514 23.9761 370.411 24.0016 370.32 24.0371C370.229 24.0726 370.157 24.1224 370.105 24.1863C370.052 24.2488 370.026 24.3298 370.026 24.4292C370.026 24.5712 370.078 24.6785 370.182 24.7509C370.285 24.8234 370.417 24.8596 370.578 24.8596ZM372.881 25.3603V22.0876H373.629V22.633H373.663C373.723 22.4441 373.825 22.2985 373.97 22.1962C374.116 22.0925 374.283 22.0407 374.471 22.0407C374.513 22.0407 374.561 22.0428 374.613 22.0471C374.667 22.0499 374.712 22.0549 374.748 22.062V22.7715C374.715 22.7601 374.663 22.7502 374.592 22.7417C374.522 22.7317 374.455 22.7268 374.39 22.7268C374.249 22.7268 374.123 22.7573 374.01 22.8184C373.9 22.878 373.812 22.9611 373.748 23.0677C373.684 23.1742 373.652 23.2971 373.652 23.4363V25.3603H372.881ZM377.07 22.0876V22.6842H375.189V22.0876H377.07ZM375.653 21.3035H376.424V24.3759C376.424 24.4796 376.44 24.5592 376.471 24.6146C376.504 24.6685 376.547 24.7055 376.599 24.7253C376.652 24.7452 376.71 24.7552 376.774 24.7552C376.822 24.7552 376.866 24.7516 376.906 24.7445C376.947 24.7374 376.978 24.731 377 24.7253L377.13 25.3283C377.089 25.3425 377.03 25.3582 376.953 25.3752C376.878 25.3923 376.785 25.4022 376.676 25.405C376.483 25.4107 376.309 25.3816 376.154 25.3177C375.999 25.2523 375.876 25.1515 375.785 25.0151C375.696 24.8788 375.652 24.7083 375.653 24.5038V21.3035ZM379.129 25.4242C378.801 25.4242 378.517 25.356 378.279 25.2197C378.041 25.0819 377.859 24.8873 377.731 24.6359C377.603 24.383 377.539 24.0854 377.539 23.7431C377.539 23.4065 377.603 23.111 377.731 22.8567C377.86 22.6011 378.041 22.4022 378.272 22.2601C378.504 22.1167 378.776 22.0449 379.088 22.0449C379.29 22.0449 379.48 22.0776 379.659 22.143C379.84 22.2069 379.999 22.3063 380.137 22.4413C380.276 22.5762 380.385 22.7481 380.465 22.9569C380.544 23.1643 380.584 23.4114 380.584 23.6984V23.9349H377.902V23.415H379.845C379.843 23.2673 379.811 23.1359 379.749 23.0208C379.686 22.9043 379.599 22.8127 379.487 22.7459C379.376 22.6792 379.247 22.6458 379.099 22.6458C378.941 22.6458 378.803 22.6842 378.684 22.7609C378.564 22.8361 378.471 22.9356 378.404 23.0592C378.339 23.1813 378.306 23.3155 378.304 23.4619V23.9157C378.304 24.106 378.339 24.2694 378.409 24.4057C378.478 24.5407 378.576 24.6444 378.701 24.7168C378.826 24.7878 378.972 24.8234 379.139 24.8234C379.252 24.8234 379.353 24.8077 379.444 24.7765C379.535 24.7438 379.614 24.6962 379.681 24.6337C379.747 24.5712 379.798 24.4938 379.832 24.4015L380.552 24.4824C380.507 24.6728 380.42 24.839 380.292 24.981C380.166 25.1217 380.004 25.231 379.806 25.3092C379.609 25.3859 379.383 25.4242 379.129 25.4242ZM382.451 25.4178C382.194 25.4178 381.964 25.3518 381.761 25.2197C381.558 25.0876 381.397 24.8958 381.279 24.6444C381.161 24.393 381.102 24.0876 381.102 23.7282C381.102 23.3646 381.162 23.0577 381.281 22.8077C381.402 22.5563 381.565 22.3667 381.769 22.2388C381.974 22.1096 382.202 22.0449 382.453 22.0449C382.645 22.0449 382.803 22.0776 382.926 22.143C383.05 22.2069 383.148 22.2843 383.22 22.3752C383.293 22.4647 383.349 22.5492 383.389 22.6288H383.421V20.9967H384.194V25.3603H383.435V24.8447H383.389C383.349 24.9242 383.291 25.0087 383.216 25.0982C383.141 25.1863 383.041 25.2616 382.918 25.3241C382.794 25.3866 382.639 25.4178 382.451 25.4178ZM382.666 24.785C382.83 24.785 382.969 24.741 383.084 24.6529C383.199 24.5634 383.286 24.4391 383.346 24.28C383.406 24.1209 383.435 23.9356 383.435 23.7239C383.435 23.5123 383.406 23.3283 383.346 23.1721C383.288 23.0158 383.201 22.8944 383.086 22.8077C382.972 22.7211 382.832 22.6778 382.666 22.6778C382.494 22.6778 382.351 22.7225 382.236 22.812C382.121 22.9015 382.034 23.0251 381.976 23.1827C381.918 23.3404 381.889 23.5208 381.889 23.7239C381.889 23.9285 381.918 24.111 381.976 24.2715C382.036 24.4306 382.123 24.5563 382.238 24.6486C382.355 24.7396 382.497 24.785 382.666 24.785Z" fill="white"/>
<path d="M183.117 21.6522C183.069 21.6039 183.012 21.5656 182.95 21.5394C182.887 21.5133 182.82 21.4998 182.752 21.4998C182.684 21.4998 182.616 21.5133 182.554 21.5394C182.491 21.5656 182.434 21.6039 182.386 21.6522L180.027 24.0112C179.979 24.0595 179.922 24.0978 179.859 24.124C179.796 24.1501 179.729 24.1636 179.661 24.1636C179.593 24.1636 179.526 24.1501 179.463 24.124C179.4 24.0978 179.343 24.0595 179.295 24.0112L176.936 21.6522C176.888 21.6039 176.832 21.5656 176.769 21.5394C176.706 21.5133 176.639 21.4998 176.571 21.4998C176.503 21.4998 176.435 21.5133 176.373 21.5394C176.31 21.5656 176.253 21.6039 176.205 21.6522C176.109 21.7487 176.055 21.8792 176.055 22.0153C176.055 22.1514 176.109 22.2819 176.205 22.3784L178.569 24.7426C178.859 25.032 179.252 25.1945 179.661 25.1945C180.071 25.1945 180.463 25.032 180.753 24.7426L183.117 22.3784C183.213 22.2819 183.267 22.1514 183.267 22.0153C183.267 21.8792 183.213 21.7487 183.117 21.6522Z" fill="#535353"/>
<path d="M152.165 23.2118V22.4488H155.658V23.2118H152.165ZM155.126 20.5588H155.952V25.4588H155.126V20.5588ZM151.836 20.5588H152.662V25.4588H151.836V20.5588ZM157.64 23.0088C157.64 23.3448 157.71 23.6458 157.85 23.9118C157.994 24.1732 158.193 24.3785 158.445 24.5278C158.697 24.6772 158.984 24.7518 159.306 24.7518C159.632 24.7518 159.919 24.6772 160.167 24.5278C160.419 24.3785 160.615 24.1732 160.755 23.9118C160.899 23.6458 160.972 23.3448 160.972 23.0088C160.972 22.6728 160.902 22.3742 160.762 22.1128C160.622 21.8468 160.426 21.6392 160.174 21.4898C159.926 21.3405 159.637 21.2658 159.306 21.2658C158.984 21.2658 158.697 21.3405 158.445 21.4898C158.193 21.6392 157.994 21.8468 157.85 22.1128C157.71 22.3742 157.64 22.6728 157.64 23.0088ZM156.765 23.0088C156.765 22.6402 156.828 22.3018 156.954 21.9938C157.08 21.6858 157.257 21.4198 157.486 21.1958C157.719 20.9672 157.99 20.7898 158.298 20.6638C158.61 20.5378 158.946 20.4748 159.306 20.4748C159.674 20.4748 160.013 20.5378 160.321 20.6638C160.629 20.7898 160.897 20.9672 161.126 21.1958C161.359 21.4198 161.539 21.6858 161.665 21.9938C161.791 22.3018 161.854 22.6402 161.854 23.0088C161.854 23.3728 161.791 23.7112 161.665 24.0238C161.539 24.3365 161.361 24.6072 161.133 24.8358C160.904 25.0645 160.633 25.2442 160.321 25.3748C160.013 25.5008 159.674 25.5638 159.306 25.5638C158.942 25.5638 158.603 25.5008 158.291 25.3748C157.978 25.2442 157.707 25.0645 157.479 24.8358C157.255 24.6072 157.08 24.3365 156.954 24.0238C156.828 23.7112 156.765 23.3728 156.765 23.0088ZM163.567 22.4768L163.231 25.4588H162.377L163.049 20.3138L165.058 23.6388L167.074 20.3138L167.746 25.4588H166.892L166.549 22.4768L165.058 25.0038L163.567 22.4768ZM169.06 25.4588V24.7308H171.531V25.4588H169.06ZM169.06 21.2868V20.5588H171.531V21.2868H169.06ZM169.06 23.1908V22.4768H171.391V23.1908H169.06ZM168.549 20.5588H169.361V25.4588H168.549V20.5588Z" fill="black"/>
<path d="M232.812 21.6522C232.764 21.6039 232.707 21.5656 232.644 21.5394C232.581 21.5133 232.514 21.4998 232.446 21.4998C232.378 21.4998 232.311 21.5133 232.248 21.5394C232.185 21.5656 232.128 21.6039 232.08 21.6522L229.721 24.0112C229.673 24.0595 229.616 24.0978 229.554 24.124C229.491 24.1501 229.423 24.1636 229.355 24.1636C229.287 24.1636 229.22 24.1501 229.157 24.124C229.095 24.0978 229.038 24.0595 228.99 24.0112L226.631 21.6522C226.583 21.6039 226.526 21.5656 226.463 21.5394C226.4 21.5133 226.333 21.4998 226.265 21.4998C226.197 21.4998 226.13 21.5133 226.067 21.5394C226.004 21.5656 225.947 21.6039 225.899 21.6522C225.803 21.7487 225.75 21.8792 225.75 22.0153C225.75 22.1514 225.803 22.2819 225.899 22.3784L228.264 24.7426C228.553 25.032 228.946 25.1945 229.355 25.1945C229.765 25.1945 230.158 25.032 230.447 24.7426L232.812 22.3784C232.908 22.2819 232.961 22.1514 232.961 22.0153C232.961 21.8792 232.908 21.7487 232.812 21.6522Z" fill="#535353"/>
<path d="M201.117 24.1989L201.271 23.4989H203.546L203.707 24.1989H201.117ZM202.398 21.9449L201.628 23.7439L201.614 23.9259L200.935 25.4589H200.004L202.398 20.2859L204.792 25.4589H203.861L203.196 23.9679L203.175 23.7649L202.398 21.9449ZM205.992 22.9319V22.5259H206.783C206.937 22.5259 207.072 22.5003 207.189 22.4489C207.306 22.3976 207.397 22.3253 207.462 22.2319C207.527 22.1339 207.56 22.0173 207.56 21.8819C207.56 21.6766 207.488 21.5179 207.343 21.4059C207.198 21.2939 207.012 21.2379 206.783 21.2379H206.188V24.7799H206.874C207.061 24.7799 207.226 24.7496 207.371 24.6889C207.516 24.6283 207.63 24.5373 207.714 24.4159C207.798 24.2946 207.84 24.1429 207.84 23.9609C207.84 23.8303 207.814 23.7159 207.763 23.6179C207.716 23.5153 207.649 23.4313 207.56 23.3659C207.476 23.2959 207.376 23.2469 207.259 23.2189C207.142 23.1863 207.014 23.1699 206.874 23.1699H205.992V22.7149H206.923C207.161 22.7149 207.385 22.7406 207.595 22.7919C207.805 22.8433 207.992 22.9226 208.155 23.0299C208.323 23.1373 208.454 23.2749 208.547 23.4429C208.64 23.6109 208.687 23.8116 208.687 24.0449C208.687 24.3669 208.61 24.6329 208.456 24.8429C208.307 25.0529 208.099 25.2093 207.833 25.3119C207.572 25.4099 207.268 25.4589 206.923 25.4589H205.362V20.5589H206.839C207.147 20.5589 207.418 20.6033 207.651 20.6919C207.889 20.7806 208.073 20.9159 208.204 21.0979C208.339 21.2799 208.407 21.5109 208.407 21.7909C208.407 22.0336 208.339 22.2413 208.204 22.4139C208.073 22.5819 207.889 22.7103 207.651 22.7989C207.418 22.8876 207.147 22.9319 206.839 22.9319H205.992ZM210.154 23.0089C210.154 23.3449 210.224 23.6459 210.364 23.9119C210.509 24.1733 210.707 24.3786 210.959 24.5279C211.211 24.6773 211.498 24.7519 211.82 24.7519C212.147 24.7519 212.434 24.6773 212.681 24.5279C212.933 24.3786 213.129 24.1733 213.269 23.9119C213.414 23.6459 213.486 23.3449 213.486 23.0089C213.486 22.6729 213.416 22.3743 213.276 22.1129C213.136 21.8469 212.94 21.6393 212.688 21.4899C212.441 21.3406 212.152 21.2659 211.82 21.2659C211.498 21.2659 211.211 21.3406 210.959 21.4899C210.707 21.6393 210.509 21.8469 210.364 22.1129C210.224 22.3743 210.154 22.6729 210.154 23.0089ZM209.279 23.0089C209.279 22.6403 209.342 22.3019 209.468 21.9939C209.594 21.6859 209.772 21.4199 210 21.1959C210.234 20.9673 210.504 20.7899 210.812 20.6639C211.125 20.5379 211.461 20.4749 211.82 20.4749C212.189 20.4749 212.527 20.5379 212.835 20.6639C213.143 20.7899 213.412 20.9673 213.64 21.1959C213.874 21.4199 214.053 21.6859 214.179 21.9939C214.305 22.3019 214.368 22.6403 214.368 23.0089C214.368 23.3729 214.305 23.7113 214.179 24.0239C214.053 24.3366 213.876 24.6073 213.647 24.8359C213.419 25.0646 213.148 25.2443 212.835 25.3749C212.527 25.5009 212.189 25.5639 211.82 25.5639C211.456 25.5639 211.118 25.5009 210.805 25.3749C210.493 25.2443 210.222 25.0646 209.993 24.8359C209.769 24.6073 209.594 24.3366 209.468 24.0239C209.342 23.7113 209.279 23.3729 209.279 23.0089ZM215.136 20.5589H215.962V23.8139C215.962 24.1173 216.042 24.3623 216.2 24.5489C216.364 24.7309 216.604 24.8219 216.921 24.8219C217.234 24.8219 217.472 24.7309 217.635 24.5489C217.799 24.3623 217.88 24.1173 217.88 23.8139V20.5589H218.706V23.8489C218.706 24.1196 218.662 24.3623 218.573 24.5769C218.489 24.7869 218.368 24.9666 218.209 25.1159C218.051 25.2653 217.862 25.3796 217.642 25.4589C217.423 25.5383 217.183 25.5779 216.921 25.5779C216.66 25.5779 216.42 25.5383 216.2 25.4589C215.981 25.3796 215.79 25.2653 215.626 25.1159C215.468 24.9666 215.346 24.7869 215.262 24.5769C215.178 24.3623 215.136 24.1196 215.136 23.8489V20.5589ZM219.275 21.3219V20.5589H222.691V21.3219H221.396V25.4589H220.563V21.3219H219.275Z" fill="black"/>
<path d="M32.7409 20.1778C32.619 19.3601 32.3971 18.5706 32.0748 17.8096L31.4529 16.5808C30.4906 14.988 29.1888 13.7569 27.5474 12.8876C26.4264 12.2932 25.2361 11.9384 23.9764 11.8233C23.4592 11.7586 22.9446 11.7383 22.4326 11.7621L21.089 11.9187C18.7998 12.3796 16.8973 13.496 15.3819 15.2677C15.2638 15.4064 15.1456 15.5467 15.0271 15.6886C15.0125 15.706 15.0022 15.7253 14.9961 15.7469C14.9882 15.7759 14.9762 15.8022 14.9603 15.8256C14.6811 16.1548 14.4321 16.5359 14.2133 16.9686C13.9861 17.3747 13.7859 17.8213 13.6126 18.3084C13.4383 18.7861 13.3026 19.2842 13.2058 19.8026C12.6955 22.7765 13.3856 25.5951 15.2638 27.9149C15.5084 28.217 15.6777 28.4148 15.7719 28.5086C17.7774 30.5006 19.7773 32.4984 21.772 34.5019C21.8029 34.5336 21.8472 34.5476 21.8873 34.5645C22.3089 34.9952 23.0692 35.0226 23.5927 34.8202C24.0579 34.6347 24.3663 34.2575 24.7887 33.8226L26.3051 32.3079L27.6844 30.926C28.3782 30.2399 29.0696 29.5483 29.7587 28.8514C30.1817 28.4239 30.4972 28.0783 30.7052 27.8152C31.8619 26.3501 32.5558 24.6663 32.7873 22.7639C32.8205 22.4928 32.8265 22.2393 32.8055 22.0037C32.9011 21.4165 32.828 20.7644 32.7409 20.1778ZM19.5729 18.4277C19.5738 18.4277 19.5737 18.4288 19.5744 18.4293C19.5729 18.4286 19.5713 18.4274 19.5698 18.4284C19.5707 18.4279 19.5717 18.4275 19.5729 18.4277ZM18.908 28.7264C18.908 28.7264 18.9087 28.7265 18.909 28.7266C18.9092 28.7268 18.9094 28.7268 18.9096 28.727C18.9091 28.7268 18.9086 28.7265 18.908 28.7264ZM19.189 29.3586C19.189 29.3586 19.1895 29.3589 19.1898 29.3589C19.1907 29.3593 19.1915 29.3596 19.1922 29.3602C19.1912 29.3595 19.1902 29.359 19.189 29.3586ZM27.7796 23.3149C27.7796 23.3149 27.779 23.3147 27.7786 23.3146C27.7791 23.3147 27.7797 23.3151 27.78 23.3147C27.7799 23.3148 27.7797 23.3148 27.7796 23.3149Z" fill="url(#paint0_linear_210_1287)"/>
<path d="M17.8959 21.6783C17.5691 21.4482 17.1306 21.4903 16.8447 21.8046C16.5153 22.1678 16.5153 22.7572 16.8447 23.1214L19.3057 25.8353C19.6351 26.1986 20.1696 26.1986 20.4998 25.8353L26.3221 19.4148C26.6515 19.0516 26.6515 18.4622 26.3221 18.098C26.0371 17.7837 25.5977 17.7416 25.271 17.9717L20.3667 23.3799C19.9902 23.795 19.881 23.8675 19.5046 23.4514L17.8959 21.6783Z" fill="white"/>
<path d="M20.5007 20.9342C20.174 20.7042 19.7354 20.7463 19.4495 21.0605C19.1202 21.4238 19.1202 22.0132 19.4495 22.3774L19.9103 22.8855L21.0902 21.5843L20.4998 20.9333L20.5007 20.9342ZM21.9949 25.1833L22.5862 25.8353C22.9156 26.1986 23.45 26.1986 23.7803 25.8353L29.6017 19.4148C29.9311 19.0516 29.9311 18.4622 29.6017 18.098C29.3167 17.7837 28.8773 17.7416 28.5514 17.9717L23.6463 23.3799C23.5566 23.4788 23.482 23.5581 23.4154 23.6168L21.9949 25.1833Z" fill="white"/>
<path d="M36.2134 24.6173V24.4848L36.4917 24.3788C36.6772 24.3081 36.792 24.2242 36.8362 24.127C36.8892 24.021 36.9157 23.8797 36.9157 23.703V16.7859C36.9157 16.6092 36.8892 16.4679 36.8362 16.3619C36.7832 16.2559 36.6684 16.1719 36.4917 16.1101L36.2134 16.0041V15.8716H39.5924V16.0041L39.3539 16.1101C39.1861 16.1719 39.0712 16.2603 39.0094 16.3751C38.9475 16.4811 38.9166 16.6225 38.9166 16.7992V24.3523H40.9573C41.2842 24.3523 41.5227 24.2728 41.6729 24.1138C41.8319 23.9548 41.982 23.7251 42.1234 23.4247L42.6402 22.3116H42.7727L42.6534 24.6173H36.2134ZM45.1982 17.3557C44.8978 17.3557 44.6416 17.2629 44.4296 17.0774C44.2264 16.8831 44.1248 16.6401 44.1248 16.3486C44.1248 16.0483 44.2264 15.8053 44.4296 15.6198C44.6416 15.4343 44.8978 15.3415 45.1982 15.3415C45.4985 15.3415 45.7503 15.4343 45.9535 15.6198C46.1567 15.8053 46.2583 16.0483 46.2583 16.3486C46.2583 16.6401 46.1567 16.8831 45.9535 17.0774C45.7503 17.2629 45.4985 17.3557 45.1982 17.3557ZM43.6345 24.6173V24.4848L43.8201 24.4318C43.9967 24.3788 44.116 24.2993 44.1778 24.1933C44.2485 24.0873 44.2838 23.9459 44.2838 23.7692V19.6216C44.2838 19.4361 44.2485 19.2992 44.1778 19.2109C44.116 19.1137 43.9967 19.0474 43.8201 19.0121L43.6345 18.9723V18.8398L46.0595 18.058L46.192 18.1905L46.1522 20.0722V23.7825C46.1522 23.9592 46.1832 24.1005 46.245 24.2065C46.3157 24.3125 46.4349 24.392 46.6028 24.445L46.7353 24.4848V24.6173H43.6345ZM49.8794 24.8161C49.4466 24.8161 49.0579 24.7631 48.7133 24.6571C48.3688 24.5599 48.0508 24.4362 47.7593 24.286L47.7725 22.7092H47.905L48.3556 23.5042C48.5499 23.8576 48.7619 24.1226 48.9916 24.2993C49.2301 24.4671 49.5305 24.5511 49.8927 24.5511C50.3167 24.5511 50.6568 24.4583 50.913 24.2728C51.178 24.0784 51.3105 23.8222 51.3105 23.5042C51.3105 23.2127 51.2178 22.9742 51.0323 22.7887C50.8468 22.6031 50.5022 22.4353 49.9987 22.2851L49.4421 22.1129C48.9033 21.9538 48.4792 21.7065 48.17 21.3708C47.8608 21.0351 47.7062 20.6243 47.7062 20.1384C47.7062 19.5554 47.9359 19.0607 48.3953 18.6543C48.8547 18.2479 49.5128 18.0448 50.3697 18.0448C50.7142 18.0448 51.0367 18.0845 51.3371 18.164C51.6462 18.2347 51.9422 18.3451 52.2249 18.4953L52.1454 19.9264H52.0129L51.5491 19.1049C51.3812 18.8133 51.2134 18.6101 51.0455 18.4953C50.8865 18.3716 50.6436 18.3098 50.3167 18.3098C50.0164 18.3098 49.7337 18.3937 49.4686 18.5616C49.2036 18.7294 49.0711 18.9679 49.0711 19.2771C49.0711 19.5775 49.1815 19.816 49.4024 19.9927C49.6321 20.1694 49.9678 20.3328 50.4095 20.483L51.0058 20.6552C51.6418 20.8496 52.0968 21.119 52.3706 21.4635C52.6445 21.7992 52.7814 22.2056 52.7814 22.6826C52.7814 23.3275 52.5252 23.8443 52.0129 24.233C51.5093 24.6217 50.7982 24.8161 49.8794 24.8161ZM56.1412 24.8161C55.5758 24.8161 55.1341 24.6747 54.8161 24.392C54.5069 24.1094 54.3523 23.6588 54.3523 23.0404V18.5086H53.438V18.376L53.756 18.323C54.0299 18.2612 54.264 18.1729 54.4583 18.058C54.6615 17.9432 54.8603 17.7886 55.0546 17.5942L56.1412 16.3884H56.2737L56.234 18.2435H57.7181V18.5086H56.2207V23.2789C56.2207 23.5881 56.287 23.8222 56.4195 23.9813C56.5608 24.1403 56.7375 24.2198 56.9495 24.2198C57.135 24.2198 57.2985 24.1756 57.4398 24.0873C57.5812 23.9901 57.7225 23.862 57.8638 23.703L57.9964 23.8355C57.8197 24.1359 57.5767 24.3744 57.2675 24.5511C56.9583 24.7277 56.5829 24.8161 56.1412 24.8161ZM58.6254 24.6173V24.4848L58.8904 24.392C59.0671 24.339 59.1819 24.2595 59.2349 24.1535C59.2968 24.0475 59.3277 23.9062 59.3277 23.7295V16.7859C59.3277 16.6092 59.2968 16.4679 59.2349 16.3619C59.1731 16.2559 59.0538 16.1719 58.8771 16.1101L58.6254 16.0041V15.8716H61.8454C63.1617 15.8716 64.1113 16.1145 64.6944 16.6004C65.2863 17.0774 65.5822 17.7091 65.5822 18.4953C65.5822 18.9988 65.4585 19.4626 65.2112 19.8867C64.9726 20.3019 64.5751 20.6331 64.0186 20.8805C63.462 21.1279 62.7111 21.2515 61.7659 21.2515H61.3153V23.6897C61.3153 24.0343 61.4876 24.2595 61.8321 24.3655L62.2297 24.4848V24.6173H58.6254ZM61.3153 20.9865H61.8189C62.2518 20.9865 62.6051 20.9158 62.879 20.7745C63.1528 20.6331 63.356 20.3858 63.4885 20.0324C63.621 19.6791 63.6873 19.1888 63.6873 18.5616C63.6873 17.9255 63.6122 17.4308 63.462 17.0774C63.3207 16.7241 63.1087 16.4811 62.826 16.3486C62.5433 16.2073 62.1899 16.1366 61.7659 16.1366H61.3153V20.9865ZM66.3047 24.6173V24.4848L66.5035 24.4318C66.6801 24.3788 66.7994 24.2993 66.8612 24.1933C66.9319 24.0873 66.9672 23.9503 66.9672 23.7825V19.6349C66.9672 19.4405 66.9319 19.2992 66.8612 19.2109C66.7994 19.1137 66.6801 19.0474 66.5035 19.0121L66.3047 18.9591V18.8266L68.5839 18.058L68.7164 18.1905L68.8357 19.3301V19.4361C68.9593 19.1888 69.1183 18.9635 69.3127 18.7603C69.5159 18.5483 69.7367 18.376 69.9752 18.2435C70.2226 18.111 70.4655 18.0448 70.7041 18.0448C71.0398 18.0448 71.2959 18.1375 71.4726 18.323C71.6493 18.5086 71.7376 18.7427 71.7376 19.0253C71.7376 19.3257 71.6493 19.5598 71.4726 19.7277C71.3048 19.8867 71.1016 19.9662 70.8631 19.9662C70.492 19.9662 70.1652 19.7807 69.8825 19.4096L69.856 19.3831C69.7676 19.2594 69.6661 19.1932 69.5512 19.1844C69.4364 19.1667 69.3304 19.2197 69.2332 19.3434C69.1448 19.4229 69.0698 19.5201 69.0079 19.6349C68.9549 19.7409 68.9019 19.8646 68.8489 20.0059V23.703C68.8489 24.0563 69.0035 24.2772 69.3127 24.3655L69.7367 24.4848V24.6173H66.3047ZM75.5378 18.0448C76.112 18.0448 76.6023 18.164 77.0087 18.4025C77.4151 18.6322 77.7242 18.9503 77.9363 19.3566C78.1571 19.7542 78.2675 20.2091 78.2675 20.7215C78.2675 20.8187 78.2631 20.9203 78.2543 21.0263C78.2455 21.1234 78.2278 21.2118 78.2013 21.2913H74.2525C74.2613 22.2454 74.4291 22.9344 74.756 23.3585C75.0917 23.7737 75.5864 23.9813 76.2401 23.9813C76.6818 23.9813 77.0396 23.9106 77.3135 23.7692C77.5873 23.6279 77.8435 23.4203 78.082 23.1464L78.2145 23.2657C77.9407 23.7516 77.5741 24.1314 77.1147 24.4053C76.6642 24.6791 76.1209 24.8161 75.4848 24.8161C74.8576 24.8161 74.301 24.6836 73.8152 24.4185C73.3293 24.1447 72.9494 23.756 72.6756 23.2524C72.4017 22.7489 72.2648 22.1482 72.2648 21.4503C72.2648 20.7259 72.4238 20.1119 72.7418 19.6084C73.0599 19.096 73.4662 18.7073 73.9609 18.4423C74.4645 18.1773 74.9901 18.0448 75.5378 18.0448ZM75.4981 18.3098C75.2419 18.3098 75.021 18.3893 74.8355 18.5483C74.6588 18.6985 74.5175 18.9723 74.4115 19.3699C74.3143 19.7586 74.2613 20.3107 74.2525 21.0263H76.5184C76.6067 20.0633 76.5714 19.3699 76.4124 18.9458C76.2534 18.5218 75.9486 18.3098 75.4981 18.3098ZM81.4854 24.8161C81.0525 24.8161 80.6638 24.7631 80.3193 24.6571C79.9748 24.5599 79.6567 24.4362 79.3652 24.286L79.3785 22.7092H79.511L79.9615 23.5042C80.1559 23.8576 80.3679 24.1226 80.5976 24.2993C80.8361 24.4671 81.1364 24.5511 81.4986 24.5511C81.9227 24.5511 82.2628 24.4583 82.519 24.2728C82.784 24.0784 82.9165 23.8222 82.9165 23.5042C82.9165 23.2127 82.8237 22.9742 82.6382 22.7887C82.4527 22.6031 82.1082 22.4353 81.6046 22.2851L81.0481 22.1129C80.5092 21.9538 80.0852 21.7065 79.776 21.3708C79.4668 21.0351 79.3122 20.6243 79.3122 20.1384C79.3122 19.5554 79.5419 19.0607 80.0013 18.6543C80.4606 18.2479 81.1188 18.0448 81.9757 18.0448C82.3202 18.0448 82.6426 18.0845 82.943 18.164C83.2522 18.2347 83.5481 18.3451 83.8308 18.4953L83.7513 19.9264H83.6188L83.155 19.1049C82.9872 18.8133 82.8193 18.6101 82.6515 18.4953C82.4925 18.3716 82.2495 18.3098 81.9227 18.3098C81.6223 18.3098 81.3396 18.3937 81.0746 18.5616C80.8096 18.7294 80.6771 18.9679 80.6771 19.2771C80.6771 19.5775 80.7875 19.816 81.0083 19.9927C81.238 20.1694 81.5737 20.3328 82.0154 20.483L82.6117 20.6552C83.2478 20.8496 83.7027 21.119 83.9766 21.4635C84.2504 21.7992 84.3874 22.2056 84.3874 22.6826C84.3874 23.3275 84.1312 23.8443 83.6188 24.233C83.1153 24.6217 82.4041 24.8161 81.4854 24.8161ZM87.5219 24.8161C87.089 24.8161 86.7003 24.7631 86.3558 24.6571C86.0113 24.5599 85.6932 24.4362 85.4017 24.286L85.415 22.7092H85.5475L85.998 23.5042C86.1924 23.8576 86.4044 24.1226 86.6341 24.2993C86.8726 24.4671 87.1729 24.5511 87.5351 24.5511C87.9592 24.5511 88.2993 24.4583 88.5555 24.2728C88.8205 24.0784 88.953 23.8222 88.953 23.5042C88.953 23.2127 88.8602 22.9742 88.6747 22.7887C88.4892 22.6031 88.1447 22.4353 87.6411 22.2851L87.0846 22.1129C86.5457 21.9538 86.1217 21.7065 85.8125 21.3708C85.5033 21.0351 85.3487 20.6243 85.3487 20.1384C85.3487 19.5554 85.5784 19.0607 86.0378 18.6543C86.4971 18.2479 87.1553 18.0448 88.0122 18.0448C88.3567 18.0448 88.6791 18.0845 88.9795 18.164C89.2887 18.2347 89.5846 18.3451 89.8673 18.4953L89.7878 19.9264H89.6553L89.1915 19.1049C89.0237 18.8133 88.8558 18.6101 88.688 18.4953C88.529 18.3716 88.286 18.3098 87.9592 18.3098C87.6588 18.3098 87.3761 18.3937 87.1111 18.5616C86.8461 18.7294 86.7136 18.9679 86.7136 19.2771C86.7136 19.5775 86.824 19.816 87.0448 19.9927C87.2745 20.1694 87.6102 20.3328 88.0519 20.483L88.6482 20.6552C89.2843 20.8496 89.7392 21.119 90.0131 21.4635C90.2869 21.7992 90.4239 22.2056 90.4239 22.6826C90.4239 23.3275 90.1677 23.8443 89.6553 24.233C89.1518 24.6217 88.4406 24.8161 87.5219 24.8161Z" fill="#111111"/>
<path d="M38.0557 31.212H36.8311V27.5981H38.0804C38.4392 27.5981 38.7474 27.6704 39.0051 27.8151C39.2639 27.9587 39.4627 28.1651 39.6015 28.4345C39.7403 28.7039 39.8097 29.0263 39.8097 29.4015C39.8097 29.778 39.7397 30.1015 39.5997 30.3721C39.4609 30.6427 39.2604 30.8503 38.998 30.995C38.7368 31.1397 38.4227 31.212 38.0557 31.212ZM37.4857 30.6456H38.0239C38.2757 30.6456 38.4857 30.5997 38.6539 30.508C38.8221 30.415 38.9486 30.2768 39.0333 30.0933C39.118 29.9086 39.1604 29.678 39.1604 29.4015C39.1604 29.1251 39.118 28.8957 39.0333 28.7133C38.9486 28.5298 38.8233 28.3928 38.6574 28.3022C38.4927 28.2104 38.288 28.1645 38.0434 28.1645H37.4857V30.6456ZM41.0864 27.5981V31.212H40.4318V27.5981H41.0864ZM41.7954 31.212V27.5981H43.1506C43.4282 27.5981 43.6612 27.6463 43.8494 27.7428C44.0388 27.8393 44.1817 27.9746 44.2782 28.1487C44.3758 28.3216 44.4247 28.5233 44.4247 28.7539C44.4247 28.9857 44.3752 29.1868 44.2764 29.3574C44.1788 29.5268 44.0347 29.658 43.8441 29.7509C43.6535 29.8427 43.4194 29.8886 43.1418 29.8886H42.1765V29.3451H43.0535C43.2159 29.3451 43.3488 29.3227 43.4523 29.278C43.5559 29.2321 43.6323 29.1657 43.6817 29.0786C43.7323 28.9904 43.7576 28.8822 43.7576 28.7539C43.7576 28.6257 43.7323 28.5163 43.6817 28.4257C43.6312 28.3339 43.5541 28.2645 43.4506 28.2175C43.3471 28.1692 43.2135 28.1451 43.05 28.1451H42.45V31.212H41.7954ZM43.6623 29.5745L44.557 31.212H43.8264L42.9477 29.5745H43.6623ZM45.0273 31.212V27.5981H47.3777V28.1469H45.6819V29.128H47.256V29.6768H45.6819V30.6632H47.3919V31.212H45.0273ZM51.139 28.8174H50.4791C50.4602 28.7092 50.4255 28.6133 50.3749 28.5298C50.3244 28.4451 50.2614 28.3734 50.1861 28.3145C50.1108 28.2557 50.025 28.2116 49.9285 28.1822C49.8332 28.1516 49.7303 28.1363 49.6197 28.1363C49.4232 28.1363 49.2491 28.1857 49.0974 28.2845C48.9456 28.3822 48.8268 28.5257 48.7409 28.7151C48.655 28.9033 48.6121 29.1333 48.6121 29.4051C48.6121 29.6815 48.655 29.9145 48.7409 30.1039C48.828 30.2921 48.9468 30.4344 49.0974 30.5309C49.2491 30.6262 49.4226 30.6738 49.6179 30.6738C49.7262 30.6738 49.8273 30.6597 49.9214 30.6315C50.0167 30.6021 50.102 30.5591 50.1773 30.5027C50.2538 30.4462 50.3179 30.3768 50.3697 30.2944C50.4226 30.2121 50.4591 30.118 50.4791 30.0121L51.139 30.0156C51.1143 30.1874 51.0608 30.3485 50.9784 30.4991C50.8973 30.6497 50.7908 30.7826 50.659 30.8979C50.5273 31.012 50.3732 31.1015 50.1967 31.1662C50.0203 31.2297 49.8244 31.2614 49.6091 31.2614C49.2915 31.2614 49.008 31.1879 48.7586 31.0409C48.5092 30.8938 48.3127 30.6815 48.1692 30.4038C48.0257 30.1262 47.9539 29.7933 47.9539 29.4051C47.9539 29.0157 48.0262 28.6828 48.1709 28.4063C48.3156 28.1287 48.5127 27.9163 48.7621 27.7693C49.0115 27.6222 49.2938 27.5487 49.6091 27.5487C49.8103 27.5487 49.9973 27.5769 50.1702 27.6334C50.3432 27.6899 50.4973 27.7728 50.6326 27.8822C50.7679 27.9904 50.879 28.1234 50.9661 28.281C51.0543 28.4375 51.112 28.6163 51.139 28.8174ZM51.5797 28.1469V27.5981H54.4631V28.1469H53.3461V31.212H52.6967V28.1469H51.5797ZM58.0881 29.4051C58.0881 29.7945 58.0152 30.128 57.8693 30.4056C57.7246 30.6821 57.5269 30.8938 57.2764 31.0409C57.027 31.1879 56.744 31.2614 56.4276 31.2614C56.1111 31.2614 55.8276 31.1879 55.577 31.0409C55.3276 30.8926 55.13 30.6803 54.9841 30.4038C54.8394 30.1262 54.7671 29.7933 54.7671 29.4051C54.7671 29.0157 54.8394 28.6828 54.9841 28.4063C55.13 28.1287 55.3276 27.9163 55.577 27.7693C55.8276 27.6222 56.1111 27.5487 56.4276 27.5487C56.744 27.5487 57.027 27.6222 57.2764 27.7693C57.5269 27.9163 57.7246 28.1287 57.8693 28.4063C58.0152 28.6828 58.0881 29.0157 58.0881 29.4051ZM57.4299 29.4051C57.4299 29.131 57.3869 28.8998 57.3011 28.7116C57.2164 28.5222 57.0987 28.3792 56.9481 28.2828C56.7976 28.1851 56.624 28.1363 56.4276 28.1363C56.2311 28.1363 56.0576 28.1851 55.907 28.2828C55.7564 28.3792 55.6382 28.5222 55.5523 28.7116C55.4676 28.8998 55.4253 29.131 55.4253 29.4051C55.4253 29.6792 55.4676 29.9109 55.5523 30.1003C55.6382 30.2886 55.7564 30.4315 55.907 30.5291C56.0576 30.6256 56.2311 30.6738 56.4276 30.6738C56.624 30.6738 56.7976 30.6256 56.9481 30.5291C57.0987 30.4315 57.2164 30.2886 57.3011 30.1003C57.3869 29.9109 57.4299 29.6792 57.4299 29.4051ZM58.707 31.212V27.5981H60.0623C60.3399 27.5981 60.5728 27.6463 60.761 27.7428C60.9504 27.8393 61.0934 27.9746 61.1898 28.1487C61.2875 28.3216 61.3363 28.5233 61.3363 28.7539C61.3363 28.9857 61.2869 29.1868 61.1881 29.3574C61.0904 29.5268 60.9463 29.658 60.7558 29.7509C60.5652 29.8427 60.3311 29.8886 60.0534 29.8886H59.0882V29.3451H59.9652C60.1275 29.3451 60.2605 29.3227 60.364 29.278C60.4675 29.2321 60.544 29.1657 60.5934 29.0786C60.644 28.9904 60.6693 28.8822 60.6693 28.7539C60.6693 28.6257 60.644 28.5163 60.5934 28.4257C60.5428 28.3339 60.4658 28.2645 60.3622 28.2175C60.2587 28.1692 60.1252 28.1451 59.9617 28.1451H59.3617V31.212H58.707ZM60.574 29.5745L61.4687 31.212H60.7381L59.8593 29.5745H60.574ZM61.5512 27.5981H62.2905L63.1746 29.1968H63.2099L64.094 27.5981H64.8333L63.5187 29.8639V31.212H62.8658V29.8639L61.5512 27.5981ZM67.5813 31.265C67.3342 31.265 67.1219 31.2203 66.9443 31.1309C66.7666 31.0415 66.6296 30.9209 66.5331 30.7691C66.4378 30.6162 66.3902 30.4438 66.3902 30.2521C66.3902 30.1074 66.4196 29.9792 66.4784 29.8674C66.5384 29.7556 66.6208 29.6521 66.7255 29.5568C66.8313 29.4615 66.9537 29.3668 67.0925 29.2727L67.7331 28.8369C67.8272 28.7757 67.8983 28.711 67.9466 28.6428C67.996 28.5745 68.0207 28.4945 68.0207 28.4028C68.0207 28.3251 67.9877 28.2516 67.9219 28.1822C67.8572 28.1128 67.7678 28.0781 67.6536 28.0781C67.5772 28.0781 67.5095 28.0963 67.4507 28.1328C67.3931 28.1681 67.3478 28.2145 67.3148 28.2722C67.2831 28.3298 67.2672 28.391 67.2672 28.4557C67.2672 28.5345 67.289 28.6145 67.3325 28.6957C67.3772 28.7769 67.4348 28.861 67.5054 28.948C67.5772 29.0351 67.6536 29.1274 67.7348 29.2251L69.4306 31.212H68.7389L67.3307 29.5992C67.226 29.4768 67.1248 29.3562 67.0272 29.2374C66.9307 29.1186 66.8513 28.9951 66.789 28.8669C66.7278 28.7375 66.6972 28.5975 66.6972 28.4469C66.6972 28.2763 66.7366 28.124 66.8154 27.9898C66.8943 27.8546 67.0043 27.7481 67.1454 27.6704C67.2878 27.5928 67.4542 27.554 67.6448 27.554C67.8354 27.554 67.9989 27.5916 68.1354 27.6669C68.2718 27.7422 68.3771 27.8422 68.4512 27.9669C68.5254 28.0916 68.5624 28.2275 68.5624 28.3745C68.5624 28.5451 68.5201 28.698 68.4354 28.8333C68.3507 28.9674 68.233 29.0892 68.0824 29.1986L67.3519 29.7333C67.2319 29.8203 67.146 29.9086 67.0943 29.998C67.0425 30.0862 67.0166 30.1615 67.0166 30.2239C67.0166 30.3191 67.0407 30.4056 67.089 30.4832C67.1372 30.5609 67.2048 30.6232 67.2919 30.6703C67.3801 30.7162 67.4831 30.7391 67.6007 30.7391C67.7301 30.7391 67.8578 30.7103 67.9836 30.6527C68.1095 30.5938 68.2242 30.5103 68.3277 30.4021C68.4313 30.2938 68.5136 30.1644 68.5748 30.0139C68.6359 29.8621 68.6665 29.6939 68.6665 29.5092H69.2153C69.2153 29.7374 69.19 29.9362 69.1395 30.1056C69.0889 30.2738 69.0236 30.4162 68.9436 30.5327C68.8636 30.6479 68.7789 30.7403 68.6895 30.8097C68.6612 30.8297 68.6342 30.8497 68.6083 30.8697C68.5824 30.8897 68.5554 30.9097 68.5271 30.9297C68.4001 31.045 68.2513 31.1297 68.0807 31.1838C67.9113 31.2379 67.7448 31.265 67.5813 31.265ZM71.0571 31.212V27.5981H71.7118V30.6632H73.3035V31.212H71.0571ZM74.5264 27.5981V31.212H73.8717V27.5981H74.5264ZM77.1993 28.5916C77.1829 28.4375 77.1135 28.3175 76.9911 28.2316C76.8699 28.1457 76.7123 28.1028 76.5182 28.1028C76.3817 28.1028 76.2647 28.1234 76.167 28.1645C76.0694 28.2057 75.9947 28.2616 75.9429 28.3322C75.8912 28.4028 75.8647 28.4833 75.8635 28.5739C75.8635 28.6492 75.8806 28.7145 75.9147 28.7698C75.95 28.8251 75.9976 28.8722 76.0576 28.911C76.1176 28.9486 76.1841 28.9804 76.257 29.0063C76.33 29.0321 76.4035 29.0539 76.4776 29.0716L76.8164 29.1563C76.9529 29.188 77.0841 29.231 77.2099 29.2851C77.337 29.3392 77.4505 29.4074 77.5505 29.4898C77.6517 29.5721 77.7317 29.6715 77.7905 29.788C77.8493 29.9045 77.8787 30.0409 77.8787 30.1974C77.8787 30.4091 77.8246 30.5956 77.7164 30.7568C77.6081 30.9168 77.4517 31.042 77.247 31.1326C77.0435 31.222 76.797 31.2667 76.5076 31.2667C76.2264 31.2667 75.9823 31.2232 75.7753 31.1362C75.5694 31.0491 75.4083 30.9221 75.2918 30.755C75.1765 30.5879 75.1142 30.3844 75.1047 30.1444H75.7488C75.7582 30.2703 75.7971 30.375 75.8653 30.4585C75.9335 30.5421 76.0223 30.6044 76.1317 30.6456C76.2423 30.6868 76.3659 30.7074 76.5023 30.7074C76.6447 30.7074 76.7694 30.6862 76.8764 30.6438C76.9846 30.6003 77.0693 30.5403 77.1305 30.4638C77.1917 30.3862 77.2229 30.2956 77.224 30.1921C77.2229 30.098 77.1952 30.0203 77.1411 29.9592C77.087 29.8968 77.0111 29.845 76.9135 29.8039C76.817 29.7615 76.7041 29.7239 76.5747 29.6909L76.1635 29.5851C75.8659 29.5086 75.6306 29.3927 75.4577 29.2374C75.2859 29.081 75.2 28.8733 75.2 28.6145C75.2 28.4016 75.2577 28.2151 75.373 28.0551C75.4894 27.8951 75.6477 27.771 75.8476 27.6828C76.0476 27.5934 76.2741 27.5487 76.527 27.5487C76.7835 27.5487 77.0082 27.5934 77.2011 27.6828C77.3952 27.771 77.5476 27.894 77.6581 28.0516C77.7687 28.2081 77.8258 28.3881 77.8293 28.5916H77.1993ZM78.3036 28.1469V27.5981H81.1869V28.1469H80.0699V31.212H79.4206V28.1469H78.3036ZM82.3975 27.5981V31.212H81.7428V27.5981H82.3975ZM86.0763 27.5981V31.212H85.4939L83.7911 28.7504H83.7611V31.212H83.1064V27.5981H83.6923L85.3933 30.0615H85.4251V27.5981H86.0763ZM89.2107 28.7522C89.1812 28.6569 89.1407 28.5716 89.0889 28.4963C89.0383 28.4198 88.9771 28.3545 88.9054 28.3004C88.8348 28.2463 88.7536 28.2057 88.6619 28.1787C88.5701 28.1504 88.4701 28.1363 88.3619 28.1363C88.1678 28.1363 87.9948 28.1851 87.8431 28.2828C87.6913 28.3804 87.5719 28.5239 87.4849 28.7133C87.399 28.9016 87.356 29.131 87.356 29.4015C87.356 29.6745 87.399 29.9056 87.4849 30.095C87.5707 30.2844 87.6901 30.4285 87.8431 30.5274C87.996 30.625 88.1736 30.6738 88.376 30.6738C88.5595 30.6738 88.7183 30.6385 88.8524 30.568C88.9877 30.4974 89.0918 30.3974 89.1648 30.268C89.2377 30.1374 89.2742 29.9845 89.2742 29.8092L89.4224 29.8321H88.4413V29.3204H89.9077V29.7545C89.9077 30.0639 89.8418 30.3315 89.71 30.5574C89.5783 30.7832 89.3971 30.9573 89.1665 31.0797C88.936 31.2009 88.6713 31.2614 88.3725 31.2614C88.0395 31.2614 87.7472 31.1867 87.4954 31.0373C87.2449 30.8868 87.049 30.6732 86.9078 30.3968C86.7678 30.1191 86.6978 29.7898 86.6978 29.4086C86.6978 29.1168 86.739 28.8563 86.8214 28.6269C86.9049 28.3975 87.0214 28.2028 87.1708 28.0428C87.3202 27.8816 87.4954 27.7593 87.6966 27.6757C87.8978 27.591 88.1166 27.5487 88.3531 27.5487C88.553 27.5487 88.7395 27.5781 88.9124 27.6369C89.0854 27.6946 89.2389 27.7769 89.373 27.884C89.5083 27.991 89.6195 28.1181 89.7065 28.2651C89.7936 28.4122 89.8506 28.5745 89.8777 28.7522H89.2107Z" fill="#444444"/>
</g>
<defs>
<linearGradient id="paint0_linear_210_1287" x1="22.9468" y1="11.7524" x2="22.9468" y2="34.9419" gradientUnits="userSpaceOnUse">
<stop stop-color="#FE6254"/>
<stop offset="1" stop-color="#E32B05"/>
</linearGradient>
<clipPath id="clip0_210_1287">
<rect width="401" height="45" fill="white" transform="translate(0.5 0.5)"/>
</clipPath>
</defs>
</svg>
