<svg width="402" height="45" viewBox="0 0 402 45" fill="none" xmlns="http://www.w3.org/2000/svg">
<g clip-path="url(#clip0_210_1206)">
<path d="M400.811 0.5H0.810547V44.2207H400.811V0.5Z" fill="white"/>
<mask id="mask0_210_1206" style="mask-type:luminance" maskUnits="userSpaceOnUse" x="305" y="16" width="13" height="13">
<path d="M317.061 16.2662H305.234V28.0931H317.061V16.2662Z" fill="white"/>
</mask>
<g mask="url(#mask0_210_1206)">
<path d="M310.148 22.1797C310.732 22.1797 311.304 22.0063 311.79 21.6814C312.277 21.3565 312.656 20.8947 312.879 20.3545C313.103 19.8142 313.162 19.2197 313.048 18.6461C312.933 18.0726 312.652 17.5457 312.238 17.1322C311.825 16.7187 311.298 16.4371 310.724 16.323C310.151 16.209 309.556 16.2675 309.016 16.4913C308.476 16.7151 308.014 17.0941 307.689 17.5803C307.364 18.0665 307.191 18.6382 307.191 19.223C307.192 20.0069 307.503 20.7585 308.058 21.3128C308.612 21.8671 309.364 22.1789 310.148 22.1797ZM310.148 17.2518C310.537 17.2518 310.919 17.3674 311.243 17.584C311.567 17.8006 311.82 18.1085 311.969 18.4686C312.118 18.8288 312.157 19.2251 312.081 19.6075C312.005 19.9899 311.817 20.3411 311.541 20.6168C311.266 20.8924 310.915 21.0802 310.532 21.1562C310.15 21.2323 309.753 21.1933 309.393 21.0441C309.033 20.8949 308.725 20.6422 308.509 20.3181C308.292 19.9939 308.176 19.6128 308.176 19.223C308.176 18.7002 308.384 18.1988 308.754 17.8291C309.123 17.4595 309.625 17.2518 310.148 17.2518Z" fill="black"/>
<path d="M310.148 23.1653C308.972 23.1666 307.845 23.6343 307.013 24.4657C306.182 25.2972 305.714 26.4245 305.713 27.6004C305.713 27.7311 305.765 27.8564 305.857 27.9488C305.95 28.0412 306.075 28.0932 306.206 28.0932C306.336 28.0932 306.462 28.0412 306.554 27.9488C306.647 27.8564 306.698 27.7311 306.698 27.6004C306.698 26.6855 307.062 25.8081 307.709 25.1612C308.356 24.5143 309.233 24.1509 310.148 24.1509C311.063 24.1509 311.94 24.5143 312.587 25.1612C313.234 25.8081 313.597 26.6855 313.597 27.6004C313.597 27.7311 313.649 27.8564 313.742 27.9488C313.834 28.0412 313.96 28.0932 314.09 28.0932C314.221 28.0932 314.346 28.0412 314.439 27.9488C314.531 27.8564 314.583 27.7311 314.583 27.6004C314.582 26.4245 314.114 25.2972 313.283 24.4657C312.451 23.6343 311.324 23.1666 310.148 23.1653Z" fill="black"/>
</g>
<path d="M329.769 26.4187C332.13 26.4187 334.044 24.5049 334.044 22.144C334.044 19.7831 332.13 17.8693 329.769 17.8693C327.408 17.8693 325.494 19.7831 325.494 22.144C325.494 24.5049 327.408 26.4187 329.769 26.4187Z" stroke="black" stroke-width="1.22135" stroke-linecap="round" stroke-linejoin="round"/>
<path d="M335.111 27.4874L332.787 25.163" stroke="black" stroke-width="1.22135" stroke-linecap="round" stroke-linejoin="round"/>
<path d="M282.605 22.1797H294.432" stroke="black" stroke-width="1.57692" stroke-linecap="round" stroke-linejoin="round"/>
<path d="M282.605 18.4346H294.432" stroke="black" stroke-width="1.57692" stroke-linecap="round" stroke-linejoin="round"/>
<path d="M282.605 25.9249H294.432" stroke="black" stroke-width="1.57692" stroke-linecap="round" stroke-linejoin="round"/>
<path d="M319.664 16.199V28.7645" stroke="#D5D5D5" stroke-width="0.78846"/>
<path d="M300.51 16.199V28.7645" stroke="#D5D5D5" stroke-width="0.78846"/>
<path d="M382.067 15.3073H351.953C347.882 15.3073 344.582 18.6074 344.582 22.6784C344.582 26.7493 347.882 30.0495 351.953 30.0495H382.067C386.138 30.0495 389.438 26.7493 389.438 22.6783C389.438 18.6074 386.138 15.3073 382.067 15.3073Z" fill="#F0F3F8" stroke="black" stroke-width="0.6"/>
<path d="M353.444 22.1933C353.403 22.064 353.347 21.9482 353.278 21.846C353.209 21.7423 353.128 21.6542 353.033 21.5818C352.937 21.5079 352.829 21.4518 352.707 21.4134C352.586 21.3751 352.453 21.3559 352.308 21.3559C352.062 21.3559 351.841 21.4191 351.643 21.5455C351.446 21.672 351.29 21.8573 351.175 22.1016C351.061 22.3445 351.004 22.6421 351.004 22.9944C351.004 23.3481 351.062 23.6471 351.177 23.8914C351.292 24.1357 351.449 24.3211 351.65 24.4475C351.85 24.5739 352.078 24.6372 352.334 24.6372C352.571 24.6372 352.778 24.5889 352.954 24.4923C353.131 24.3957 353.268 24.2593 353.365 24.0832C353.463 23.9056 353.512 23.6968 353.512 23.4568L353.682 23.4887H352.434V22.9454H354.149V23.4418C354.149 23.8083 354.071 24.1265 353.915 24.3964C353.76 24.6649 353.545 24.8722 353.271 25.0185C352.998 25.1649 352.686 25.238 352.334 25.238C351.939 25.238 351.592 25.1471 351.294 24.9653C350.997 24.7835 350.765 24.5256 350.599 24.1918C350.433 23.8566 350.35 23.4589 350.35 22.9987C350.35 22.6506 350.398 22.3381 350.495 22.0612C350.591 21.7842 350.727 21.5491 350.902 21.3559C351.078 21.1613 351.285 21.0129 351.522 20.9106C351.761 20.8069 352.021 20.755 352.304 20.755C352.54 20.755 352.759 20.7899 352.962 20.8595C353.167 20.9291 353.349 21.0278 353.508 21.1556C353.668 21.2835 353.801 21.4354 353.906 21.6116C354.011 21.7863 354.082 21.9802 354.119 22.1933H353.444ZM356.344 25.2444C356.022 25.2444 355.744 25.1755 355.511 25.0377C355.28 24.8985 355.101 24.7032 354.974 24.4518C354.849 24.1989 354.787 23.9028 354.787 23.5633C354.787 23.2281 354.849 22.9326 354.974 22.6769C355.101 22.4212 355.277 22.2217 355.503 22.0782C355.73 21.9347 355.995 21.863 356.299 21.863C356.484 21.863 356.663 21.8935 356.836 21.9546C357.01 22.0157 357.165 22.1116 357.303 22.2423C357.441 22.3729 357.549 22.5427 357.629 22.7515C357.708 22.9589 357.748 23.211 357.748 23.5079V23.7337H355.147V23.2565H357.124C357.124 23.0889 357.09 22.9404 357.022 22.8112C356.954 22.6805 356.858 22.5775 356.734 22.5022C356.612 22.4269 356.468 22.3893 356.304 22.3893C356.125 22.3893 355.968 22.4333 355.835 22.5214C355.703 22.608 355.601 22.7217 355.528 22.8623C355.457 23.0015 355.422 23.1528 355.422 23.3161V23.689C355.422 23.9077 355.46 24.0938 355.537 24.2472C355.615 24.4006 355.723 24.5178 355.863 24.5988C356.002 24.6783 356.164 24.7181 356.351 24.7181C356.471 24.7181 356.581 24.7011 356.681 24.667C356.78 24.6315 356.866 24.5789 356.939 24.5093C357.011 24.4397 357.066 24.3538 357.105 24.2515L357.708 24.3602C357.659 24.5377 357.573 24.6933 357.448 24.8268C357.324 24.9589 357.169 25.0619 356.981 25.1357C356.795 25.2082 356.583 25.2444 356.344 25.2444ZM359.983 21.9056V22.417H358.195V21.9056H359.983ZM358.675 21.1215H359.312V24.2174C359.312 24.341 359.33 24.434 359.367 24.4965C359.404 24.5576 359.452 24.5995 359.51 24.6222C359.569 24.6435 359.634 24.6542 359.704 24.6542C359.755 24.6542 359.8 24.6506 359.838 24.6435C359.876 24.6364 359.906 24.6308 359.927 24.6265L360.042 25.1528C360.006 25.167 359.953 25.1812 359.885 25.1954C359.817 25.211 359.731 25.2195 359.629 25.221C359.462 25.2238 359.305 25.194 359.16 25.1315C359.015 25.069 358.898 24.9724 358.809 24.8417C358.719 24.711 358.675 24.547 358.675 24.3495V21.1215ZM364.707 21.961C364.684 21.7593 364.59 21.6031 364.425 21.4923C364.261 21.38 364.053 21.3239 363.803 21.3239C363.624 21.3239 363.469 21.3524 363.339 21.4092C363.208 21.4646 363.106 21.5413 363.034 21.6393C362.963 21.7359 362.927 21.846 362.927 21.9695C362.927 22.0732 362.952 22.1627 363 22.238C363.05 22.3133 363.114 22.3765 363.194 22.4276C363.275 22.4774 363.361 22.5193 363.454 22.5533C363.546 22.586 363.635 22.613 363.72 22.6343L364.146 22.7451C364.285 22.7792 364.428 22.8254 364.574 22.8836C364.721 22.9418 364.856 23.0185 364.981 23.1137C365.106 23.2089 365.207 23.3268 365.284 23.4674C365.362 23.608 365.401 23.7764 365.401 23.9724C365.401 24.2195 365.337 24.439 365.209 24.6308C365.083 24.8225 364.899 24.9738 364.658 25.0846C364.417 25.1954 364.127 25.2508 363.786 25.2508C363.459 25.2508 363.177 25.1989 362.938 25.0952C362.699 24.9916 362.513 24.8445 362.378 24.6542C362.243 24.4624 362.168 24.2352 362.154 23.9724H362.814C362.827 24.13 362.878 24.2614 362.968 24.3666C363.059 24.4702 363.175 24.5477 363.315 24.5988C363.457 24.6485 363.613 24.6734 363.782 24.6734C363.968 24.6734 364.133 24.6443 364.278 24.586C364.425 24.5264 364.54 24.444 364.623 24.3389C364.707 24.2323 364.749 24.108 364.749 23.966C364.749 23.8367 364.712 23.7309 364.638 23.6485C364.566 23.5661 364.467 23.4979 364.342 23.444C364.219 23.39 364.079 23.3424 363.922 23.3012L363.407 23.1606C363.057 23.0654 362.78 22.9255 362.576 22.7408C362.373 22.5562 362.271 22.3119 362.271 22.0079C362.271 21.7565 362.339 21.537 362.476 21.3495C362.612 21.162 362.797 21.0164 363.03 20.9127C363.263 20.8076 363.525 20.755 363.818 20.755C364.114 20.755 364.374 20.8069 364.6 20.9106C364.827 21.0143 365.006 21.157 365.137 21.3389C365.268 21.5193 365.336 21.7266 365.341 21.961H364.707ZM367.664 21.9056V22.417H365.877V21.9056H367.664ZM366.356 21.1215H366.993V24.2174C366.993 24.341 367.012 24.434 367.049 24.4965C367.086 24.5576 367.133 24.5995 367.191 24.6222C367.251 24.6435 367.316 24.6542 367.385 24.6542C367.436 24.6542 367.481 24.6506 367.52 24.6435C367.558 24.6364 367.588 24.6308 367.609 24.6265L367.724 25.1528C367.687 25.167 367.635 25.1812 367.566 25.1954C367.498 25.211 367.413 25.2195 367.311 25.221C367.143 25.2238 366.987 25.194 366.842 25.1315C366.697 25.069 366.58 24.9724 366.49 24.8417C366.401 24.711 366.356 24.547 366.356 24.3495V21.1215ZM369.322 25.2508C369.114 25.2508 368.927 25.2124 368.759 25.1357C368.591 25.0576 368.459 24.9447 368.361 24.797C368.264 24.6492 368.216 24.4681 368.216 24.2536C368.216 24.069 368.251 23.917 368.322 23.7977C368.393 23.6783 368.489 23.5839 368.61 23.5143C368.731 23.4447 368.866 23.3921 369.015 23.3566C369.164 23.3211 369.316 23.2941 369.471 23.2756C369.667 23.2529 369.826 23.2345 369.948 23.2202C370.07 23.2046 370.159 23.1798 370.214 23.1457C370.27 23.1116 370.297 23.0562 370.297 22.9795V22.9646C370.297 22.7785 370.245 22.6343 370.14 22.532C370.036 22.4298 369.881 22.3786 369.675 22.3786C369.461 22.3786 369.292 22.4262 369.168 22.5214C369.046 22.6151 368.962 22.7195 368.915 22.8346L368.316 22.6982C368.387 22.4994 368.491 22.3389 368.627 22.2167C368.765 22.0931 368.923 22.0036 369.102 21.9482C369.281 21.8914 369.469 21.863 369.667 21.863C369.797 21.863 369.936 21.8786 370.082 21.9099C370.23 21.9397 370.368 21.9951 370.496 22.0761C370.625 22.157 370.731 22.2728 370.813 22.4234C370.895 22.5725 370.937 22.7664 370.937 23.005V25.1783H370.314V24.7309H370.289C370.248 24.8133 370.186 24.8943 370.104 24.9738C370.021 25.0533 369.915 25.1194 369.786 25.172C369.657 25.2245 369.502 25.2508 369.322 25.2508ZM369.46 24.7394C369.636 24.7394 369.787 24.7046 369.912 24.635C370.038 24.5654 370.134 24.4745 370.199 24.3623C370.266 24.2487 370.3 24.1272 370.3 23.9979V23.5761C370.277 23.5988 370.233 23.6201 370.167 23.64C370.104 23.6585 370.03 23.6748 369.948 23.689C369.866 23.7018 369.785 23.7139 369.707 23.7252C369.629 23.7352 369.564 23.7437 369.511 23.7508C369.388 23.7664 369.275 23.7927 369.172 23.8296C369.072 23.8666 368.991 23.9198 368.93 23.9894C368.87 24.0576 368.84 24.1485 368.84 24.2622C368.84 24.4198 368.898 24.5391 369.015 24.6201C369.131 24.6997 369.28 24.7394 369.46 24.7394ZM371.785 25.1783V21.9056H372.401V22.4255H372.435C372.495 22.2494 372.6 22.1109 372.75 22.01C372.902 21.9077 373.074 21.8566 373.266 21.8566C373.306 21.8566 373.353 21.858 373.407 21.8609C373.462 21.8637 373.505 21.8673 373.537 21.8715V22.4809C373.511 22.4738 373.466 22.466 373.4 22.4575C373.335 22.4475 373.27 22.4425 373.204 22.4425C373.054 22.4425 372.919 22.4745 372.802 22.5384C372.685 22.6009 372.593 22.6883 372.525 22.8005C372.456 22.9113 372.422 23.0377 372.422 23.1798V25.1783H371.785ZM375.809 21.9056V22.417H374.021V21.9056H375.809ZM374.501 21.1215H375.138V24.2174C375.138 24.341 375.156 24.434 375.193 24.4965C375.23 24.5576 375.278 24.5995 375.336 24.6222C375.396 24.6435 375.46 24.6542 375.53 24.6542C375.581 24.6542 375.626 24.6506 375.664 24.6435C375.702 24.6364 375.732 24.6308 375.754 24.6265L375.869 25.1528C375.832 25.167 375.779 25.1812 375.711 25.1954C375.643 25.211 375.558 25.2195 375.455 25.221C375.288 25.2238 375.131 25.194 374.987 25.1315C374.842 25.069 374.724 24.9724 374.635 24.8417C374.545 24.711 374.501 24.547 374.501 24.3495V21.1215ZM377.889 25.2444C377.567 25.2444 377.289 25.1755 377.056 25.0377C376.824 24.8985 376.645 24.7032 376.519 24.4518C376.394 24.1989 376.332 23.9028 376.332 23.5633C376.332 23.2281 376.394 22.9326 376.519 22.6769C376.645 22.4212 376.822 22.2217 377.047 22.0782C377.275 21.9347 377.54 21.863 377.844 21.863C378.029 21.863 378.208 21.8935 378.381 21.9546C378.555 22.0157 378.71 22.1116 378.848 22.2423C378.986 22.3729 379.094 22.5427 379.174 22.7515C379.253 22.9589 379.293 23.211 379.293 23.5079V23.7337H376.692V23.2565H378.669C378.669 23.0889 378.635 22.9404 378.567 22.8112C378.498 22.6805 378.403 22.5775 378.279 22.5022C378.157 22.4269 378.013 22.3893 377.849 22.3893C377.67 22.3893 377.513 22.4333 377.38 22.5214C377.248 22.608 377.145 22.7217 377.073 22.8623C377.002 23.0015 376.966 23.1528 376.966 23.3161V23.689C376.966 23.9077 377.005 24.0938 377.082 24.2472C377.16 24.4006 377.268 24.5178 377.408 24.5988C377.547 24.6783 377.709 24.7181 377.895 24.7181C378.016 24.7181 378.126 24.7011 378.226 24.667C378.325 24.6315 378.411 24.5789 378.484 24.5093C378.556 24.4397 378.611 24.3538 378.65 24.2515L379.253 24.3602C379.204 24.5377 379.118 24.6933 378.993 24.8268C378.869 24.9589 378.714 25.0619 378.526 25.1357C378.34 25.2082 378.128 25.2444 377.889 25.2444ZM381.225 25.2423C380.961 25.2423 380.725 25.1748 380.518 25.0399C380.312 24.9035 380.15 24.7096 380.032 24.4582C379.916 24.2053 379.857 23.9021 379.857 23.5484C379.857 23.1947 379.916 22.8921 380.034 22.6407C380.153 22.3893 380.317 22.1968 380.524 22.0633C380.732 21.9298 380.967 21.863 381.229 21.863C381.433 21.863 381.596 21.8971 381.72 21.9653C381.845 22.032 381.941 22.1102 382.009 22.1997C382.079 22.2891 382.133 22.368 382.171 22.4362H382.21V20.8147H382.847V25.1783H382.224V24.6691H382.171C382.133 24.7387 382.077 24.8183 382.005 24.9077C381.934 24.9972 381.836 25.0754 381.711 25.1421C381.586 25.2089 381.424 25.2423 381.225 25.2423ZM381.366 24.6989C381.549 24.6989 381.704 24.6506 381.83 24.5541C381.958 24.456 382.055 24.3204 382.12 24.1471C382.187 23.9738 382.22 23.7721 382.22 23.542C382.22 23.3147 382.188 23.1158 382.122 22.9454C382.057 22.7749 381.961 22.6421 381.835 22.547C381.708 22.4518 381.552 22.4042 381.366 22.4042C381.174 22.4042 381.014 22.4539 380.886 22.5533C380.759 22.6528 380.662 22.7884 380.597 22.9603C380.533 23.1322 380.501 23.3261 380.501 23.542C380.501 23.7607 380.533 23.9575 380.599 24.1322C380.664 24.3069 380.761 24.4454 380.889 24.5477C381.018 24.6485 381.177 24.6989 381.366 24.6989Z" fill="black"/>
<path d="M215.843 21.6277C215.795 21.5794 215.738 21.5411 215.675 21.515C215.612 21.4888 215.545 21.4753 215.477 21.4753C215.409 21.4753 215.342 21.4888 215.279 21.515C215.216 21.5411 215.159 21.5794 215.111 21.6277L212.752 23.9868C212.705 24.035 212.648 24.0734 212.585 24.0995C212.522 24.1257 212.455 24.1391 212.387 24.1391C212.319 24.1391 212.251 24.1257 212.189 24.0995C212.126 24.0734 212.069 24.035 212.021 23.9868L209.662 21.6277C209.614 21.5794 209.557 21.5411 209.494 21.515C209.432 21.4888 209.364 21.4753 209.296 21.4753C209.228 21.4753 209.161 21.4888 209.098 21.515C209.035 21.5411 208.978 21.5794 208.931 21.6277C208.835 21.7242 208.781 21.8548 208.781 21.9908C208.781 22.1269 208.835 22.2575 208.931 22.354L211.295 24.7182C211.584 25.0075 211.977 25.1701 212.387 25.1701C212.796 25.1701 213.189 25.0075 213.479 24.7182L215.843 22.354C215.939 22.2575 215.993 22.1269 215.993 21.9908C215.993 21.8548 215.939 21.7242 215.843 21.6277Z" fill="#535353"/>
<path d="M184.89 23.1875V22.4246H188.383V23.1875H184.89ZM187.851 20.5345H188.677V25.4346H187.851V20.5345ZM184.561 20.5345H185.387V25.4346H184.561V20.5345ZM190.365 22.9846C190.365 23.3206 190.435 23.6216 190.575 23.8876C190.72 24.1489 190.918 24.3541 191.17 24.5035C191.422 24.6528 191.709 24.7276 192.031 24.7276C192.358 24.7276 192.645 24.6528 192.892 24.5035C193.144 24.3541 193.34 24.1489 193.48 23.8876C193.625 23.6216 193.697 23.3206 193.697 22.9846C193.697 22.6486 193.627 22.3499 193.487 22.0886C193.347 21.8226 193.151 21.6148 192.899 21.4655C192.652 21.3161 192.362 21.2416 192.031 21.2416C191.709 21.2416 191.422 21.3161 191.17 21.4655C190.918 21.6148 190.72 21.8226 190.575 22.0886C190.435 22.3499 190.365 22.6486 190.365 22.9846ZM189.49 22.9846C189.49 22.6159 189.553 22.2776 189.679 21.9696C189.805 21.6616 189.982 21.3956 190.211 21.1716C190.444 20.9429 190.715 20.7656 191.023 20.6396C191.336 20.5136 191.672 20.4506 192.031 20.4506C192.4 20.4506 192.738 20.5136 193.046 20.6396C193.354 20.7656 193.622 20.9429 193.851 21.1716C194.084 21.3956 194.264 21.6616 194.39 21.9696C194.516 22.2776 194.579 22.6159 194.579 22.9846C194.579 23.3486 194.516 23.6868 194.39 23.9995C194.264 24.3121 194.087 24.5829 193.858 24.8116C193.629 25.0402 193.359 25.2198 193.046 25.3505C192.738 25.4765 192.4 25.5396 192.031 25.5396C191.667 25.5396 191.329 25.4765 191.016 25.3505C190.703 25.2198 190.433 25.0402 190.204 24.8116C189.98 24.5829 189.805 24.3121 189.679 23.9995C189.553 23.6868 189.49 23.3486 189.49 22.9846ZM196.292 22.4526L195.956 25.4346H195.102L195.774 20.2896L197.783 23.6145L199.799 20.2896L200.471 25.4346H199.617L199.274 22.4526L197.783 24.9796L196.292 22.4526ZM201.786 25.4346V24.7066H204.257V25.4346H201.786ZM201.786 21.2626V20.5345H204.257V21.2626H201.786ZM201.786 23.1665V22.4526H204.117V23.1665H201.786ZM201.275 20.5345H202.087V25.4346H201.275V20.5345Z" fill="black"/>
<path d="M265.539 21.6277C265.491 21.5794 265.434 21.5411 265.372 21.515C265.309 21.4888 265.241 21.4753 265.174 21.4753C265.106 21.4753 265.038 21.4888 264.975 21.515C264.913 21.5411 264.856 21.5794 264.808 21.6277L262.449 23.9868C262.401 24.035 262.344 24.0734 262.281 24.0995C262.218 24.1257 262.151 24.1391 262.083 24.1391C262.015 24.1391 261.948 24.1257 261.885 24.0995C261.822 24.0734 261.765 24.035 261.717 23.9868L259.358 21.6277C259.31 21.5794 259.253 21.5411 259.191 21.515C259.128 21.4888 259.061 21.4753 258.993 21.4753C258.925 21.4753 258.857 21.4888 258.794 21.515C258.732 21.5411 258.675 21.5794 258.627 21.6277C258.531 21.7242 258.477 21.8548 258.477 21.9908C258.477 22.1269 258.531 22.2575 258.627 22.354L260.991 24.7182C261.281 25.0075 261.674 25.1701 262.083 25.1701C262.493 25.1701 262.885 25.0075 263.175 24.7182L265.539 22.354C265.635 22.2575 265.689 22.1269 265.689 21.9908C265.689 21.8548 265.635 21.7242 265.539 21.6277Z" fill="#535353"/>
<path d="M233.843 24.1746L233.997 23.4746H236.272L236.433 24.1746H233.843ZM235.124 21.9206L234.354 23.7196L234.34 23.9016L233.661 25.4346H232.73L235.124 20.2616L237.518 25.4346H236.587L235.922 23.9436L235.901 23.7406L235.124 21.9206ZM238.718 22.9076V22.5016H239.509C239.663 22.5016 239.799 22.4759 239.915 22.4246C240.032 22.3732 240.123 22.3009 240.188 22.2076C240.254 22.1096 240.286 21.9929 240.286 21.8576C240.286 21.6522 240.214 21.4936 240.069 21.3816C239.925 21.2696 239.738 21.2136 239.509 21.2136H238.914V24.7556H239.6C239.787 24.7556 239.953 24.7252 240.097 24.6646C240.242 24.6039 240.356 24.5129 240.44 24.3916C240.524 24.2702 240.566 24.1186 240.566 23.9366C240.566 23.8059 240.541 23.6916 240.489 23.5936C240.443 23.4909 240.375 23.4069 240.286 23.3416C240.202 23.2716 240.102 23.2226 239.985 23.1946C239.869 23.1619 239.74 23.1456 239.6 23.1456H238.718V22.6906H239.649C239.887 22.6906 240.111 22.7162 240.321 22.7676C240.531 22.8189 240.718 22.8982 240.881 23.0056C241.049 23.1129 241.18 23.2506 241.273 23.4186C241.367 23.5866 241.413 23.7872 241.413 24.0206C241.413 24.3426 241.336 24.6086 241.182 24.8186C241.033 25.0286 240.825 25.1849 240.559 25.2876C240.298 25.3856 239.995 25.4346 239.649 25.4346H238.088V20.5346H239.565C239.873 20.5346 240.144 20.5789 240.377 20.6676C240.615 20.7562 240.8 20.8916 240.93 21.0736C241.066 21.2556 241.133 21.4866 241.133 21.7666C241.133 22.0092 241.066 22.2169 240.93 22.3896C240.8 22.5576 240.615 22.6859 240.377 22.7746C240.144 22.8632 239.873 22.9076 239.565 22.9076H238.718ZM242.881 22.9846C242.881 23.3206 242.951 23.6216 243.091 23.8876C243.235 24.1489 243.434 24.3542 243.686 24.5036C243.938 24.6529 244.225 24.7276 244.547 24.7276C244.873 24.7276 245.16 24.6529 245.408 24.5036C245.66 24.3542 245.856 24.1489 245.996 23.8876C246.14 23.6216 246.213 23.3206 246.213 22.9846C246.213 22.6486 246.143 22.3499 246.003 22.0886C245.863 21.8226 245.667 21.6149 245.415 21.4656C245.167 21.3162 244.878 21.2416 244.547 21.2416C244.225 21.2416 243.938 21.3162 243.686 21.4656C243.434 21.6149 243.235 21.8226 243.091 22.0886C242.951 22.3499 242.881 22.6486 242.881 22.9846ZM242.006 22.9846C242.006 22.6159 242.069 22.2776 242.195 21.9696C242.321 21.6616 242.498 21.3956 242.727 21.1716C242.96 20.9429 243.231 20.7656 243.539 20.6396C243.851 20.5136 244.187 20.4506 244.547 20.4506C244.915 20.4506 245.254 20.5136 245.562 20.6396C245.87 20.7656 246.138 20.9429 246.367 21.1716C246.6 21.3956 246.78 21.6616 246.906 21.9696C247.032 22.2776 247.095 22.6159 247.095 22.9846C247.095 23.3486 247.032 23.6869 246.906 23.9996C246.78 24.3122 246.602 24.5829 246.374 24.8116C246.145 25.0402 245.874 25.2199 245.562 25.3506C245.254 25.4766 244.915 25.5396 244.547 25.5396C244.183 25.5396 243.844 25.4766 243.532 25.3506C243.219 25.2199 242.948 25.0402 242.72 24.8116C242.496 24.5829 242.321 24.3122 242.195 23.9996C242.069 23.6869 242.006 23.3486 242.006 22.9846ZM247.863 20.5346H248.689V23.7896C248.689 24.0929 248.768 24.3379 248.927 24.5246C249.09 24.7066 249.331 24.7976 249.648 24.7976C249.961 24.7976 250.199 24.7066 250.362 24.5246C250.525 24.3379 250.607 24.0929 250.607 23.7896V20.5346H251.433V23.8246C251.433 24.0952 251.389 24.3379 251.3 24.5526C251.216 24.7626 251.095 24.9422 250.936 25.0916C250.777 25.2409 250.588 25.3552 250.369 25.4346C250.15 25.5139 249.909 25.5536 249.648 25.5536C249.387 25.5536 249.146 25.5139 248.927 25.4346C248.708 25.3552 248.516 25.2409 248.353 25.0916C248.194 24.9422 248.073 24.7626 247.989 24.5526C247.905 24.3379 247.863 24.0952 247.863 23.8246V20.5346ZM252.002 21.2976V20.5346H255.418V21.2976H254.123V25.4346H253.29V21.2976H252.002Z" fill="black"/>
<path d="M31.4479 19.3123C31.3261 18.4946 31.1041 17.7051 30.7818 16.9441L30.1599 15.7154C29.1977 14.1225 27.8959 12.8914 26.2544 12.0221C25.1335 11.4277 23.9431 11.0729 22.6834 10.9578C22.1662 10.8931 21.6516 10.8728 21.1396 10.8966L19.7961 11.0532C17.5068 11.5141 15.6043 12.6305 14.089 14.4022C13.9708 14.5409 13.8526 14.6812 13.7341 14.8231C13.7195 14.8405 13.7092 14.8598 13.7032 14.8815C13.6952 14.9104 13.6832 14.9367 13.6674 14.9601C13.3881 15.2893 13.1391 15.6704 12.9204 16.1031C12.6931 16.5092 12.493 16.9559 12.3196 17.4429C12.1453 17.9206 12.0097 18.4188 11.9128 18.9371C11.4026 21.911 12.0926 24.7297 13.9708 27.0494C14.2155 27.3515 14.3847 27.5494 14.4789 27.6431C16.4844 29.6351 18.4844 31.6329 20.479 33.6364C20.5099 33.6681 20.5543 33.6822 20.5943 33.699C21.0159 34.1297 21.7762 34.1571 22.2997 33.9547C22.765 33.7692 23.0733 33.392 23.4957 32.9571L25.0121 31.4424L26.3915 30.0605C27.0852 29.3744 27.7766 28.6828 28.4657 27.986C28.8888 27.5584 29.2042 27.2128 29.4123 26.9497C30.5689 25.4846 31.2628 23.8008 31.4943 21.8984C31.5275 21.6273 31.5336 21.3738 31.5126 21.1383C31.6082 20.551 31.535 19.8989 31.4479 19.3123ZM18.2799 17.5622C18.2808 17.5622 18.2807 17.5633 18.2815 17.5639C18.2799 17.5631 18.2784 17.5619 18.2768 17.563C18.2777 17.5624 18.2788 17.5621 18.2799 17.5622ZM17.615 27.8609C17.615 27.8609 17.6158 27.861 17.616 27.8612C17.6163 27.8613 17.6164 27.8613 17.6167 27.8616C17.6161 27.8613 17.6156 27.861 17.615 27.8609ZM17.8961 28.4931C17.8961 28.4931 17.8966 28.4934 17.8968 28.4934C17.8977 28.4938 17.8985 28.4942 17.8993 28.4947C17.8982 28.494 17.8972 28.4935 17.8961 28.4931ZM26.4866 22.4495C26.4866 22.4495 26.486 22.4492 26.4856 22.4491C26.4861 22.4492 26.4868 22.4496 26.487 22.4492C26.4869 22.4493 26.4868 22.4493 26.4866 22.4495Z" fill="url(#paint0_linear_210_1206)"/>
<path d="M16.6029 20.8128C16.2762 20.5828 15.8376 20.6249 15.5517 20.9391C15.2223 21.3024 15.2223 21.8917 15.5517 22.2559L18.0127 24.9698C18.3421 25.3331 18.8766 25.3331 19.2069 24.9698L25.0292 18.5493C25.3585 18.1861 25.3585 17.5967 25.0292 17.2325C24.7442 16.9182 24.3047 16.8761 23.978 17.1062L19.0737 22.5144C18.6973 22.9295 18.5881 23.002 18.2116 22.5859L16.6029 20.8128Z" fill="white"/>
<path d="M19.2078 20.0688C18.881 19.8387 18.4425 19.8808 18.1566 20.1951C17.8272 20.5583 17.8272 21.1477 18.1566 21.5119L18.6174 22.02L19.7973 20.7189L19.2069 20.0678L19.2078 20.0688ZM20.7019 24.3178L21.2932 24.9698C21.6226 25.3331 22.1571 25.3331 22.4873 24.9698L28.3088 18.5493C28.6381 18.1861 28.6381 17.5967 28.3088 17.2325C28.0238 16.9182 27.5843 16.8761 27.2585 17.1062L22.3533 22.5144C22.2636 22.6133 22.189 22.6926 22.1225 22.7513L20.7019 24.3178Z" fill="white"/>
<path d="M34.9204 23.7518V23.6193L35.1987 23.5133C35.3842 23.4426 35.4991 23.3587 35.5432 23.2615C35.5962 23.1555 35.6227 23.0142 35.6227 22.8375V15.9204C35.6227 15.7437 35.5962 15.6024 35.5432 15.4964C35.4902 15.3904 35.3754 15.3065 35.1987 15.2446L34.9204 15.1386V15.0061H38.2995V15.1386L38.0609 15.2446C37.8931 15.3065 37.7783 15.3948 37.7164 15.5096C37.6546 15.6157 37.6237 15.757 37.6237 15.9337V23.4868H39.6643C39.9912 23.4868 40.2297 23.4073 40.3799 23.2483C40.5389 23.0893 40.6891 22.8596 40.8304 22.5592L41.3472 21.4461H41.4797L41.3605 23.7518H34.9204ZM43.9052 16.4902C43.6048 16.4902 43.3487 16.3975 43.1366 16.212C42.9334 16.0176 42.8319 15.7747 42.8319 15.4831C42.8319 15.1828 42.9334 14.9398 43.1366 14.7543C43.3487 14.5688 43.6048 14.4761 43.9052 14.4761C44.2056 14.4761 44.4573 14.5688 44.6605 14.7543C44.8637 14.9398 44.9653 15.1828 44.9653 15.4831C44.9653 15.7747 44.8637 16.0176 44.6605 16.212C44.4573 16.3975 44.2056 16.4902 43.9052 16.4902ZM42.3416 23.7518V23.6193L42.5271 23.5663C42.7038 23.5133 42.823 23.4338 42.8849 23.3278C42.9555 23.2218 42.9909 23.0804 42.9909 22.9038V18.7562C42.9909 18.5706 42.9555 18.4337 42.8849 18.3454C42.823 18.2482 42.7038 18.1819 42.5271 18.1466L42.3416 18.1069V17.9743L44.7665 17.1925L44.899 17.325L44.8593 19.2067V22.917C44.8593 23.0937 44.8902 23.235 44.952 23.341C45.0227 23.4471 45.142 23.5266 45.3098 23.5796L45.4423 23.6193V23.7518H42.3416ZM48.5865 23.9506C48.1536 23.9506 47.7649 23.8976 47.4204 23.7916C47.0758 23.6944 46.7578 23.5707 46.4663 23.4206L46.4795 21.8437H46.612L47.0626 22.6387C47.2569 22.9921 47.469 23.2571 47.6986 23.4338C47.9372 23.6017 48.2375 23.6856 48.5997 23.6856C49.0237 23.6856 49.3639 23.5928 49.62 23.4073C49.8851 23.213 50.0176 22.9568 50.0176 22.6387C50.0176 22.3472 49.9248 22.1087 49.7393 21.9232C49.5538 21.7377 49.2093 21.5698 48.7057 21.4196L48.1492 21.2474C47.6103 21.0884 47.1863 20.841 46.8771 20.5053C46.5679 20.1696 46.4133 19.7588 46.4133 19.273C46.4133 18.6899 46.643 18.1952 47.1023 17.7888C47.5617 17.3825 48.2198 17.1793 49.0768 17.1793C49.4213 17.1793 49.7437 17.219 50.0441 17.2985C50.3533 17.3692 50.6492 17.4796 50.9319 17.6298L50.8524 19.0609H50.7199L50.2561 18.2394C50.0883 17.9478 49.9204 17.7447 49.7526 17.6298C49.5935 17.5061 49.3506 17.4443 49.0237 17.4443C48.7234 17.4443 48.4407 17.5282 48.1757 17.6961C47.9107 17.8639 47.7781 18.1024 47.7781 18.4116C47.7781 18.712 47.8886 18.9505 48.1094 19.1272C48.3391 19.3039 48.6748 19.4673 49.1165 19.6175L49.7128 19.7898C50.3489 19.9841 50.8038 20.2535 51.0777 20.5981C51.3515 20.9338 51.4885 21.3401 51.4885 21.8172C51.4885 22.4621 51.2323 22.9788 50.7199 23.3675C50.2163 23.7562 49.5052 23.9506 48.5865 23.9506ZM54.8482 23.9506C54.2828 23.9506 53.8411 23.8093 53.5231 23.5266C53.2139 23.2439 53.0593 22.7933 53.0593 22.1749V17.6431H52.145V17.5106L52.463 17.4576C52.7369 17.3957 52.971 17.3074 53.1653 17.1925C53.3685 17.0777 53.5673 16.9231 53.7616 16.7287L54.8482 15.5229H54.9807L54.941 17.378H56.4251V17.6431H54.9277V22.4135C54.9277 22.7227 54.994 22.9568 55.1265 23.1158C55.2678 23.2748 55.4445 23.3543 55.6565 23.3543C55.8421 23.3543 56.0055 23.3101 56.1468 23.2218C56.2882 23.1246 56.4295 22.9965 56.5709 22.8375L56.7034 22.97C56.5267 23.2704 56.2838 23.5089 55.9746 23.6856C55.6654 23.8623 55.2899 23.9506 54.8482 23.9506ZM57.3324 23.7518V23.6193L57.5974 23.5266C57.7741 23.4736 57.8889 23.3941 57.9419 23.288C58.0038 23.182 58.0347 23.0407 58.0347 22.864V15.9204C58.0347 15.7437 58.0038 15.6024 57.9419 15.4964C57.8801 15.3904 57.7608 15.3065 57.5842 15.2446L57.3324 15.1386V15.0061H60.5524C61.8687 15.0061 62.8184 15.249 63.4014 15.7349C63.9933 16.212 64.2892 16.8436 64.2892 17.6298C64.2892 18.1334 64.1656 18.5972 63.9182 19.0212C63.6797 19.4364 63.2821 19.7677 62.7256 20.015C62.1691 20.2624 61.4182 20.3861 60.4729 20.3861H60.0224V22.8243C60.0224 23.1688 60.1946 23.3941 60.5392 23.5001L60.9367 23.6193V23.7518H57.3324ZM60.0224 20.121H60.5259C60.9588 20.121 61.3121 20.0504 61.586 19.909C61.8599 19.7677 62.063 19.5203 62.1956 19.1669C62.3281 18.8136 62.3943 18.3233 62.3943 17.6961C62.3943 17.06 62.3192 16.5653 62.1691 16.212C62.0277 15.8586 61.8157 15.6157 61.533 15.4831C61.2503 15.3418 60.8969 15.2711 60.4729 15.2711H60.0224V20.121ZM65.0117 23.7518V23.6193L65.2105 23.5663C65.3872 23.5133 65.5064 23.4338 65.5683 23.3278C65.6389 23.2218 65.6743 23.0849 65.6743 22.917V18.7694C65.6743 18.5751 65.6389 18.4337 65.5683 18.3454C65.5064 18.2482 65.3872 18.1819 65.2105 18.1466L65.0117 18.0936V17.9611L67.2909 17.1925L67.4234 17.325L67.5427 18.4646V18.5706C67.6664 18.3233 67.8254 18.098 68.0197 17.8948C68.2229 17.6828 68.4438 17.5106 68.6823 17.378C68.9296 17.2455 69.1726 17.1793 69.4111 17.1793C69.7468 17.1793 70.003 17.272 70.1797 17.4576C70.3563 17.6431 70.4447 17.8772 70.4447 18.1599C70.4447 18.4602 70.3563 18.6943 70.1797 18.8622C70.0118 19.0212 69.8086 19.1007 69.5701 19.1007C69.1991 19.1007 68.8722 18.9152 68.5895 18.5441L68.563 18.5176C68.4747 18.394 68.3731 18.3277 68.2582 18.3189C68.1434 18.3012 68.0374 18.3542 67.9402 18.4779C67.8519 18.5574 67.7768 18.6546 67.7149 18.7694C67.6619 18.8754 67.6089 18.9991 67.5559 19.1404V22.8375C67.5559 23.1909 67.7105 23.4117 68.0197 23.5001L68.4438 23.6193V23.7518H65.0117ZM74.2448 17.1793C74.8191 17.1793 75.3093 17.2985 75.7157 17.5371C76.1221 17.7667 76.4313 18.0848 76.6433 18.4911C76.8641 18.8887 76.9746 19.3436 76.9746 19.856C76.9746 19.9532 76.9702 20.0548 76.9613 20.1608C76.9525 20.258 76.9348 20.3463 76.9083 20.4258H72.9595C72.9683 21.3799 73.1362 22.0689 73.463 22.493C73.7987 22.9082 74.2934 23.1158 74.9472 23.1158C75.3889 23.1158 75.7466 23.0451 76.0205 22.9038C76.2943 22.7624 76.5505 22.5548 76.7891 22.281L76.9216 22.4002C76.6477 22.8861 76.2811 23.266 75.8217 23.5398C75.3712 23.8137 74.8279 23.9506 74.1918 23.9506C73.5646 23.9506 73.0081 23.8181 72.5222 23.5531C72.0363 23.2792 71.6565 22.8905 71.3826 22.387C71.1087 21.8834 70.9718 21.2827 70.9718 20.5848C70.9718 19.8604 71.1308 19.2465 71.4489 18.7429C71.7669 18.2305 72.1733 17.8418 72.668 17.5768C73.1715 17.3118 73.6971 17.1793 74.2448 17.1793ZM74.2051 17.4443C73.9489 17.4443 73.728 17.5238 73.5425 17.6828C73.3659 17.833 73.2245 18.1069 73.1185 18.5044C73.0213 18.8931 72.9683 19.4452 72.9595 20.1608H75.2254C75.3138 19.1979 75.2784 18.5044 75.1194 18.0804C74.9604 17.6563 74.6556 17.4443 74.2051 17.4443ZM80.1924 23.9506C79.7595 23.9506 79.3708 23.8976 79.0263 23.7916C78.6818 23.6944 78.3638 23.5707 78.0722 23.4206L78.0855 21.8437H78.218L78.6685 22.6387C78.8629 22.9921 79.0749 23.2571 79.3046 23.4338C79.5431 23.6017 79.8435 23.6856 80.2057 23.6856C80.6297 23.6856 80.9698 23.5928 81.226 23.4073C81.491 23.213 81.6235 22.9568 81.6235 22.6387C81.6235 22.3472 81.5308 22.1087 81.3453 21.9232C81.1597 21.7377 80.8152 21.5698 80.3117 21.4196L79.7551 21.2474C79.2163 21.0884 78.7922 20.841 78.483 20.5053C78.1738 20.1696 78.0192 19.7588 78.0192 19.273C78.0192 18.6899 78.2489 18.1952 78.7083 17.7888C79.1677 17.3825 79.8258 17.1793 80.6827 17.1793C81.0272 17.1793 81.3497 17.219 81.65 17.2985C81.9592 17.3692 82.2552 17.4796 82.5379 17.6298L82.4584 19.0609H82.3258L81.8621 18.2394C81.6942 17.9478 81.5264 17.7447 81.3585 17.6298C81.1995 17.5061 80.9566 17.4443 80.6297 17.4443C80.3293 17.4443 80.0467 17.5282 79.7816 17.6961C79.5166 17.8639 79.3841 18.1024 79.3841 18.4116C79.3841 18.712 79.4945 18.9505 79.7154 19.1272C79.9451 19.3039 80.2808 19.4673 80.7225 19.6175L81.3188 19.7898C81.9548 19.9841 82.4098 20.2535 82.6836 20.5981C82.9575 20.9338 83.0944 21.3401 83.0944 21.8172C83.0944 22.4621 82.8382 22.9788 82.3258 23.3675C81.8223 23.7562 81.1112 23.9506 80.1924 23.9506ZM86.2289 23.9506C85.796 23.9506 85.4073 23.8976 85.0628 23.7916C84.7183 23.6944 84.4003 23.5707 84.1087 23.4206L84.122 21.8437H84.2545L84.705 22.6387C84.8994 22.9921 85.1114 23.2571 85.3411 23.4338C85.5796 23.6017 85.88 23.6856 86.2422 23.6856C86.6662 23.6856 87.0063 23.5928 87.2625 23.4073C87.5275 23.213 87.66 22.9568 87.66 22.6387C87.66 22.3472 87.5673 22.1087 87.3818 21.9232C87.1962 21.7377 86.8517 21.5698 86.3482 21.4196L85.7916 21.2474C85.2528 21.0884 84.8287 20.841 84.5195 20.5053C84.2103 20.1696 84.0557 19.7588 84.0557 19.273C84.0557 18.6899 84.2854 18.1952 84.7448 17.7888C85.2042 17.3825 85.8623 17.1793 86.7192 17.1793C87.0637 17.1793 87.3862 17.219 87.6865 17.2985C87.9957 17.3692 88.2917 17.4796 88.5744 17.6298L88.4949 19.0609H88.3623L87.8986 18.2394C87.7307 17.9478 87.5629 17.7447 87.395 17.6298C87.236 17.5061 86.9931 17.4443 86.6662 17.4443C86.3658 17.4443 86.0832 17.5282 85.8181 17.6961C85.5531 17.8639 85.4206 18.1024 85.4206 18.4116C85.4206 18.712 85.531 18.9505 85.7519 19.1272C85.9816 19.3039 86.3173 19.4673 86.759 19.6175L87.3553 19.7898C87.9913 19.9841 88.4463 20.2535 88.7201 20.5981C88.994 20.9338 89.1309 21.3401 89.1309 21.8172C89.1309 22.4621 88.8747 22.9788 88.3623 23.3675C87.8588 23.7562 87.1477 23.9506 86.2289 23.9506Z" fill="#111111"/>
<path d="M36.7627 30.3466H35.5381V26.7326H36.7874C37.1462 26.7326 37.4545 26.805 37.7121 26.9497C37.9709 27.0932 38.1697 27.2997 38.3085 27.569C38.4474 27.8384 38.5168 28.1608 38.5168 28.5361C38.5168 28.9125 38.4468 29.236 38.3068 29.5066C38.168 29.7772 37.9674 29.9848 37.705 30.1295C37.4439 30.2742 37.1298 30.3466 36.7627 30.3466ZM36.1928 29.7801H36.731C36.9827 29.7801 37.1927 29.7342 37.3609 29.6425C37.5292 29.5495 37.6556 29.4113 37.7403 29.2278C37.825 29.0431 37.8674 28.8125 37.8674 28.5361C37.8674 28.2596 37.825 28.0302 37.7403 27.8479C37.6556 27.6643 37.5303 27.5273 37.3645 27.4367C37.1998 27.3449 36.9951 27.2991 36.7504 27.2991H36.1928V29.7801ZM39.7935 26.7326V30.3466H39.1388V26.7326H39.7935ZM40.5024 30.3466V26.7326H41.8576C42.1353 26.7326 42.3682 26.7809 42.5564 26.8773C42.7458 26.9738 42.8888 27.1091 42.9852 27.2832C43.0829 27.4561 43.1317 27.6579 43.1317 27.8884C43.1317 28.1202 43.0823 28.3214 42.9835 28.4919C42.8858 28.6613 42.7417 28.7925 42.5511 28.8855C42.3605 28.9772 42.1264 29.0231 41.8488 29.0231H40.8836V28.4796H41.7606C41.9229 28.4796 42.0559 28.4572 42.1594 28.4125C42.2629 28.3667 42.3394 28.3002 42.3888 28.2131C42.4394 28.1249 42.4647 28.0167 42.4647 27.8884C42.4647 27.7602 42.4394 27.6508 42.3888 27.5602C42.3382 27.4685 42.2611 27.3991 42.1576 27.352C42.0541 27.3038 41.9206 27.2797 41.757 27.2797H41.1571V30.3466H40.5024ZM42.3694 28.709L43.264 30.3466H42.5335L41.6547 28.709H42.3694ZM43.7343 30.3466V26.7326H46.0848V27.2814H44.389V28.2625H45.963V28.8113H44.389V29.7978H46.0989V30.3466H43.7343ZM49.8461 27.952H49.1861C49.1673 27.8437 49.1326 27.7479 49.082 27.6643C49.0314 27.5796 48.9685 27.5079 48.8932 27.4491C48.8179 27.3902 48.732 27.3461 48.6355 27.3167C48.5402 27.2861 48.4373 27.2708 48.3267 27.2708C48.1303 27.2708 47.9562 27.3202 47.8044 27.4191C47.6526 27.5167 47.5338 27.6602 47.4479 27.8496C47.3621 28.0378 47.3191 28.2678 47.3191 28.5396C47.3191 28.816 47.3621 29.049 47.4479 29.2384C47.535 29.4266 47.6538 29.5689 47.8044 29.6654C47.9562 29.7607 48.1297 29.8083 48.325 29.8083C48.4332 29.8083 48.5344 29.7942 48.6285 29.766C48.7238 29.7366 48.809 29.6936 48.8843 29.6372C48.9608 29.5807 49.0249 29.5113 49.0767 29.429C49.1296 29.3466 49.1661 29.2525 49.1861 29.1466L49.8461 29.1501C49.8214 29.3219 49.7678 29.4831 49.6855 29.6337C49.6043 29.7842 49.4978 29.9172 49.3661 30.0325C49.2343 30.1466 49.0802 30.236 48.9037 30.3007C48.7273 30.3642 48.5314 30.396 48.3161 30.396C47.9985 30.396 47.715 30.3224 47.4656 30.1754C47.2162 30.0283 47.0197 29.816 46.8762 29.5384C46.7327 29.2607 46.6609 28.9278 46.6609 28.5396C46.6609 28.1502 46.7333 27.8173 46.878 27.5408C47.0227 27.2632 47.2197 27.0508 47.4691 26.9038C47.7185 26.7567 48.0009 26.6832 48.3161 26.6832C48.5173 26.6832 48.7043 26.7114 48.8773 26.7679C49.0502 26.8244 49.2043 26.9073 49.3396 27.0167C49.4749 27.125 49.5861 27.2579 49.6731 27.4155C49.7614 27.572 49.819 27.7508 49.8461 27.952ZM50.2868 27.2814V26.7326H53.1702V27.2814H52.0532V30.3466H51.4038V27.2814H50.2868ZM56.7951 28.5396C56.7951 28.929 56.7222 29.2625 56.5763 29.5401C56.4316 29.8166 56.234 30.0283 55.9834 30.1754C55.734 30.3224 55.4511 30.396 55.1346 30.396C54.8182 30.396 54.5346 30.3224 54.2841 30.1754C54.0347 30.0272 53.837 29.8148 53.6912 29.5384C53.5465 29.2607 53.4741 28.9278 53.4741 28.5396C53.4741 28.1502 53.5465 27.8173 53.6912 27.5408C53.837 27.2632 54.0347 27.0508 54.2841 26.9038C54.5346 26.7567 54.8182 26.6832 55.1346 26.6832C55.4511 26.6832 55.734 26.7567 55.9834 26.9038C56.234 27.0508 56.4316 27.2632 56.5763 27.5408C56.7222 27.8173 56.7951 28.1502 56.7951 28.5396ZM56.1369 28.5396C56.1369 28.2655 56.094 28.0343 56.0081 27.8461C55.9234 27.6567 55.8058 27.5138 55.6552 27.4173C55.5046 27.3196 55.3311 27.2708 55.1346 27.2708C54.9382 27.2708 54.7646 27.3196 54.6141 27.4173C54.4635 27.5138 54.3452 27.6567 54.2594 27.8461C54.1747 28.0343 54.1323 28.2655 54.1323 28.5396C54.1323 28.8137 54.1747 29.0454 54.2594 29.2348C54.3452 29.4231 54.4635 29.566 54.6141 29.6637C54.7646 29.7601 54.9382 29.8083 55.1346 29.8083C55.3311 29.8083 55.5046 29.7601 55.6552 29.6637C55.8058 29.566 55.9234 29.4231 56.0081 29.2348C56.094 29.0454 56.1369 28.8137 56.1369 28.5396ZM57.4141 30.3466V26.7326H58.7693C59.0469 26.7326 59.2798 26.7809 59.4681 26.8773C59.6575 26.9738 59.8004 27.1091 59.8969 27.2832C59.9945 27.4561 60.0433 27.6579 60.0433 27.8884C60.0433 28.1202 59.9939 28.3214 59.8951 28.4919C59.7975 28.6613 59.6534 28.7925 59.4628 28.8855C59.2722 28.9772 59.0381 29.0231 58.7605 29.0231H57.7952V28.4796H58.6722C58.8346 28.4796 58.9675 28.4572 59.071 28.4125C59.1746 28.3667 59.251 28.3002 59.3004 28.2131C59.351 28.1249 59.3763 28.0167 59.3763 27.8884C59.3763 27.7602 59.351 27.6508 59.3004 27.5602C59.2499 27.4685 59.1728 27.3991 59.0693 27.352C58.9657 27.3038 58.8322 27.2797 58.6687 27.2797H58.0687V30.3466H57.4141ZM59.281 28.709L60.1757 30.3466H59.4451L58.5664 28.709H59.281ZM60.2582 26.7326H60.9976L61.8816 28.3314H61.9169L62.801 26.7326H63.5404L62.2257 28.9984V30.3466H61.5728V28.9984L60.2582 26.7326ZM66.2883 30.3995C66.0413 30.3995 65.8289 30.3548 65.6513 30.2654C65.4737 30.176 65.3366 30.0554 65.2401 29.9036C65.1449 29.7507 65.0972 29.5784 65.0972 29.3866C65.0972 29.2419 65.1266 29.1137 65.1854 29.0019C65.2454 28.8902 65.3278 28.7866 65.4325 28.6913C65.5384 28.5961 65.6607 28.5014 65.7995 28.4072L66.4401 27.9714C66.5342 27.9102 66.6054 27.8455 66.6536 27.7773C66.703 27.709 66.7277 27.629 66.7277 27.5373C66.7277 27.4596 66.6948 27.3861 66.6289 27.3167C66.5642 27.2473 66.4748 27.2126 66.3607 27.2126C66.2842 27.2126 66.2166 27.2308 66.1577 27.2673C66.1001 27.3026 66.0548 27.3491 66.0219 27.4067C65.9901 27.4643 65.9742 27.5255 65.9742 27.5902C65.9742 27.669 65.996 27.749 66.0395 27.8302C66.0842 27.9114 66.1419 27.9955 66.2124 28.0826C66.2842 28.1696 66.3607 28.262 66.4418 28.3596L68.1376 30.3466H67.4459L66.0377 28.7337C65.933 28.6114 65.8319 28.4908 65.7342 28.372C65.6378 28.2531 65.5584 28.1296 65.496 28.0014C65.4348 27.872 65.4043 27.732 65.4043 27.5814C65.4043 27.4108 65.4437 27.2585 65.5225 27.1244C65.6013 26.9891 65.7113 26.8826 65.8525 26.805C65.9948 26.7273 66.1613 26.6885 66.3519 26.6885C66.5424 26.6885 66.706 26.7261 66.8424 26.8014C66.9789 26.8767 67.0842 26.9767 67.1583 27.1014C67.2324 27.2261 67.2695 27.362 67.2695 27.5091C67.2695 27.6796 67.2271 27.8326 67.1424 27.9679C67.0577 28.102 66.9401 28.2237 66.7895 28.3331L66.0589 28.8678C65.9389 28.9549 65.8531 29.0431 65.8013 29.1325C65.7495 29.2207 65.7236 29.296 65.7236 29.3584C65.7236 29.4537 65.7478 29.5401 65.796 29.6178C65.8442 29.6954 65.9119 29.7578 65.9989 29.8048C66.0872 29.8507 66.1901 29.8736 66.3077 29.8736C66.4371 29.8736 66.5648 29.8448 66.6907 29.7872C66.8165 29.7284 66.9312 29.6448 67.0348 29.5366C67.1383 29.4284 67.2206 29.299 67.2818 29.1484C67.343 28.9966 67.3736 28.8284 67.3736 28.6437H67.9224C67.9224 28.8719 67.8971 29.0707 67.8465 29.2401C67.7959 29.4084 67.7306 29.5507 67.6506 29.6672C67.5706 29.7825 67.4859 29.8748 67.3965 29.9442C67.3683 29.9642 67.3412 29.9842 67.3153 30.0042C67.2895 30.0242 67.2624 30.0442 67.2342 30.0642C67.1071 30.1795 66.9583 30.2642 66.7877 30.3183C66.6183 30.3724 66.4518 30.3995 66.2883 30.3995ZM69.7642 30.3466V26.7326H70.4189V29.7978H72.0105V30.3466H69.7642ZM73.2334 26.7326V30.3466H72.5787V26.7326H73.2334ZM75.9064 27.7261C75.8899 27.572 75.8205 27.452 75.6981 27.3661C75.577 27.2802 75.4193 27.2373 75.2252 27.2373C75.0888 27.2373 74.9717 27.2579 74.8741 27.2991C74.7764 27.3402 74.7017 27.3961 74.65 27.4667C74.5982 27.5373 74.5717 27.6179 74.5706 27.7085C74.5706 27.7837 74.5876 27.849 74.6217 27.9043C74.657 27.9596 74.7047 28.0067 74.7647 28.0455C74.8247 28.0831 74.8911 28.1149 74.9641 28.1408C75.037 28.1667 75.1105 28.1884 75.1846 28.2061L75.5234 28.2908C75.6599 28.3225 75.7911 28.3655 75.917 28.4196C76.044 28.4737 76.1575 28.5419 76.2575 28.6243C76.3587 28.7066 76.4387 28.806 76.4975 28.9225C76.5563 29.039 76.5857 29.1754 76.5857 29.3319C76.5857 29.5437 76.5316 29.7301 76.4234 29.8913C76.3152 30.0513 76.1587 30.1766 75.954 30.2671C75.7505 30.3566 75.504 30.4013 75.2146 30.4013C74.9335 30.4013 74.6894 30.3577 74.4823 30.2707C74.2765 30.1836 74.1153 30.0566 73.9988 29.8895C73.8835 29.7225 73.8212 29.519 73.8118 29.279H74.4559C74.4653 29.4048 74.5041 29.5095 74.5723 29.5931C74.6406 29.6766 74.7294 29.7389 74.8388 29.7801C74.9494 29.8213 75.0729 29.8419 75.2093 29.8419C75.3517 29.8419 75.4764 29.8207 75.5834 29.7784C75.6917 29.7348 75.7764 29.6748 75.8376 29.5984C75.8987 29.5207 75.9299 29.4301 75.9311 29.3266C75.9299 29.2325 75.9023 29.1549 75.8481 29.0937C75.794 29.0313 75.7181 28.9796 75.6205 28.9384C75.524 28.896 75.4111 28.8584 75.2817 28.8255L74.8705 28.7196C74.5729 28.6431 74.3376 28.5272 74.1647 28.372C73.9929 28.2155 73.9071 28.0079 73.9071 27.749C73.9071 27.5361 73.9647 27.3496 74.08 27.1897C74.1965 27.0297 74.3547 26.9056 74.5547 26.8173C74.7547 26.7279 74.9811 26.6832 75.2341 26.6832C75.4905 26.6832 75.7152 26.7279 75.9081 26.8173C76.1022 26.9056 76.2546 27.0285 76.3652 27.1861C76.4758 27.3426 76.5328 27.5226 76.5363 27.7261H75.9064ZM77.0106 27.2814V26.7326H79.894V27.2814H78.777V30.3466H78.1276V27.2814H77.0106ZM81.1045 26.7326V30.3466H80.4498V26.7326H81.1045ZM84.7833 26.7326V30.3466H84.201L82.4981 27.8849H82.4681V30.3466H81.8134V26.7326H82.3993L84.1004 29.196H84.1321V26.7326H84.7833ZM87.9177 27.8867C87.8883 27.7914 87.8477 27.7061 87.7959 27.6308C87.7453 27.5543 87.6842 27.4891 87.6124 27.4349C87.5418 27.3808 87.4607 27.3402 87.3689 27.3132C87.2771 27.2849 87.1771 27.2708 87.0689 27.2708C86.8748 27.2708 86.7019 27.3196 86.5501 27.4173C86.3984 27.5149 86.2789 27.6585 86.1919 27.8479C86.106 28.0361 86.0631 28.2655 86.0631 28.5361C86.0631 28.809 86.106 29.0402 86.1919 29.2296C86.2778 29.419 86.3972 29.5631 86.5501 29.6619C86.703 29.7595 86.8807 29.8083 87.083 29.8083C87.2665 29.8083 87.4254 29.7731 87.5595 29.7025C87.6948 29.6319 87.7989 29.5319 87.8718 29.4025C87.9447 29.2719 87.9812 29.119 87.9812 28.9437L88.1294 28.9666H87.1483V28.4549H88.6147V28.889C88.6147 29.1984 88.5488 29.466 88.4171 29.6919C88.2853 29.9178 88.1041 30.0919 87.8736 30.2142C87.643 30.3354 87.3783 30.396 87.0795 30.396C86.7466 30.396 86.4542 30.3213 86.2025 30.1719C85.9519 30.0213 85.756 29.8078 85.6149 29.5313C85.4749 29.2537 85.4049 28.9243 85.4049 28.5431C85.4049 28.2514 85.446 27.9908 85.5284 27.7614C85.6119 27.532 85.7284 27.3373 85.8778 27.1773C86.0272 27.0161 86.2025 26.8938 86.4036 26.8103C86.6048 26.7256 86.8236 26.6832 87.0601 26.6832C87.2601 26.6832 87.4465 26.7126 87.6195 26.7714C87.7924 26.8291 87.9459 26.9114 88.08 27.0185C88.2153 27.1255 88.3265 27.2526 88.4135 27.3996C88.5006 27.5467 88.5577 27.709 88.5847 27.8867H87.9177Z" fill="#444444"/>
</g>
<defs>
<linearGradient id="paint0_linear_210_1206" x1="21.6538" y1="10.887" x2="21.6538" y2="34.0764" gradientUnits="userSpaceOnUse">
<stop stop-color="#FA350C"/>
<stop offset="1" stop-color="#E32B05"/>
</linearGradient>
<clipPath id="clip0_210_1206">
<rect width="401" height="44" fill="white" transform="translate(0.5 0.5)"/>
</clipPath>
</defs>
</svg>
