<svg width="402" height="45" viewBox="0 0 402 45" fill="none" xmlns="http://www.w3.org/2000/svg">
<g clip-path="url(#clip0_210_1258)">
<path d="M400.811 0.5H0.810547V44.2207H400.811V0.5Z" fill="white"/>
<mask id="mask0_210_1258" style="mask-type:luminance" maskUnits="userSpaceOnUse" x="304" y="16" width="13" height="13">
<path d="M316.061 16.2662H304.234V28.0931H316.061V16.2662Z" fill="white"/>
</mask>
<g mask="url(#mask0_210_1258)">
<path d="M309.148 22.1797C309.732 22.1797 310.304 22.0063 310.79 21.6814C311.277 21.3565 311.656 20.8947 311.879 20.3545C312.103 19.8142 312.162 19.2197 312.048 18.6461C311.933 18.0726 311.652 17.5457 311.238 17.1322C310.825 16.7187 310.298 16.4371 309.724 16.323C309.151 16.209 308.556 16.2675 308.016 16.4913C307.476 16.7151 307.014 17.0941 306.689 17.5803C306.364 18.0665 306.191 18.6382 306.191 19.223C306.192 20.0069 306.503 20.7585 307.058 21.3128C307.612 21.8671 308.364 22.1789 309.148 22.1797ZM309.148 17.2518C309.537 17.2518 309.919 17.3674 310.243 17.584C310.567 17.8006 310.82 18.1085 310.969 18.4686C311.118 18.8288 311.157 19.2251 311.081 19.6075C311.005 19.9899 310.817 20.3411 310.541 20.6168C310.266 20.8924 309.915 21.0802 309.532 21.1562C309.15 21.2323 308.753 21.1933 308.393 21.0441C308.033 20.8949 307.725 20.6422 307.509 20.3181C307.292 19.9939 307.176 19.6128 307.176 19.223C307.176 18.7002 307.384 18.1988 307.754 17.8291C308.123 17.4595 308.625 17.2518 309.148 17.2518Z" fill="black"/>
<path d="M309.148 23.1653C307.972 23.1666 306.845 23.6343 306.013 24.4657C305.182 25.2972 304.714 26.4245 304.713 27.6004C304.713 27.7311 304.765 27.8564 304.857 27.9488C304.95 28.0412 305.075 28.0932 305.206 28.0932C305.336 28.0932 305.462 28.0412 305.554 27.9488C305.647 27.8564 305.698 27.7311 305.698 27.6004C305.698 26.6855 306.062 25.8081 306.709 25.1612C307.356 24.5143 308.233 24.1509 309.148 24.1509C310.063 24.1509 310.94 24.5143 311.587 25.1612C312.234 25.8081 312.597 26.6855 312.597 27.6004C312.597 27.7311 312.649 27.8564 312.742 27.9488C312.834 28.0412 312.96 28.0932 313.09 28.0932C313.221 28.0932 313.346 28.0412 313.439 27.9488C313.531 27.8564 313.583 27.7311 313.583 27.6004C313.582 26.4245 313.114 25.2972 312.283 24.4657C311.451 23.6343 310.324 23.1666 309.148 23.1653Z" fill="black"/>
</g>
<path d="M328.769 26.4188C331.13 26.4188 333.044 24.5049 333.044 22.1441C333.044 19.7832 331.13 17.8693 328.769 17.8693C326.408 17.8693 324.494 19.7832 324.494 22.1441C324.494 24.5049 326.408 26.4188 328.769 26.4188Z" stroke="black" stroke-width="1.22135" stroke-linecap="round" stroke-linejoin="round"/>
<path d="M334.111 27.4875L331.787 25.1631" stroke="black" stroke-width="1.22135" stroke-linecap="round" stroke-linejoin="round"/>
<path d="M281.605 22.1797H293.432" stroke="black" stroke-width="1.57692" stroke-linecap="round" stroke-linejoin="round"/>
<path d="M281.605 18.4344H293.432" stroke="black" stroke-width="1.57692" stroke-linecap="round" stroke-linejoin="round"/>
<path d="M281.605 25.9249H293.432" stroke="black" stroke-width="1.57692" stroke-linecap="round" stroke-linejoin="round"/>
<path d="M318.664 16.199V28.7645" stroke="#D5D5D5" stroke-width="0.78846"/>
<path d="M299.51 16.199V28.7645" stroke="#D5D5D5" stroke-width="0.78846"/>
<path d="M214.843 21.6277C214.795 21.5794 214.738 21.5411 214.675 21.515C214.612 21.4888 214.545 21.4753 214.477 21.4753C214.409 21.4753 214.342 21.4888 214.279 21.515C214.216 21.5411 214.159 21.5794 214.111 21.6277L211.752 23.9868C211.705 24.035 211.648 24.0734 211.585 24.0995C211.522 24.1257 211.455 24.1391 211.387 24.1391C211.319 24.1391 211.251 24.1257 211.189 24.0995C211.126 24.0734 211.069 24.035 211.021 23.9868L208.662 21.6277C208.614 21.5794 208.557 21.5411 208.494 21.515C208.432 21.4888 208.364 21.4753 208.296 21.4753C208.228 21.4753 208.161 21.4888 208.098 21.515C208.035 21.5411 207.978 21.5794 207.931 21.6277C207.835 21.7242 207.781 21.8548 207.781 21.9908C207.781 22.1269 207.835 22.2575 207.931 22.354L210.295 24.7182C210.584 25.0075 210.977 25.1701 211.387 25.1701C211.796 25.1701 212.189 25.0075 212.479 24.7182L214.843 22.354C214.939 22.2575 214.993 22.1269 214.993 21.9908C214.993 21.8548 214.939 21.7242 214.843 21.6277Z" fill="#535353"/>
<path d="M183.89 23.1875V22.4246H187.383V23.1875H183.89ZM186.851 20.5345H187.677V25.4346H186.851V20.5345ZM183.561 20.5345H184.387V25.4346H183.561V20.5345ZM189.365 22.9846C189.365 23.3206 189.435 23.6216 189.575 23.8876C189.72 24.1489 189.918 24.3541 190.17 24.5035C190.422 24.6528 190.709 24.7276 191.031 24.7276C191.358 24.7276 191.645 24.6528 191.892 24.5035C192.144 24.3541 192.34 24.1489 192.48 23.8876C192.625 23.6216 192.697 23.3206 192.697 22.9846C192.697 22.6486 192.627 22.3499 192.487 22.0886C192.347 21.8226 192.151 21.6148 191.899 21.4655C191.652 21.3161 191.362 21.2416 191.031 21.2416C190.709 21.2416 190.422 21.3161 190.17 21.4655C189.918 21.6148 189.72 21.8226 189.575 22.0886C189.435 22.3499 189.365 22.6486 189.365 22.9846ZM188.49 22.9846C188.49 22.6159 188.553 22.2776 188.679 21.9696C188.805 21.6616 188.982 21.3956 189.211 21.1716C189.444 20.9429 189.715 20.7656 190.023 20.6396C190.336 20.5136 190.672 20.4506 191.031 20.4506C191.4 20.4506 191.738 20.5136 192.046 20.6396C192.354 20.7656 192.622 20.9429 192.851 21.1716C193.084 21.3956 193.264 21.6616 193.39 21.9696C193.516 22.2776 193.579 22.6159 193.579 22.9846C193.579 23.3486 193.516 23.6868 193.39 23.9995C193.264 24.3121 193.087 24.5829 192.858 24.8116C192.629 25.0402 192.359 25.2198 192.046 25.3505C191.738 25.4765 191.4 25.5396 191.031 25.5396C190.667 25.5396 190.329 25.4765 190.016 25.3505C189.703 25.2198 189.433 25.0402 189.204 24.8116C188.98 24.5829 188.805 24.3121 188.679 23.9995C188.553 23.6868 188.49 23.3486 188.49 22.9846ZM195.292 22.4526L194.956 25.4346H194.102L194.774 20.2896L196.783 23.6145L198.799 20.2896L199.471 25.4346H198.617L198.274 22.4526L196.783 24.9796L195.292 22.4526ZM200.786 25.4346V24.7066H203.257V25.4346H200.786ZM200.786 21.2626V20.5345H203.257V21.2626H200.786ZM200.786 23.1665V22.4526H203.117V23.1665H200.786ZM200.275 20.5345H201.087V25.4346H200.275V20.5345Z" fill="black"/>
<path d="M264.539 21.6277C264.491 21.5794 264.434 21.5411 264.372 21.515C264.309 21.4888 264.241 21.4753 264.174 21.4753C264.106 21.4753 264.038 21.4888 263.975 21.515C263.913 21.5411 263.856 21.5794 263.808 21.6277L261.449 23.9868C261.401 24.035 261.344 24.0734 261.281 24.0995C261.218 24.1257 261.151 24.1391 261.083 24.1391C261.015 24.1391 260.948 24.1257 260.885 24.0995C260.822 24.0734 260.765 24.035 260.717 23.9868L258.358 21.6277C258.31 21.5794 258.253 21.5411 258.191 21.515C258.128 21.4888 258.061 21.4753 257.993 21.4753C257.925 21.4753 257.857 21.4888 257.794 21.515C257.732 21.5411 257.675 21.5794 257.627 21.6277C257.531 21.7242 257.477 21.8548 257.477 21.9908C257.477 22.1269 257.531 22.2575 257.627 22.354L259.991 24.7182C260.281 25.0075 260.674 25.1701 261.083 25.1701C261.493 25.1701 261.885 25.0075 262.175 24.7182L264.539 22.354C264.635 22.2575 264.689 22.1269 264.689 21.9908C264.689 21.8548 264.635 21.7242 264.539 21.6277Z" fill="#535353"/>
<path d="M232.843 24.1746L232.997 23.4746H235.272L235.433 24.1746H232.843ZM234.124 21.9206L233.354 23.7196L233.34 23.9016L232.661 25.4346H231.73L234.124 20.2616L236.518 25.4346H235.587L234.922 23.9436L234.901 23.7406L234.124 21.9206ZM237.718 22.9076V22.5016H238.509C238.663 22.5016 238.799 22.4759 238.915 22.4246C239.032 22.3732 239.123 22.3009 239.188 22.2076C239.254 22.1096 239.286 21.9929 239.286 21.8576C239.286 21.6522 239.214 21.4936 239.069 21.3816C238.925 21.2696 238.738 21.2136 238.509 21.2136H237.914V24.7556H238.6C238.787 24.7556 238.953 24.7252 239.097 24.6646C239.242 24.6039 239.356 24.5129 239.44 24.3916C239.524 24.2702 239.566 24.1186 239.566 23.9366C239.566 23.8059 239.541 23.6916 239.489 23.5936C239.443 23.4909 239.375 23.4069 239.286 23.3416C239.202 23.2716 239.102 23.2226 238.985 23.1946C238.869 23.1619 238.74 23.1456 238.6 23.1456H237.718V22.6906H238.649C238.887 22.6906 239.111 22.7162 239.321 22.7676C239.531 22.8189 239.718 22.8982 239.881 23.0056C240.049 23.1129 240.18 23.2506 240.273 23.4186C240.367 23.5866 240.413 23.7872 240.413 24.0206C240.413 24.3426 240.336 24.6086 240.182 24.8186C240.033 25.0286 239.825 25.1849 239.559 25.2876C239.298 25.3856 238.995 25.4346 238.649 25.4346H237.088V20.5346H238.565C238.873 20.5346 239.144 20.5789 239.377 20.6676C239.615 20.7562 239.8 20.8916 239.93 21.0736C240.066 21.2556 240.133 21.4866 240.133 21.7666C240.133 22.0092 240.066 22.2169 239.93 22.3896C239.8 22.5576 239.615 22.6859 239.377 22.7746C239.144 22.8632 238.873 22.9076 238.565 22.9076H237.718ZM241.881 22.9846C241.881 23.3206 241.951 23.6216 242.091 23.8876C242.235 24.1489 242.434 24.3542 242.686 24.5036C242.938 24.6529 243.225 24.7276 243.547 24.7276C243.873 24.7276 244.16 24.6529 244.408 24.5036C244.66 24.3542 244.856 24.1489 244.996 23.8876C245.14 23.6216 245.213 23.3206 245.213 22.9846C245.213 22.6486 245.143 22.3499 245.003 22.0886C244.863 21.8226 244.667 21.6149 244.415 21.4656C244.167 21.3162 243.878 21.2416 243.547 21.2416C243.225 21.2416 242.938 21.3162 242.686 21.4656C242.434 21.6149 242.235 21.8226 242.091 22.0886C241.951 22.3499 241.881 22.6486 241.881 22.9846ZM241.006 22.9846C241.006 22.6159 241.069 22.2776 241.195 21.9696C241.321 21.6616 241.498 21.3956 241.727 21.1716C241.96 20.9429 242.231 20.7656 242.539 20.6396C242.851 20.5136 243.187 20.4506 243.547 20.4506C243.915 20.4506 244.254 20.5136 244.562 20.6396C244.87 20.7656 245.138 20.9429 245.367 21.1716C245.6 21.3956 245.78 21.6616 245.906 21.9696C246.032 22.2776 246.095 22.6159 246.095 22.9846C246.095 23.3486 246.032 23.6869 245.906 23.9996C245.78 24.3122 245.602 24.5829 245.374 24.8116C245.145 25.0402 244.874 25.2199 244.562 25.3506C244.254 25.4766 243.915 25.5396 243.547 25.5396C243.183 25.5396 242.844 25.4766 242.532 25.3506C242.219 25.2199 241.948 25.0402 241.72 24.8116C241.496 24.5829 241.321 24.3122 241.195 23.9996C241.069 23.6869 241.006 23.3486 241.006 22.9846ZM246.863 20.5346H247.689V23.7896C247.689 24.0929 247.768 24.3379 247.927 24.5246C248.09 24.7066 248.331 24.7976 248.648 24.7976C248.961 24.7976 249.199 24.7066 249.362 24.5246C249.525 24.3379 249.607 24.0929 249.607 23.7896V20.5346H250.433V23.8246C250.433 24.0952 250.389 24.3379 250.3 24.5526C250.216 24.7626 250.095 24.9422 249.936 25.0916C249.777 25.2409 249.588 25.3552 249.369 25.4346C249.15 25.5139 248.909 25.5536 248.648 25.5536C248.387 25.5536 248.146 25.5139 247.927 25.4346C247.708 25.3552 247.516 25.2409 247.353 25.0916C247.194 24.9422 247.073 24.7626 246.989 24.5526C246.905 24.3379 246.863 24.0952 246.863 23.8246V20.5346ZM251.002 21.2976V20.5346H254.418V21.2976H253.123V25.4346H252.29V21.2976H251.002Z" fill="black"/>
<path d="M350.505 17.8279H380.619C384.579 17.8279 387.79 21.0385 387.79 24.999V24.999C387.79 28.9595 384.579 32.1701 380.619 32.1701H350.505C346.545 32.1701 343.334 28.9595 343.334 24.999V24.999C343.334 21.0385 346.545 17.8279 350.505 17.8279Z" stroke="black"/>
<path d="M383.62 14.6279H353.506C349.435 14.6279 346.135 17.9281 346.135 21.999V21.999C346.135 26.07 349.435 29.3701 353.506 29.3701H383.62C387.691 29.3701 390.991 26.07 390.991 21.999C390.991 17.9281 387.691 14.6279 383.62 14.6279Z" fill="black"/>
<path d="M353.506 14.6279H383.62C387.691 14.6279 390.991 17.9281 390.991 21.999V21.999C390.991 26.07 387.691 29.3701 383.62 29.3701H353.506C349.435 29.3701 346.135 26.07 346.135 21.999V21.999C346.135 17.9281 349.435 14.6279 353.506 14.6279Z" stroke="black" stroke-width="0.6"/>
<path d="M354.917 21.5289C354.882 21.4138 354.833 21.3108 354.77 21.2199C354.709 21.1276 354.635 21.0487 354.549 20.9834C354.463 20.9181 354.365 20.8691 354.255 20.8364C354.144 20.8023 354.023 20.7852 353.892 20.7852C353.658 20.7852 353.449 20.8442 353.266 20.9621C353.083 21.08 352.939 21.2533 352.833 21.482C352.73 21.7093 352.678 21.9862 352.678 22.3129C352.678 22.6425 352.73 22.9216 352.833 23.1503C352.937 23.379 353.081 23.553 353.266 23.6723C353.451 23.7902 353.665 23.8492 353.909 23.8492C354.131 23.8492 354.323 23.8066 354.485 23.7213C354.648 23.6361 354.774 23.5154 354.862 23.3591C354.95 23.2014 354.994 23.0168 354.994 22.8051L355.173 22.8328H353.988V22.2149H355.759V22.7391C355.759 23.1127 355.679 23.4358 355.52 23.7085C355.361 23.9813 355.142 24.1915 354.864 24.3392C354.586 24.4855 354.266 24.5587 353.905 24.5587C353.503 24.5587 353.15 24.4685 352.846 24.2881C352.544 24.1063 352.307 23.8485 352.137 23.5146C351.968 23.1794 351.883 22.7817 351.883 22.3215C351.883 21.9692 351.933 21.6546 352.032 21.3776C352.133 21.1006 352.274 20.8655 352.454 20.6723C352.635 20.4777 352.846 20.33 353.089 20.2291C353.332 20.1269 353.596 20.0757 353.882 20.0757C354.123 20.0757 354.348 20.1112 354.557 20.1823C354.766 20.2519 354.951 20.3513 355.113 20.4806C355.277 20.6098 355.411 20.7632 355.516 20.9408C355.621 21.1183 355.69 21.3144 355.723 21.5289H354.917ZM357.938 24.5629C357.61 24.5629 357.326 24.4948 357.088 24.3584C356.851 24.2206 356.668 24.026 356.54 23.7746C356.412 23.5218 356.348 23.2242 356.348 22.8818C356.348 22.5452 356.412 22.2497 356.54 21.9955C356.67 21.7398 356.85 21.5409 357.081 21.3989C357.313 21.2554 357.585 21.1837 357.897 21.1837C358.099 21.1837 358.29 21.2164 358.469 21.2817C358.649 21.3456 358.808 21.445 358.946 21.58C359.085 21.7149 359.194 21.8868 359.274 22.0956C359.353 22.303 359.393 22.5502 359.393 22.8371V23.0736H356.711V22.5537H358.654C358.652 22.406 358.62 22.2746 358.558 22.1595C358.495 22.0431 358.408 21.9514 358.296 21.8847C358.185 21.8179 358.056 21.7845 357.908 21.7845C357.75 21.7845 357.612 21.8229 357.493 21.8996C357.373 21.9749 357.28 22.0743 357.214 22.1979C357.148 22.32 357.115 22.4543 357.113 22.6006V23.0544C357.113 23.2448 357.148 23.4081 357.218 23.5445C357.287 23.6794 357.385 23.7831 357.51 23.8556C357.635 23.9266 357.781 23.9621 357.949 23.9621C358.061 23.9621 358.162 23.9465 358.253 23.9152C358.344 23.8825 358.423 23.835 358.49 23.7725C358.557 23.71 358.607 23.6325 358.641 23.5402L359.361 23.6212C359.316 23.8115 359.229 23.9777 359.101 24.1198C358.975 24.2604 358.813 24.3698 358.616 24.4479C358.418 24.5246 358.192 24.5629 357.938 24.5629ZM361.68 21.2263V21.8229H359.799V21.2263H361.68ZM360.263 20.4422H361.034V23.5146C361.034 23.6183 361.05 23.6979 361.081 23.7533C361.114 23.8073 361.157 23.8442 361.209 23.8641C361.262 23.884 361.32 23.8939 361.384 23.8939C361.432 23.8939 361.476 23.8904 361.516 23.8833C361.557 23.8762 361.588 23.8698 361.61 23.8641L361.74 24.4671C361.698 24.4813 361.639 24.4969 361.563 24.5139C361.488 24.531 361.395 24.5409 361.286 24.5438C361.093 24.5494 360.919 24.5203 360.764 24.4564C360.609 24.3911 360.486 24.2902 360.395 24.1539C360.306 24.0175 360.262 23.847 360.263 23.6425V20.4422ZM366.219 21.335C366.199 21.1489 366.115 21.004 365.967 20.9003C365.821 20.7966 365.631 20.7448 365.396 20.7448C365.232 20.7448 365.09 20.7696 364.972 20.8193C364.855 20.8691 364.764 20.9365 364.702 21.0218C364.639 21.107 364.607 21.2043 364.606 21.3137C364.606 21.4046 364.627 21.4834 364.668 21.5502C364.71 21.6169 364.768 21.6737 364.84 21.7206C364.913 21.7661 364.993 21.8044 365.081 21.8357C365.169 21.8669 365.258 21.8932 365.347 21.9145L365.757 22.0168C365.921 22.0551 366.08 22.107 366.232 22.1723C366.385 22.2377 366.522 22.32 366.643 22.4195C366.765 22.5189 366.862 22.6389 366.933 22.7796C367.004 22.9202 367.039 23.085 367.039 23.2739C367.039 23.5296 366.974 23.7547 366.843 23.9493C366.712 24.1425 366.524 24.2938 366.276 24.4031C366.031 24.5111 365.733 24.5651 365.384 24.5651C365.044 24.5651 364.749 24.5125 364.499 24.4074C364.251 24.3023 364.056 24.1489 363.916 23.9472C363.776 23.7455 363.701 23.4997 363.69 23.21H364.467C364.479 23.3619 364.526 23.4884 364.608 23.5892C364.69 23.6901 364.798 23.7654 364.93 23.8151C365.063 23.8648 365.212 23.8896 365.377 23.8896C365.549 23.8896 365.7 23.8641 365.829 23.8129C365.96 23.7604 366.062 23.6879 366.136 23.5956C366.21 23.5019 366.247 23.3925 366.249 23.2675C366.247 23.1539 366.214 23.0601 366.149 22.9862C366.083 22.911 365.992 22.8485 365.874 22.7987C365.757 22.7476 365.621 22.7021 365.465 22.6624L364.968 22.5345C364.609 22.4422 364.325 22.3023 364.116 22.1148C363.908 21.9259 363.805 21.6752 363.805 21.3627C363.805 21.1056 363.874 20.8804 364.014 20.6872C364.154 20.4941 364.345 20.3442 364.587 20.2377C364.828 20.1297 365.102 20.0757 365.407 20.0757C365.717 20.0757 365.988 20.1297 366.221 20.2377C366.455 20.3442 366.639 20.4926 366.773 20.683C366.906 20.8719 366.975 21.0892 366.98 21.335H366.219ZM369.344 21.2263V21.8229H367.463V21.2263H369.344ZM367.927 20.4422H368.698V23.5146C368.698 23.6183 368.714 23.6979 368.745 23.7533C368.778 23.8073 368.821 23.8442 368.873 23.8641C368.926 23.884 368.984 23.8939 369.048 23.8939C369.096 23.8939 369.14 23.8904 369.18 23.8833C369.221 23.8762 369.252 23.8698 369.274 23.8641L369.404 24.4671C369.363 24.4813 369.304 24.4969 369.227 24.5139C369.152 24.531 369.059 24.5409 368.95 24.5438C368.757 24.5494 368.583 24.5203 368.428 24.4564C368.273 24.3911 368.15 24.2902 368.059 24.1539C367.97 24.0175 367.926 23.847 367.927 23.6425V20.4422ZM370.931 24.5651C370.723 24.5651 370.537 24.5281 370.37 24.4543C370.206 24.379 370.075 24.2682 369.978 24.1219C369.883 23.9756 369.836 23.7952 369.836 23.5807C369.836 23.396 369.87 23.2433 369.938 23.1226C370.006 23.0019 370.099 22.9053 370.217 22.8328C370.335 22.7604 370.468 22.7057 370.616 22.6688C370.765 22.6304 370.919 22.6027 371.078 22.5857C371.27 22.5658 371.425 22.548 371.545 22.5324C371.664 22.5154 371.75 22.4898 371.804 22.4557C371.86 22.4202 371.888 22.3655 371.888 22.2916V22.2789C371.888 22.1183 371.84 21.9941 371.745 21.906C371.65 21.8179 371.513 21.7739 371.334 21.7739C371.145 21.7739 370.995 21.8151 370.884 21.8975C370.775 21.9798 370.701 22.0771 370.662 22.1894L369.942 22.0871C369.999 21.8882 370.093 21.722 370.223 21.5885C370.354 21.4536 370.514 21.3527 370.703 21.286C370.892 21.2178 371.101 21.1837 371.329 21.1837C371.487 21.1837 371.644 21.2021 371.8 21.2391C371.956 21.276 372.099 21.3371 372.228 21.4223C372.358 21.5061 372.461 21.6205 372.54 21.7654C372.619 21.9102 372.659 22.0914 372.659 22.3087V24.499H371.917V24.0494H371.892C371.845 24.1404 371.779 24.2256 371.694 24.3051C371.61 24.3833 371.504 24.4465 371.376 24.4948C371.25 24.5416 371.101 24.5651 370.931 24.5651ZM371.131 23.9983C371.286 23.9983 371.42 23.9678 371.534 23.9067C371.647 23.8442 371.735 23.7618 371.796 23.6595C371.858 23.5573 371.89 23.4458 371.89 23.325V22.9394C371.866 22.9593 371.824 22.9777 371.766 22.9948C371.709 23.0118 371.645 23.0267 371.574 23.0395C371.503 23.0523 371.433 23.0637 371.363 23.0736C371.294 23.0835 371.233 23.0921 371.182 23.0992C371.067 23.1148 370.964 23.1404 370.873 23.1759C370.782 23.2114 370.711 23.2611 370.658 23.325C370.606 23.3875 370.579 23.4685 370.579 23.5679C370.579 23.71 370.631 23.8172 370.735 23.8896C370.839 23.9621 370.971 23.9983 371.131 23.9983ZM373.434 24.499V21.2263H374.182V21.7718H374.216C374.276 21.5828 374.378 21.4372 374.523 21.335C374.67 21.2313 374.836 21.1794 375.024 21.1794C375.067 21.1794 375.114 21.1816 375.167 21.1858C375.221 21.1887 375.265 21.1936 375.301 21.2007V21.9102C375.268 21.8989 375.216 21.8889 375.145 21.8804C375.076 21.8705 375.008 21.8655 374.943 21.8655C374.802 21.8655 374.676 21.896 374.564 21.9571C374.453 22.0168 374.366 22.0999 374.302 22.2064C374.238 22.3129 374.206 22.4358 374.206 22.575V24.499H373.434ZM377.623 21.2263V21.8229H375.742V21.2263H377.623ZM376.206 20.4422H376.978V23.5146C376.978 23.6183 376.993 23.6979 377.025 23.7533C377.057 23.8073 377.1 23.8442 377.152 23.8641C377.205 23.884 377.263 23.8939 377.327 23.8939C377.375 23.8939 377.42 23.8904 377.459 23.8833C377.5 23.8762 377.532 23.8698 377.553 23.8641L377.683 24.4671C377.642 24.4813 377.583 24.4969 377.506 24.5139C377.431 24.531 377.339 24.5409 377.229 24.5438C377.036 24.5494 376.862 24.5203 376.707 24.4564C376.552 24.3911 376.429 24.2902 376.339 24.1539C376.249 24.0175 376.205 23.847 376.206 23.6425V20.4422ZM379.682 24.5629C379.354 24.5629 379.071 24.4948 378.832 24.3584C378.595 24.2206 378.412 24.026 378.284 23.7746C378.157 23.5218 378.093 23.2242 378.093 22.8818C378.093 22.5452 378.157 22.2497 378.284 21.9955C378.414 21.7398 378.594 21.5409 378.826 21.3989C379.057 21.2554 379.329 21.1837 379.642 21.1837C379.843 21.1837 380.034 21.2164 380.213 21.2817C380.393 21.3456 380.552 21.445 380.69 21.58C380.829 21.7149 380.939 21.8868 381.018 22.0956C381.098 22.303 381.137 22.5502 381.137 22.8371V23.0736H378.455V22.5537H380.398C380.397 22.406 380.365 22.2746 380.302 22.1595C380.24 22.0431 380.152 21.9514 380.04 21.8847C379.929 21.8179 379.8 21.7845 379.652 21.7845C379.495 21.7845 379.356 21.8229 379.237 21.8996C379.117 21.9749 379.024 22.0743 378.958 22.1979C378.892 22.32 378.859 22.4543 378.858 22.6006V23.0544C378.858 23.2448 378.892 23.4081 378.962 23.5445C379.032 23.6794 379.129 23.7831 379.254 23.8556C379.379 23.9266 379.525 23.9621 379.693 23.9621C379.805 23.9621 379.907 23.9465 379.997 23.9152C380.088 23.8825 380.167 23.835 380.234 23.7725C380.301 23.71 380.351 23.6325 380.385 23.5402L381.105 23.6212C381.06 23.8115 380.973 23.9777 380.845 24.1198C380.719 24.2604 380.557 24.3698 380.36 24.4479C380.162 24.5246 379.936 24.5629 379.682 24.5629ZM383.004 24.5566C382.747 24.5566 382.517 24.4905 382.314 24.3584C382.111 24.2263 381.95 24.0345 381.832 23.7831C381.715 23.5317 381.656 23.2263 381.656 22.8669C381.656 22.5033 381.715 22.1965 381.835 21.9465C381.955 21.695 382.118 21.5054 382.323 21.3776C382.527 21.2483 382.755 21.1837 383.007 21.1837C383.198 21.1837 383.356 21.2164 383.48 21.2817C383.603 21.3456 383.701 21.423 383.774 21.5139C383.846 21.6034 383.902 21.6879 383.942 21.7675H383.974V20.1354H384.747V24.499H383.989V23.9834H383.942C383.902 24.0629 383.845 24.1475 383.769 24.2369C383.694 24.325 383.595 24.4003 383.471 24.4628C383.347 24.5253 383.192 24.5566 383.004 24.5566ZM383.22 23.9237C383.383 23.9237 383.522 23.8797 383.637 23.7916C383.752 23.7021 383.84 23.5779 383.899 23.4188C383.959 23.2597 383.989 23.0743 383.989 22.8627C383.989 22.651 383.959 22.4671 383.899 22.3108C383.841 22.1546 383.754 22.0331 383.639 21.9465C383.526 21.8598 383.386 21.8165 383.22 21.8165C383.048 21.8165 382.904 21.8612 382.789 21.9507C382.674 22.0402 382.587 22.1638 382.529 22.3215C382.471 22.4791 382.442 22.6595 382.442 22.8627C382.442 23.0672 382.471 23.2497 382.529 23.4102C382.589 23.5693 382.676 23.695 382.791 23.7874C382.908 23.8783 383.051 23.9237 383.22 23.9237Z" fill="white"/>
<path d="M36.1393 20.1534C36.0175 19.3357 35.7955 18.5462 35.4732 17.7852L34.8513 16.5564C33.8891 14.9636 32.5873 13.7325 30.9458 12.8631C29.8249 12.2688 28.6345 11.914 27.3748 11.7988C26.8576 11.7342 26.343 11.7138 25.831 11.7377L24.4875 11.8943C22.1982 12.3552 20.2957 13.4715 18.7804 15.2433C18.6623 15.382 18.544 15.5222 18.4255 15.6642C18.4109 15.6816 18.4006 15.7009 18.3946 15.7225C18.3866 15.7515 18.3746 15.7778 18.3588 15.8012C18.0795 16.1304 17.8305 16.5115 17.6118 16.9442C17.3845 17.3503 17.1844 17.7969 17.011 18.284C16.8367 18.7617 16.7011 19.2598 16.6042 19.7782C16.094 22.7521 16.784 25.5707 18.6623 27.8905C18.9069 28.1926 19.0761 28.3904 19.1703 28.4842C21.1758 30.4762 23.1758 32.4739 25.1704 34.4775C25.2014 34.5092 25.2457 34.5232 25.2857 34.5401C25.7073 34.9708 26.4676 34.9982 26.9911 34.7957C27.4564 34.6103 27.7647 34.2331 28.1871 33.7981L29.7035 32.2835L31.0829 30.9016C31.7767 30.2155 32.468 29.5239 33.1571 28.827C33.5802 28.3994 33.8956 28.0539 34.1037 27.7908C35.2603 26.3257 35.9542 24.6419 36.1857 22.7394C36.2189 22.4683 36.225 22.2149 36.204 21.9793C36.2996 21.3921 36.2264 20.74 36.1393 20.1534ZM22.9713 18.4033C22.9722 18.4033 22.9721 18.4044 22.9729 18.4049C22.9713 18.4042 22.9698 18.403 22.9682 18.404C22.9691 18.4035 22.9702 18.4031 22.9713 18.4033ZM22.3064 28.702C22.3064 28.702 22.3072 28.7021 22.3074 28.7022C22.3077 28.7024 22.3078 28.7024 22.3081 28.7026C22.3076 28.7024 22.307 28.7021 22.3064 28.702ZM22.5875 29.3342C22.5875 29.3342 22.588 29.3345 22.5882 29.3345C22.5891 29.3348 22.5899 29.3352 22.5907 29.3357C22.5897 29.3351 22.5886 29.3346 22.5875 29.3342ZM31.1781 23.2905C31.1781 23.2905 31.1774 23.2903 31.177 23.2901C31.1775 23.2903 31.1782 23.2907 31.1784 23.2903C31.1783 23.2904 31.1782 23.2904 31.1781 23.2905Z" fill="url(#paint0_linear_210_1258)"/>
<path d="M21.2943 21.6539C20.9676 21.4238 20.529 21.4659 20.2431 21.7802C19.9137 22.1434 19.9137 22.7328 20.2431 23.097L22.7042 25.8109C23.0335 26.1741 23.568 26.1741 23.8983 25.8109L29.7206 19.3904C30.0499 19.0271 30.0499 18.4378 29.7206 18.0736C29.4356 17.7593 28.9961 17.7172 28.6694 17.9473L23.7651 23.3555C23.3887 23.7706 23.2795 23.843 22.903 23.4269L21.2943 21.6539Z" fill="white"/>
<path d="M23.8992 20.9098C23.5724 20.6798 23.1339 20.7219 22.848 21.0361C22.5186 21.3994 22.5186 21.9887 22.848 22.3529L23.3088 22.8611L24.4887 21.5599L23.8983 20.9089L23.8992 20.9098ZM25.3934 25.1589L25.9846 25.8109C26.314 26.1741 26.8485 26.1741 27.1788 25.8109L33.0002 19.3904C33.3295 19.0271 33.3295 18.4378 33.0002 18.0736C32.7152 17.7593 32.2757 17.7172 31.9499 17.9473L27.0447 23.3555C26.955 23.4544 26.8804 23.5337 26.8139 23.5924L25.3934 25.1589Z" fill="white"/>
<path d="M39.6118 24.5929V24.4604L39.8901 24.3544C40.0756 24.2837 40.1905 24.1998 40.2346 24.1026C40.2876 23.9966 40.3141 23.8553 40.3141 23.6786V16.7615C40.3141 16.5848 40.2876 16.4435 40.2346 16.3375C40.1816 16.2314 40.0668 16.1475 39.8901 16.0857L39.6118 15.9797V15.8472H42.9909V15.9797L42.7523 16.0857C42.5845 16.1475 42.4697 16.2359 42.4078 16.3507C42.346 16.4567 42.3151 16.5981 42.3151 16.7747V24.3279H44.3557C44.6826 24.3279 44.9211 24.2484 45.0713 24.0894C45.2303 23.9303 45.3805 23.7007 45.5218 23.4003L46.0386 22.2872H46.1711L46.0519 24.5929H39.6118ZM48.5966 17.3313C48.2962 17.3313 48.0401 17.2385 47.828 17.053C47.6249 16.8587 47.5233 16.6157 47.5233 16.3242C47.5233 16.0238 47.6249 15.7809 47.828 15.5954C48.0401 15.4099 48.2962 15.3171 48.5966 15.3171C48.897 15.3171 49.1487 15.4099 49.3519 15.5954C49.5551 15.7809 49.6567 16.0238 49.6567 16.3242C49.6567 16.6157 49.5551 16.8587 49.3519 17.053C49.1487 17.2385 48.897 17.3313 48.5966 17.3313ZM47.033 24.5929V24.4604L47.2185 24.4074C47.3952 24.3544 47.5144 24.2749 47.5763 24.1689C47.6469 24.0629 47.6823 23.9215 47.6823 23.7448V19.5972C47.6823 19.4117 47.6469 19.2748 47.5763 19.1864C47.5144 19.0893 47.3952 19.023 47.2185 18.9877L47.033 18.9479V18.8154L49.4579 18.0336L49.5904 18.1661L49.5507 20.0478V23.7581C49.5507 23.9348 49.5816 24.0761 49.6434 24.1821C49.7141 24.2881 49.8334 24.3676 50.0012 24.4206L50.1337 24.4604V24.5929H47.033ZM53.2779 24.7917C52.845 24.7917 52.4563 24.7387 52.1118 24.6326C51.7672 24.5355 51.4492 24.4118 51.1577 24.2616L51.1709 22.6847H51.3035L51.754 23.4798C51.9483 23.8332 52.1604 24.0982 52.39 24.2749C52.6286 24.4427 52.9289 24.5266 53.2911 24.5266C53.7152 24.5266 54.0553 24.4339 54.3115 24.2484C54.5765 24.054 54.709 23.7978 54.709 23.4798C54.709 23.1883 54.6162 22.9498 54.4307 22.7642C54.2452 22.5787 53.9007 22.4109 53.3971 22.2607L52.8406 22.0884C52.3017 21.9294 51.8777 21.6821 51.5685 21.3464C51.2593 21.0107 51.1047 20.5999 51.1047 20.114C51.1047 19.531 51.3344 19.0363 51.7937 18.6299C52.2531 18.2235 52.9113 18.0203 53.7682 18.0203C54.1127 18.0203 54.4351 18.0601 54.7355 18.1396C55.0447 18.2103 55.3406 18.3207 55.6233 18.4709L55.5438 19.902H55.4113L54.9475 19.0804C54.7797 18.7889 54.6118 18.5857 54.444 18.4709C54.285 18.3472 54.042 18.2854 53.7152 18.2854C53.4148 18.2854 53.1321 18.3693 52.8671 18.5371C52.6021 18.705 52.4695 18.9435 52.4695 19.2527C52.4695 19.5531 52.58 19.7916 52.8008 19.9683C53.0305 20.1449 53.3662 20.3084 53.8079 20.4586L54.4042 20.6308C55.0403 20.8252 55.4952 21.0946 55.7691 21.4391C56.0429 21.7748 56.1799 22.1812 56.1799 22.6582C56.1799 23.3031 55.9237 23.8199 55.4113 24.2086C54.9078 24.5973 54.1966 24.7917 53.2779 24.7917ZM59.5396 24.7917C58.9743 24.7917 58.5326 24.6503 58.2145 24.3676C57.9053 24.0849 57.7507 23.6344 57.7507 23.016V18.4841H56.8364V18.3516L57.1544 18.2986C57.4283 18.2368 57.6624 18.1484 57.8567 18.0336C58.0599 17.9188 58.2587 17.7642 58.453 17.5698L59.5396 16.364H59.6721L59.6324 18.2191H61.1165V18.4841H59.6191V23.2545C59.6191 23.5637 59.6854 23.7978 59.8179 23.9568C59.9593 24.1159 60.1359 24.1954 60.348 24.1954C60.5335 24.1954 60.6969 24.1512 60.8382 24.0629C60.9796 23.9657 61.1209 23.8376 61.2623 23.6786L61.3948 23.8111C61.2181 24.1114 60.9752 24.35 60.666 24.5266C60.3568 24.7033 59.9813 24.7917 59.5396 24.7917ZM62.0238 24.5929V24.4604L62.2888 24.3676C62.4655 24.3146 62.5803 24.2351 62.6334 24.1291C62.6952 24.0231 62.7261 23.8818 62.7261 23.7051V16.7615C62.7261 16.5848 62.6952 16.4435 62.6334 16.3375C62.5715 16.2314 62.4523 16.1475 62.2756 16.0857L62.0238 15.9797V15.8472H65.2438C66.5601 15.8472 67.5098 16.0901 68.0928 16.576C68.6847 17.053 68.9806 17.6847 68.9806 18.4709C68.9806 18.9744 68.857 19.4382 68.6096 19.8623C68.3711 20.2775 67.9735 20.6087 67.417 20.8561C66.8605 21.1034 66.1096 21.2271 65.1643 21.2271H64.7138V23.6653C64.7138 24.0098 64.886 24.2351 65.2306 24.3411L65.6281 24.4604V24.5929H62.0238ZM64.7138 20.9621H65.2173C65.6502 20.9621 66.0036 20.8914 66.2774 20.7501C66.5513 20.6087 66.7544 20.3614 66.887 20.008C67.0195 19.6547 67.0857 19.1644 67.0857 18.5371C67.0857 17.9011 67.0106 17.4064 66.8605 17.053C66.7191 16.6997 66.5071 16.4567 66.2244 16.3242C65.9417 16.1829 65.5884 16.1122 65.1643 16.1122H64.7138V20.9621ZM69.7031 24.5929V24.4604L69.9019 24.4074C70.0786 24.3544 70.1978 24.2749 70.2597 24.1689C70.3303 24.0629 70.3657 23.9259 70.3657 23.7581V19.6105C70.3657 19.4161 70.3303 19.2748 70.2597 19.1864C70.1978 19.0893 70.0786 19.023 69.9019 18.9877L69.7031 18.9347V18.8022L71.9823 18.0336L72.1148 18.1661L72.2341 19.3057V19.4117C72.3578 19.1644 72.5168 18.9391 72.7111 18.7359C72.9143 18.5239 73.1352 18.3516 73.3737 18.2191C73.621 18.0866 73.864 18.0203 74.1025 18.0203C74.4382 18.0203 74.6944 18.1131 74.8711 18.2986C75.0477 18.4841 75.1361 18.7182 75.1361 19.0009C75.1361 19.3013 75.0477 19.5354 74.8711 19.7032C74.7032 19.8623 74.5 19.9418 74.2615 19.9418C73.8905 19.9418 73.5636 19.7562 73.2809 19.3852L73.2544 19.3587C73.1661 19.235 73.0645 19.1688 72.9496 19.1599C72.8348 19.1423 72.7288 19.1953 72.6316 19.319C72.5433 19.3985 72.4682 19.4956 72.4064 19.6105C72.3533 19.7165 72.3003 19.8402 72.2473 19.9815V23.6786C72.2473 24.0319 72.4019 24.2528 72.7111 24.3411L73.1352 24.4604V24.5929H69.7031ZM78.9362 18.0203C79.5105 18.0203 80.0008 18.1396 80.4071 18.3781C80.8135 18.6078 81.1227 18.9258 81.3347 19.3322C81.5556 19.7297 81.666 20.1847 81.666 20.6971C81.666 20.7942 81.6616 20.8958 81.6527 21.0018C81.6439 21.099 81.6262 21.1874 81.5997 21.2669H77.6509C77.6597 22.2209 77.8276 22.91 78.1544 23.334C78.4901 23.7492 78.9848 23.9568 79.6386 23.9568C80.0803 23.9568 80.438 23.8862 80.7119 23.7448C80.9858 23.6035 81.2419 23.3959 81.4805 23.122L81.613 23.2413C81.3391 23.7272 80.9725 24.107 80.5131 24.3809C80.0626 24.6547 79.5193 24.7917 78.8832 24.7917C78.256 24.7917 77.6995 24.6592 77.2136 24.3941C76.7277 24.1203 76.3479 23.7316 76.074 23.228C75.8002 22.7245 75.6632 22.1238 75.6632 21.4259C75.6632 20.7015 75.8222 20.0875 76.1403 19.584C76.4583 19.0716 76.8647 18.6829 77.3594 18.4179C77.8629 18.1529 78.3885 18.0203 78.9362 18.0203ZM78.8965 18.2854C78.6403 18.2854 78.4195 18.3649 78.2339 18.5239C78.0573 18.6741 77.9159 18.9479 77.8099 19.3455C77.7127 19.7342 77.6597 20.2863 77.6509 21.0018H79.9168C80.0052 20.0389 79.9698 19.3455 79.8108 18.9214C79.6518 18.4974 79.347 18.2854 78.8965 18.2854ZM84.8838 24.7917C84.451 24.7917 84.0623 24.7387 83.7177 24.6326C83.3732 24.5355 83.0552 24.4118 82.7636 24.2616L82.7769 22.6847H82.9094L83.3599 23.4798C83.5543 23.8332 83.7663 24.0982 83.996 24.2749C84.2345 24.4427 84.5349 24.5266 84.8971 24.5266C85.3211 24.5266 85.6612 24.4339 85.9174 24.2484C86.1824 24.054 86.3149 23.7978 86.3149 23.4798C86.3149 23.1883 86.2222 22.9498 86.0367 22.7642C85.8512 22.5787 85.5066 22.4109 85.0031 22.2607L84.4465 22.0884C83.9077 21.9294 83.4836 21.6821 83.1744 21.3464C82.8652 21.0107 82.7106 20.5999 82.7106 20.114C82.7106 19.531 82.9403 19.0363 83.3997 18.6299C83.8591 18.2235 84.5172 18.0203 85.3741 18.0203C85.7186 18.0203 86.0411 18.0601 86.3414 18.1396C86.6506 18.2103 86.9466 18.3207 87.2293 18.4709L87.1498 19.902H87.0172L86.5535 19.0804C86.3856 18.7889 86.2178 18.5857 86.0499 18.4709C85.8909 18.3472 85.648 18.2854 85.3211 18.2854C85.0208 18.2854 84.7381 18.3693 84.473 18.5371C84.208 18.705 84.0755 18.9435 84.0755 19.2527C84.0755 19.5531 84.1859 19.7916 84.4068 19.9683C84.6365 20.1449 84.9722 20.3084 85.4139 20.4586L86.0102 20.6308C86.6462 20.8252 87.1012 21.0946 87.375 21.4391C87.6489 21.7748 87.7858 22.1812 87.7858 22.6582C87.7858 23.3031 87.5296 23.8199 87.0172 24.2086C86.5137 24.5973 85.8026 24.7917 84.8838 24.7917ZM90.9203 24.7917C90.4875 24.7917 90.0988 24.7387 89.7542 24.6326C89.4097 24.5355 89.0917 24.4118 88.8001 24.2616L88.8134 22.6847H88.9459L89.3964 23.4798C89.5908 23.8332 89.8028 24.0982 90.0325 24.2749C90.271 24.4427 90.5714 24.5266 90.9336 24.5266C91.3576 24.5266 91.6977 24.4339 91.9539 24.2484C92.2189 24.054 92.3514 23.7978 92.3514 23.4798C92.3514 23.1883 92.2587 22.9498 92.0732 22.7642C91.8877 22.5787 91.5431 22.4109 91.0396 22.2607L90.483 22.0884C89.9442 21.9294 89.5201 21.6821 89.2109 21.3464C88.9017 21.0107 88.7471 20.5999 88.7471 20.114C88.7471 19.531 88.9768 19.0363 89.4362 18.6299C89.8956 18.2235 90.5537 18.0203 91.4106 18.0203C91.7551 18.0203 92.0776 18.0601 92.3779 18.1396C92.6871 18.2103 92.9831 18.3207 93.2658 18.4709L93.1863 19.902H93.0537L92.59 19.0804C92.4221 18.7889 92.2543 18.5857 92.0864 18.4709C91.9274 18.3472 91.6845 18.2854 91.3576 18.2854C91.0572 18.2854 90.7746 18.3693 90.5095 18.5371C90.2445 18.705 90.112 18.9435 90.112 19.2527C90.112 19.5531 90.2224 19.7916 90.4433 19.9683C90.673 20.1449 91.0087 20.3084 91.4504 20.4586L92.0467 20.6308C92.6827 20.8252 93.1377 21.0946 93.4115 21.4391C93.6854 21.7748 93.8223 22.1812 93.8223 22.6582C93.8223 23.3031 93.5661 23.8199 93.0537 24.2086C92.5502 24.5973 91.8391 24.7917 90.9203 24.7917Z" fill="#111111"/>
<path d="M41.4541 31.1876H40.2295V27.5737H41.4788C41.8377 27.5737 42.1459 27.646 42.4035 27.7907C42.6623 27.9343 42.8611 28.1407 42.9999 28.4101C43.1388 28.6795 43.2082 29.0018 43.2082 29.3771C43.2082 29.7536 43.1382 30.0771 42.9982 30.3477C42.8594 30.6182 42.6588 30.8259 42.3965 30.9706C42.1353 31.1153 41.8212 31.1876 41.4541 31.1876ZM40.8842 30.6212H41.4224C41.6741 30.6212 41.8841 30.5753 42.0523 30.4835C42.2206 30.3906 42.347 30.2524 42.4317 30.0689C42.5164 29.8842 42.5588 29.6536 42.5588 29.3771C42.5588 29.1007 42.5164 28.8713 42.4317 28.6889C42.347 28.5054 42.2218 28.3684 42.0559 28.2778C41.8912 28.186 41.6865 28.1401 41.4418 28.1401H40.8842V30.6212ZM44.4849 27.5737V31.1876H43.8302V27.5737H44.4849ZM45.1938 31.1876V27.5737H46.549C46.8267 27.5737 47.0596 27.6219 47.2478 27.7184C47.4372 27.8148 47.5802 27.9501 47.6766 28.1242C47.7743 28.2972 47.8231 28.4989 47.8231 28.7295C47.8231 28.9613 47.7737 29.1624 47.6749 29.333C47.5772 29.5024 47.4331 29.6336 47.2425 29.7265C47.052 29.8183 46.8178 29.8642 46.5402 29.8642H45.575V29.3207H46.452C46.6143 29.3207 46.7473 29.2983 46.8508 29.2536C46.9543 29.2077 47.0308 29.1413 47.0802 29.0542C47.1308 28.966 47.1561 28.8577 47.1561 28.7295C47.1561 28.6013 47.1308 28.4919 47.0802 28.4013C47.0296 28.3095 46.9525 28.2401 46.849 28.1931C46.7455 28.1448 46.612 28.1207 46.4485 28.1207H45.8485V31.1876H45.1938ZM47.0608 29.5501L47.9554 31.1876H47.2249L46.3461 29.5501H47.0608ZM48.4257 31.1876V27.5737H50.7762V28.1225H49.0804V29.1036H50.6544V29.6524H49.0804V30.6388H50.7903V31.1876H48.4257ZM54.5375 28.793H53.8775C53.8587 28.6848 53.824 28.5889 53.7734 28.5054C53.7228 28.4207 53.6599 28.3489 53.5846 28.2901C53.5093 28.2313 53.4234 28.1872 53.3269 28.1578C53.2316 28.1272 53.1287 28.1119 53.0181 28.1119C52.8217 28.1119 52.6476 28.1613 52.4958 28.2601C52.344 28.3578 52.2252 28.5013 52.1393 28.6907C52.0535 28.8789 52.0105 29.1089 52.0105 29.3807C52.0105 29.6571 52.0535 29.89 52.1393 30.0794C52.2264 30.2677 52.3452 30.41 52.4958 30.5065C52.6476 30.6018 52.8211 30.6494 53.0164 30.6494C53.1246 30.6494 53.2258 30.6353 53.3199 30.6071C53.4152 30.5777 53.5005 30.5347 53.5757 30.4782C53.6522 30.4218 53.7163 30.3524 53.7681 30.27C53.821 30.1877 53.8575 30.0936 53.8775 29.9877L54.5375 29.9912C54.5128 30.163 54.4592 30.3241 54.3769 30.4747C54.2957 30.6253 54.1892 30.7582 54.0575 30.8735C53.9257 30.9876 53.7716 31.077 53.5952 31.1417C53.4187 31.2053 53.2228 31.237 53.0075 31.237C52.6899 31.237 52.4064 31.1635 52.157 31.0165C51.9076 30.8694 51.7111 30.6571 51.5676 30.3794C51.4241 30.1018 51.3523 29.7689 51.3523 29.3807C51.3523 28.9913 51.4247 28.6583 51.5694 28.3819C51.7141 28.1042 51.9111 27.8919 52.1605 27.7449C52.4099 27.5978 52.6923 27.5243 53.0075 27.5243C53.2087 27.5243 53.3958 27.5525 53.5687 27.609C53.7416 27.6654 53.8957 27.7484 54.031 27.8578C54.1663 27.966 54.2775 28.099 54.3645 28.2566C54.4528 28.4131 54.5104 28.5919 54.5375 28.793ZM54.9782 28.1225V27.5737H57.8616V28.1225H56.7446V31.1876H56.0952V28.1225H54.9782ZM61.4865 29.3807C61.4865 29.77 61.4136 30.1036 61.2677 30.3812C61.123 30.6576 60.9254 30.8694 60.6748 31.0165C60.4254 31.1635 60.1425 31.237 59.826 31.237C59.5096 31.237 59.2261 31.1635 58.9755 31.0165C58.7261 30.8682 58.5284 30.6559 58.3826 30.3794C58.2379 30.1018 58.1655 29.7689 58.1655 29.3807C58.1655 28.9913 58.2379 28.6583 58.3826 28.3819C58.5284 28.1042 58.7261 27.8919 58.9755 27.7449C59.2261 27.5978 59.5096 27.5243 59.826 27.5243C60.1425 27.5243 60.4254 27.5978 60.6748 27.7449C60.9254 27.8919 61.123 28.1042 61.2677 28.3819C61.4136 28.6583 61.4865 28.9913 61.4865 29.3807ZM60.8283 29.3807C60.8283 29.1065 60.7854 28.8754 60.6995 28.6872C60.6148 28.4978 60.4972 28.3548 60.3466 28.2584C60.196 28.1607 60.0225 28.1119 59.826 28.1119C59.6296 28.1119 59.456 28.1607 59.3055 28.2584C59.1549 28.3548 59.0366 28.4978 58.9508 28.6872C58.8661 28.8754 58.8237 29.1065 58.8237 29.3807C58.8237 29.6548 58.8661 29.8865 58.9508 30.0759C59.0366 30.2641 59.1549 30.4071 59.3055 30.5047C59.456 30.6012 59.6296 30.6494 59.826 30.6494C60.0225 30.6494 60.196 30.6012 60.3466 30.5047C60.4972 30.4071 60.6148 30.2641 60.6995 30.0759C60.7854 29.8865 60.8283 29.6548 60.8283 29.3807ZM62.1055 31.1876V27.5737H63.4607C63.7383 27.5737 63.9713 27.6219 64.1595 27.7184C64.3489 27.8148 64.4918 27.9501 64.5883 28.1242C64.6859 28.2972 64.7347 28.4989 64.7347 28.7295C64.7347 28.9613 64.6853 29.1624 64.5865 29.333C64.4889 29.5024 64.3448 29.6336 64.1542 29.7265C63.9636 29.8183 63.7295 29.8642 63.4519 29.8642H62.4866V29.3207H63.3636C63.526 29.3207 63.6589 29.2983 63.7624 29.2536C63.866 29.2077 63.9424 29.1413 63.9918 29.0542C64.0424 28.966 64.0677 28.8577 64.0677 28.7295C64.0677 28.6013 64.0424 28.4919 63.9918 28.4013C63.9413 28.3095 63.8642 28.2401 63.7607 28.1931C63.6572 28.1448 63.5236 28.1207 63.3601 28.1207H62.7601V31.1876H62.1055ZM63.9724 29.5501L64.8671 31.1876H64.1365L63.2578 29.5501H63.9724ZM64.9496 27.5737H65.689L66.573 29.1724H66.6083L67.4924 27.5737H68.2318L66.9171 29.8395V31.1876H66.2642V29.8395L64.9496 27.5737ZM70.9797 31.2406C70.7327 31.2406 70.5203 31.1959 70.3427 31.1064C70.1651 31.017 70.028 30.8965 69.9315 30.7447C69.8363 30.5918 69.7886 30.4194 69.7886 30.2277C69.7886 30.083 69.818 29.9547 69.8768 29.843C69.9368 29.7312 70.0192 29.6277 70.1239 29.5324C70.2298 29.4371 70.3521 29.3424 70.4909 29.2483L71.1315 28.8124C71.2256 28.7513 71.2968 28.6866 71.345 28.6183C71.3944 28.5501 71.4191 28.4701 71.4191 28.3784C71.4191 28.3007 71.3862 28.2272 71.3203 28.1578C71.2556 28.0884 71.1662 28.0537 71.0521 28.0537C70.9756 28.0537 70.908 28.0719 70.8491 28.1084C70.7915 28.1437 70.7462 28.1901 70.7133 28.2478C70.6815 28.3054 70.6656 28.3666 70.6656 28.4313C70.6656 28.5101 70.6874 28.5901 70.7309 28.6713C70.7756 28.7524 70.8333 28.8366 70.9039 28.9236C70.9756 29.0107 71.0521 29.103 71.1333 29.2007L72.8291 31.1876H72.1373L70.7292 29.5748C70.6245 29.4524 70.5233 29.3318 70.4256 29.213C70.3292 29.0942 70.2498 28.9707 70.1874 28.8424C70.1262 28.713 70.0957 28.573 70.0957 28.4225C70.0957 28.2519 70.1351 28.0995 70.2139 27.9654C70.2927 27.8301 70.4027 27.7237 70.5439 27.646C70.6862 27.5684 70.8527 27.5296 71.0433 27.5296C71.2338 27.5296 71.3974 27.5672 71.5338 27.6425C71.6703 27.7178 71.7756 27.8178 71.8497 27.9425C71.9238 28.0672 71.9609 28.2031 71.9609 28.3501C71.9609 28.5207 71.9185 28.6736 71.8338 28.8089C71.7491 28.943 71.6315 29.0648 71.4809 29.1742L70.7503 29.7089C70.6303 29.7959 70.5445 29.8842 70.4927 29.9736C70.4409 30.0618 70.4151 30.1371 70.4151 30.1994C70.4151 30.2947 70.4392 30.3812 70.4874 30.4588C70.5356 30.5365 70.6033 30.5988 70.6903 30.6459C70.7786 30.6918 70.8815 30.7147 70.9991 30.7147C71.1285 30.7147 71.2562 30.6859 71.3821 30.6282C71.5079 30.5694 71.6226 30.4859 71.7262 30.3777C71.8297 30.2694 71.912 30.14 71.9732 29.9894C72.0344 29.8377 72.065 29.6695 72.065 29.4848H72.6138C72.6138 29.713 72.5885 29.9118 72.5379 30.0812C72.4873 30.2494 72.422 30.3918 72.342 30.5082C72.262 30.6235 72.1773 30.7159 72.0879 30.7853C72.0597 30.8053 72.0326 30.8253 72.0067 30.8453C71.9809 30.8653 71.9538 30.8853 71.9256 30.9053C71.7985 31.0206 71.6497 31.1053 71.4791 31.1594C71.3097 31.2135 71.1433 31.2406 70.9797 31.2406ZM74.4556 31.1876V27.5737H75.1103V30.6388H76.7019V31.1876H74.4556ZM77.9248 27.5737V31.1876H77.2702V27.5737H77.9248ZM80.5978 28.5672C80.5813 28.4131 80.5119 28.2931 80.3896 28.2072C80.2684 28.1213 80.1107 28.0784 79.9166 28.0784C79.7802 28.0784 79.6631 28.099 79.5655 28.1401C79.4678 28.1813 79.3931 28.2372 79.3414 28.3078C79.2896 28.3784 79.2631 28.4589 79.262 28.5495C79.262 28.6248 79.279 28.6901 79.3131 28.7454C79.3484 28.8007 79.3961 28.8477 79.4561 28.8866C79.5161 28.9242 79.5825 28.956 79.6555 28.9818C79.7284 29.0077 79.8019 29.0295 79.876 29.0471L80.2149 29.1318C80.3513 29.1636 80.4825 29.2065 80.6084 29.2607C80.7354 29.3148 80.8489 29.383 80.9489 29.4654C81.0501 29.5477 81.1301 29.6471 81.1889 29.7636C81.2477 29.88 81.2772 30.0165 81.2772 30.173C81.2772 30.3847 81.223 30.5712 81.1148 30.7324C81.0066 30.8923 80.8501 31.0176 80.6454 31.1082C80.4419 31.1976 80.1954 31.2423 79.906 31.2423C79.6249 31.2423 79.3808 31.1988 79.1737 31.1117C78.9679 31.0247 78.8067 30.8976 78.6902 30.7306C78.5749 30.5635 78.5126 30.36 78.5032 30.12H79.1473C79.1567 30.2459 79.1955 30.3506 79.2637 30.4341C79.332 30.5177 79.4208 30.58 79.5302 30.6212C79.6408 30.6624 79.7643 30.6829 79.9008 30.6829C80.0431 30.6829 80.1678 30.6618 80.2749 30.6194C80.3831 30.5759 80.4678 30.5159 80.529 30.4394C80.5901 30.3618 80.6213 30.2712 80.6225 30.1677C80.6213 30.0736 80.5937 29.9959 80.5395 29.9347C80.4854 29.8724 80.4096 29.8206 80.3119 29.7795C80.2154 29.7371 80.1025 29.6995 79.9731 29.6665L79.5619 29.5606C79.2643 29.4842 79.029 29.3683 78.8561 29.213C78.6843 29.0566 78.5985 28.8489 78.5985 28.5901C78.5985 28.3772 78.6561 28.1907 78.7714 28.0307C78.8879 27.8707 79.0461 27.7466 79.2461 27.6584C79.4461 27.569 79.6725 27.5243 79.9255 27.5243C80.1819 27.5243 80.4066 27.569 80.5995 27.6584C80.7937 27.7466 80.946 27.8696 81.0566 28.0272C81.1672 28.1837 81.2242 28.3636 81.2277 28.5672H80.5978ZM81.702 28.1225V27.5737H84.5854V28.1225H83.4684V31.1876H82.819V28.1225H81.702ZM85.7959 27.5737V31.1876H85.1412V27.5737H85.7959ZM89.4747 27.5737V31.1876H88.8924L87.1895 28.726H87.1595V31.1876H86.5048V27.5737H87.0907L88.7918 30.0371H88.8235V27.5737H89.4747ZM92.6091 28.7277C92.5797 28.6325 92.5391 28.5472 92.4873 28.4719C92.4367 28.3954 92.3756 28.3301 92.3038 28.276C92.2332 28.2219 92.1521 28.1813 92.0603 28.1542C91.9685 28.126 91.8685 28.1119 91.7603 28.1119C91.5662 28.1119 91.3933 28.1607 91.2415 28.2584C91.0898 28.356 90.9704 28.4995 90.8833 28.6889C90.7974 28.8771 90.7545 29.1065 90.7545 29.3771C90.7545 29.6501 90.7974 29.8812 90.8833 30.0706C90.9692 30.26 91.0886 30.4041 91.2415 30.503C91.3944 30.6006 91.5721 30.6494 91.7744 30.6494C91.9579 30.6494 92.1168 30.6141 92.2509 30.5435C92.3862 30.473 92.4903 30.373 92.5632 30.2436C92.6362 30.113 92.6726 29.96 92.6726 29.7848L92.8208 29.8077H91.8397V29.296H93.3061V29.73C93.3061 30.0394 93.2402 30.3071 93.1085 30.5329C92.9767 30.7588 92.7956 30.9329 92.565 31.0553C92.3344 31.1764 92.0697 31.237 91.7709 31.237C91.438 31.237 91.1456 31.1623 90.8939 31.0129C90.6433 30.8623 90.4474 30.6488 90.3063 30.3724C90.1663 30.0947 90.0963 29.7653 90.0963 29.3842C90.0963 29.0924 90.1375 28.8319 90.2198 28.6025C90.3033 28.3731 90.4198 28.1784 90.5692 28.0184C90.7186 27.8572 90.8939 27.7349 91.0951 27.6513C91.2962 27.5666 91.515 27.5243 91.7515 27.5243C91.9515 27.5243 92.1379 27.5537 92.3109 27.6125C92.4838 27.6702 92.6373 27.7525 92.7714 27.8596C92.9067 27.9666 93.0179 28.0937 93.105 28.2407C93.192 28.3878 93.2491 28.5501 93.2761 28.7277H92.6091Z" fill="#444444"/>
</g>
<defs>
<linearGradient id="paint0_linear_210_1258" x1="26.3452" y1="11.728" x2="26.3452" y2="34.9175" gradientUnits="userSpaceOnUse">
<stop stop-color="#FE6254"/>
<stop offset="1" stop-color="#E32B05"/>
</linearGradient>
<clipPath id="clip0_210_1258">
<rect width="401" height="44" fill="white" transform="translate(0.5 0.5)"/>
</clipPath>
</defs>
</svg>
