<svg width="402" height="45" viewBox="0 0 402 45" fill="none" xmlns="http://www.w3.org/2000/svg">
<g clip-path="url(#clip0_210_1182)">
<path d="M400.811 0.5H0.810547V44.2207H400.811V0.5Z" fill="white"/>
<path d="M310.149 22.1796C310.611 22.1796 311.063 22.0425 311.448 21.7856C311.832 21.5286 312.132 21.1635 312.309 20.7362C312.486 20.309 312.532 19.8388 312.442 19.3853C312.352 18.9317 312.129 18.5151 311.802 18.1881C311.475 17.8611 311.058 17.6384 310.605 17.5482C310.151 17.4579 309.681 17.5042 309.254 17.6812C308.827 17.8582 308.462 18.1579 308.205 18.5424C307.948 18.9269 307.811 19.379 307.811 19.8414C307.811 20.4614 308.058 21.0557 308.496 21.4941C308.934 21.9325 309.529 22.179 310.149 22.1796ZM310.149 18.2826C310.457 18.2826 310.758 18.3741 311.015 18.5453C311.271 18.7166 311.471 18.9601 311.589 19.2449C311.707 19.5297 311.738 19.8432 311.678 20.1455C311.617 20.4479 311.469 20.7257 311.251 20.9437C311.033 21.1617 310.755 21.3101 310.453 21.3703C310.15 21.4304 309.837 21.3996 309.552 21.2816C309.267 21.1636 309.024 20.9638 308.853 20.7075C308.681 20.4511 308.59 20.1497 308.59 19.8414C308.59 19.428 308.754 19.0315 309.047 18.7392C309.339 18.4469 309.735 18.2826 310.149 18.2826Z" fill="black"/>
<path d="M310.148 22.959C309.218 22.9601 308.327 23.3299 307.669 23.9874C307.012 24.645 306.642 25.5365 306.641 26.4663C306.641 26.5697 306.682 26.6688 306.755 26.7419C306.828 26.815 306.927 26.856 307.03 26.856C307.134 26.856 307.233 26.815 307.306 26.7419C307.379 26.6688 307.42 26.5697 307.42 26.4663C307.42 25.7429 307.707 25.049 308.219 24.5374C308.731 24.0258 309.424 23.7384 310.148 23.7384C310.871 23.7384 311.565 24.0258 312.077 24.5374C312.588 25.049 312.876 25.7429 312.876 26.4663C312.876 26.5697 312.917 26.6688 312.99 26.7419C313.063 26.815 313.162 26.856 313.266 26.856C313.369 26.856 313.468 26.815 313.541 26.7419C313.614 26.6688 313.655 26.5697 313.655 26.4663C313.654 25.5365 313.284 24.645 312.627 23.9874C311.969 23.3299 311.078 22.9601 310.148 22.959Z" fill="black"/>
<path d="M332.291 25.7833C334.25 25.7833 335.839 24.1946 335.839 22.2348C335.839 20.275 334.25 18.6863 332.291 18.6863C330.331 18.6863 328.742 20.275 328.742 22.2348C328.742 24.1946 330.331 25.7833 332.291 25.7833Z" stroke="black" stroke-width="1.01386" stroke-linecap="round" stroke-linejoin="round"/>
<path d="M336.728 26.6703L334.799 24.7408" stroke="black" stroke-width="1.01386" stroke-linecap="round" stroke-linejoin="round"/>
<path d="M282.605 22.1796H294.432" stroke="black" stroke-width="1.57692" stroke-linecap="round" stroke-linejoin="round"/>
<path d="M282.605 18.4344H294.432" stroke="black" stroke-width="1.57692" stroke-linecap="round" stroke-linejoin="round"/>
<path d="M282.605 25.9249H294.432" stroke="black" stroke-width="1.57692" stroke-linecap="round" stroke-linejoin="round"/>
<path d="M315.912 14.3649H304.384C302.892 14.3649 301.684 15.5737 301.684 17.0649V27.6559C301.684 29.147 302.892 30.3559 304.384 30.3559H315.912C317.404 30.3559 318.612 29.147 318.612 27.6559V17.0649C318.612 15.5737 317.404 14.3649 315.912 14.3649Z" stroke="black" stroke-width="0.6"/>
<path d="M337.965 14.3649H326.436C324.945 14.3649 323.736 15.5737 323.736 17.0649V27.6559C323.736 29.147 324.945 30.3559 326.436 30.3559H337.965C339.456 30.3559 340.665 29.147 340.665 27.6559V17.0649C340.665 15.5737 339.456 14.3649 337.965 14.3649Z" stroke="black" stroke-width="0.6"/>
<path d="M382.067 14.3649H351.953C347.882 14.3649 344.582 17.665 344.582 21.736V21.736C344.582 25.8069 347.882 29.1071 351.953 29.1071H382.067C386.138 29.1071 389.438 25.8069 389.438 21.736C389.438 17.665 386.138 14.3649 382.067 14.3649Z" fill="#F0F3F8"/>
<path d="M351.953 14.3649H382.067C386.138 14.3649 389.438 17.665 389.438 21.736V21.736C389.438 25.8069 386.138 29.1071 382.067 29.1071H351.953C347.882 29.1071 344.582 25.8069 344.582 21.736V21.736C344.582 17.665 347.882 14.3649 351.953 14.3649Z" stroke="black" stroke-width="0.6"/>
<path d="M353.444 21.2509C353.403 21.1217 353.347 21.0059 353.278 20.9036C353.209 20.7999 353.128 20.7119 353.033 20.6394C352.937 20.5656 352.829 20.5095 352.707 20.4711C352.586 20.4328 352.453 20.4136 352.308 20.4136C352.062 20.4136 351.841 20.4768 351.643 20.6032C351.446 20.7296 351.29 20.915 351.175 21.1593C351.061 21.4022 351.004 21.6998 351.004 22.0521C351.004 22.4058 351.062 22.7048 351.177 22.9491C351.292 23.1934 351.449 23.3788 351.65 23.5052C351.85 23.6316 352.078 23.6948 352.334 23.6948C352.571 23.6948 352.778 23.6465 352.954 23.5499C353.131 23.4534 353.268 23.317 353.365 23.1409C353.463 22.9633 353.512 22.7545 353.512 22.5144L353.682 22.5464H352.434V22.0031H354.149V22.4995C354.149 22.866 354.071 23.1842 353.915 23.4541C353.76 23.7225 353.545 23.9299 353.271 24.0762C352.998 24.2225 352.686 24.2957 352.334 24.2957C351.939 24.2957 351.592 24.2048 351.294 24.023C350.997 23.8411 350.765 23.5833 350.599 23.2495C350.433 22.9143 350.35 22.5166 350.35 22.0563C350.35 21.7083 350.398 21.3958 350.495 21.1188C350.591 20.8418 350.727 20.6068 350.902 20.4136C351.078 20.219 351.285 20.0705 351.522 19.9683C351.761 19.8646 352.021 19.8127 352.304 19.8127C352.54 19.8127 352.759 19.8475 352.962 19.9171C353.167 19.9867 353.349 20.0855 353.508 20.2133C353.668 20.3411 353.801 20.4931 353.906 20.6693C354.011 20.844 354.082 21.0379 354.119 21.2509H353.444ZM356.344 24.3021C356.022 24.3021 355.744 24.2332 355.511 24.0954C355.28 23.9562 355.101 23.7609 354.974 23.5095C354.849 23.2566 354.787 22.9605 354.787 22.621C354.787 22.2857 354.849 21.9903 354.974 21.7346C355.101 21.4789 355.277 21.2793 355.503 21.1359C355.73 20.9924 355.995 20.9207 356.299 20.9207C356.484 20.9207 356.663 20.9512 356.836 21.0123C357.01 21.0734 357.165 21.1693 357.303 21.2999C357.441 21.4306 357.549 21.6004 357.629 21.8092C357.708 22.0166 357.748 22.2687 357.748 22.5656V22.7914H355.147V22.3141H357.124C357.124 22.1465 357.09 21.9981 357.022 21.8688C356.954 21.7382 356.858 21.6352 356.734 21.5599C356.612 21.4846 356.468 21.447 356.304 21.447C356.125 21.447 355.968 21.491 355.835 21.5791C355.703 21.6657 355.601 21.7793 355.528 21.92C355.457 22.0592 355.422 22.2105 355.422 22.3738V22.7467C355.422 22.9654 355.46 23.1515 355.537 23.3049C355.615 23.4583 355.723 23.5755 355.863 23.6565C356.002 23.736 356.164 23.7758 356.351 23.7758C356.471 23.7758 356.581 23.7588 356.681 23.7247C356.78 23.6891 356.866 23.6366 356.939 23.567C357.011 23.4974 357.066 23.4114 357.105 23.3092L357.708 23.4178C357.659 23.5954 357.573 23.7509 357.448 23.8845C357.324 24.0166 357.169 24.1195 356.981 24.1934C356.795 24.2659 356.583 24.3021 356.344 24.3021ZM359.983 20.9633V21.4747H358.195V20.9633H359.983ZM358.675 20.1792H359.312V23.2751C359.312 23.3987 359.33 23.4917 359.367 23.5542C359.404 23.6153 359.452 23.6572 359.51 23.6799C359.569 23.7012 359.634 23.7119 359.704 23.7119C359.755 23.7119 359.8 23.7083 359.838 23.7012C359.876 23.6941 359.906 23.6884 359.927 23.6842L360.042 24.2105C360.006 24.2247 359.953 24.2389 359.885 24.2531C359.817 24.2687 359.731 24.2772 359.629 24.2786C359.462 24.2815 359.305 24.2516 359.16 24.1891C359.015 24.1266 358.898 24.0301 358.809 23.8994C358.719 23.7687 358.675 23.6046 358.675 23.4072V20.1792ZM364.707 21.0187C364.684 20.817 364.59 20.6607 364.425 20.5499C364.261 20.4377 364.053 20.3816 363.803 20.3816C363.624 20.3816 363.469 20.41 363.339 20.4668C363.208 20.5222 363.106 20.5989 363.034 20.697C362.963 20.7936 362.927 20.9036 362.927 21.0272C362.927 21.1309 362.952 21.2204 363 21.2957C363.05 21.371 363.114 21.4342 363.194 21.4853C363.275 21.535 363.361 21.5769 363.454 21.611C363.546 21.6437 363.635 21.6707 363.72 21.692L364.146 21.8028C364.285 21.8369 364.428 21.883 364.574 21.9413C364.721 21.9995 364.856 22.0762 364.981 22.1714C365.106 22.2666 365.207 22.3845 365.284 22.5251C365.362 22.6657 365.401 22.834 365.401 23.0301C365.401 23.2772 365.337 23.4967 365.209 23.6884C365.083 23.8802 364.899 24.0315 364.658 24.1423C364.417 24.2531 364.127 24.3085 363.786 24.3085C363.459 24.3085 363.177 24.2566 362.938 24.1529C362.699 24.0492 362.513 23.9022 362.378 23.7119C362.243 23.5201 362.168 23.2928 362.154 23.0301H362.814C362.827 23.1877 362.878 23.3191 362.968 23.4242C363.059 23.5279 363.175 23.6053 363.315 23.6565C363.457 23.7062 363.613 23.7311 363.782 23.7311C363.968 23.7311 364.133 23.7019 364.278 23.6437C364.425 23.584 364.54 23.5016 364.623 23.3965C364.707 23.29 364.749 23.1657 364.749 23.0237C364.749 22.8944 364.712 22.7886 364.638 22.7062C364.566 22.6238 364.467 22.5556 364.342 22.5016C364.219 22.4477 364.079 22.4001 363.922 22.3589L363.407 22.2183C363.057 22.1231 362.78 21.9832 362.576 21.7985C362.373 21.6139 362.271 21.3695 362.271 21.0656C362.271 20.8141 362.339 20.5947 362.476 20.4072C362.612 20.2197 362.797 20.0741 363.03 19.9704C363.263 19.8653 363.525 19.8127 363.818 19.8127C364.114 19.8127 364.374 19.8646 364.6 19.9683C364.827 20.072 365.006 20.2147 365.137 20.3965C365.268 20.5769 365.336 20.7843 365.341 21.0187H364.707ZM367.664 20.9633V21.4747H365.877V20.9633H367.664ZM366.356 20.1792H366.993V23.2751C366.993 23.3987 367.012 23.4917 367.049 23.5542C367.086 23.6153 367.133 23.6572 367.191 23.6799C367.251 23.7012 367.316 23.7119 367.385 23.7119C367.436 23.7119 367.481 23.7083 367.52 23.7012C367.558 23.6941 367.588 23.6884 367.609 23.6842L367.724 24.2105C367.687 24.2247 367.635 24.2389 367.566 24.2531C367.498 24.2687 367.413 24.2772 367.311 24.2786C367.143 24.2815 366.987 24.2516 366.842 24.1891C366.697 24.1266 366.58 24.0301 366.49 23.8994C366.401 23.7687 366.356 23.6046 366.356 23.4072V20.1792ZM369.322 24.3085C369.114 24.3085 368.927 24.2701 368.759 24.1934C368.591 24.1153 368.459 24.0024 368.361 23.8546C368.264 23.7069 368.216 23.5258 368.216 23.3113C368.216 23.1266 368.251 22.9747 368.322 22.8553C368.393 22.736 368.489 22.6416 368.61 22.572C368.731 22.5024 368.866 22.4498 369.015 22.4143C369.164 22.3788 369.316 22.3518 369.471 22.3333C369.667 22.3106 369.826 22.2921 369.948 22.2779C370.07 22.2623 370.159 22.2374 370.214 22.2034C370.27 22.1693 370.297 22.1139 370.297 22.0372V22.0222C370.297 21.8362 370.245 21.692 370.14 21.5897C370.036 21.4874 369.881 21.4363 369.675 21.4363C369.461 21.4363 369.292 21.4839 369.168 21.5791C369.046 21.6728 368.962 21.7772 368.915 21.8923L368.316 21.7559C368.387 21.557 368.491 21.3965 368.627 21.2744C368.765 21.1508 368.923 21.0613 369.102 21.0059C369.281 20.9491 369.469 20.9207 369.667 20.9207C369.797 20.9207 369.936 20.9363 370.082 20.9676C370.23 20.9974 370.368 21.0528 370.496 21.1337C370.625 21.2147 370.731 21.3305 370.813 21.4811C370.895 21.6302 370.937 21.8241 370.937 22.0627V24.236H370.314V23.7886H370.289C370.248 23.871 370.186 23.9519 370.104 24.0315C370.021 24.111 369.915 24.1771 369.786 24.2296C369.657 24.2822 369.502 24.3085 369.322 24.3085ZM369.46 23.7971C369.636 23.7971 369.787 23.7623 369.912 23.6927C370.038 23.6231 370.134 23.5322 370.199 23.42C370.266 23.3063 370.3 23.1849 370.3 23.0556V22.6338C370.277 22.6565 370.233 22.6778 370.167 22.6977C370.104 22.7161 370.03 22.7325 369.948 22.7467C369.866 22.7595 369.785 22.7715 369.707 22.7829C369.629 22.7928 369.564 22.8014 369.511 22.8085C369.388 22.8241 369.275 22.8504 369.172 22.8873C369.072 22.9242 368.991 22.9775 368.93 23.0471C368.87 23.1153 368.84 23.2062 368.84 23.3198C368.84 23.4775 368.898 23.5968 369.015 23.6778C369.131 23.7573 369.28 23.7971 369.46 23.7971ZM371.785 24.236V20.9633H372.401V21.4832H372.435C372.495 21.307 372.6 21.1686 372.75 21.0677C372.902 20.9654 373.074 20.9143 373.266 20.9143C373.306 20.9143 373.353 20.9157 373.407 20.9186C373.462 20.9214 373.505 20.9249 373.537 20.9292V21.5386C373.511 21.5315 373.466 21.5237 373.4 21.5151C373.335 21.5052 373.27 21.5002 373.204 21.5002C373.054 21.5002 372.919 21.5322 372.802 21.5961C372.685 21.6586 372.593 21.746 372.525 21.8582C372.456 21.969 372.422 22.0954 372.422 22.2374V24.236H371.785ZM375.809 20.9633V21.4747H374.021V20.9633H375.809ZM374.501 20.1792H375.138V23.2751C375.138 23.3987 375.156 23.4917 375.193 23.5542C375.23 23.6153 375.278 23.6572 375.336 23.6799C375.396 23.7012 375.46 23.7119 375.53 23.7119C375.581 23.7119 375.626 23.7083 375.664 23.7012C375.702 23.6941 375.732 23.6884 375.754 23.6842L375.869 24.2105C375.832 24.2247 375.779 24.2389 375.711 24.2531C375.643 24.2687 375.558 24.2772 375.455 24.2786C375.288 24.2815 375.131 24.2516 374.987 24.1891C374.842 24.1266 374.724 24.0301 374.635 23.8994C374.545 23.7687 374.501 23.6046 374.501 23.4072V20.1792ZM377.889 24.3021C377.567 24.3021 377.289 24.2332 377.056 24.0954C376.824 23.9562 376.645 23.7609 376.519 23.5095C376.394 23.2566 376.332 22.9605 376.332 22.621C376.332 22.2857 376.394 21.9903 376.519 21.7346C376.645 21.4789 376.822 21.2793 377.047 21.1359C377.275 20.9924 377.54 20.9207 377.844 20.9207C378.029 20.9207 378.208 20.9512 378.381 21.0123C378.555 21.0734 378.71 21.1693 378.848 21.2999C378.986 21.4306 379.094 21.6004 379.174 21.8092C379.253 22.0166 379.293 22.2687 379.293 22.5656V22.7914H376.692V22.3141H378.669C378.669 22.1465 378.635 21.9981 378.567 21.8688C378.498 21.7382 378.403 21.6352 378.279 21.5599C378.157 21.4846 378.013 21.447 377.849 21.447C377.67 21.447 377.513 21.491 377.38 21.5791C377.248 21.6657 377.145 21.7793 377.073 21.92C377.002 22.0592 376.966 22.2105 376.966 22.3738V22.7467C376.966 22.9654 377.005 23.1515 377.082 23.3049C377.16 23.4583 377.268 23.5755 377.408 23.6565C377.547 23.736 377.709 23.7758 377.895 23.7758C378.016 23.7758 378.126 23.7588 378.226 23.7247C378.325 23.6891 378.411 23.6366 378.484 23.567C378.556 23.4974 378.611 23.4114 378.65 23.3092L379.253 23.4178C379.204 23.5954 379.118 23.7509 378.993 23.8845C378.869 24.0166 378.714 24.1195 378.526 24.1934C378.34 24.2659 378.128 24.3021 377.889 24.3021ZM381.225 24.2999C380.961 24.2999 380.725 24.2325 380.518 24.0975C380.312 23.9612 380.15 23.7673 380.032 23.5159C379.916 23.263 379.857 22.9597 379.857 22.6061C379.857 22.2524 379.916 21.9498 380.034 21.6984C380.153 21.447 380.317 21.2545 380.524 21.121C380.732 20.9874 380.967 20.9207 381.229 20.9207C381.433 20.9207 381.596 20.9548 381.72 21.023C381.845 21.0897 381.941 21.1678 382.009 21.2573C382.079 21.3468 382.133 21.4257 382.171 21.4938H382.21V19.8724H382.847V24.236H382.224V23.7268H382.171C382.133 23.7964 382.077 23.8759 382.005 23.9654C381.934 24.0549 381.836 24.133 381.711 24.1998C381.586 24.2666 381.424 24.2999 381.225 24.2999ZM381.366 23.7566C381.549 23.7566 381.704 23.7083 381.83 23.6117C381.958 23.5137 382.055 23.3781 382.12 23.2048C382.187 23.0315 382.22 22.8298 382.22 22.5997C382.22 22.3724 382.188 22.1735 382.122 22.0031C382.057 21.8326 381.961 21.6998 381.835 21.6046C381.708 21.5095 381.552 21.4619 381.366 21.4619C381.174 21.4619 381.014 21.5116 380.886 21.611C380.759 21.7105 380.662 21.8461 380.597 22.018C380.533 22.1899 380.501 22.3838 380.501 22.5997C380.501 22.8184 380.533 23.0151 380.599 23.1899C380.664 23.3646 380.761 23.5031 380.889 23.6053C381.018 23.7062 381.177 23.7566 381.366 23.7566Z" fill="black"/>
<path d="M142.996 22.5305C142.948 22.4822 142.891 22.4439 142.828 22.4177C142.765 22.3916 142.698 22.3781 142.63 22.3781C142.562 22.3781 142.495 22.3916 142.432 22.4177C142.369 22.4439 142.312 22.4822 142.264 22.5305L139.905 24.8895C139.857 24.9378 139.8 24.9761 139.738 25.0023C139.675 25.0284 139.608 25.0419 139.54 25.0419C139.472 25.0419 139.404 25.0284 139.341 25.0023C139.279 24.9761 139.222 24.9378 139.174 24.8895L136.815 22.5305C136.767 22.4822 136.71 22.4439 136.647 22.4177C136.584 22.3916 136.517 22.3781 136.449 22.3781C136.381 22.3781 136.314 22.3916 136.251 22.4177C136.188 22.4439 136.131 22.4822 136.083 22.5305C135.987 22.627 135.934 22.7575 135.934 22.8936C135.934 23.0297 135.987 23.1602 136.083 23.2567L138.448 25.6209C138.737 25.9103 139.13 26.0728 139.54 26.0728C139.949 26.0728 140.342 25.9103 140.632 25.6209L142.996 23.2567C143.092 23.1602 143.146 23.0297 143.146 22.8936C143.146 22.7575 143.092 22.627 142.996 22.5305Z" fill="#535353"/>
<path d="M112.042 24.0901V23.3271H115.535V24.0901H112.042ZM115.003 21.4371H115.829V26.3371H115.003V21.4371ZM111.713 21.4371H112.539V26.3371H111.713V21.4371ZM117.517 23.8871C117.517 24.2231 117.587 24.5241 117.727 24.7901C117.872 25.0515 118.07 25.2568 118.322 25.4061C118.574 25.5555 118.861 25.6301 119.183 25.6301C119.51 25.6301 119.797 25.5555 120.044 25.4061C120.296 25.2568 120.492 25.0515 120.632 24.7901C120.777 24.5241 120.849 24.2231 120.849 23.8871C120.849 23.5511 120.779 23.2525 120.639 22.9911C120.499 22.7251 120.303 22.5175 120.051 22.3681C119.804 22.2188 119.514 22.1441 119.183 22.1441C118.861 22.1441 118.574 22.2188 118.322 22.3681C118.07 22.5175 117.872 22.7251 117.727 22.9911C117.587 23.2525 117.517 23.5511 117.517 23.8871ZM116.642 23.8871C116.642 23.5185 116.705 23.1801 116.831 22.8721C116.957 22.5641 117.134 22.2981 117.363 22.0741C117.596 21.8455 117.867 21.6681 118.175 21.5421C118.488 21.4161 118.824 21.3531 119.183 21.3531C119.552 21.3531 119.89 21.4161 120.198 21.5421C120.506 21.6681 120.774 21.8455 121.003 22.0741C121.236 22.2981 121.416 22.5641 121.542 22.8721C121.668 23.1801 121.731 23.5185 121.731 23.8871C121.731 24.2511 121.668 24.5895 121.542 24.9021C121.416 25.2148 121.239 25.4855 121.01 25.7141C120.781 25.9428 120.511 26.1225 120.198 26.2531C119.89 26.3791 119.552 26.4421 119.183 26.4421C118.819 26.4421 118.481 26.3791 118.168 26.2531C117.855 26.1225 117.585 25.9428 117.356 25.7141C117.132 25.4855 116.957 25.2148 116.831 24.9021C116.705 24.5895 116.642 24.2511 116.642 23.8871ZM123.444 23.3551L123.108 26.3371H122.254L122.926 21.1921L124.935 24.5171L126.951 21.1921L127.623 26.3371H126.769L126.426 23.3551L124.935 25.8821L123.444 23.3551ZM128.938 26.3371V25.6091H131.409V26.3371H128.938ZM128.938 22.1651V21.4371H131.409V22.1651H128.938ZM128.938 24.0691V23.3551H131.269V24.0691H128.938ZM128.427 21.4371H129.239V26.3371H128.427V21.4371Z" fill="black"/>
<path d="M192.689 22.5305C192.641 22.4822 192.584 22.4439 192.521 22.4177C192.459 22.3916 192.391 22.3781 192.323 22.3781C192.255 22.3781 192.188 22.3916 192.125 22.4177C192.063 22.4439 192.006 22.4822 191.958 22.5305L189.599 24.8895C189.551 24.9378 189.494 24.9761 189.431 25.0023C189.368 25.0284 189.301 25.0419 189.233 25.0419C189.165 25.0419 189.098 25.0284 189.035 25.0023C188.972 24.9761 188.915 24.9378 188.867 24.8895L186.508 22.5305C186.46 22.4822 186.403 22.4439 186.341 22.4177C186.278 22.3916 186.21 22.3781 186.142 22.3781C186.074 22.3781 186.007 22.3916 185.944 22.4177C185.882 22.4439 185.825 22.4822 185.777 22.5305C185.681 22.627 185.627 22.7575 185.627 22.8936C185.627 23.0297 185.681 23.1602 185.777 23.2567L188.141 25.6209C188.431 25.9103 188.823 26.0728 189.233 26.0728C189.642 26.0728 190.035 25.9103 190.325 25.6209L192.689 23.2567C192.785 23.1602 192.839 23.0297 192.839 22.8936C192.839 22.7575 192.785 22.627 192.689 22.5305Z" fill="#535353"/>
<path d="M160.994 25.0772L161.148 24.3772H163.423L163.584 25.0772H160.994ZM162.275 22.8232L161.505 24.6222L161.491 24.8042L160.812 26.3372H159.881L162.275 21.1642L164.669 26.3372H163.738L163.073 24.8462L163.052 24.6432L162.275 22.8232ZM165.869 23.8102V23.4042H166.66C166.814 23.4042 166.95 23.3786 167.066 23.3272C167.183 23.2759 167.274 23.2036 167.339 23.1102C167.405 23.0122 167.437 22.8956 167.437 22.7602C167.437 22.5549 167.365 22.3962 167.22 22.2842C167.076 22.1722 166.889 22.1162 166.66 22.1162H166.065V25.6582H166.751C166.938 25.6582 167.104 25.6279 167.248 25.5672C167.393 25.5066 167.507 25.4156 167.591 25.2942C167.675 25.1729 167.717 25.0212 167.717 24.8392C167.717 24.7086 167.692 24.5942 167.64 24.4962C167.594 24.3936 167.526 24.3096 167.437 24.2442C167.353 24.1742 167.253 24.1252 167.136 24.0972C167.02 24.0646 166.891 24.0482 166.751 24.0482H165.869V23.5932H166.8C167.038 23.5932 167.262 23.6189 167.472 23.6702C167.682 23.7216 167.869 23.8009 168.032 23.9082C168.2 24.0156 168.331 24.1532 168.424 24.3212C168.518 24.4892 168.564 24.6899 168.564 24.9232C168.564 25.2452 168.487 25.5112 168.333 25.7212C168.184 25.9312 167.976 26.0876 167.71 26.1902C167.449 26.2882 167.146 26.3372 166.8 26.3372H165.239V21.4372H166.716C167.024 21.4372 167.295 21.4816 167.528 21.5702C167.766 21.6589 167.951 21.7942 168.081 21.9762C168.217 22.1582 168.284 22.3892 168.284 22.6692C168.284 22.9119 168.217 23.1196 168.081 23.2922C167.951 23.4602 167.766 23.5886 167.528 23.6772C167.295 23.7659 167.024 23.8102 166.716 23.8102H165.869ZM170.032 23.8872C170.032 24.2232 170.102 24.5242 170.242 24.7902C170.386 25.0516 170.585 25.2569 170.837 25.4062C171.089 25.5556 171.376 25.6302 171.698 25.6302C172.024 25.6302 172.311 25.5556 172.559 25.4062C172.811 25.2569 173.007 25.0516 173.147 24.7902C173.291 24.5242 173.364 24.2232 173.364 23.8872C173.364 23.5512 173.294 23.2526 173.154 22.9912C173.014 22.7252 172.818 22.5176 172.566 22.3682C172.318 22.2189 172.029 22.1442 171.698 22.1442C171.376 22.1442 171.089 22.2189 170.837 22.3682C170.585 22.5176 170.386 22.7252 170.242 22.9912C170.102 23.2526 170.032 23.5512 170.032 23.8872ZM169.157 23.8872C169.157 23.5186 169.22 23.1802 169.346 22.8722C169.472 22.5642 169.649 22.2982 169.878 22.0742C170.111 21.8456 170.382 21.6682 170.69 21.5422C171.002 21.4162 171.338 21.3532 171.698 21.3532C172.066 21.3532 172.405 21.4162 172.713 21.5422C173.021 21.6682 173.289 21.8456 173.518 22.0742C173.751 22.2982 173.931 22.5642 174.057 22.8722C174.183 23.1802 174.246 23.5186 174.246 23.8872C174.246 24.2512 174.183 24.5896 174.057 24.9022C173.931 25.2149 173.753 25.4856 173.525 25.7142C173.296 25.9429 173.025 26.1226 172.713 26.2532C172.405 26.3792 172.066 26.4422 171.698 26.4422C171.334 26.4422 170.995 26.3792 170.683 26.2532C170.37 26.1226 170.099 25.9429 169.871 25.7142C169.647 25.4856 169.472 25.2149 169.346 24.9022C169.22 24.5896 169.157 24.2512 169.157 23.8872ZM175.014 21.4372H175.84V24.6922C175.84 24.9956 175.919 25.2406 176.078 25.4272C176.241 25.6092 176.482 25.7002 176.799 25.7002C177.112 25.7002 177.35 25.6092 177.513 25.4272C177.676 25.2406 177.758 24.9956 177.758 24.6922V21.4372H178.584V24.7272C178.584 24.9979 178.54 25.2406 178.451 25.4552C178.367 25.6652 178.246 25.8449 178.087 25.9942C177.928 26.1436 177.739 26.2579 177.52 26.3372C177.301 26.4166 177.06 26.4562 176.799 26.4562C176.538 26.4562 176.297 26.4166 176.078 26.3372C175.859 26.2579 175.667 26.1436 175.504 25.9942C175.345 25.8449 175.224 25.6652 175.14 25.4552C175.056 25.2406 175.014 24.9979 175.014 24.7272V21.4372ZM179.153 22.2002V21.4372H182.569V22.2002H181.274V26.3372H180.441V22.2002H179.153Z" fill="black"/>
<path d="M34.7897 19.3306C34.6678 18.5129 34.4459 17.7235 34.1236 16.9624L33.5017 15.7337C32.5395 14.1408 31.2377 12.9097 29.5962 12.0404C28.4753 11.446 27.2849 11.0912 26.0252 10.9761C25.508 10.9114 24.9934 10.8911 24.4814 10.9149L23.1379 11.0715C20.8486 11.5325 18.9461 12.6488 17.4308 14.4205C17.3126 14.5592 17.1944 14.6995 17.0759 14.8414C17.0613 14.8588 17.051 14.8781 17.045 14.8998C17.037 14.9287 17.025 14.955 17.0092 14.9785C16.7299 15.3076 16.4809 15.6887 16.2622 16.1215C16.0349 16.5275 15.8348 16.9742 15.6614 17.4612C15.4871 17.9389 15.3515 18.4371 15.2546 18.9554C14.7444 21.9293 15.4344 24.748 17.3126 27.0677C17.5573 27.3699 17.7265 27.5677 17.8207 27.6614C19.8262 29.6534 21.8261 31.6512 23.8208 33.6548C23.8517 33.6864 23.8961 33.7005 23.9361 33.7173C24.3577 34.148 25.118 34.1754 25.6415 33.973C26.1068 33.7875 26.4151 33.4103 26.8375 32.9754L28.3539 31.4607L29.7333 30.0788C30.427 29.3927 31.1184 28.7012 31.8075 28.0043C32.2306 27.5767 32.546 27.2312 32.7541 26.968C33.9107 25.5029 34.6046 23.8192 34.8361 21.9167C34.8693 21.6456 34.8754 21.3921 34.8544 21.1566C34.9499 20.5693 34.8768 19.9172 34.7897 19.3306ZM21.6217 17.5805C21.6226 17.5805 21.6225 17.5817 21.6233 17.5822C21.6217 17.5814 21.6202 17.5802 21.6186 17.5813C21.6195 17.5808 21.6206 17.5804 21.6217 17.5805ZM20.9568 27.8792C20.9568 27.8792 20.9576 27.8793 20.9578 27.8795C20.9581 27.8796 20.9582 27.8796 20.9585 27.8799C20.9579 27.8796 20.9574 27.8793 20.9568 27.8792ZM21.2379 28.5114C21.2379 28.5114 21.2384 28.5117 21.2386 28.5117C21.2395 28.5121 21.2403 28.5125 21.2411 28.513C21.24 28.5123 21.239 28.5118 21.2379 28.5114ZM29.8284 22.4678C29.8284 22.4678 29.8278 22.4675 29.8274 22.4674C29.8279 22.4675 29.8286 22.4679 29.8288 22.4675C29.8287 22.4676 29.8286 22.4676 29.8284 22.4678Z" fill="url(#paint0_linear_210_1182)"/>
<path d="M19.9447 20.8312C19.618 20.6011 19.1794 20.6432 18.8935 20.9574C18.5641 21.3207 18.5641 21.9101 18.8935 22.2743L21.3545 24.9882C21.6839 25.3514 22.2184 25.3514 22.5487 24.9882L28.371 18.5676C28.7003 18.2044 28.7003 17.615 28.371 17.2508C28.086 16.9365 27.6465 16.8944 27.3198 17.1245L22.4155 22.5327C22.0391 22.9478 21.9299 23.0203 21.5534 22.6042L19.9447 20.8312Z" fill="white"/>
<path d="M22.5495 20.0871C22.2228 19.857 21.7842 19.8991 21.4984 20.2134C21.169 20.5766 21.169 21.166 21.4984 21.5302L21.9591 22.0383L23.1391 20.7372L22.5487 20.0861L22.5495 20.0871ZM24.0437 24.3361L24.635 24.9882C24.9644 25.3514 25.4989 25.3514 25.8291 24.9882L31.6506 18.5676C31.9799 18.2044 31.9799 17.615 31.6506 17.2508C31.3656 16.9365 30.9261 16.8944 30.6003 17.1245L25.6951 22.5327C25.6054 22.6316 25.5308 22.7109 25.4642 22.7697L24.0437 24.3361Z" fill="white"/>
<path d="M38.2622 23.7701V23.6376L38.5405 23.5316C38.726 23.4609 38.8409 23.377 38.885 23.2799C38.938 23.1738 38.9645 23.0325 38.9645 22.8558V15.9387C38.9645 15.7621 38.938 15.6207 38.885 15.5147C38.832 15.4087 38.7172 15.3248 38.5405 15.2629L38.2622 15.1569V15.0244H41.6413V15.1569L41.4027 15.2629C41.2349 15.3248 41.12 15.4131 41.0582 15.528C40.9964 15.634 40.9655 15.7753 40.9655 15.952V23.5051H43.0061C43.333 23.5051 43.5715 23.4256 43.7217 23.2666C43.8807 23.1076 44.0309 22.8779 44.1722 22.5775L44.689 21.4644H44.8215L44.7023 23.7701H38.2622ZM47.247 16.5085C46.9466 16.5085 46.6904 16.4158 46.4784 16.2303C46.2752 16.0359 46.1737 15.793 46.1737 15.5015C46.1737 15.2011 46.2752 14.9582 46.4784 14.7726C46.6904 14.5871 46.9466 14.4944 47.247 14.4944C47.5474 14.4944 47.7991 14.5871 48.0023 14.7726C48.2055 14.9582 48.3071 15.2011 48.3071 15.5015C48.3071 15.793 48.2055 16.0359 48.0023 16.2303C47.7991 16.4158 47.5474 16.5085 47.247 16.5085ZM45.6834 23.7701V23.6376L45.8689 23.5846C46.0456 23.5316 46.1648 23.4521 46.2267 23.3461C46.2973 23.2401 46.3327 23.0988 46.3327 22.9221V18.7745C46.3327 18.589 46.2973 18.452 46.2267 18.3637C46.1648 18.2665 46.0456 18.2003 45.8689 18.1649L45.6834 18.1252V17.9927L48.1083 17.2108L48.2408 17.3434L48.2011 19.225V22.9353C48.2011 23.112 48.232 23.2533 48.2938 23.3594C48.3645 23.4654 48.4838 23.5449 48.6516 23.5979L48.7841 23.6376V23.7701H45.6834ZM51.9283 23.9689C51.4954 23.9689 51.1067 23.9159 50.7622 23.8099C50.4176 23.7127 50.0996 23.589 49.8081 23.4389L49.8213 21.862H49.9538L50.4044 22.657C50.5987 23.0104 50.8107 23.2754 51.0404 23.4521C51.279 23.62 51.5793 23.7039 51.9415 23.7039C52.3655 23.7039 52.7057 23.6111 52.9618 23.4256C53.2269 23.2313 53.3594 22.9751 53.3594 22.657C53.3594 22.3655 53.2666 22.127 53.0811 21.9415C52.8956 21.756 52.5511 21.5881 52.0475 21.4379L51.491 21.2657C50.9521 21.1067 50.5281 20.8593 50.2189 20.5236C49.9097 20.1879 49.7551 19.7771 49.7551 19.2913C49.7551 18.7082 49.9848 18.2135 50.4441 17.8071C50.9035 17.4008 51.5616 17.1976 52.4185 17.1976C52.7631 17.1976 53.0855 17.2373 53.3859 17.3169C53.6951 17.3875 53.991 17.498 54.2737 17.6481L54.1942 19.0793H54.0617L53.5979 18.2577C53.43 17.9662 53.2622 17.763 53.0944 17.6481C52.9353 17.5245 52.6924 17.4626 52.3655 17.4626C52.0652 17.4626 51.7825 17.5465 51.5175 17.7144C51.2525 17.8822 51.1199 18.1208 51.1199 18.4299C51.1199 18.7303 51.2304 18.9688 51.4512 19.1455C51.6809 19.3222 52.0166 19.4856 52.4583 19.6358L53.0546 19.8081C53.6907 20.0024 54.1456 20.2718 54.4195 20.6164C54.6933 20.9521 54.8302 21.3584 54.8302 21.8355C54.8302 22.4804 54.5741 22.9972 54.0617 23.3859C53.5581 23.7746 52.847 23.9689 51.9283 23.9689ZM58.19 23.9689C57.6246 23.9689 57.1829 23.8276 56.8649 23.5449C56.5557 23.2622 56.4011 22.8116 56.4011 22.1933V17.6614H55.4868V17.5289L55.8048 17.4759C56.0787 17.414 56.3128 17.3257 56.5071 17.2108C56.7103 17.096 56.9091 16.9414 57.1034 16.7471L58.19 15.5412H58.3225L58.2828 17.3964H59.7669V17.6614H58.2695V22.4318C58.2695 22.741 58.3358 22.9751 58.4683 23.1341C58.6096 23.2931 58.7863 23.3726 58.9983 23.3726C59.1839 23.3726 59.3473 23.3284 59.4886 23.2401C59.63 23.1429 59.7713 23.0148 59.9127 22.8558L60.0452 22.9883C59.8685 23.2887 59.6256 23.5272 59.3164 23.7039C59.0072 23.8806 58.6317 23.9689 58.19 23.9689ZM60.6742 23.7701V23.6376L60.9392 23.5449C61.1159 23.4919 61.2307 23.4124 61.2837 23.3064C61.3456 23.2003 61.3765 23.059 61.3765 22.8823V15.9387C61.3765 15.7621 61.3456 15.6207 61.2837 15.5147C61.2219 15.4087 61.1026 15.3248 60.926 15.2629L60.6742 15.1569V15.0244H63.8942C65.2105 15.0244 66.1602 15.2673 66.7432 15.7532C67.3351 16.2303 67.631 16.8619 67.631 17.6481C67.631 18.1517 67.5073 18.6155 67.26 19.0395C67.0215 19.4547 66.6239 19.786 66.0674 20.0333C65.5108 20.2807 64.76 20.4044 63.8147 20.4044H63.3642V22.8426C63.3642 23.1871 63.5364 23.4124 63.881 23.5184L64.2785 23.6376V23.7701H60.6742ZM63.3642 20.1393H63.8677C64.3006 20.1393 64.6539 20.0687 64.9278 19.9273C65.2017 19.786 65.4048 19.5386 65.5373 19.1853C65.6699 18.8319 65.7361 18.3416 65.7361 17.7144C65.7361 17.0783 65.661 16.5836 65.5108 16.2303C65.3695 15.8769 65.1575 15.634 64.8748 15.5015C64.5921 15.3601 64.2387 15.2894 63.8147 15.2894H63.3642V20.1393ZM68.3535 23.7701V23.6376L68.5523 23.5846C68.729 23.5316 68.8482 23.4521 68.9101 23.3461C68.9807 23.2401 69.0161 23.1032 69.0161 22.9353V18.7877C69.0161 18.5934 68.9807 18.452 68.9101 18.3637C68.8482 18.2665 68.729 18.2003 68.5523 18.1649L68.3535 18.1119V17.9794L70.6327 17.2108L70.7652 17.3434L70.8845 18.483V18.589C71.0082 18.3416 71.1672 18.1163 71.3615 17.9132C71.5647 17.7011 71.7856 17.5289 72.0241 17.3964C72.2714 17.2638 72.5144 17.1976 72.7529 17.1976C73.0886 17.1976 73.3448 17.2904 73.5215 17.4759C73.6981 17.6614 73.7865 17.8955 73.7865 18.1782C73.7865 18.4785 73.6981 18.7126 73.5215 18.8805C73.3536 19.0395 73.1504 19.119 72.9119 19.119C72.5409 19.119 72.214 18.9335 71.9313 18.5625L71.9048 18.536C71.8165 18.4123 71.7149 18.346 71.6 18.3372C71.4852 18.3195 71.3792 18.3725 71.282 18.4962C71.1937 18.5757 71.1186 18.6729 71.0567 18.7877C71.0037 18.8937 70.9507 19.0174 70.8977 19.1588V22.8558C70.8977 23.2092 71.0523 23.43 71.3615 23.5184L71.7856 23.6376V23.7701H68.3535ZM77.5866 17.1976C78.1609 17.1976 78.6511 17.3169 79.0575 17.5554C79.4639 17.7851 79.7731 18.1031 79.9851 18.5095C80.2059 18.907 80.3164 19.3619 80.3164 19.8743C80.3164 19.9715 80.312 20.0731 80.3031 20.1791C80.2943 20.2763 80.2766 20.3646 80.2501 20.4441H76.3013C76.3101 21.3982 76.478 22.0873 76.8048 22.5113C77.1405 22.9265 77.6352 23.1341 78.2889 23.1341C78.7307 23.1341 79.0884 23.0634 79.3623 22.9221C79.6361 22.7807 79.8923 22.5731 80.1309 22.2993L80.2634 22.4185C79.9895 22.9044 79.6229 23.2843 79.1635 23.5581C78.713 23.832 78.1697 23.9689 77.5336 23.9689C76.9064 23.9689 76.3499 23.8364 75.864 23.5714C75.3781 23.2975 74.9983 22.9088 74.7244 22.4053C74.4505 21.9017 74.3136 21.301 74.3136 20.6031C74.3136 19.8787 74.4726 19.2648 74.7907 18.7612C75.1087 18.2488 75.5151 17.8601 76.0098 17.5951C76.5133 17.3301 77.0389 17.1976 77.5866 17.1976ZM77.5469 17.4626C77.2907 17.4626 77.0698 17.5421 76.8843 17.7011C76.7076 17.8513 76.5663 18.1252 76.4603 18.5227C76.3631 18.9114 76.3101 19.4635 76.3013 20.1791H78.5672C78.6556 19.2162 78.6202 18.5227 78.4612 18.0987C78.3022 17.6746 77.9974 17.4626 77.5469 17.4626ZM83.5342 23.9689C83.1013 23.9689 82.7126 23.9159 82.3681 23.8099C82.0236 23.7127 81.7056 23.589 81.414 23.4389L81.4273 21.862H81.5598L82.0103 22.657C82.2047 23.0104 82.4167 23.2754 82.6464 23.4521C82.8849 23.62 83.1853 23.7039 83.5475 23.7039C83.9715 23.7039 84.3116 23.6111 84.5678 23.4256C84.8328 23.2313 84.9653 22.9751 84.9653 22.657C84.9653 22.3655 84.8726 22.127 84.6871 21.9415C84.5015 21.756 84.157 21.5881 83.6535 21.4379L83.0969 21.2657C82.558 21.1067 82.134 20.8593 81.8248 20.5236C81.5156 20.1879 81.361 19.7771 81.361 19.2913C81.361 18.7082 81.5907 18.2135 82.0501 17.8071C82.5095 17.4008 83.1676 17.1976 84.0245 17.1976C84.369 17.1976 84.6915 17.2373 84.9918 17.3169C85.301 17.3875 85.597 17.498 85.8797 17.6481L85.8002 19.0793H85.6676L85.2039 18.2577C85.036 17.9662 84.8682 17.763 84.7003 17.6481C84.5413 17.5245 84.2984 17.4626 83.9715 17.4626C83.6711 17.4626 83.3885 17.5465 83.1234 17.7144C82.8584 17.8822 82.7259 18.1208 82.7259 18.4299C82.7259 18.7303 82.8363 18.9688 83.0572 19.1455C83.2869 19.3222 83.6226 19.4856 84.0643 19.6358L84.6606 19.8081C85.2966 20.0024 85.7516 20.2718 86.0254 20.6164C86.2993 20.9521 86.4362 21.3584 86.4362 21.8355C86.4362 22.4804 86.18 22.9972 85.6676 23.3859C85.1641 23.7746 84.453 23.9689 83.5342 23.9689ZM89.5707 23.9689C89.1378 23.9689 88.7491 23.9159 88.4046 23.8099C88.0601 23.7127 87.7421 23.589 87.4505 23.4389L87.4638 21.862H87.5963L88.0468 22.657C88.2412 23.0104 88.4532 23.2754 88.6829 23.4521C88.9214 23.62 89.2218 23.7039 89.584 23.7039C90.008 23.7039 90.3481 23.6111 90.6043 23.4256C90.8693 23.2313 91.0018 22.9751 91.0018 22.657C91.0018 22.3655 90.9091 22.127 90.7236 21.9415C90.538 21.756 90.1935 21.5881 89.69 21.4379L89.1334 21.2657C88.5945 21.1067 88.1705 20.8593 87.8613 20.5236C87.5521 20.1879 87.3975 19.7771 87.3975 19.2913C87.3975 18.7082 87.6272 18.2135 88.0866 17.8071C88.546 17.4008 89.2041 17.1976 90.061 17.1976C90.4055 17.1976 90.728 17.2373 91.0283 17.3169C91.3375 17.3875 91.6335 17.498 91.9162 17.6481L91.8367 19.0793H91.7041L91.2404 18.2577C91.0725 17.9662 90.9047 17.763 90.7368 17.6481C90.5778 17.5245 90.3349 17.4626 90.008 17.4626C89.7076 17.4626 89.4249 17.5465 89.1599 17.7144C88.8949 17.8822 88.7624 18.1208 88.7624 18.4299C88.7624 18.7303 88.8728 18.9688 89.0937 19.1455C89.3234 19.3222 89.6591 19.4856 90.1008 19.6358L90.6971 19.8081C91.3331 20.0024 91.7881 20.2718 92.0619 20.6164C92.3358 20.9521 92.4727 21.3584 92.4727 21.8355C92.4727 22.4804 92.2165 22.9972 91.7041 23.3859C91.2006 23.7746 90.4895 23.9689 89.5707 23.9689Z" fill="#111111"/>
<path d="M40.1045 30.3649H38.8799V26.7509H40.1292C40.488 26.7509 40.7963 26.8233 41.0539 26.968C41.3127 27.1115 41.5115 27.318 41.6503 27.5874C41.7892 27.8568 41.8586 28.1791 41.8586 28.5544C41.8586 28.9308 41.7886 29.2543 41.6486 29.5249C41.5098 29.7955 41.3092 30.0031 41.0468 30.1478C40.7857 30.2925 40.4716 30.3649 40.1045 30.3649ZM39.5346 29.7984H40.0728C40.3245 29.7984 40.5345 29.7525 40.7027 29.6608C40.871 29.5678 40.9974 29.4296 41.0821 29.2461C41.1668 29.0614 41.2092 28.8308 41.2092 28.5544C41.2092 28.2779 41.1668 28.0485 41.0821 27.8662C40.9974 27.6826 40.8721 27.5456 40.7063 27.455C40.5416 27.3633 40.3369 27.3174 40.0922 27.3174H39.5346V29.7984ZM43.1353 26.7509V30.3649H42.4806V26.7509H43.1353ZM43.8442 30.3649V26.7509H45.1994C45.4771 26.7509 45.71 26.7992 45.8982 26.8956C46.0876 26.9921 46.2306 27.1274 46.327 27.3015C46.4247 27.4744 46.4735 27.6762 46.4735 27.9068C46.4735 28.1385 46.4241 28.3397 46.3253 28.5103C46.2276 28.6797 46.0835 28.8108 45.8929 28.9038C45.7023 28.9955 45.4682 29.0414 45.1906 29.0414H44.2254V28.4979H45.1024C45.2647 28.4979 45.3977 28.4756 45.5012 28.4308C45.6047 28.385 45.6812 28.3185 45.7306 28.2314C45.7812 28.1432 45.8065 28.035 45.8065 27.9068C45.8065 27.7785 45.7812 27.6691 45.7306 27.5785C45.68 27.4868 45.6029 27.4174 45.4994 27.3703C45.3959 27.3221 45.2624 27.298 45.0988 27.298H44.4989V30.3649H43.8442ZM45.7112 28.7273L46.6058 30.3649H45.8753L44.9965 28.7273H45.7112ZM47.0761 30.3649V26.7509H49.4266V27.2997H47.7308V28.2809H49.3048V28.8297H47.7308V29.8161H49.4407V30.3649H47.0761ZM53.1879 27.9703H52.5279C52.5091 27.8621 52.4744 27.7662 52.4238 27.6826C52.3732 27.5979 52.3102 27.5262 52.235 27.4674C52.1597 27.4085 52.0738 27.3644 51.9773 27.335C51.882 27.3044 51.7791 27.2891 51.6685 27.2891C51.4721 27.2891 51.2979 27.3385 51.1462 27.4374C50.9944 27.535 50.8756 27.6785 50.7897 27.8679C50.7039 28.0562 50.6609 28.2861 50.6609 28.5579C50.6609 28.8344 50.7039 29.0673 50.7897 29.2567C50.8768 29.4449 50.9956 29.5873 51.1462 29.6837C51.2979 29.779 51.4715 29.8267 51.6668 29.8267C51.775 29.8267 51.8762 29.8125 51.9703 29.7843C52.0656 29.7549 52.1508 29.712 52.2261 29.6555C52.3026 29.599 52.3667 29.5296 52.4185 29.4473C52.4714 29.3649 52.5079 29.2708 52.5279 29.1649L53.1879 29.1685C53.1631 29.3402 53.1096 29.5014 53.0273 29.652C52.9461 29.8025 52.8396 29.9355 52.7079 30.0508C52.5761 30.1649 52.422 30.2543 52.2455 30.319C52.0691 30.3825 51.8732 30.4143 51.6579 30.4143C51.3403 30.4143 51.0568 30.3408 50.8074 30.1937C50.558 30.0466 50.3615 29.8343 50.218 29.5567C50.0745 29.279 50.0027 28.9461 50.0027 28.5579C50.0027 28.1685 50.0751 27.8356 50.2198 27.5591C50.3645 27.2815 50.5615 27.0692 50.8109 26.9221C51.0603 26.775 51.3427 26.7015 51.6579 26.7015C51.8591 26.7015 52.0461 26.7298 52.2191 26.7862C52.392 26.8427 52.5461 26.9256 52.6814 27.035C52.8167 27.1433 52.9279 27.2762 53.0149 27.4338C53.1032 27.5903 53.1608 27.7691 53.1879 27.9703ZM53.6286 27.2997V26.7509H56.512V27.2997H55.3949V30.3649H54.7456V27.2997H53.6286ZM60.1369 28.5579C60.1369 28.9473 60.064 29.2808 59.9181 29.5584C59.7734 29.8349 59.5758 30.0466 59.3252 30.1937C59.0758 30.3408 58.7929 30.4143 58.4764 30.4143C58.16 30.4143 57.8764 30.3408 57.6259 30.1937C57.3765 30.0455 57.1788 29.8331 57.033 29.5567C56.8883 29.279 56.8159 28.9461 56.8159 28.5579C56.8159 28.1685 56.8883 27.8356 57.033 27.5591C57.1788 27.2815 57.3765 27.0692 57.6259 26.9221C57.8764 26.775 58.16 26.7015 58.4764 26.7015C58.7929 26.7015 59.0758 26.775 59.3252 26.9221C59.5758 27.0692 59.7734 27.2815 59.9181 27.5591C60.064 27.8356 60.1369 28.1685 60.1369 28.5579ZM59.4787 28.5579C59.4787 28.2838 59.4358 28.0526 59.3499 27.8644C59.2652 27.675 59.1476 27.5321 58.997 27.4356C58.8464 27.338 58.6729 27.2891 58.4764 27.2891C58.28 27.2891 58.1064 27.338 57.9559 27.4356C57.8053 27.5321 57.687 27.675 57.6012 27.8644C57.5165 28.0526 57.4741 28.2838 57.4741 28.5579C57.4741 28.832 57.5165 29.0638 57.6012 29.2532C57.687 29.4414 57.8053 29.5843 57.9559 29.682C58.1064 29.7784 58.28 29.8267 58.4764 29.8267C58.6729 29.8267 58.8464 29.7784 58.997 29.682C59.1476 29.5843 59.2652 29.4414 59.3499 29.2532C59.4358 29.0638 59.4787 28.832 59.4787 28.5579ZM60.7559 30.3649V26.7509H62.1111C62.3887 26.7509 62.6216 26.7992 62.8099 26.8956C62.9993 26.9921 63.1422 27.1274 63.2387 27.3015C63.3363 27.4744 63.3851 27.6762 63.3851 27.9068C63.3851 28.1385 63.3357 28.3397 63.2369 28.5103C63.1393 28.6797 62.9952 28.8108 62.8046 28.9038C62.614 28.9955 62.3799 29.0414 62.1023 29.0414H61.137V28.4979H62.014C62.1764 28.4979 62.3093 28.4756 62.4128 28.4308C62.5164 28.385 62.5928 28.3185 62.6422 28.2314C62.6928 28.1432 62.7181 28.035 62.7181 27.9068C62.7181 27.7785 62.6928 27.6691 62.6422 27.5785C62.5916 27.4868 62.5146 27.4174 62.4111 27.3703C62.3075 27.3221 62.174 27.298 62.0105 27.298H61.4105V30.3649H60.7559ZM62.6228 28.7273L63.5175 30.3649H62.7869L61.9082 28.7273H62.6228ZM63.6 26.7509H64.3394L65.2234 28.3497H65.2587L66.1428 26.7509H66.8822L65.5675 29.0167V30.3649H64.9146V29.0167L63.6 26.7509ZM69.6301 30.4178C69.3831 30.4178 69.1707 30.3731 68.9931 30.2837C68.8155 30.1943 68.6784 30.0737 68.5819 29.9219C68.4866 29.769 68.439 29.5967 68.439 29.4049C68.439 29.2602 68.4684 29.132 68.5272 29.0202C68.5872 28.9085 68.6696 28.8049 68.7743 28.7097C68.8802 28.6144 69.0025 28.5197 69.1413 28.4256L69.7819 27.9897C69.876 27.9285 69.9472 27.8638 69.9954 27.7956C70.0448 27.7274 70.0695 27.6474 70.0695 27.5556C70.0695 27.478 70.0366 27.4044 69.9707 27.335C69.906 27.2656 69.8166 27.2309 69.7025 27.2309C69.626 27.2309 69.5584 27.2491 69.4995 27.2856C69.4419 27.3209 69.3966 27.3674 69.3637 27.425C69.3319 27.4827 69.316 27.5438 69.316 27.6085C69.316 27.6874 69.3378 27.7674 69.3813 27.8485C69.426 27.9297 69.4837 28.0138 69.5542 28.1009C69.626 28.1879 69.7025 28.2803 69.7836 28.3779L71.4794 30.3649H70.7877L69.3795 28.752C69.2748 28.6297 69.1737 28.5091 69.076 28.3903C68.9796 28.2714 68.9002 28.1479 68.8378 28.0197C68.7766 27.8903 68.746 27.7503 68.746 27.5997C68.746 27.4291 68.7855 27.2768 68.8643 27.1427C68.9431 27.0074 69.0531 26.9009 69.1943 26.8233C69.3366 26.7456 69.5031 26.7068 69.6936 26.7068C69.8842 26.7068 70.0477 26.7445 70.1842 26.8198C70.3207 26.895 70.426 26.995 70.5001 27.1197C70.5742 27.2444 70.6112 27.3803 70.6112 27.5274C70.6112 27.6979 70.5689 27.8509 70.4842 27.9862C70.3995 28.1203 70.2819 28.242 70.1313 28.3514L69.4007 28.8861C69.2807 28.9732 69.1948 29.0614 69.1431 29.1508C69.0913 29.239 69.0654 29.3143 69.0654 29.3767C69.0654 29.472 69.0896 29.5584 69.1378 29.6361C69.186 29.7137 69.2537 29.7761 69.3407 29.8231C69.429 29.869 69.5319 29.892 69.6495 29.892C69.7789 29.892 69.9066 29.8631 70.0325 29.8055C70.1583 29.7467 70.273 29.6631 70.3766 29.5549C70.4801 29.4467 70.5624 29.3173 70.6236 29.1667C70.6848 29.0149 70.7154 28.8467 70.7154 28.662H71.2642C71.2642 28.8902 71.2389 29.089 71.1883 29.2585C71.1377 29.4267 71.0724 29.569 70.9924 29.6855C70.9124 29.8008 70.8277 29.8931 70.7383 29.9625C70.7101 29.9825 70.683 30.0025 70.6571 30.0225C70.6312 30.0425 70.6042 30.0625 70.576 30.0825C70.4489 30.1978 70.3001 30.2825 70.1295 30.3366C69.9601 30.3907 69.7936 30.4178 69.6301 30.4178ZM73.106 30.3649V26.7509H73.7606V29.8161H75.3523V30.3649H73.106ZM76.5752 26.7509V30.3649H75.9205V26.7509H76.5752ZM79.2482 27.7444C79.2317 27.5903 79.1623 27.4703 79.0399 27.3844C78.9188 27.2986 78.7611 27.2556 78.567 27.2556C78.4306 27.2556 78.3135 27.2762 78.2159 27.3174C78.1182 27.3585 78.0435 27.4144 77.9918 27.485C77.94 27.5556 77.9135 27.6362 77.9124 27.7268C77.9124 27.8021 77.9294 27.8673 77.9635 27.9226C77.9988 27.9779 78.0465 28.025 78.1065 28.0638C78.1665 28.1015 78.2329 28.1332 78.3059 28.1591C78.3788 28.185 78.4523 28.2067 78.5264 28.2244L78.8652 28.3091C79.0017 28.3409 79.1329 28.3838 79.2588 28.4379C79.3858 28.492 79.4993 28.5603 79.5993 28.6426C79.7005 28.7249 79.7805 28.8244 79.8393 28.9408C79.8981 29.0573 79.9275 29.1938 79.9275 29.3502C79.9275 29.562 79.8734 29.7484 79.7652 29.9096C79.657 30.0696 79.5005 30.1949 79.2958 30.2855C79.0923 30.3749 78.8458 30.4196 78.5564 30.4196C78.2753 30.4196 78.0312 30.376 77.8241 30.289C77.6183 30.2019 77.4571 30.0749 77.3406 29.9078C77.2253 29.7408 77.163 29.5373 77.1536 29.2973H77.7977C77.8071 29.4232 77.8459 29.5279 77.9141 29.6114C77.9823 29.6949 78.0712 29.7573 78.1806 29.7984C78.2912 29.8396 78.4147 29.8602 78.5511 29.8602C78.6935 29.8602 78.8182 29.839 78.9252 29.7967C79.0335 29.7531 79.1182 29.6931 79.1793 29.6167C79.2405 29.539 79.2717 29.4484 79.2729 29.3449C79.2717 29.2508 79.2441 29.1732 79.1899 29.112C79.1358 29.0496 79.0599 28.9979 78.9623 28.9567C78.8658 28.9144 78.7529 28.8767 78.6235 28.8438L78.2123 28.7379C77.9147 28.6614 77.6794 28.5455 77.5065 28.3903C77.3347 28.2338 77.2489 28.0262 77.2489 27.7674C77.2489 27.5544 77.3065 27.368 77.4218 27.208C77.5383 27.048 77.6965 26.9239 77.8965 26.8356C78.0965 26.7462 78.3229 26.7015 78.5758 26.7015C78.8323 26.7015 79.057 26.7462 79.2499 26.8356C79.444 26.9239 79.5964 27.0468 79.707 27.2044C79.8176 27.3609 79.8746 27.5409 79.8781 27.7444H79.2482ZM80.3524 27.2997V26.7509H83.2358V27.2997H82.1188V30.3649H81.4694V27.2997H80.3524ZM84.4463 26.7509V30.3649H83.7916V26.7509H84.4463ZM88.1251 26.7509V30.3649H87.5428L85.8399 27.9032H85.8099V30.3649H85.1552V26.7509H85.7411L87.4422 29.2143H87.4739V26.7509H88.1251ZM91.2595 27.905C91.2301 27.8097 91.1895 27.7244 91.1377 27.6491C91.0871 27.5727 91.026 27.5074 90.9542 27.4532C90.8836 27.3991 90.8024 27.3585 90.7107 27.3315C90.6189 27.3033 90.5189 27.2891 90.4107 27.2891C90.2166 27.2891 90.0437 27.338 89.8919 27.4356C89.7401 27.5332 89.6207 27.6768 89.5337 27.8662C89.4478 28.0544 89.4049 28.2838 89.4049 28.5544C89.4049 28.8273 89.4478 29.0585 89.5337 29.2479C89.6196 29.4373 89.739 29.5814 89.8919 29.6802C90.0448 29.7778 90.2225 29.8267 90.4248 29.8267C90.6083 29.8267 90.7672 29.7914 90.9013 29.7208C91.0366 29.6502 91.1407 29.5502 91.2136 29.4208C91.2865 29.2902 91.323 29.1373 91.323 28.962L91.4712 28.9849H90.4901V28.4732H91.9565V28.9073C91.9565 29.2167 91.8906 29.4843 91.7589 29.7102C91.6271 29.9361 91.4459 30.1102 91.2154 30.2325C90.9848 30.3537 90.7201 30.4143 90.4213 30.4143C90.0884 30.4143 89.796 30.3396 89.5443 30.1902C89.2937 30.0396 89.0978 29.8261 88.9567 29.5496C88.8167 29.272 88.7467 28.9426 88.7467 28.5614C88.7467 28.2697 88.7878 28.0091 88.8702 27.7797C88.9537 27.5503 89.0702 27.3556 89.2196 27.1956C89.369 27.0344 89.5443 26.9121 89.7454 26.8286C89.9466 26.7439 90.1654 26.7015 90.4019 26.7015C90.6019 26.7015 90.7883 26.7309 90.9613 26.7898C91.1342 26.8474 91.2877 26.9297 91.4218 27.0368C91.5571 27.1439 91.6683 27.2709 91.7553 27.418C91.8424 27.565 91.8995 27.7274 91.9265 27.905H91.2595Z" fill="#444444"/>
</g>
<defs>
<linearGradient id="paint0_linear_210_1182" x1="24.9956" y1="10.9053" x2="24.9956" y2="34.0947" gradientUnits="userSpaceOnUse">
<stop stop-color="#FA350C"/>
<stop offset="1" stop-color="#E32B05"/>
</linearGradient>
<clipPath id="clip0_210_1182">
<rect width="401" height="44" fill="white" transform="translate(0.5 0.5)"/>
</clipPath>
</defs>
</svg>
