<svg width="402" height="45" viewBox="0 0 402 45" fill="none" xmlns="http://www.w3.org/2000/svg">
<g clip-path="url(#clip0_210_1234)">
<path d="M400.811 0.499634H0.810547V44.2203H400.811V0.499634Z" fill="white"/>
<path d="M333.67 14.3646H332.732C328.316 14.3646 324.736 17.9443 324.736 22.3601C324.736 26.7759 328.316 30.3556 332.732 30.3556H333.67C338.085 30.3556 341.665 26.7759 341.665 22.3601C341.665 17.9443 338.085 14.3646 333.67 14.3646Z" stroke="black" stroke-width="0.6"/>
<path d="M311.617 14.3646H310.679C306.263 14.3646 302.684 17.9443 302.684 22.3601C302.684 26.7759 306.263 30.3556 310.679 30.3556H311.617C316.033 30.3556 319.612 26.7759 319.612 22.3601C319.612 17.9443 316.033 14.3646 311.617 14.3646Z" stroke="black" stroke-width="0.6"/>
<path d="M311.149 22.1793C311.611 22.1793 312.063 22.0422 312.448 21.7853C312.832 21.5283 313.132 21.1632 313.309 20.7359C313.486 20.3087 313.532 19.8385 313.442 19.385C313.352 18.9314 313.129 18.5148 312.802 18.1878C312.475 17.8608 312.058 17.6381 311.605 17.5479C311.151 17.4576 310.681 17.5039 310.254 17.6809C309.827 17.8579 309.462 18.1576 309.205 18.5421C308.948 18.9266 308.811 19.3787 308.811 19.8411C308.811 20.4611 309.058 21.0554 309.496 21.4938C309.934 21.9322 310.529 22.1787 311.149 22.1793ZM311.149 18.2823C311.457 18.2823 311.758 18.3738 312.015 18.545C312.271 18.7163 312.471 18.9598 312.589 19.2446C312.707 19.5294 312.738 19.8429 312.678 20.1452C312.617 20.4476 312.469 20.7254 312.251 20.9434C312.033 21.1614 311.755 21.3098 311.453 21.37C311.15 21.4301 310.837 21.3993 310.552 21.2813C310.267 21.1633 310.024 20.9635 309.853 20.7072C309.681 20.4508 309.59 20.1494 309.59 19.8411C309.59 19.4277 309.754 19.0312 310.047 18.7389C310.339 18.4466 310.735 18.2823 311.149 18.2823Z" fill="black"/>
<path d="M311.148 22.9587C310.218 22.9598 309.327 23.3296 308.669 23.9871C308.012 24.6447 307.642 25.5362 307.641 26.466C307.641 26.5694 307.682 26.6685 307.755 26.7416C307.828 26.8147 307.927 26.8557 308.03 26.8557C308.134 26.8557 308.233 26.8147 308.306 26.7416C308.379 26.6685 308.42 26.5694 308.42 26.466C308.42 25.7426 308.707 25.0487 309.219 24.5371C309.731 24.0255 310.424 23.7381 311.148 23.7381C311.871 23.7381 312.565 24.0255 313.077 24.5371C313.588 25.0487 313.876 25.7426 313.876 26.466C313.876 26.5694 313.917 26.6685 313.99 26.7416C314.063 26.8147 314.162 26.8557 314.266 26.8557C314.369 26.8557 314.468 26.8147 314.541 26.7416C314.614 26.6685 314.655 26.5694 314.655 26.466C314.654 25.5362 314.284 24.6447 313.627 23.9871C312.969 23.3296 312.078 22.9598 311.148 22.9587Z" fill="black"/>
<path d="M333.291 25.783C335.25 25.783 336.839 24.1943 336.839 22.2345C336.839 20.2747 335.25 18.686 333.291 18.686C331.331 18.686 329.742 20.2747 329.742 22.2345C329.742 24.1943 331.331 25.783 333.291 25.783Z" stroke="black" stroke-width="1.01386" stroke-linecap="round" stroke-linejoin="round"/>
<path d="M337.728 26.6701L335.799 24.7406" stroke="black" stroke-width="1.01386" stroke-linecap="round" stroke-linejoin="round"/>
<path d="M283.605 22.1793H295.432" stroke="black" stroke-width="1.57692" stroke-linecap="round" stroke-linejoin="round"/>
<path d="M283.605 18.4341H295.432" stroke="black" stroke-width="1.57692" stroke-linecap="round" stroke-linejoin="round"/>
<path d="M283.605 25.9246H295.432" stroke="black" stroke-width="1.57692" stroke-linecap="round" stroke-linejoin="round"/>
<path d="M383.067 14.989H352.953C348.882 14.989 345.582 18.2892 345.582 22.3601V22.3601C345.582 26.4311 348.882 29.7312 352.953 29.7312H383.067C387.138 29.7312 390.438 26.4311 390.438 22.3601C390.438 18.2892 387.138 14.989 383.067 14.989Z" fill="black"/>
<path d="M352.953 14.989H383.067C387.138 14.989 390.438 18.2892 390.438 22.3601V22.3601C390.438 26.4311 387.138 29.7312 383.067 29.7312H352.953C348.882 29.7312 345.582 26.4311 345.582 22.3601V22.3601C345.582 18.2892 348.882 14.989 352.953 14.989Z" stroke="black" stroke-width="0.6"/>
<path d="M354.364 21.8899C354.328 21.7749 354.279 21.6719 354.217 21.581C354.156 21.4887 354.082 21.4098 353.995 21.3445C353.91 21.2791 353.812 21.2301 353.701 21.1975C353.59 21.1634 353.47 21.1463 353.339 21.1463C353.105 21.1463 352.896 21.2053 352.713 21.3232C352.529 21.4411 352.385 21.6144 352.28 21.8431C352.176 22.0703 352.125 22.3473 352.125 22.674C352.125 23.0036 352.176 23.2827 352.28 23.5114C352.384 23.7401 352.528 23.9141 352.713 24.0334C352.897 24.1513 353.112 24.2102 353.356 24.2102C353.578 24.2102 353.769 24.1676 353.931 24.0824C354.095 23.9972 354.22 23.8764 354.309 23.7202C354.397 23.5625 354.441 23.3779 354.441 23.1662L354.62 23.1939H353.435V22.576H355.206V23.1002C355.206 23.4737 355.126 23.7969 354.967 24.0696C354.808 24.3424 354.589 24.5526 354.311 24.7003C354.032 24.8466 353.713 24.9198 353.352 24.9198C352.95 24.9198 352.597 24.8296 352.293 24.6492C351.99 24.4674 351.754 24.2095 351.583 23.8757C351.414 23.5405 351.33 23.1428 351.33 22.6826C351.33 22.3303 351.38 22.0156 351.479 21.7387C351.58 21.4617 351.72 21.2266 351.901 21.0334C352.081 20.8388 352.293 20.6911 352.536 20.5902C352.779 20.4879 353.043 20.4368 353.328 20.4368C353.57 20.4368 353.795 20.4723 354.004 20.5433C354.213 20.6129 354.398 20.7124 354.56 20.8416C354.723 20.9709 354.858 21.1243 354.963 21.3019C355.068 21.4794 355.137 21.6754 355.169 21.8899H354.364ZM357.385 24.924C357.057 24.924 356.773 24.8558 356.535 24.7195C356.297 24.5817 356.115 24.3871 355.987 24.1357C355.859 23.8828 355.795 23.5852 355.795 23.2429C355.795 22.9063 355.859 22.6108 355.987 22.3566C356.116 22.1009 356.297 21.902 356.528 21.76C356.76 21.6165 357.032 21.5448 357.344 21.5448C357.546 21.5448 357.736 21.5774 357.915 21.6428C358.096 21.7067 358.255 21.8061 358.393 21.9411C358.532 22.076 358.641 22.2479 358.721 22.4567C358.8 22.6641 358.84 22.9112 358.84 23.1982V23.4347H356.157V22.9148H358.101C358.099 22.7671 358.067 22.6357 358.005 22.5206C357.942 22.4041 357.855 22.3125 357.743 22.2458C357.632 22.179 357.503 22.1456 357.355 22.1456C357.197 22.1456 357.059 22.184 356.939 22.2607C356.82 22.336 356.727 22.4354 356.66 22.559C356.595 22.6811 356.562 22.8154 356.56 22.9617V23.4155C356.56 23.6058 356.595 23.7692 356.665 23.9056C356.734 24.0405 356.831 24.1442 356.956 24.2166C357.081 24.2877 357.228 24.3232 357.395 24.3232C357.508 24.3232 357.609 24.3076 357.7 24.2763C357.791 24.2436 357.87 24.196 357.937 24.1335C358.003 24.071 358.054 23.9936 358.088 23.9013L358.808 23.9823C358.763 24.1726 358.676 24.3388 358.548 24.4808C358.422 24.6215 358.26 24.7308 358.062 24.809C357.865 24.8857 357.639 24.924 357.385 24.924ZM361.127 21.5874V22.184H359.245V21.5874H361.127ZM359.71 20.8033H360.481V23.8757C360.481 23.9794 360.497 24.059 360.528 24.1144C360.561 24.1683 360.603 24.2053 360.656 24.2252C360.708 24.2451 360.767 24.255 360.831 24.255C360.879 24.255 360.923 24.2514 360.963 24.2443C361.004 24.2372 361.035 24.2308 361.056 24.2252L361.186 24.8281C361.145 24.8424 361.086 24.858 361.01 24.875C360.934 24.8921 360.842 24.902 360.733 24.9049C360.539 24.9105 360.365 24.8814 360.211 24.8175C360.056 24.7522 359.933 24.6513 359.842 24.5149C359.752 24.3786 359.708 24.2081 359.71 24.0036V20.8033ZM365.666 21.696C365.646 21.51 365.562 21.3651 365.414 21.2614C365.268 21.1577 365.078 21.1058 364.843 21.1058C364.678 21.1058 364.537 21.1307 364.419 21.1804C364.301 21.2301 364.211 21.2976 364.149 21.3828C364.086 21.4681 364.054 21.5654 364.053 21.6747C364.053 21.7656 364.073 21.8445 364.114 21.9112C364.157 21.978 364.215 22.0348 364.287 22.0817C364.359 22.1272 364.44 22.1655 364.528 22.1968C364.616 22.228 364.705 22.2543 364.794 22.2756L365.203 22.3779C365.368 22.4162 365.526 22.4681 365.678 22.5334C365.832 22.5987 365.969 22.6811 366.09 22.7806C366.212 22.88 366.308 23 366.379 23.1406C366.45 23.2813 366.486 23.446 366.486 23.635C366.486 23.8906 366.421 24.1158 366.29 24.3104C366.159 24.5036 365.97 24.6549 365.723 24.7642C365.477 24.8722 365.18 24.9262 364.83 24.9262C364.491 24.9262 364.196 24.8736 363.946 24.7685C363.698 24.6634 363.503 24.51 363.362 24.3083C363.223 24.1066 363.148 23.8608 363.136 23.571H363.914C363.926 23.723 363.972 23.8495 364.055 23.9503C364.137 24.0512 364.244 24.1264 364.377 24.1762C364.51 24.2259 364.659 24.2507 364.824 24.2507C364.996 24.2507 365.146 24.2252 365.276 24.174C365.406 24.1215 365.509 24.049 365.582 23.9567C365.656 23.8629 365.694 23.7536 365.695 23.6286C365.694 23.5149 365.661 23.4212 365.595 23.3473C365.53 23.272 365.438 23.2095 365.32 23.1598C365.204 23.1087 365.068 23.0632 364.911 23.0235L364.415 22.8956C364.056 22.8033 363.771 22.6634 363.563 22.4759C363.355 22.287 363.252 22.0362 363.252 21.7237C363.252 21.4666 363.321 21.2415 363.46 21.0483C363.601 20.8551 363.792 20.7053 364.033 20.5987C364.275 20.4908 364.548 20.4368 364.854 20.4368C365.163 20.4368 365.435 20.4908 365.668 20.5987C365.902 20.7053 366.086 20.8537 366.22 21.0441C366.353 21.233 366.422 21.4503 366.426 21.696H365.666ZM368.791 21.5874V22.184H366.909V21.5874H368.791ZM367.374 20.8033H368.145V23.8757C368.145 23.9794 368.161 24.059 368.192 24.1144C368.225 24.1683 368.267 24.2053 368.32 24.2252C368.372 24.2451 368.431 24.255 368.495 24.255C368.543 24.255 368.587 24.2514 368.627 24.2443C368.668 24.2372 368.699 24.2308 368.72 24.2252L368.85 24.8281C368.809 24.8424 368.75 24.858 368.674 24.875C368.598 24.8921 368.506 24.902 368.397 24.9049C368.203 24.9105 368.029 24.8814 367.875 24.8175C367.72 24.7522 367.597 24.6513 367.506 24.5149C367.416 24.3786 367.372 24.2081 367.374 24.0036V20.8033ZM370.378 24.9262C370.17 24.9262 369.983 24.8892 369.817 24.8154C369.652 24.7401 369.522 24.6293 369.425 24.483C369.33 24.3367 369.282 24.1563 369.282 23.9418C369.282 23.7571 369.317 23.6044 369.385 23.4837C369.453 23.3629 369.546 23.2664 369.664 23.1939C369.782 23.1215 369.915 23.0668 370.062 23.0299C370.211 22.9915 370.366 22.9638 370.525 22.9468C370.716 22.9269 370.872 22.9091 370.991 22.8935C371.111 22.8764 371.197 22.8509 371.251 22.8168C371.307 22.7813 371.334 22.7266 371.334 22.6527V22.6399C371.334 22.4794 371.287 22.3551 371.192 22.2671C371.096 22.179 370.959 22.135 370.78 22.135C370.591 22.135 370.442 22.1762 370.331 22.2585C370.221 22.3409 370.147 22.4382 370.109 22.5504L369.389 22.4482C369.446 22.2493 369.54 22.0831 369.67 21.9496C369.801 21.8147 369.961 21.7138 370.15 21.647C370.339 21.5789 370.547 21.5448 370.776 21.5448C370.934 21.5448 371.091 21.5632 371.247 21.6002C371.403 21.6371 371.546 21.6982 371.675 21.7834C371.804 21.8672 371.908 21.9816 371.986 22.1264C372.066 22.2713 372.106 22.4524 372.106 22.6698V24.8601H371.364V24.4105H371.339C371.292 24.5014 371.226 24.5867 371.14 24.6662C371.057 24.7443 370.951 24.8076 370.823 24.8558C370.696 24.9027 370.548 24.9262 370.378 24.9262ZM370.578 24.3594C370.733 24.3594 370.867 24.3289 370.981 24.2678C371.094 24.2053 371.182 24.1229 371.243 24.0206C371.305 23.9183 371.336 23.8068 371.336 23.6861V23.3004C371.312 23.3203 371.271 23.3388 371.213 23.3558C371.156 23.3729 371.092 23.3878 371.021 23.4006C370.95 23.4134 370.88 23.4247 370.81 23.4347C370.741 23.4446 370.68 23.4531 370.629 23.4602C370.514 23.4759 370.411 23.5014 370.32 23.537C370.229 23.5725 370.157 23.6222 370.105 23.6861C370.052 23.7486 370.026 23.8296 370.026 23.929C370.026 24.071 370.078 24.1783 370.182 24.2507C370.285 24.3232 370.417 24.3594 370.578 24.3594ZM372.881 24.8601V21.5874H373.629V22.1328H373.663C373.723 21.9439 373.825 21.7983 373.97 21.696C374.116 21.5924 374.283 21.5405 374.471 21.5405C374.513 21.5405 374.561 21.5426 374.613 21.5469C374.667 21.5497 374.712 21.5547 374.748 21.5618V22.2713C374.715 22.26 374.663 22.25 374.592 22.2415C374.522 22.2316 374.455 22.2266 374.39 22.2266C374.249 22.2266 374.123 22.2571 374.01 22.3182C373.9 22.3779 373.812 22.461 373.748 22.5675C373.684 22.674 373.652 22.7969 373.652 22.9361V24.8601H372.881ZM377.07 21.5874V22.184H375.189V21.5874H377.07ZM375.653 20.8033H376.424V23.8757C376.424 23.9794 376.44 24.059 376.471 24.1144C376.504 24.1683 376.547 24.2053 376.599 24.2252C376.652 24.2451 376.71 24.255 376.774 24.255C376.822 24.255 376.866 24.2514 376.906 24.2443C376.947 24.2372 376.978 24.2308 377 24.2252L377.13 24.8281C377.089 24.8424 377.03 24.858 376.953 24.875C376.878 24.8921 376.785 24.902 376.676 24.9049C376.483 24.9105 376.309 24.8814 376.154 24.8175C375.999 24.7522 375.876 24.6513 375.785 24.5149C375.696 24.3786 375.652 24.2081 375.653 24.0036V20.8033ZM379.129 24.924C378.801 24.924 378.517 24.8558 378.279 24.7195C378.041 24.5817 377.859 24.3871 377.731 24.1357C377.603 23.8828 377.539 23.5852 377.539 23.2429C377.539 22.9063 377.603 22.6108 377.731 22.3566C377.86 22.1009 378.041 21.902 378.272 21.76C378.504 21.6165 378.776 21.5448 379.088 21.5448C379.29 21.5448 379.48 21.5774 379.659 21.6428C379.84 21.7067 379.999 21.8061 380.137 21.9411C380.276 22.076 380.385 22.2479 380.465 22.4567C380.544 22.6641 380.584 22.9112 380.584 23.1982V23.4347H377.902V22.9148H379.845C379.843 22.7671 379.811 22.6357 379.749 22.5206C379.686 22.4041 379.599 22.3125 379.487 22.2458C379.376 22.179 379.247 22.1456 379.099 22.1456C378.941 22.1456 378.803 22.184 378.684 22.2607C378.564 22.336 378.471 22.4354 378.404 22.559C378.339 22.6811 378.306 22.8154 378.304 22.9617V23.4155C378.304 23.6058 378.339 23.7692 378.409 23.9056C378.478 24.0405 378.576 24.1442 378.701 24.2166C378.826 24.2877 378.972 24.3232 379.139 24.3232C379.252 24.3232 379.353 24.3076 379.444 24.2763C379.535 24.2436 379.614 24.196 379.681 24.1335C379.747 24.071 379.798 23.9936 379.832 23.9013L380.552 23.9823C380.507 24.1726 380.42 24.3388 380.292 24.4808C380.166 24.6215 380.004 24.7308 379.806 24.809C379.609 24.8857 379.383 24.924 379.129 24.924ZM382.451 24.9176C382.194 24.9176 381.964 24.8516 381.761 24.7195C381.558 24.5874 381.397 24.3956 381.279 24.1442C381.161 23.8928 381.102 23.5874 381.102 23.228C381.102 22.8644 381.162 22.5576 381.281 22.3076C381.402 22.0561 381.565 21.8665 381.769 21.7387C381.974 21.6094 382.202 21.5448 382.453 21.5448C382.645 21.5448 382.803 21.5774 382.926 21.6428C383.05 21.7067 383.148 21.7841 383.22 21.875C383.293 21.9645 383.349 22.049 383.389 22.1286H383.421V20.4965H384.194V24.8601H383.435V24.3445H383.389C383.349 24.424 383.291 24.5085 383.216 24.598C383.141 24.6861 383.041 24.7614 382.918 24.8239C382.794 24.8864 382.639 24.9176 382.451 24.9176ZM382.666 24.2848C382.83 24.2848 382.969 24.2408 383.084 24.1527C383.199 24.0632 383.286 23.9389 383.346 23.7799C383.406 23.6208 383.435 23.4354 383.435 23.2237C383.435 23.0121 383.406 22.8281 383.346 22.6719C383.288 22.5156 383.201 22.3942 383.086 22.3076C382.972 22.2209 382.832 22.1776 382.666 22.1776C382.494 22.1776 382.351 22.2223 382.236 22.3118C382.121 22.4013 382.034 22.5249 381.976 22.6826C381.918 22.8402 381.889 23.0206 381.889 23.2237C381.889 23.4283 381.918 23.6108 381.976 23.7713C382.036 23.9304 382.123 24.0561 382.238 24.1485C382.355 24.2394 382.497 24.2848 382.666 24.2848Z" fill="white"/>
<path d="M183.117 21.1519C183.069 21.1036 183.012 21.0653 182.95 21.0391C182.887 21.013 182.82 20.9995 182.752 20.9995C182.684 20.9995 182.616 21.013 182.554 21.0391C182.491 21.0653 182.434 21.1036 182.386 21.1519L180.027 23.5109C179.979 23.5592 179.922 23.5975 179.859 23.6237C179.796 23.6498 179.729 23.6633 179.661 23.6633C179.593 23.6633 179.526 23.6498 179.463 23.6237C179.4 23.5975 179.343 23.5592 179.295 23.5109L176.936 21.1519C176.888 21.1036 176.832 21.0653 176.769 21.0391C176.706 21.013 176.639 20.9995 176.571 20.9995C176.503 20.9995 176.435 21.013 176.373 21.0391C176.31 21.0653 176.253 21.1036 176.205 21.1519C176.109 21.2484 176.055 21.3789 176.055 21.515C176.055 21.6511 176.109 21.7816 176.205 21.8781L178.569 24.2423C178.859 24.5317 179.252 24.6943 179.661 24.6943C180.071 24.6943 180.463 24.5317 180.753 24.2423L183.117 21.8781C183.213 21.7816 183.267 21.6511 183.267 21.515C183.267 21.3789 183.213 21.2484 183.117 21.1519Z" fill="#535353"/>
<path d="M152.165 22.7117V21.9487H155.658V22.7117H152.165ZM155.126 20.0587H155.952V24.9587H155.126V20.0587ZM151.836 20.0587H152.662V24.9587H151.836V20.0587ZM157.64 22.5087C157.64 22.8447 157.71 23.1457 157.85 23.4117C157.994 23.6731 158.193 23.8784 158.445 24.0277C158.697 24.1771 158.984 24.2517 159.306 24.2517C159.632 24.2517 159.919 24.1771 160.167 24.0277C160.419 23.8784 160.615 23.6731 160.755 23.4117C160.899 23.1457 160.972 22.8447 160.972 22.5087C160.972 22.1727 160.902 21.8741 160.762 21.6127C160.622 21.3467 160.426 21.1391 160.174 20.9897C159.926 20.8404 159.637 20.7657 159.306 20.7657C158.984 20.7657 158.697 20.8404 158.445 20.9897C158.193 21.1391 157.994 21.3467 157.85 21.6127C157.71 21.8741 157.64 22.1727 157.64 22.5087ZM156.765 22.5087C156.765 22.1401 156.828 21.8017 156.954 21.4937C157.08 21.1857 157.257 20.9197 157.486 20.6957C157.719 20.4671 157.99 20.2897 158.298 20.1637C158.61 20.0377 158.946 19.9747 159.306 19.9747C159.674 19.9747 160.013 20.0377 160.321 20.1637C160.629 20.2897 160.897 20.4671 161.126 20.6957C161.359 20.9197 161.539 21.1857 161.665 21.4937C161.791 21.8017 161.854 22.1401 161.854 22.5087C161.854 22.8727 161.791 23.2111 161.665 23.5237C161.539 23.8364 161.361 24.1071 161.133 24.3357C160.904 24.5644 160.633 24.7441 160.321 24.8747C160.013 25.0007 159.674 25.0637 159.306 25.0637C158.942 25.0637 158.603 25.0007 158.291 24.8747C157.978 24.7441 157.707 24.5644 157.479 24.3357C157.255 24.1071 157.08 23.8364 156.954 23.5237C156.828 23.2111 156.765 22.8727 156.765 22.5087ZM163.567 21.9767L163.231 24.9587H162.377L163.049 19.8137L165.058 23.1387L167.074 19.8137L167.746 24.9587H166.892L166.549 21.9767L165.058 24.5037L163.567 21.9767ZM169.06 24.9587V24.2307H171.531V24.9587H169.06ZM169.06 20.7867V20.0587H171.531V20.7867H169.06ZM169.06 22.6907V21.9767H171.391V22.6907H169.06ZM168.549 20.0587H169.361V24.9587H168.549V20.0587Z" fill="black"/>
<path d="M232.812 21.1519C232.764 21.1036 232.707 21.0653 232.644 21.0391C232.581 21.013 232.514 20.9995 232.446 20.9995C232.378 20.9995 232.311 21.013 232.248 21.0391C232.185 21.0653 232.128 21.1036 232.08 21.1519L229.721 23.5109C229.673 23.5592 229.616 23.5975 229.554 23.6237C229.491 23.6498 229.423 23.6633 229.355 23.6633C229.287 23.6633 229.22 23.6498 229.157 23.6237C229.095 23.5975 229.038 23.5592 228.99 23.5109L226.631 21.1519C226.583 21.1036 226.526 21.0653 226.463 21.0391C226.4 21.013 226.333 20.9995 226.265 20.9995C226.197 20.9995 226.13 21.013 226.067 21.0391C226.004 21.0653 225.947 21.1036 225.899 21.1519C225.803 21.2484 225.75 21.3789 225.75 21.515C225.75 21.6511 225.803 21.7816 225.899 21.8781L228.264 24.2423C228.553 24.5317 228.946 24.6943 229.355 24.6943C229.765 24.6943 230.158 24.5317 230.447 24.2423L232.812 21.8781C232.908 21.7816 232.961 21.6511 232.961 21.515C232.961 21.3789 232.908 21.2484 232.812 21.1519Z" fill="#535353"/>
<path d="M201.117 23.6986L201.271 22.9986H203.546L203.707 23.6986H201.117ZM202.398 21.4446L201.628 23.2436L201.614 23.4256L200.935 24.9586H200.004L202.398 19.7856L204.792 24.9586H203.861L203.196 23.4676L203.175 23.2646L202.398 21.4446ZM205.992 22.4316V22.0256H206.783C206.937 22.0256 207.072 22 207.189 21.9486C207.306 21.8973 207.397 21.825 207.462 21.7316C207.527 21.6336 207.56 21.517 207.56 21.3816C207.56 21.1763 207.488 21.0176 207.343 20.9056C207.198 20.7936 207.012 20.7376 206.783 20.7376H206.188V24.2796H206.874C207.061 24.2796 207.226 24.2493 207.371 24.1886C207.516 24.128 207.63 24.037 207.714 23.9156C207.798 23.7943 207.84 23.6426 207.84 23.4606C207.84 23.33 207.814 23.2156 207.763 23.1176C207.716 23.015 207.649 22.931 207.56 22.8656C207.476 22.7956 207.376 22.7466 207.259 22.7186C207.142 22.686 207.014 22.6696 206.874 22.6696H205.992V22.2146H206.923C207.161 22.2146 207.385 22.2403 207.595 22.2916C207.805 22.343 207.992 22.4223 208.155 22.5296C208.323 22.637 208.454 22.7746 208.547 22.9426C208.64 23.1106 208.687 23.3113 208.687 23.5446C208.687 23.8666 208.61 24.1326 208.456 24.3426C208.307 24.5526 208.099 24.709 207.833 24.8116C207.572 24.9096 207.268 24.9586 206.923 24.9586H205.362V20.0586H206.839C207.147 20.0586 207.418 20.103 207.651 20.1916C207.889 20.2803 208.073 20.4156 208.204 20.5976C208.339 20.7796 208.407 21.0106 208.407 21.2906C208.407 21.5333 208.339 21.741 208.204 21.9136C208.073 22.0816 207.889 22.21 207.651 22.2986C207.418 22.3873 207.147 22.4316 206.839 22.4316H205.992ZM210.154 22.5086C210.154 22.8446 210.224 23.1456 210.364 23.4116C210.509 23.673 210.707 23.8783 210.959 24.0276C211.211 24.177 211.498 24.2516 211.82 24.2516C212.147 24.2516 212.434 24.177 212.681 24.0276C212.933 23.8783 213.129 23.673 213.269 23.4116C213.414 23.1456 213.486 22.8446 213.486 22.5086C213.486 22.1726 213.416 21.874 213.276 21.6126C213.136 21.3466 212.94 21.139 212.688 20.9896C212.441 20.8403 212.152 20.7656 211.82 20.7656C211.498 20.7656 211.211 20.8403 210.959 20.9896C210.707 21.139 210.509 21.3466 210.364 21.6126C210.224 21.874 210.154 22.1726 210.154 22.5086ZM209.279 22.5086C209.279 22.14 209.342 21.8016 209.468 21.4936C209.594 21.1856 209.772 20.9196 210 20.6956C210.234 20.467 210.504 20.2896 210.812 20.1636C211.125 20.0376 211.461 19.9746 211.82 19.9746C212.189 19.9746 212.527 20.0376 212.835 20.1636C213.143 20.2896 213.412 20.467 213.64 20.6956C213.874 20.9196 214.053 21.1856 214.179 21.4936C214.305 21.8016 214.368 22.14 214.368 22.5086C214.368 22.8726 214.305 23.211 214.179 23.5236C214.053 23.8363 213.876 24.107 213.647 24.3356C213.419 24.5643 213.148 24.744 212.835 24.8746C212.527 25.0006 212.189 25.0636 211.82 25.0636C211.456 25.0636 211.118 25.0006 210.805 24.8746C210.493 24.744 210.222 24.5643 209.993 24.3356C209.769 24.107 209.594 23.8363 209.468 23.5236C209.342 23.211 209.279 22.8726 209.279 22.5086ZM215.136 20.0586H215.962V23.3136C215.962 23.617 216.042 23.862 216.2 24.0486C216.364 24.2306 216.604 24.3216 216.921 24.3216C217.234 24.3216 217.472 24.2306 217.635 24.0486C217.799 23.862 217.88 23.617 217.88 23.3136V20.0586H218.706V23.3486C218.706 23.6193 218.662 23.862 218.573 24.0766C218.489 24.2866 218.368 24.4663 218.209 24.6156C218.051 24.765 217.862 24.8793 217.642 24.9586C217.423 25.038 217.183 25.0776 216.921 25.0776C216.66 25.0776 216.42 25.038 216.2 24.9586C215.981 24.8793 215.79 24.765 215.626 24.6156C215.468 24.4663 215.346 24.2866 215.262 24.0766C215.178 23.862 215.136 23.6193 215.136 23.3486V20.0586ZM219.275 20.8216V20.0586H222.691V20.8216H221.396V24.9586H220.563V20.8216H219.275Z" fill="black"/>
<path d="M32.7409 19.7893C32.619 18.9717 32.3971 18.1822 32.0748 17.4212L31.4529 16.1924C30.4906 14.5995 29.1888 13.3685 27.5474 12.4991C26.4264 11.9048 25.2361 11.55 23.9764 11.4348C23.4592 11.3702 22.9446 11.3498 22.4326 11.3736L21.089 11.5303C18.7998 11.9912 16.8973 13.1075 15.3819 14.8793C15.2638 15.018 15.1456 15.1582 15.0271 15.3002C15.0125 15.3175 15.0022 15.3369 14.9961 15.3585C14.9882 15.3875 14.9762 15.4138 14.9603 15.4372C14.6811 15.7664 14.4321 16.1475 14.2133 16.5802C13.9861 16.9863 13.7859 17.4329 13.6126 17.92C13.4383 18.3977 13.3026 18.8958 13.2058 19.4142C12.6955 22.388 13.3856 25.2067 15.2638 27.5265C15.5084 27.8286 15.6777 28.0264 15.7719 28.1202C17.7774 30.1122 19.7773 32.1099 21.772 34.1135C21.8029 34.1452 21.8472 34.1592 21.8873 34.1761C22.3089 34.6068 23.0692 34.6342 23.5927 34.4317C24.0579 34.2463 24.3663 33.8691 24.7887 33.4341L26.3051 31.9194L27.6844 30.5375C28.3782 29.8515 29.0696 29.1599 29.7587 28.463C30.1817 28.0354 30.4972 27.6899 30.7052 27.4268C31.8619 25.9617 32.5558 24.2779 32.7873 22.3754C32.8205 22.1043 32.8265 21.8509 32.8055 21.6153C32.9011 21.028 32.828 20.376 32.7409 19.7893ZM19.5729 18.0392C19.5738 18.0392 19.5737 18.0404 19.5744 18.0409C19.5729 18.0401 19.5713 18.039 19.5698 18.04C19.5707 18.0395 19.5717 18.0391 19.5729 18.0392ZM18.908 28.338C18.908 28.338 18.9087 28.3381 18.909 28.3382C18.9092 28.3383 18.9094 28.3383 18.9096 28.3386C18.9091 28.3383 18.9086 28.3381 18.908 28.338ZM19.189 28.9702C19.189 28.9702 19.1895 28.9704 19.1898 28.9704C19.1907 28.9708 19.1915 28.9712 19.1922 28.9717C19.1912 28.9711 19.1902 28.9706 19.189 28.9702ZM27.7796 22.9265C27.7796 22.9265 27.779 22.9263 27.7786 22.9261C27.7791 22.9263 27.7797 22.9266 27.78 22.9263C27.7799 22.9264 27.7797 22.9264 27.7796 22.9265Z" fill="url(#paint0_linear_210_1234)"/>
<path d="M17.8959 21.2899C17.5691 21.0598 17.1306 21.1019 16.8447 21.4162C16.5153 21.7794 16.5153 22.3688 16.8447 22.733L19.3057 25.4469C19.6351 25.8101 20.1696 25.8101 20.4998 25.4469L26.3221 19.0263C26.6515 18.6631 26.6515 18.0737 26.3221 17.7095C26.0371 17.3953 25.5977 17.3532 25.271 17.5832L20.3667 22.9915C19.9902 23.4066 19.881 23.479 19.5046 23.0629L17.8959 21.2899Z" fill="white"/>
<path d="M20.5007 20.5458C20.174 20.3157 19.7354 20.3578 19.4495 20.6721C19.1202 21.0353 19.1202 21.6247 19.4495 21.9889L19.9103 22.497L21.0902 21.1959L20.4998 20.5448L20.5007 20.5458ZM21.9949 24.7949L22.5862 25.4469C22.9156 25.8101 23.45 25.8101 23.7803 25.4469L29.6017 19.0263C29.9311 18.6631 29.9311 18.0737 29.6017 17.7095C29.3167 17.3953 28.8773 17.3532 28.5514 17.5832L23.6463 22.9915C23.5566 23.0903 23.482 23.1697 23.4154 23.2284L21.9949 24.7949Z" fill="white"/>
<path d="M36.2134 24.2289V24.0964L36.4917 23.9904C36.6772 23.9197 36.792 23.8358 36.8362 23.7386C36.8892 23.6326 36.9157 23.4912 36.9157 23.3146V16.3975C36.9157 16.2208 36.8892 16.0795 36.8362 15.9734C36.7832 15.8674 36.6684 15.7835 36.4917 15.7217L36.2134 15.6157V15.4832H39.5924V15.6157L39.3539 15.7217C39.1861 15.7835 39.0712 15.8719 39.0094 15.9867C38.9475 16.0927 38.9166 16.234 38.9166 16.4107V23.9639H40.9573C41.2842 23.9639 41.5227 23.8844 41.6729 23.7253C41.8319 23.5663 41.982 23.3366 42.1234 23.0363L42.6402 21.9232H42.7727L42.6534 24.2289H36.2134ZM45.1982 16.9673C44.8978 16.9673 44.6416 16.8745 44.4296 16.689C44.2264 16.4947 44.1248 16.2517 44.1248 15.9602C44.1248 15.6598 44.2264 15.4169 44.4296 15.2314C44.6416 15.0459 44.8978 14.9531 45.1982 14.9531C45.4985 14.9531 45.7503 15.0459 45.9535 15.2314C46.1567 15.4169 46.2583 15.6598 46.2583 15.9602C46.2583 16.2517 46.1567 16.4947 45.9535 16.689C45.7503 16.8745 45.4985 16.9673 45.1982 16.9673ZM43.6345 24.2289V24.0964L43.8201 24.0434C43.9967 23.9904 44.116 23.9109 44.1778 23.8048C44.2485 23.6988 44.2838 23.5575 44.2838 23.3808V19.2332C44.2838 19.0477 44.2485 18.9108 44.1778 18.8224C44.116 18.7253 43.9967 18.659 43.8201 18.6237L43.6345 18.5839V18.4514L46.0595 17.6696L46.192 17.8021L46.1522 19.6838V23.3941C46.1522 23.5707 46.1832 23.7121 46.245 23.8181C46.3157 23.9241 46.4349 24.0036 46.6028 24.0566L46.7353 24.0964V24.2289H43.6345ZM49.8794 24.4276C49.4466 24.4276 49.0579 24.3746 48.7133 24.2686C48.3688 24.1715 48.0508 24.0478 47.7593 23.8976L47.7725 22.3207H47.905L48.3556 23.1158C48.5499 23.4692 48.7619 23.7342 48.9916 23.9109C49.2301 24.0787 49.5305 24.1626 49.8927 24.1626C50.3167 24.1626 50.6568 24.0699 50.913 23.8844C51.178 23.69 51.3105 23.4338 51.3105 23.1158C51.3105 22.8243 51.2178 22.5857 51.0323 22.4002C50.8468 22.2147 50.5022 22.0469 49.9987 21.8967L49.4421 21.7244C48.9033 21.5654 48.4792 21.3181 48.17 20.9824C47.8608 20.6467 47.7062 20.2359 47.7062 19.75C47.7062 19.167 47.9359 18.6723 48.3953 18.2659C48.8547 17.8595 49.5128 17.6563 50.3697 17.6563C50.7142 17.6563 51.0367 17.6961 51.3371 17.7756C51.6462 17.8463 51.9422 17.9567 52.2249 18.1069L52.1454 19.538H52.0129L51.5491 18.7164C51.3812 18.4249 51.2134 18.2217 51.0455 18.1069C50.8865 17.9832 50.6436 17.9214 50.3167 17.9214C50.0164 17.9214 49.7337 18.0053 49.4686 18.1731C49.2036 18.341 49.0711 18.5795 49.0711 18.8887C49.0711 19.189 49.1815 19.4276 49.4024 19.6042C49.6321 19.7809 49.9678 19.9444 50.4095 20.0945L51.0058 20.2668C51.6418 20.4612 52.0968 20.7306 52.3706 21.0751C52.6445 21.4108 52.7814 21.8172 52.7814 22.2942C52.7814 22.9391 52.5252 23.4559 52.0129 23.8446C51.5093 24.2333 50.7982 24.4276 49.8794 24.4276ZM56.1412 24.4276C55.5758 24.4276 55.1341 24.2863 54.8161 24.0036C54.5069 23.7209 54.3523 23.2704 54.3523 22.652V18.1201H53.438V17.9876L53.756 17.9346C54.0299 17.8728 54.264 17.7844 54.4583 17.6696C54.6615 17.5547 54.8603 17.4001 55.0546 17.2058L56.1412 15.9999H56.2737L56.234 17.8551H57.7181V18.1201H56.2207V22.8905C56.2207 23.1997 56.287 23.4338 56.4195 23.5928C56.5608 23.7518 56.7375 23.8313 56.9495 23.8313C57.135 23.8313 57.2985 23.7872 57.4398 23.6988C57.5812 23.6017 57.7225 23.4736 57.8638 23.3146L57.9964 23.4471C57.8197 23.7474 57.5767 23.9859 57.2675 24.1626C56.9583 24.3393 56.5829 24.4276 56.1412 24.4276ZM58.6254 24.2289V24.0964L58.8904 24.0036C59.0671 23.9506 59.1819 23.8711 59.2349 23.7651C59.2968 23.6591 59.3277 23.5177 59.3277 23.3411V16.3975C59.3277 16.2208 59.2968 16.0795 59.2349 15.9734C59.1731 15.8674 59.0538 15.7835 58.8771 15.7217L58.6254 15.6157V15.4832H61.8454C63.1617 15.4832 64.1113 15.7261 64.6944 16.212C65.2863 16.689 65.5822 17.3206 65.5822 18.1069C65.5822 18.6104 65.4585 19.0742 65.2112 19.4982C64.9726 19.9134 64.5751 20.2447 64.0186 20.4921C63.462 20.7394 62.7111 20.8631 61.7659 20.8631H61.3153V23.3013C61.3153 23.6458 61.4876 23.8711 61.8321 23.9771L62.2297 24.0964V24.2289H58.6254ZM61.3153 20.5981H61.8189C62.2518 20.5981 62.6051 20.5274 62.879 20.3861C63.1528 20.2447 63.356 19.9974 63.4885 19.644C63.621 19.2906 63.6873 18.8003 63.6873 18.1731C63.6873 17.5371 63.6122 17.0424 63.462 16.689C63.3207 16.3356 63.1087 16.0927 62.826 15.9602C62.5433 15.8188 62.1899 15.7482 61.7659 15.7482H61.3153V20.5981ZM66.3047 24.2289V24.0964L66.5035 24.0434C66.6801 23.9904 66.7994 23.9109 66.8612 23.8048C66.9319 23.6988 66.9672 23.5619 66.9672 23.3941V19.2465C66.9672 19.0521 66.9319 18.9108 66.8612 18.8224C66.7994 18.7253 66.6801 18.659 66.5035 18.6237L66.3047 18.5707V18.4381L68.5839 17.6696L68.7164 17.8021L68.8357 18.9417V19.0477C68.9593 18.8003 69.1183 18.5751 69.3127 18.3719C69.5159 18.1599 69.7367 17.9876 69.9752 17.8551C70.2226 17.7226 70.4655 17.6563 70.7041 17.6563C71.0398 17.6563 71.2959 17.7491 71.4726 17.9346C71.6493 18.1201 71.7376 18.3542 71.7376 18.6369C71.7376 18.9373 71.6493 19.1714 71.4726 19.3392C71.3048 19.4982 71.1016 19.5777 70.8631 19.5777C70.492 19.5777 70.1652 19.3922 69.8825 19.0212L69.856 18.9947C69.7676 18.871 69.6661 18.8048 69.5512 18.7959C69.4364 18.7783 69.3304 18.8313 69.2332 18.9549C69.1448 19.0344 69.0698 19.1316 69.0079 19.2465C68.9549 19.3525 68.9019 19.4762 68.8489 19.6175V23.3146C68.8489 23.6679 69.0035 23.8888 69.3127 23.9771L69.7367 24.0964V24.2289H66.3047ZM75.5378 17.6563C76.112 17.6563 76.6023 17.7756 77.0087 18.0141C77.4151 18.2438 77.7242 18.5618 77.9363 18.9682C78.1571 19.3657 78.2675 19.8207 78.2675 20.3331C78.2675 20.4302 78.2631 20.5318 78.2543 20.6378C78.2455 20.735 78.2278 20.8233 78.2013 20.9029H74.2525C74.2613 21.8569 74.4291 22.546 74.756 22.97C75.0917 23.3852 75.5864 23.5928 76.2401 23.5928C76.6818 23.5928 77.0396 23.5222 77.3135 23.3808C77.5873 23.2395 77.8435 23.0319 78.082 22.758L78.2145 22.8773C77.9407 23.3631 77.5741 23.743 77.1147 24.0169C76.6642 24.2907 76.1209 24.4276 75.4848 24.4276C74.8576 24.4276 74.301 24.2951 73.8152 24.0301C73.3293 23.7563 72.9494 23.3676 72.6756 22.864C72.4017 22.3605 72.2648 21.7598 72.2648 21.0619C72.2648 20.3375 72.4238 19.7235 72.7418 19.22C73.0599 18.7076 73.4662 18.3189 73.9609 18.0539C74.4645 17.7888 74.9901 17.6563 75.5378 17.6563ZM75.4981 17.9214C75.2419 17.9214 75.021 18.0009 74.8355 18.1599C74.6588 18.3101 74.5175 18.5839 74.4115 18.9814C74.3143 19.3701 74.2613 19.9223 74.2525 20.6378H76.5184C76.6067 19.6749 76.5714 18.9814 76.4124 18.5574C76.2534 18.1334 75.9486 17.9214 75.4981 17.9214ZM81.4854 24.4276C81.0525 24.4276 80.6638 24.3746 80.3193 24.2686C79.9748 24.1715 79.6567 24.0478 79.3652 23.8976L79.3785 22.3207H79.511L79.9615 23.1158C80.1559 23.4692 80.3679 23.7342 80.5976 23.9109C80.8361 24.0787 81.1364 24.1626 81.4986 24.1626C81.9227 24.1626 82.2628 24.0699 82.519 23.8844C82.784 23.69 82.9165 23.4338 82.9165 23.1158C82.9165 22.8243 82.8237 22.5857 82.6382 22.4002C82.4527 22.2147 82.1082 22.0469 81.6046 21.8967L81.0481 21.7244C80.5092 21.5654 80.0852 21.3181 79.776 20.9824C79.4668 20.6467 79.3122 20.2359 79.3122 19.75C79.3122 19.167 79.5419 18.6723 80.0013 18.2659C80.4606 17.8595 81.1188 17.6563 81.9757 17.6563C82.3202 17.6563 82.6426 17.6961 82.943 17.7756C83.2522 17.8463 83.5481 17.9567 83.8308 18.1069L83.7513 19.538H83.6188L83.155 18.7164C82.9872 18.4249 82.8193 18.2217 82.6515 18.1069C82.4925 17.9832 82.2495 17.9214 81.9227 17.9214C81.6223 17.9214 81.3396 18.0053 81.0746 18.1731C80.8096 18.341 80.6771 18.5795 80.6771 18.8887C80.6771 19.189 80.7875 19.4276 81.0083 19.6042C81.238 19.7809 81.5737 19.9444 82.0154 20.0945L82.6117 20.2668C83.2478 20.4612 83.7027 20.7306 83.9766 21.0751C84.2504 21.4108 84.3874 21.8172 84.3874 22.2942C84.3874 22.9391 84.1312 23.4559 83.6188 23.8446C83.1153 24.2333 82.4041 24.4276 81.4854 24.4276ZM87.5219 24.4276C87.089 24.4276 86.7003 24.3746 86.3558 24.2686C86.0113 24.1715 85.6932 24.0478 85.4017 23.8976L85.415 22.3207H85.5475L85.998 23.1158C86.1924 23.4692 86.4044 23.7342 86.6341 23.9109C86.8726 24.0787 87.1729 24.1626 87.5351 24.1626C87.9592 24.1626 88.2993 24.0699 88.5555 23.8844C88.8205 23.69 88.953 23.4338 88.953 23.1158C88.953 22.8243 88.8602 22.5857 88.6747 22.4002C88.4892 22.2147 88.1447 22.0469 87.6411 21.8967L87.0846 21.7244C86.5457 21.5654 86.1217 21.3181 85.8125 20.9824C85.5033 20.6467 85.3487 20.2359 85.3487 19.75C85.3487 19.167 85.5784 18.6723 86.0378 18.2659C86.4971 17.8595 87.1553 17.6563 88.0122 17.6563C88.3567 17.6563 88.6791 17.6961 88.9795 17.7756C89.2887 17.8463 89.5846 17.9567 89.8673 18.1069L89.7878 19.538H89.6553L89.1915 18.7164C89.0237 18.4249 88.8558 18.2217 88.688 18.1069C88.529 17.9832 88.286 17.9214 87.9592 17.9214C87.6588 17.9214 87.3761 18.0053 87.1111 18.1731C86.8461 18.341 86.7136 18.5795 86.7136 18.8887C86.7136 19.189 86.824 19.4276 87.0448 19.6042C87.2745 19.7809 87.6102 19.9444 88.0519 20.0945L88.6482 20.2668C89.2843 20.4612 89.7392 20.7306 90.0131 21.0751C90.2869 21.4108 90.4239 21.8172 90.4239 22.2942C90.4239 22.9391 90.1677 23.4559 89.6553 23.8446C89.1518 24.2333 88.4406 24.4276 87.5219 24.4276Z" fill="#111111"/>
<path d="M38.0557 30.8236H36.8311V27.2097H38.0804C38.4392 27.2097 38.7474 27.282 39.0051 27.4267C39.2639 27.5702 39.4627 27.7767 39.6015 28.0461C39.7403 28.3155 39.8097 28.6378 39.8097 29.0131C39.8097 29.3896 39.7397 29.7131 39.5997 29.9837C39.4609 30.2542 39.2604 30.4619 38.998 30.6066C38.7368 30.7513 38.4227 30.8236 38.0557 30.8236ZM37.4857 30.2572H38.0239C38.2757 30.2572 38.4857 30.2113 38.6539 30.1195C38.8221 30.0266 38.9486 29.8884 39.0333 29.7048C39.118 29.5201 39.1604 29.2896 39.1604 29.0131C39.1604 28.7367 39.118 28.5073 39.0333 28.3249C38.9486 28.1414 38.8233 28.0043 38.6574 27.9138C38.4927 27.822 38.288 27.7761 38.0434 27.7761H37.4857V30.2572ZM41.0864 27.2097V30.8236H40.4318V27.2097H41.0864ZM41.7954 30.8236V27.2097H43.1506C43.4282 27.2097 43.6612 27.2579 43.8494 27.3544C44.0388 27.4508 44.1817 27.5861 44.2782 27.7602C44.3758 27.9332 44.4247 28.1349 44.4247 28.3655C44.4247 28.5972 44.3752 28.7984 44.2764 28.969C44.1788 29.1384 44.0347 29.2696 43.8441 29.3625C43.6535 29.4543 43.4194 29.5001 43.1418 29.5001H42.1765V28.9566H43.0535C43.2159 28.9566 43.3488 28.9343 43.4523 28.8896C43.5559 28.8437 43.6323 28.7772 43.6817 28.6902C43.7323 28.602 43.7576 28.4937 43.7576 28.3655C43.7576 28.2373 43.7323 28.1279 43.6817 28.0373C43.6312 27.9455 43.5541 27.8761 43.4506 27.8291C43.3471 27.7808 43.2135 27.7567 43.05 27.7567H42.45V30.8236H41.7954ZM43.6623 29.186L44.557 30.8236H43.8264L42.9477 29.186H43.6623ZM45.0273 30.8236V27.2097H47.3777V27.7585H45.6819V28.7396H47.256V29.2884H45.6819V30.2748H47.3919V30.8236H45.0273ZM51.139 28.429H50.4791C50.4602 28.3208 50.4255 28.2249 50.3749 28.1414C50.3244 28.0567 50.2614 27.9849 50.1861 27.9261C50.1108 27.8673 50.025 27.8232 49.9285 27.7938C49.8332 27.7632 49.7303 27.7479 49.6197 27.7479C49.4232 27.7479 49.2491 27.7973 49.0974 27.8961C48.9456 27.9937 48.8268 28.1373 48.7409 28.3267C48.655 28.5149 48.6121 28.7449 48.6121 29.0166C48.6121 29.2931 48.655 29.526 48.7409 29.7154C48.828 29.9037 48.9468 30.046 49.0974 30.1425C49.2491 30.2378 49.4226 30.2854 49.6179 30.2854C49.7262 30.2854 49.8273 30.2713 49.9214 30.243C50.0167 30.2136 50.102 30.1707 50.1773 30.1142C50.2538 30.0578 50.3179 29.9884 50.3697 29.906C50.4226 29.8237 50.4591 29.7295 50.4791 29.6237L51.139 29.6272C51.1143 29.799 51.0608 29.9601 50.9784 30.1107C50.8973 30.2613 50.7908 30.3942 50.659 30.5095C50.5273 30.6236 50.3732 30.713 50.1967 30.7777C50.0203 30.8413 49.8244 30.873 49.6091 30.873C49.2915 30.873 49.008 30.7995 48.7586 30.6524C48.5092 30.5054 48.3127 30.293 48.1692 30.0154C48.0257 29.7378 47.9539 29.4049 47.9539 29.0166C47.9539 28.6272 48.0262 28.2943 48.1709 28.0179C48.3156 27.7402 48.5127 27.5279 48.7621 27.3808C49.0115 27.2338 49.2938 27.1603 49.6091 27.1603C49.8103 27.1603 49.9973 27.1885 50.1702 27.245C50.3432 27.3014 50.4973 27.3844 50.6326 27.4938C50.7679 27.602 50.879 27.7349 50.9661 27.8926C51.0543 28.049 51.112 28.2279 51.139 28.429ZM51.5797 27.7585V27.2097H54.4631V27.7585H53.3461V30.8236H52.6967V27.7585H51.5797ZM58.0881 29.0166C58.0881 29.406 58.0152 29.7395 57.8693 30.0172C57.7246 30.2936 57.5269 30.5054 57.2764 30.6524C57.027 30.7995 56.744 30.873 56.4276 30.873C56.1111 30.873 55.8276 30.7995 55.577 30.6524C55.3276 30.5042 55.13 30.2919 54.9841 30.0154C54.8394 29.7378 54.7671 29.4049 54.7671 29.0166C54.7671 28.6272 54.8394 28.2943 54.9841 28.0179C55.13 27.7402 55.3276 27.5279 55.577 27.3808C55.8276 27.2338 56.1111 27.1603 56.4276 27.1603C56.744 27.1603 57.027 27.2338 57.2764 27.3808C57.5269 27.5279 57.7246 27.7402 57.8693 28.0179C58.0152 28.2943 58.0881 28.6272 58.0881 29.0166ZM57.4299 29.0166C57.4299 28.7425 57.3869 28.5114 57.3011 28.3231C57.2164 28.1337 57.0987 27.9908 56.9481 27.8943C56.7976 27.7967 56.624 27.7479 56.4276 27.7479C56.2311 27.7479 56.0576 27.7967 55.907 27.8943C55.7564 27.9908 55.6382 28.1337 55.5523 28.3231C55.4676 28.5114 55.4253 28.7425 55.4253 29.0166C55.4253 29.2907 55.4676 29.5225 55.5523 29.7119C55.6382 29.9001 55.7564 30.0431 55.907 30.1407C56.0576 30.2372 56.2311 30.2854 56.4276 30.2854C56.624 30.2854 56.7976 30.2372 56.9481 30.1407C57.0987 30.0431 57.2164 29.9001 57.3011 29.7119C57.3869 29.5225 57.4299 29.2907 57.4299 29.0166ZM58.707 30.8236V27.2097H60.0623C60.3399 27.2097 60.5728 27.2579 60.761 27.3544C60.9504 27.4508 61.0934 27.5861 61.1898 27.7602C61.2875 27.9332 61.3363 28.1349 61.3363 28.3655C61.3363 28.5972 61.2869 28.7984 61.1881 28.969C61.0904 29.1384 60.9463 29.2696 60.7558 29.3625C60.5652 29.4543 60.3311 29.5001 60.0534 29.5001H59.0882V28.9566H59.9652C60.1275 28.9566 60.2605 28.9343 60.364 28.8896C60.4675 28.8437 60.544 28.7772 60.5934 28.6902C60.644 28.602 60.6693 28.4937 60.6693 28.3655C60.6693 28.2373 60.644 28.1279 60.5934 28.0373C60.5428 27.9455 60.4658 27.8761 60.3622 27.8291C60.2587 27.7808 60.1252 27.7567 59.9617 27.7567H59.3617V30.8236H58.707ZM60.574 29.186L61.4687 30.8236H60.7381L59.8593 29.186H60.574ZM61.5512 27.2097H62.2905L63.1746 28.8084H63.2099L64.094 27.2097H64.8333L63.5187 29.4754V30.8236H62.8658V29.4754L61.5512 27.2097ZM67.5813 30.8765C67.3342 30.8765 67.1219 30.8318 66.9443 30.7424C66.7666 30.653 66.6296 30.5324 66.5331 30.3807C66.4378 30.2278 66.3902 30.0554 66.3902 29.8637C66.3902 29.719 66.4196 29.5907 66.4784 29.479C66.5384 29.3672 66.6208 29.2637 66.7255 29.1684C66.8313 29.0731 66.9537 28.9784 67.0925 28.8843L67.7331 28.4484C67.8272 28.3873 67.8983 28.3226 67.9466 28.2543C67.996 28.1861 68.0207 28.1061 68.0207 28.0143C68.0207 27.9367 67.9877 27.8632 67.9219 27.7938C67.8572 27.7244 67.7678 27.6896 67.6536 27.6896C67.5772 27.6896 67.5095 27.7079 67.4507 27.7444C67.3931 27.7796 67.3478 27.8261 67.3148 27.8838C67.2831 27.9414 67.2672 28.0026 67.2672 28.0673C67.2672 28.1461 67.289 28.2261 67.3325 28.3073C67.3772 28.3884 67.4348 28.4725 67.5054 28.5596C67.5772 28.6467 67.6536 28.739 67.7348 28.8366L69.4306 30.8236H68.7389L67.3307 29.2107C67.226 29.0884 67.1248 28.9678 67.0272 28.849C66.9307 28.7302 66.8513 28.6067 66.789 28.4784C66.7278 28.349 66.6972 28.209 66.6972 28.0585C66.6972 27.8879 66.7366 27.7355 66.8154 27.6014C66.8943 27.4661 67.0043 27.3597 67.1454 27.282C67.2878 27.2044 67.4542 27.1656 67.6448 27.1656C67.8354 27.1656 67.9989 27.2032 68.1354 27.2785C68.2718 27.3538 68.3771 27.4538 68.4512 27.5785C68.5254 27.7032 68.5624 27.8391 68.5624 27.9861C68.5624 28.1567 68.5201 28.3096 68.4354 28.4449C68.3507 28.579 68.233 28.7008 68.0824 28.8102L67.3519 29.3449C67.2319 29.4319 67.146 29.5201 67.0943 29.6096C67.0425 29.6978 67.0166 29.7731 67.0166 29.8354C67.0166 29.9307 67.0407 30.0172 67.089 30.0948C67.1372 30.1725 67.2048 30.2348 67.2919 30.2819C67.3801 30.3278 67.4831 30.3507 67.6007 30.3507C67.7301 30.3507 67.8578 30.3219 67.9836 30.2642C68.1095 30.2054 68.2242 30.1219 68.3277 30.0136C68.4313 29.9054 68.5136 29.776 68.5748 29.6254C68.6359 29.4737 68.6665 29.3054 68.6665 29.1208H69.2153C69.2153 29.349 69.19 29.5478 69.1395 29.7172C69.0889 29.8854 69.0236 30.0278 68.9436 30.1442C68.8636 30.2595 68.7789 30.3519 68.6895 30.4213C68.6612 30.4413 68.6342 30.4613 68.6083 30.4813C68.5824 30.5013 68.5554 30.5213 68.5271 30.5413C68.4001 30.6566 68.2513 30.7413 68.0807 30.7954C67.9113 30.8495 67.7448 30.8765 67.5813 30.8765ZM71.0571 30.8236V27.2097H71.7118V30.2748H73.3035V30.8236H71.0571ZM74.5264 27.2097V30.8236H73.8717V27.2097H74.5264ZM77.1993 28.2032C77.1829 28.049 77.1135 27.929 76.9911 27.8432C76.8699 27.7573 76.7123 27.7144 76.5182 27.7144C76.3817 27.7144 76.2647 27.7349 76.167 27.7761C76.0694 27.8173 75.9947 27.8732 75.9429 27.9438C75.8912 28.0143 75.8647 28.0949 75.8635 28.1855C75.8635 28.2608 75.8806 28.3261 75.9147 28.3814C75.95 28.4367 75.9976 28.4837 76.0576 28.5225C76.1176 28.5602 76.1841 28.592 76.257 28.6178C76.33 28.6437 76.4035 28.6655 76.4776 28.6831L76.8164 28.7678C76.9529 28.7996 77.0841 28.8425 77.2099 28.8966C77.337 28.9508 77.4505 29.019 77.5505 29.1013C77.6517 29.1837 77.7317 29.2831 77.7905 29.3996C77.8493 29.516 77.8787 29.6525 77.8787 29.809C77.8787 30.0207 77.8246 30.2072 77.7164 30.3683C77.6081 30.5283 77.4517 30.6536 77.247 30.7442C77.0435 30.8336 76.797 30.8783 76.5076 30.8783C76.2264 30.8783 75.9823 30.8348 75.7753 30.7477C75.5694 30.6607 75.4083 30.5336 75.2918 30.3666C75.1765 30.1995 75.1142 29.996 75.1047 29.756H75.7488C75.7582 29.8819 75.7971 29.9866 75.8653 30.0701C75.9335 30.1536 76.0223 30.216 76.1317 30.2572C76.2423 30.2983 76.3659 30.3189 76.5023 30.3189C76.6447 30.3189 76.7694 30.2978 76.8764 30.2554C76.9846 30.2119 77.0693 30.1519 77.1305 30.0754C77.1917 29.9978 77.2229 29.9072 77.224 29.8037C77.2229 29.7095 77.1952 29.6319 77.1411 29.5707C77.087 29.5084 77.0111 29.4566 76.9135 29.4154C76.817 29.3731 76.7041 29.3354 76.5747 29.3025L76.1635 29.1966C75.8659 29.1202 75.6306 29.0043 75.4577 28.849C75.2859 28.6925 75.2 28.4849 75.2 28.2261C75.2 28.0132 75.2577 27.8267 75.373 27.6667C75.4894 27.5067 75.6477 27.3826 75.8476 27.2944C76.0476 27.205 76.2741 27.1603 76.527 27.1603C76.7835 27.1603 77.0082 27.205 77.2011 27.2944C77.3952 27.3826 77.5476 27.5055 77.6581 27.6632C77.7687 27.8196 77.8258 27.9996 77.8293 28.2032H77.1993ZM78.3036 27.7585V27.2097H81.1869V27.7585H80.0699V30.8236H79.4206V27.7585H78.3036ZM82.3975 27.2097V30.8236H81.7428V27.2097H82.3975ZM86.0763 27.2097V30.8236H85.4939L83.7911 28.362H83.7611V30.8236H83.1064V27.2097H83.6923L85.3933 29.6731H85.4251V27.2097H86.0763ZM89.2107 28.3637C89.1812 28.2684 89.1407 28.1832 89.0889 28.1079C89.0383 28.0314 88.9771 27.9661 88.9054 27.912C88.8348 27.8579 88.7536 27.8173 88.6619 27.7902C88.5701 27.762 88.4701 27.7479 88.3619 27.7479C88.1678 27.7479 87.9948 27.7967 87.8431 27.8943C87.6913 27.992 87.5719 28.1355 87.4849 28.3249C87.399 28.5131 87.356 28.7425 87.356 29.0131C87.356 29.286 87.399 29.5172 87.4849 29.7066C87.5707 29.896 87.6901 30.0401 87.8431 30.1389C87.996 30.2366 88.1736 30.2854 88.376 30.2854C88.5595 30.2854 88.7183 30.2501 88.8524 30.1795C88.9877 30.1089 89.0918 30.0089 89.1648 29.8795C89.2377 29.749 89.2742 29.596 89.2742 29.4207L89.4224 29.4437H88.4413V28.9319H89.9077V29.366C89.9077 29.6754 89.8418 29.9431 89.71 30.1689C89.5783 30.3948 89.3971 30.5689 89.1665 30.6913C88.936 30.8124 88.6713 30.873 88.3725 30.873C88.0395 30.873 87.7472 30.7983 87.4954 30.6489C87.2449 30.4983 87.049 30.2848 86.9078 30.0084C86.7678 29.7307 86.6978 29.4013 86.6978 29.0202C86.6978 28.7284 86.739 28.4678 86.8214 28.2384C86.9049 28.009 87.0214 27.8143 87.1708 27.6544C87.3202 27.4932 87.4954 27.3708 87.6966 27.2873C87.8978 27.2026 88.1166 27.1603 88.3531 27.1603C88.553 27.1603 88.7395 27.1897 88.9124 27.2485C89.0854 27.3061 89.2389 27.3885 89.373 27.4955C89.5083 27.6026 89.6195 27.7296 89.7065 27.8767C89.7936 28.0237 89.8506 28.1861 89.8777 28.3637H89.2107Z" fill="#444444"/>
</g>
<defs>
<linearGradient id="paint0_linear_210_1234" x1="22.9468" y1="11.364" x2="22.9468" y2="34.5534" gradientUnits="userSpaceOnUse">
<stop stop-color="#FA350C"/>
<stop offset="1" stop-color="#E32B05"/>
</linearGradient>
<clipPath id="clip0_210_1234">
<rect width="401" height="44" fill="white" transform="translate(0.5 0.5)"/>
</clipPath>
</defs>
</svg>
