<svg width="400" height="231" viewBox="0 0 400 231" fill="none" xmlns="http://www.w3.org/2000/svg">
<g clip-path="url(#clip0_210_1352)">
<path d="M400 0.5H0V230.5H400V0.5Z" fill="white"/>
<path d="M55.0299 201.655C55.0299 196.501 50.8512 192.322 45.6966 192.322C40.5419 192.322 36.3633 196.501 36.3633 201.655C36.3633 206.81 40.5419 210.989 45.6966 210.989C50.8512 210.989 55.0299 206.81 55.0299 201.655Z" stroke="#B5B5B5" stroke-width="0.726497"/>
<path d="M79.7311 201.655C79.7311 196.501 75.5524 192.322 70.3978 192.322C65.2431 192.322 61.0645 196.501 61.0645 201.655C61.0645 206.81 65.2431 210.989 70.3978 210.989C75.5524 210.989 79.7311 206.81 79.7311 201.655Z" stroke="#B5B5B5" stroke-width="0.726497"/>
<path d="M104.43 201.655C104.43 196.501 100.252 192.322 95.097 192.322C89.9423 192.322 85.7637 196.501 85.7637 201.655C85.7637 206.81 89.9423 210.989 95.097 210.989C100.252 210.989 104.43 206.81 104.43 201.655Z" stroke="#B5B5B5" stroke-width="0.726497"/>
<path d="M337.007 80.0081H335.796C332.036 80.0081 328.988 83.0558 328.988 86.8155C328.988 90.5751 332.036 93.6229 335.796 93.6229H337.007C340.767 93.6229 343.815 90.5751 343.815 86.8155C343.815 83.0558 340.767 80.0081 337.007 80.0081Z" fill="#EAEAEA"/>
<path d="M335.318 84.686L337.488 86.7034L335.318 88.9448" stroke="black" stroke-width="0.872146" stroke-linecap="round"/>
<path d="M337.007 99.9485H335.796C332.036 99.9485 328.988 102.996 328.988 106.756C328.988 110.516 332.036 113.563 335.796 113.563H337.007C340.767 113.563 343.815 110.516 343.815 106.756C343.815 102.996 340.767 99.9485 337.007 99.9485Z" fill="#EAEAEA"/>
<path d="M335.318 104.626L337.488 106.644L335.318 108.885" stroke="black" stroke-width="0.872146" stroke-linecap="round"/>
<path d="M337.007 119.889H335.796C332.036 119.889 328.988 122.937 328.988 126.696C328.988 130.456 332.036 133.504 335.796 133.504H337.007C340.767 133.504 343.815 130.456 343.815 126.696C343.815 122.937 340.767 119.889 337.007 119.889Z" fill="#EAEAEA"/>
<path d="M335.318 124.567L337.488 126.584L335.318 128.826" stroke="black" stroke-width="0.872146" stroke-linecap="round"/>
<mask id="mask0_210_1352" style="mask-type:luminance" maskUnits="userSpaceOnUse" x="39" y="195" width="13" height="13">
<path d="M51.5614 195.791H39.832V207.52H51.5614V195.791Z" fill="white"/>
</mask>
<g mask="url(#mask0_210_1352)">
<path d="M48.6299 196.768H47.1637C46.5156 196.768 45.8941 197.026 45.4358 197.484C44.9776 197.942 44.7201 198.564 44.7201 199.212V200.678H43.2539V202.633H44.7201V206.543H46.675V202.633H48.1412L48.6299 200.678H46.675V199.212C46.675 199.082 46.7265 198.958 46.8182 198.866C46.9098 198.775 47.0341 198.723 47.1637 198.723H48.6299V196.768Z" stroke="#616161" stroke-width="0.977452" stroke-linecap="round" stroke-linejoin="round"/>
</g>
<mask id="mask1_210_1352" style="mask-type:luminance" maskUnits="userSpaceOnUse" x="65" y="194" width="13" height="13">
<path d="M77.2392 194.569H65.5098V206.298H77.2392V194.569Z" fill="white"/>
</mask>
<g mask="url(#mask1_210_1352)">
<path d="M73.3288 198.479C74.1065 198.479 74.8524 198.788 75.4023 199.338C75.9522 199.888 76.2612 200.633 76.2612 201.411V204.832H74.3063V201.411C74.3063 201.152 74.2033 200.903 74.02 200.72C73.8367 200.537 73.5881 200.434 73.3288 200.434C73.0696 200.434 72.821 200.537 72.6377 200.72C72.4543 200.903 72.3514 201.152 72.3514 201.411V204.832H70.3965V201.411C70.3965 200.633 70.7054 199.888 71.2553 199.338C71.8053 198.788 72.5511 198.479 73.3288 198.479Z" stroke="#616161" stroke-width="0.977452" stroke-linecap="round" stroke-linejoin="round"/>
<path d="M68.4412 198.968H66.4863V204.832H68.4412V198.968Z" stroke="#616161" stroke-width="0.977452" stroke-linecap="round" stroke-linejoin="round"/>
<path d="M67.4638 197.501C68.0036 197.501 68.4412 197.064 68.4412 196.524C68.4412 195.984 68.0036 195.547 67.4638 195.547C66.9239 195.547 66.4863 195.984 66.4863 196.524C66.4863 197.064 66.9239 197.501 67.4638 197.501Z" stroke="#616161" stroke-width="0.977452" stroke-linecap="round" stroke-linejoin="round"/>
</g>
<mask id="mask2_210_1352" style="mask-type:luminance" maskUnits="userSpaceOnUse" x="89" y="195" width="12" height="13">
<path d="M100.964 195.791H89.2344V207.52H100.964V195.791Z" fill="white"/>
</mask>
<g mask="url(#mask2_210_1352)">
<path d="M93.757 205.327C91.3133 206.061 91.3133 204.106 90.3359 203.861M97.178 206.794V204.902C97.1964 204.669 97.1649 204.435 97.0857 204.215C97.0065 203.995 96.8814 203.795 96.7186 203.627C98.2532 203.456 99.866 202.874 99.866 200.206C99.8659 199.523 99.6034 198.867 99.133 198.373C99.3557 197.776 99.34 197.116 99.089 196.53C99.089 196.53 98.5123 196.359 97.178 197.254C96.0579 196.95 94.8771 196.95 93.757 197.254C92.4227 196.359 91.846 196.53 91.846 196.53C91.595 197.116 91.5793 197.776 91.8021 198.373C91.3281 198.871 91.0653 199.533 91.069 200.22C91.069 202.869 92.6818 203.451 94.2164 203.641C94.0556 203.808 93.9316 204.006 93.8524 204.223C93.7733 204.44 93.7407 204.672 93.757 204.902V206.794" stroke="#616161" stroke-width="0.977452" stroke-linecap="round" stroke-linejoin="round"/>
</g>
<path d="M146.896 80.0081H36.4941C34.0337 80.0081 32.0391 82.0027 32.0391 84.4631C32.0391 86.9236 34.0337 88.9182 36.4941 88.9182H146.896C149.356 88.9182 151.351 86.9236 151.351 84.4631C151.351 82.0027 149.356 80.0081 146.896 80.0081Z" fill="#D9D9D9"/>
<path d="M129.263 119.889H36.4941C34.0337 119.889 32.0391 121.884 32.0391 124.344C32.0391 126.805 34.0337 128.799 36.4941 128.799H129.263C131.723 128.799 133.718 126.805 133.718 124.344C133.718 121.884 131.723 119.889 129.263 119.889Z" fill="#D9D9D9"/>
<path d="M116.853 99.9485H36.4941C34.0337 99.9485 32.0391 101.943 32.0391 104.404C32.0391 106.864 34.0337 108.859 36.4941 108.859H116.853C119.314 108.859 121.309 106.864 121.309 104.404C121.309 101.943 119.314 99.9485 116.853 99.9485Z" fill="#D9D9D9"/>
<path d="M367.939 22.7734L366.771 23.9413L378.134 35.3036L379.302 34.1357L367.939 22.7734Z" fill="#939393"/>
<path d="M379.303 23.9411L378.135 22.7732L366.772 34.1355L367.94 35.3033L379.303 23.9411Z" fill="#939393"/>
<path d="M304.326 156.227H38.029C36.9084 156.227 36 157.135 36 158.256C36 159.377 36.9084 160.285 38.029 160.285H304.326C305.447 160.285 306.355 159.377 306.355 158.256C306.355 157.135 305.447 156.227 304.326 156.227Z" fill="#D9D9D9"/>
<path d="M207.034 171.731H38.029C36.9084 171.731 36 172.639 36 173.76C36 174.88 36.9084 175.789 38.029 175.789H207.034C208.155 175.789 209.063 174.88 209.063 173.76C209.063 172.639 208.155 171.731 207.034 171.731Z" fill="#D9D9D9"/>
<path d="M51.1569 32.1342C51.035 31.3165 50.8131 30.527 50.4908 29.766L49.8689 28.5373C48.9066 26.9444 47.6049 25.7133 45.9634 24.844C44.8424 24.2496 43.6521 23.8948 42.3924 23.7797C41.8752 23.715 41.3606 23.6947 40.8486 23.7185L39.505 23.8751C37.2158 24.336 35.3133 25.4524 33.798 27.2241C33.6798 27.3628 33.5616 27.5031 33.4431 27.645C33.4285 27.6624 33.4182 27.6817 33.4122 27.7034C33.4042 27.7323 33.3922 27.7586 33.3763 27.782C33.0971 28.1112 32.8481 28.4923 32.6294 28.925C32.4021 29.3311 32.2019 29.7778 32.0286 30.2648C31.8543 30.7425 31.7186 31.2407 31.6218 31.759C31.1115 34.7329 31.8016 37.5516 33.6798 39.8713C33.9244 40.1734 34.0937 40.3713 34.1879 40.465C36.1934 42.457 38.1933 44.4548 40.188 46.4583C40.2189 46.49 40.2632 46.5041 40.3033 46.5209C40.7249 46.9516 41.4852 46.979 42.0087 46.7766C42.4739 46.5911 42.7823 46.2139 43.2047 45.779L44.7211 44.2643L46.1004 42.8824C46.7942 42.1963 47.4856 41.5047 48.1747 40.8079C48.5978 40.3803 48.9132 40.0347 49.1213 39.7716C50.2779 38.3065 50.9718 36.6227 51.2033 34.7203C51.2365 34.4492 51.2426 34.1957 51.2216 33.9602C51.3171 33.3729 51.244 32.7208 51.1569 32.1342ZM37.9889 30.3841C37.9898 30.3841 37.9897 30.3852 37.9905 30.3858C37.9889 30.385 37.9874 30.3838 37.9858 30.3849C37.9867 30.3843 37.9877 30.384 37.9889 30.3841ZM37.324 40.6828C37.324 40.6828 37.3247 40.6829 37.325 40.6831C37.3253 40.6832 37.3254 40.6832 37.3256 40.6835C37.3251 40.6832 37.3246 40.6829 37.324 40.6828ZM37.605 41.315C37.605 41.315 37.6056 41.3153 37.6058 41.3153C37.6067 41.3157 37.6075 41.3161 37.6083 41.3166C37.6072 41.3159 37.6062 41.3154 37.605 41.315ZM46.1956 35.2714C46.1956 35.2714 46.195 35.2711 46.1946 35.271C46.1951 35.2711 46.1958 35.2715 46.196 35.2711C46.1959 35.2712 46.1958 35.2712 46.1956 35.2714Z" fill="url(#paint0_linear_210_1352)"/>
<path d="M36.3119 33.6347C35.9852 33.4047 35.5466 33.4468 35.2607 33.761C34.9313 34.1243 34.9313 34.7136 35.2607 35.0778L37.7217 37.7917C38.0511 38.155 38.5856 38.155 38.9158 37.7917L44.7381 31.3712C45.0675 31.008 45.0675 30.4186 44.7381 30.0544C44.4532 29.7401 44.0137 29.698 43.687 29.9281L38.7827 35.3363C38.4062 35.7514 38.297 35.8239 37.9206 35.4078L36.3119 33.6347Z" fill="white"/>
<path d="M38.9167 32.8907C38.59 32.6606 38.1514 32.7027 37.8656 33.017C37.5362 33.3802 37.5362 33.9696 37.8656 34.3338L38.3263 34.8419L39.5062 33.5408L38.9158 32.8897L38.9167 32.8907ZM40.4109 37.1397L41.0022 37.7917C41.3316 38.155 41.8661 38.155 42.1963 37.7917L48.0177 31.3712C48.3471 31.008 48.3471 30.4186 48.0177 30.0544C47.7328 29.7401 47.2933 29.698 46.9675 29.9281L42.0623 35.3363C41.9726 35.4352 41.898 35.5145 41.8314 35.5732L40.4109 37.1397Z" fill="white"/>
<path d="M54.6294 36.5737V36.4412L54.9077 36.3352C55.0932 36.2645 55.208 36.1806 55.2522 36.0834C55.3052 35.9774 55.3317 35.8361 55.3317 35.6594V28.7423C55.3317 28.5656 55.3052 28.4243 55.2522 28.3183C55.1992 28.2123 55.0844 28.1284 54.9077 28.0665L54.6294 27.9605V27.828H58.0084V27.9605L57.7699 28.0665C57.6021 28.1284 57.4872 28.2167 57.4254 28.3315C57.3636 28.4376 57.3326 28.5789 57.3326 28.7556V36.3087H59.3733C59.7002 36.3087 59.9387 36.2292 60.0889 36.0702C60.2479 35.9112 60.3981 35.6815 60.5394 35.3811L61.0562 34.268H61.1887L61.0695 36.5737H54.6294ZM63.6142 29.3121C63.3138 29.3121 63.0576 29.2194 62.8456 29.0339C62.6424 28.8395 62.5408 28.5966 62.5408 28.305C62.5408 28.0047 62.6424 27.7617 62.8456 27.5762C63.0576 27.3907 63.3138 27.298 63.6142 27.298C63.9145 27.298 64.1663 27.3907 64.3695 27.5762C64.5727 27.7617 64.6743 28.0047 64.6743 28.305C64.6743 28.5966 64.5727 28.8395 64.3695 29.0339C64.1663 29.2194 63.9145 29.3121 63.6142 29.3121ZM62.0506 36.5737V36.4412L62.2361 36.3882C62.4127 36.3352 62.532 36.2557 62.5938 36.1497C62.6645 36.0437 62.6999 35.9023 62.6999 35.7257V31.5781C62.6999 31.3925 62.6645 31.2556 62.5938 31.1673C62.532 31.0701 62.4127 31.0038 62.2361 30.9685L62.0506 30.9288V30.7962L64.4755 30.0144L64.608 30.1469L64.5683 32.0286V35.7389C64.5683 35.9156 64.5992 36.0569 64.661 36.1629C64.7317 36.269 64.851 36.3485 65.0188 36.4015L65.1513 36.4412V36.5737H62.0506ZM68.2954 36.7725C67.8626 36.7725 67.4739 36.7195 67.1293 36.6135C66.7848 36.5163 66.4668 36.3926 66.1753 36.2425L66.1885 34.6656H66.321L66.7716 35.4606C66.9659 35.814 67.1779 36.079 67.4076 36.2557C67.6461 36.4236 67.9465 36.5075 68.3087 36.5075C68.7327 36.5075 69.0728 36.4147 69.329 36.2292C69.5941 36.0349 69.7266 35.7787 69.7266 35.4606C69.7266 35.1691 69.6338 34.9306 69.4483 34.7451C69.2628 34.5596 68.9182 34.3917 68.4147 34.2415L67.8582 34.0693C67.3193 33.9103 66.8952 33.6629 66.5861 33.3272C66.2769 32.9915 66.1223 32.5807 66.1223 32.0949C66.1223 31.5118 66.3519 31.0171 66.8113 30.6107C67.2707 30.2044 67.9288 30.0012 68.7857 30.0012C69.1303 30.0012 69.4527 30.0409 69.7531 30.1204C70.0623 30.1911 70.3582 30.3015 70.6409 30.4517L70.5614 31.8828H70.4289L69.9651 31.0613C69.7972 30.7697 69.6294 30.5666 69.4615 30.4517C69.3025 30.328 69.0596 30.2662 68.7327 30.2662C68.4324 30.2662 68.1497 30.3501 67.8847 30.518C67.6196 30.6858 67.4871 30.9243 67.4871 31.2335C67.4871 31.5339 67.5976 31.7724 67.8184 31.9491C68.0481 32.1258 68.3838 32.2892 68.8255 32.4394L69.4218 32.6116C70.0578 32.806 70.5128 33.0754 70.7867 33.42C71.0605 33.7557 71.1974 34.162 71.1974 34.6391C71.1974 35.284 70.9412 35.8007 70.4289 36.1894C69.9253 36.5781 69.2142 36.7725 68.2954 36.7725ZM74.5572 36.7725C73.9918 36.7725 73.5501 36.6312 73.2321 36.3485C72.9229 36.0658 72.7683 35.6152 72.7683 34.9968V30.465H71.854V30.3325L72.172 30.2795C72.4459 30.2176 72.68 30.1293 72.8743 30.0144C73.0775 29.8996 73.2763 29.745 73.4706 29.5506L74.5572 28.3448H74.6897L74.65 30.1999H76.1341V30.465H74.6367V35.2354C74.6367 35.5446 74.703 35.7787 74.8355 35.9377C74.9768 36.0967 75.1535 36.1762 75.3655 36.1762C75.551 36.1762 75.7145 36.132 75.8558 36.0437C75.9972 35.9465 76.1385 35.8184 76.2799 35.6594L76.4124 35.7919C76.2357 36.0923 75.9927 36.3308 75.6836 36.5075C75.3744 36.6842 74.9989 36.7725 74.5572 36.7725ZM77.0414 36.5737V36.4412L77.3064 36.3485C77.4831 36.2955 77.5979 36.216 77.6509 36.1099C77.7128 36.0039 77.7437 35.8626 77.7437 35.6859V28.7423C77.7437 28.5656 77.7128 28.4243 77.6509 28.3183C77.5891 28.2123 77.4698 28.1284 77.2932 28.0665L77.0414 27.9605V27.828H80.2614C81.5777 27.828 82.5273 28.0709 83.1104 28.5568C83.7023 29.0339 83.9982 29.6655 83.9982 30.4517C83.9982 30.9553 83.8745 31.4191 83.6272 31.8431C83.3887 32.2583 82.9911 32.5896 82.4346 32.8369C81.878 33.0843 81.1271 33.2079 80.1819 33.2079H79.7314V35.6462C79.7314 35.9907 79.9036 36.216 80.2481 36.322L80.6457 36.4412V36.5737H77.0414ZM79.7314 32.9429H80.2349C80.6678 32.9429 81.0211 32.8723 81.295 32.7309C81.5688 32.5896 81.772 32.3422 81.9045 31.9888C82.037 31.6355 82.1033 31.1452 82.1033 30.518C82.1033 29.8819 82.0282 29.3872 81.878 29.0339C81.7367 28.6805 81.5247 28.4376 81.242 28.305C80.9593 28.1637 80.6059 28.093 80.1819 28.093H79.7314V32.9429ZM84.7207 36.5737V36.4412L84.9195 36.3882C85.0962 36.3352 85.2154 36.2557 85.2773 36.1497C85.3479 36.0437 85.3833 35.9068 85.3833 35.7389V31.5913C85.3833 31.397 85.3479 31.2556 85.2773 31.1673C85.2154 31.0701 85.0962 31.0038 84.9195 30.9685L84.7207 30.9155V30.783L86.9999 30.0144L87.1324 30.1469L87.2517 31.2865V31.3925C87.3753 31.1452 87.5344 30.9199 87.7287 30.7167C87.9319 30.5047 88.1527 30.3325 88.3913 30.1999C88.6386 30.0674 88.8816 30.0012 89.1201 30.0012C89.4558 30.0012 89.712 30.0939 89.8886 30.2795C90.0653 30.465 90.1537 30.6991 90.1537 30.9818C90.1537 31.2821 90.0653 31.5162 89.8886 31.6841C89.7208 31.8431 89.5176 31.9226 89.2791 31.9226C88.9081 31.9226 88.5812 31.7371 88.2985 31.366L88.272 31.3395C88.1837 31.2159 88.0821 31.1496 87.9672 31.1408C87.8524 31.1231 87.7464 31.1761 87.6492 31.2998C87.5609 31.3793 87.4858 31.4765 87.4239 31.5913C87.3709 31.6973 87.3179 31.821 87.2649 31.9623V35.6594C87.2649 36.0128 87.4195 36.2336 87.7287 36.322L88.1527 36.4412V36.5737H84.7207ZM93.9538 30.0012C94.528 30.0012 95.0183 30.1204 95.4247 30.359C95.8311 30.5886 96.1403 30.9067 96.3523 31.313C96.5731 31.7106 96.6836 32.1655 96.6836 32.6779C96.6836 32.7751 96.6791 32.8767 96.6703 32.9827C96.6615 33.0799 96.6438 33.1682 96.6173 33.2477H92.6685C92.6773 34.2018 92.8452 34.8908 93.172 35.3149C93.5077 35.7301 94.0024 35.9377 94.6561 35.9377C95.0978 35.9377 95.4556 35.867 95.7295 35.7257C96.0033 35.5843 96.2595 35.3767 96.498 35.1029L96.6306 35.2221C96.3567 35.708 95.9901 36.0879 95.5307 36.3617C95.0802 36.6356 94.5369 36.7725 93.9008 36.7725C93.2736 36.7725 92.7171 36.64 92.2312 36.375C91.7453 36.1011 91.3654 35.7124 91.0916 35.2089C90.8177 34.7053 90.6808 34.1046 90.6808 33.4067C90.6808 32.6823 90.8398 32.0684 91.1578 31.5648C91.4759 31.0524 91.8822 30.6637 92.3769 30.3987C92.8805 30.1337 93.4061 30.0012 93.9538 30.0012ZM93.9141 30.2662C93.6579 30.2662 93.437 30.3457 93.2515 30.5047C93.0748 30.6549 92.9335 30.9288 92.8275 31.3263C92.7303 31.715 92.6773 32.2671 92.6685 32.9827H94.9344C95.0227 32.0198 94.9874 31.3263 94.8284 30.9023C94.6694 30.4782 94.3646 30.2662 93.9141 30.2662ZM99.9014 36.7725C99.4685 36.7725 99.0798 36.7195 98.7353 36.6135C98.3908 36.5163 98.0727 36.3926 97.7812 36.2425L97.7945 34.6656H97.927L98.3775 35.4606C98.5719 35.814 98.7839 36.079 99.0136 36.2557C99.2521 36.4236 99.5525 36.5075 99.9147 36.5075C100.339 36.5075 100.679 36.4147 100.935 36.2292C101.2 36.0349 101.333 35.7787 101.333 35.4606C101.333 35.1691 101.24 34.9306 101.054 34.7451C100.869 34.5596 100.524 34.3917 100.021 34.2415L99.4641 34.0693C98.9252 33.9103 98.5012 33.6629 98.192 33.3272C97.8828 32.9915 97.7282 32.5807 97.7282 32.0949C97.7282 31.5118 97.9579 31.0171 98.4173 30.6107C98.8766 30.2044 99.5348 30.0012 100.392 30.0012C100.736 30.0012 101.059 30.0409 101.359 30.1204C101.668 30.1911 101.964 30.3015 102.247 30.4517L102.167 31.8828H102.035L101.571 31.0613C101.403 30.7697 101.235 30.5666 101.067 30.4517C100.908 30.328 100.666 30.2662 100.339 30.2662C100.038 30.2662 99.7556 30.3501 99.4906 30.518C99.2256 30.6858 99.0931 30.9243 99.0931 31.2335C99.0931 31.5339 99.2035 31.7724 99.4244 31.9491C99.654 32.1258 99.9897 32.2892 100.431 32.4394L101.028 32.6116C101.664 32.806 102.119 33.0754 102.393 33.42C102.666 33.7557 102.803 34.162 102.803 34.6391C102.803 35.284 102.547 35.8007 102.035 36.1894C101.531 36.5781 100.82 36.7725 99.9014 36.7725ZM105.938 36.7725C105.505 36.7725 105.116 36.7195 104.772 36.6135C104.427 36.5163 104.109 36.3926 103.818 36.2425L103.831 34.6656H103.963L104.414 35.4606C104.608 35.814 104.82 36.079 105.05 36.2557C105.289 36.4236 105.589 36.5075 105.951 36.5075C106.375 36.5075 106.715 36.4147 106.971 36.2292C107.237 36.0349 107.369 35.7787 107.369 35.4606C107.369 35.1691 107.276 34.9306 107.091 34.7451C106.905 34.5596 106.561 34.3917 106.057 34.2415L105.501 34.0693C104.962 33.9103 104.538 33.6629 104.229 33.3272C103.919 32.9915 103.765 32.5807 103.765 32.0949C103.765 31.5118 103.994 31.0171 104.454 30.6107C104.913 30.2044 105.571 30.0012 106.428 30.0012C106.773 30.0012 107.095 30.0409 107.396 30.1204C107.705 30.1911 108.001 30.3015 108.283 30.4517L108.204 31.8828H108.071L107.608 31.0613C107.44 30.7697 107.272 30.5666 107.104 30.4517C106.945 30.328 106.702 30.2662 106.375 30.2662C106.075 30.2662 105.792 30.3501 105.527 30.518C105.262 30.6858 105.13 30.9243 105.13 31.2335C105.13 31.5339 105.24 31.7724 105.461 31.9491C105.691 32.1258 106.026 32.2892 106.468 32.4394L107.064 32.6116C107.7 32.806 108.155 33.0754 108.429 33.42C108.703 33.7557 108.84 34.162 108.84 34.6391C108.84 35.284 108.584 35.8007 108.071 36.1894C107.568 36.5781 106.857 36.7725 105.938 36.7725Z" fill="#111111"/>
<path d="M56.4717 43.1685H55.2471V39.5545H56.4964C56.8552 39.5545 57.1635 39.6269 57.4211 39.7716C57.6799 39.9151 57.8787 40.1216 58.0175 40.3909C58.1563 40.6603 58.2258 40.9827 58.2258 41.358C58.2258 41.7344 58.1558 42.0579 58.0158 42.3285C57.8769 42.5991 57.6764 42.8067 57.414 42.9514C57.1529 43.0961 56.8388 43.1685 56.4717 43.1685ZM55.9018 42.602H56.44C56.6917 42.602 56.9017 42.5561 57.0699 42.4644C57.2382 42.3714 57.3646 42.2332 57.4493 42.0497C57.534 41.865 57.5764 41.6344 57.5764 41.358C57.5764 41.0815 57.534 40.8521 57.4493 40.6698C57.3646 40.4862 57.2393 40.3492 57.0735 40.2586C56.9088 40.1668 56.7041 40.121 56.4594 40.121H55.9018V42.602ZM59.5025 39.5545V43.1685H58.8478V39.5545H59.5025ZM60.2114 43.1685V39.5545H61.5666C61.8442 39.5545 62.0772 39.6028 62.2654 39.6992C62.4548 39.7957 62.5977 39.931 62.6942 40.1051C62.7918 40.278 62.8407 40.4798 62.8407 40.7103C62.8407 40.9421 62.7913 41.1433 62.6924 41.3138C62.5948 41.4832 62.4507 41.6144 62.2601 41.7074C62.0695 41.7991 61.8354 41.845 61.5578 41.845H60.5925V41.3015H61.4696C61.6319 41.3015 61.7648 41.2791 61.8684 41.2344C61.9719 41.1886 62.0484 41.1221 62.0978 41.035C62.1484 40.9468 62.1736 40.8386 62.1736 40.7103C62.1736 40.5821 62.1484 40.4727 62.0978 40.3821C62.0472 40.2904 61.9701 40.221 61.8666 40.1739C61.7631 40.1257 61.6296 40.1016 61.466 40.1016H60.8661V43.1685H60.2114ZM62.0784 41.5309L62.973 43.1685H62.2425L61.3637 41.5309H62.0784ZM63.4433 43.1685V39.5545H65.7938V40.1033H64.098V41.0844H65.672V41.6332H64.098V42.6197H65.8079V43.1685H63.4433ZM69.555 40.7739H68.8951C68.8763 40.6656 68.8415 40.5698 68.791 40.4862C68.7404 40.4015 68.6774 40.3298 68.6021 40.271C68.5269 40.2121 68.441 40.168 68.3445 40.1386C68.2492 40.108 68.1463 40.0927 68.0357 40.0927C67.8392 40.0927 67.6651 40.1421 67.5134 40.241C67.3616 40.3386 67.2428 40.4821 67.1569 40.6715C67.071 40.8597 67.0281 41.0897 67.0281 41.3615C67.0281 41.6379 67.071 41.8709 67.1569 42.0603C67.244 42.2485 67.3628 42.3908 67.5134 42.4873C67.6651 42.5826 67.8387 42.6302 68.0339 42.6302C68.1422 42.6302 68.2433 42.6161 68.3375 42.5879C68.4327 42.5585 68.518 42.5155 68.5933 42.4591C68.6698 42.4026 68.7339 42.3332 68.7857 42.2509C68.8386 42.1685 68.8751 42.0744 68.8951 41.9685L69.555 41.972C69.5303 42.1438 69.4768 42.305 69.3945 42.4556C69.3133 42.6061 69.2068 42.7391 69.0751 42.8544C68.9433 42.9685 68.7892 43.0579 68.6127 43.1226C68.4363 43.1861 68.2404 43.2179 68.0251 43.2179C67.7075 43.2179 67.424 43.1443 67.1746 42.9973C66.9252 42.8502 66.7287 42.6379 66.5852 42.3603C66.4417 42.0826 66.3699 41.7497 66.3699 41.3615C66.3699 40.9721 66.4423 40.6392 66.587 40.3627C66.7317 40.0851 66.9287 39.8727 67.1781 39.7257C67.4275 39.5786 67.7098 39.5051 68.0251 39.5051C68.2263 39.5051 68.4133 39.5333 68.5863 39.5898C68.7592 39.6463 68.9133 39.7292 69.0486 39.8386C69.1839 39.9469 69.2951 40.0798 69.3821 40.2374C69.4703 40.3939 69.528 40.5727 69.555 40.7739ZM69.9958 40.1033V39.5545H72.8791V40.1033H71.7621V43.1685H71.1128V40.1033H69.9958ZM76.5041 41.3615C76.5041 41.7509 76.4312 42.0844 76.2853 42.362C76.1406 42.6385 75.943 42.8502 75.6924 42.9973C75.443 43.1443 75.1601 43.2179 74.8436 43.2179C74.5271 43.2179 74.2436 43.1443 73.9931 42.9973C73.7437 42.8491 73.546 42.6367 73.4001 42.3603C73.2554 42.0826 73.1831 41.7497 73.1831 41.3615C73.1831 40.9721 73.2554 40.6392 73.4001 40.3627C73.546 40.0851 73.7437 39.8727 73.9931 39.7257C74.2436 39.5786 74.5271 39.5051 74.8436 39.5051C75.1601 39.5051 75.443 39.5786 75.6924 39.7257C75.943 39.8727 76.1406 40.0851 76.2853 40.3627C76.4312 40.6392 76.5041 40.9721 76.5041 41.3615ZM75.8459 41.3615C75.8459 41.0874 75.803 40.8562 75.7171 40.668C75.6324 40.4786 75.5147 40.3357 75.3642 40.2392C75.2136 40.1415 75.0401 40.0927 74.8436 40.0927C74.6471 40.0927 74.4736 40.1415 74.323 40.2392C74.1725 40.3357 74.0542 40.4786 73.9683 40.668C73.8836 40.8562 73.8413 41.0874 73.8413 41.3615C73.8413 41.6356 73.8836 41.8673 73.9683 42.0567C74.0542 42.245 74.1725 42.3879 74.323 42.4855C74.4736 42.582 74.6471 42.6302 74.8436 42.6302C75.0401 42.6302 75.2136 42.582 75.3642 42.4855C75.5147 42.3879 75.6324 42.245 75.7171 42.0567C75.803 41.8673 75.8459 41.6356 75.8459 41.3615ZM77.123 43.1685V39.5545H78.4783C78.7559 39.5545 78.9888 39.6028 79.1771 39.6992C79.3665 39.7957 79.5094 39.931 79.6059 40.1051C79.7035 40.278 79.7523 40.4798 79.7523 40.7103C79.7523 40.9421 79.7029 41.1433 79.6041 41.3138C79.5065 41.4832 79.3623 41.6144 79.1718 41.7074C78.9812 41.7991 78.7471 41.845 78.4694 41.845H77.5042V41.3015H78.3812C78.5436 41.3015 78.6765 41.2791 78.78 41.2344C78.8835 41.1886 78.96 41.1221 79.0094 41.035C79.06 40.9468 79.0853 40.8386 79.0853 40.7103C79.0853 40.5821 79.06 40.4727 79.0094 40.3821C78.9588 40.2904 78.8818 40.221 78.7783 40.1739C78.6747 40.1257 78.5412 40.1016 78.3777 40.1016H77.7777V43.1685H77.123ZM78.99 41.5309L79.8847 43.1685H79.1541L78.2753 41.5309H78.99ZM79.9672 39.5545H80.7065L81.5906 41.1533H81.6259L82.51 39.5545H83.2494L81.9347 41.8203V43.1685H81.2818V41.8203L79.9672 39.5545ZM85.9973 43.2214C85.7503 43.2214 85.5379 43.1767 85.3603 43.0873C85.1826 42.9979 85.0456 42.8773 84.9491 42.7255C84.8538 42.5726 84.8062 42.4003 84.8062 42.2085C84.8062 42.0638 84.8356 41.9356 84.8944 41.8238C84.9544 41.7121 85.0368 41.6085 85.1415 41.5132C85.2473 41.418 85.3697 41.3233 85.5085 41.2291L86.1491 40.7933C86.2432 40.7321 86.3144 40.6674 86.3626 40.5992C86.412 40.5309 86.4367 40.4509 86.4367 40.3592C86.4367 40.2815 86.4038 40.208 86.3379 40.1386C86.2732 40.0692 86.1838 40.0345 86.0697 40.0345C85.9932 40.0345 85.9255 40.0527 85.8667 40.0892C85.8091 40.1245 85.7638 40.171 85.7309 40.2286C85.6991 40.2862 85.6832 40.3474 85.6832 40.4121C85.6832 40.4909 85.705 40.5709 85.7485 40.6521C85.7932 40.7333 85.8508 40.8174 85.9214 40.9045C85.9932 40.9915 86.0697 41.0839 86.1508 41.1815L87.8466 43.1685H87.1549L85.7467 41.5556C85.642 41.4332 85.5409 41.3127 85.4432 41.1938C85.3468 41.075 85.2673 40.9515 85.205 40.8233C85.1438 40.6939 85.1132 40.5539 85.1132 40.4033C85.1132 40.2327 85.1526 40.0804 85.2315 39.9463C85.3103 39.811 85.4203 39.7045 85.5614 39.6269C85.7038 39.5492 85.8703 39.5104 86.0608 39.5104C86.2514 39.5104 86.4149 39.548 86.5514 39.6233C86.6879 39.6986 86.7932 39.7986 86.8673 39.9233C86.9414 40.048 86.9784 40.1839 86.9784 40.331C86.9784 40.5015 86.9361 40.6545 86.8514 40.7898C86.7667 40.9239 86.649 41.0456 86.4985 41.155L85.7679 41.6897C85.6479 41.7768 85.562 41.865 85.5103 41.9544C85.4585 42.0426 85.4326 42.1179 85.4326 42.1803C85.4326 42.2756 85.4567 42.362 85.505 42.4397C85.5532 42.5173 85.6209 42.5797 85.7079 42.6267C85.7961 42.6726 85.8991 42.6955 86.0167 42.6955C86.1461 42.6955 86.2738 42.6667 86.3996 42.6091C86.5255 42.5503 86.6402 42.4667 86.7437 42.3585C86.8473 42.2503 86.9296 42.1209 86.9908 41.9703C87.052 41.8185 87.0825 41.6503 87.0825 41.4656H87.6313C87.6313 41.6938 87.6061 41.8926 87.5555 42.062C87.5049 42.2303 87.4396 42.3726 87.3596 42.4891C87.2796 42.6044 87.1949 42.6967 87.1055 42.7661C87.0773 42.7861 87.0502 42.8061 87.0243 42.8261C86.9984 42.8461 86.9714 42.8661 86.9431 42.8861C86.8161 43.0014 86.6673 43.0861 86.4967 43.1402C86.3273 43.1943 86.1608 43.2214 85.9973 43.2214ZM89.4732 43.1685V39.5545H90.1278V42.6197H91.7195V43.1685H89.4732ZM92.9424 39.5545V43.1685H92.2877V39.5545H92.9424ZM95.6154 40.548C95.5989 40.3939 95.5295 40.2739 95.4071 40.188C95.286 40.1021 95.1283 40.0592 94.9342 40.0592C94.7978 40.0592 94.6807 40.0798 94.5831 40.121C94.4854 40.1621 94.4107 40.218 94.3589 40.2886C94.3072 40.3592 94.2807 40.4398 94.2795 40.5304C94.2795 40.6056 94.2966 40.6709 94.3307 40.7262C94.366 40.7815 94.4137 40.8286 94.4736 40.8674C94.5336 40.905 94.6001 40.9368 94.6731 40.9627C94.746 40.9886 94.8195 41.0103 94.8936 41.028L95.2324 41.1127C95.3689 41.1444 95.5001 41.1874 95.6259 41.2415C95.753 41.2956 95.8665 41.3638 95.9665 41.4462C96.0677 41.5285 96.1477 41.6279 96.2065 41.7444C96.2653 41.8609 96.2947 41.9973 96.2947 42.1538C96.2947 42.3656 96.2406 42.552 96.1324 42.7132C96.0242 42.8732 95.8677 42.9985 95.663 43.089C95.4595 43.1785 95.213 43.2232 94.9236 43.2232C94.6425 43.2232 94.3984 43.1796 94.1913 43.0926C93.9854 43.0055 93.8243 42.8785 93.7078 42.7114C93.5925 42.5444 93.5302 42.3409 93.5208 42.1009H94.1648C94.1743 42.2267 94.2131 42.3314 94.2813 42.415C94.3495 42.4985 94.4384 42.5608 94.5478 42.602C94.6583 42.6432 94.7819 42.6638 94.9183 42.6638C95.0607 42.6638 95.1854 42.6426 95.2924 42.6003C95.4007 42.5567 95.4854 42.4967 95.5465 42.4203C95.6077 42.3426 95.6389 42.252 95.6401 42.1485C95.6389 42.0544 95.6112 41.9768 95.5571 41.9156C95.503 41.8532 95.4271 41.8015 95.3295 41.7603C95.233 41.7179 95.1201 41.6803 94.9907 41.6474L94.5795 41.5415C94.2819 41.465 94.0466 41.3491 93.8737 41.1938C93.7019 41.0374 93.616 40.8298 93.616 40.5709C93.616 40.358 93.6737 40.1715 93.789 40.0116C93.9054 39.8516 94.0637 39.7275 94.2637 39.6392C94.4636 39.5498 94.6901 39.5051 94.943 39.5051C95.1995 39.5051 95.4242 39.5498 95.6171 39.6392C95.8112 39.7275 95.9636 39.8504 96.0742 40.008C96.1847 40.1645 96.2418 40.3445 96.2453 40.548H95.6154ZM96.7196 40.1033V39.5545H99.603V40.1033H98.486V43.1685H97.8366V40.1033H96.7196ZM100.813 39.5545V43.1685H100.159V39.5545H100.813ZM104.492 39.5545V43.1685H103.91L102.207 40.7068H102.177V43.1685H101.522V39.5545H102.108L103.809 42.0179H103.841V39.5545H104.492ZM107.627 40.7086C107.597 40.6133 107.557 40.528 107.505 40.4527C107.454 40.3762 107.393 40.311 107.321 40.2568C107.251 40.2027 107.17 40.1621 107.078 40.1351C106.986 40.1068 106.886 40.0927 106.778 40.0927C106.584 40.0927 106.411 40.1415 106.259 40.2392C106.107 40.3368 105.988 40.4804 105.901 40.6698C105.815 40.858 105.772 41.0874 105.772 41.358C105.772 41.6309 105.815 41.8621 105.901 42.0515C105.987 42.2409 106.106 42.385 106.259 42.4838C106.412 42.5814 106.59 42.6302 106.792 42.6302C106.976 42.6302 107.134 42.595 107.268 42.5244C107.404 42.4538 107.508 42.3538 107.581 42.2244C107.654 42.0938 107.69 41.9409 107.69 41.7656L107.838 41.7885H106.857V41.2768H108.324V41.7109C108.324 42.0203 108.258 42.2879 108.126 42.5138C107.994 42.7397 107.813 42.9138 107.583 43.0361C107.352 43.1573 107.087 43.2179 106.788 43.2179C106.456 43.2179 106.163 43.1432 105.911 42.9938C105.661 42.8432 105.465 42.6297 105.324 42.3532C105.184 42.0756 105.114 41.7462 105.114 41.365C105.114 41.0733 105.155 40.8127 105.237 40.5833C105.321 40.3539 105.437 40.1592 105.587 39.9992C105.736 39.838 105.911 39.7157 106.113 39.6322C106.314 39.5475 106.533 39.5051 106.769 39.5051C106.969 39.5051 107.156 39.5345 107.328 39.5933C107.501 39.651 107.655 39.7333 107.789 39.8404C107.924 39.9474 108.035 40.0745 108.123 40.2215C108.21 40.3686 108.267 40.5309 108.294 40.7086H107.627Z" fill="#444444"/>
</g>
<defs>
<linearGradient id="paint0_linear_210_1352" x1="41.3628" y1="23.7089" x2="41.3628" y2="46.8983" gradientUnits="userSpaceOnUse">
<stop stop-color="#FA350C"/>
<stop offset="1" stop-color="#E32B05"/>
</linearGradient>
<clipPath id="clip0_210_1352">
<rect width="400" height="230" fill="white" transform="translate(0 0.5)"/>
</clipPath>
</defs>
</svg>
